<svg width="61" height="60" viewBox="0 0 61 60" fill="none" xmlns="http://www.w3.org/2000/svg">
    <g opacity="0.5">
        <g clip-path="url(#clip0_370_2866)">
            <path d="M30.5 40.819L45.2 44.3501V16.571L30.5 20.1022V40.819Z" fill="#205B97" />
            <path
                d="M45.1998 16.571L47.9998 17.9835V42.9376L45.1998 44.3501V16.571ZM30.4998 40.819L15.7998 44.3501V16.571L30.4998 20.1022V40.819Z"
                fill="#5193CE" />
            <path d="M15.8 16.571L13 17.9835V42.9376L15.8 44.3501V16.571Z" fill="#205B97" />
            <path d="M34.2345 50L39.8345 47.1751V13.8249L34.2345 11L32.5225 29.5194L34.2345 50Z" fill="#5193CE" />
            <path d="M26.766 50L21.166 47.1751V13.8249L26.766 11L28.4781 29.5194L26.766 50Z" fill="#205B97" />
            <path d="M26.7656 11H34.3096V49.9213H26.7656V11Z" fill="#2E73B7" />
        </g>
    </g>
    <defs>
        <clipPath id="clip0_370_2866">
            <rect width="35" height="39" fill="white" transform="translate(13 11)" />
        </clipPath>
    </defs>
</svg>