<svg width="16" height="16" viewBox="0 0 16 16" fill="none" xmlns="http://www.w3.org/2000/svg">
<path d="M1.33302 8.00065H2.66635C2.66477 7.29979 2.80158 6.60551 3.06894 5.95765C3.3363 5.30978 3.72895 4.72108 4.22435 4.22532C4.70955 3.73851 5.28524 3.35125 5.91902 3.08532C7.22535 2.54261 8.69222 2.53279 10.0057 3.05798C10.0185 3.48963 10.1992 3.89925 10.5093 4.19977C10.8194 4.5003 11.2345 4.66803 11.6664 4.66732C12.5904 4.66732 13.333 3.92465 13.333 3.00065C13.333 2.07665 12.5904 1.33398 11.6664 1.33398C11.207 1.33398 10.7917 1.51798 10.491 1.81732C8.87036 1.16865 7.00902 1.17865 5.40102 1.85665C4.60845 2.18978 3.88837 2.67414 3.28102 3.28265C2.67224 3.88965 2.18764 4.60953 1.85435 5.40198C1.50849 6.22461 1.33121 7.10828 1.33302 8.00065ZM12.915 10.082C12.6477 10.7167 12.2637 11.2873 11.775 11.776C11.2864 12.2647 10.7157 12.6487 10.0804 12.916C8.77403 13.4587 7.30716 13.4685 5.99369 12.9433C5.98084 12.5117 5.80017 12.1021 5.49006 11.8015C5.17995 11.501 4.76486 11.3333 4.33302 11.334C3.40902 11.334 2.66635 12.0767 2.66635 13.0007C2.66635 13.9247 3.40902 14.6673 4.33302 14.6673C4.79235 14.6673 5.20769 14.4833 5.50835 14.184C6.30002 14.5037 7.1459 14.6678 7.99969 14.6673C9.31071 14.6698 10.5933 14.2851 11.6864 13.5614C12.7796 12.8377 13.6347 11.8072 14.1444 10.5993C14.4907 9.77681 14.6682 8.8931 14.6664 8.00065H13.333C13.3347 8.71544 13.1925 9.42326 12.915 10.082Z" fill="#61656C"/>
<path d="M7.99994 4.97461C6.33194 4.97461 4.97461 6.33194 4.97461 7.99994C4.97461 9.66794 6.33194 11.0253 7.99994 11.0253C9.66794 11.0253 11.0253 9.66794 11.0253 7.99994C11.0253 6.33194 9.66794 4.97461 7.99994 4.97461ZM7.99994 9.69194C7.06728 9.69194 6.30794 8.93261 6.30794 7.99994C6.30794 7.06728 7.06728 6.30794 7.99994 6.30794C8.93261 6.30794 9.69194 7.06728 9.69194 7.99994C9.69194 8.93261 8.93261 9.69194 7.99994 9.69194Z" fill="#61656C"/>
</svg>
