<svg width="34" height="34" viewBox="0 0 34 34" fill="none" xmlns="http://www.w3.org/2000/svg">
    <circle cx="17" cy="17" r="16.5" fill="white" stroke="#6366F1" />
    <path
        d="M10.4833 12.5333C10.875 12.9167 11.4917 12.9333 11.9083 12.5833C12.2167 12.3167 12.4833 12.1583 12.6333 12.225C13.05 12.3917 12.6333 13.0833 12.3833 13.4917C12.175 13.8417 10 16.7333 10 18.75C10 19.8167 10.4 20.7 11.1167 21.2333C11.7417 21.7 12.5667 21.8417 13.3167 21.6167C14.2083 21.3583 14.9417 20.45 15.8667 19.3083C16.875 18.0667 18.225 16.4417 19.2667 16.4417C20.625 16.4417 20.6417 17.2833 20.7333 17.9333C17.5833 18.4667 16.25 20.9917 16.25 22.4083C16.25 23.825 17.45 24.9833 18.925 24.9833C20.2833 24.9833 22.5 23.875 22.8333 19.9H23.8417C24.1179 19.9 24.3829 19.7903 24.5782 19.5949C24.7736 19.3996 24.8833 19.1346 24.8833 18.8583C24.8833 18.5821 24.7736 18.3171 24.5782 18.1218C24.3829 17.9264 24.1179 17.8167 23.8417 17.8167H22.825C22.7 16.4417 21.9167 14.3167 19.4667 14.3167C17.5917 14.3167 15.9833 15.9083 15.35 16.6833C14.8667 17.2917 13.6333 18.75 13.4417 18.95C13.2333 19.2 12.875 19.65 12.5167 19.65C12.1417 19.65 11.9167 18.9583 12.2167 18.05C12.5083 17.1417 13.3833 15.6667 13.7583 15.1167C14.4083 14.1667 14.8417 13.5167 14.8417 12.3833C14.8417 10.575 13.475 10 12.75 10C11.8417 10 11.05 10.525 10.5 11.0167C10.0583 11.4167 10.0583 12.1167 10.4833 12.5333ZM18.95 22.9583C18.6917 22.9583 18.3333 22.7417 18.3333 22.3583C18.3333 21.8583 18.9417 20.525 20.725 20.0583C20.475 22.3 19.5333 22.9583 18.95 22.9583Z"
        fill="#6366F1" />
</svg>