<svg width="64" height="64" viewBox="0 0 64 64" fill="none" xmlns="http://www.w3.org/2000/svg">
    <rect width="64" height="64" fill="#383F4A" />
    <circle cx="32" cy="32" r="17" fill="#1CB87E" />
    <path
        d="M31.488 30.3811H29.7293C29.6791 30.0927 29.5866 29.8372 29.4518 29.6146C29.317 29.3889 29.1493 29.1976 28.9487 29.0409C28.748 28.8841 28.5192 28.7666 28.2621 28.6882C28.0082 28.6067 27.7339 28.5659 27.4392 28.5659C26.9156 28.5659 26.4516 28.6976 26.0472 28.9609C25.6428 29.2211 25.3262 29.6036 25.0973 30.1084C24.8685 30.61 24.754 31.2228 24.754 31.947C24.754 32.6838 24.8685 33.3045 25.0973 33.8092C25.3293 34.3108 25.6459 34.6902 26.0472 34.9472C26.4516 35.2012 26.914 35.3281 27.4345 35.3281C27.7229 35.3281 27.9925 35.2905 28.2433 35.2153C28.4972 35.1369 28.7245 35.0225 28.9252 34.872C29.1289 34.7215 29.2998 34.5365 29.4377 34.3171C29.5788 34.0976 29.676 33.8468 29.7293 33.5647L31.488 33.5741C31.4222 34.0318 31.2795 34.4613 31.0601 34.8626C30.8438 35.2639 30.5601 35.6181 30.2089 35.9253C29.8578 36.2294 29.4471 36.4677 28.9769 36.6401C28.5066 36.8094 27.9847 36.8941 27.4109 36.8941C26.5645 36.8941 25.809 36.6981 25.1443 36.3063C24.4797 35.9144 23.9562 35.3485 23.5737 34.6086C23.1912 33.8688 23 32.9816 23 31.947C23 30.9093 23.1928 30.0221 23.5784 29.2854C23.964 28.5456 24.4891 27.9797 25.1537 27.5878C25.8184 27.1959 26.5708 27 27.4109 27C27.947 27 28.4455 27.0752 28.9063 27.2257C29.3672 27.3762 29.7779 27.5972 30.1384 27.8888C30.4989 28.1772 30.7952 28.5314 31.0272 28.9515C31.2623 29.3685 31.4159 29.845 31.488 30.3811Z"
        fill="white" />
    <path
        d="M41 27.1317V36.7624H39.4482L34.9103 30.2024H34.8303V36.7624H33.0857V27.1317H34.6469L39.1801 33.6964H39.2648V27.1317H41Z"
        fill="white" />
</svg>