<svg width="20" height="20" viewBox="0 0 20 20" fill="none" xmlns="http://www.w3.org/2000/svg">
<path d="M10 14.7835C11.3807 14.7835 12.5 12.6419 12.5 10.0001C12.5 7.35837 11.3807 5.2168 10 5.2168C8.61929 5.2168 7.5 7.35837 7.5 10.0001C7.5 12.6419 8.61929 14.7835 10 14.7835Z" fill="#080D19"/>
<path d="M7.5335 14.0582C7.2585 14.1248 6.96683 14.1665 6.66683 14.1665C4.36683 14.1665 2.50016 12.2998 2.50016 9.99984C2.50016 7.69984 4.36683 5.83317 6.66683 5.83317C6.96683 5.83317 7.2585 5.87484 7.5335 5.9415C7.8585 5.47484 8.26683 5.00817 8.77516 4.58317C8.12516 4.32484 7.41683 4.1665 6.66683 4.1665C3.45016 4.1665 0.833496 6.78317 0.833496 9.99984C0.833496 13.2165 3.45016 15.8332 6.66683 15.8332C7.41683 15.8332 8.12516 15.6748 8.77516 15.4165C8.26683 14.9915 7.8585 14.5248 7.5335 14.0582ZM13.3335 4.1665C12.5835 4.1665 11.8752 4.32484 11.2252 4.58317C11.7335 5.00817 12.1418 5.47484 12.4668 5.9415C12.7418 5.87484 13.0335 5.83317 13.3335 5.83317C15.6335 5.83317 17.5002 7.69984 17.5002 9.99984C17.5002 12.2998 15.6335 14.1665 13.3335 14.1665C13.0335 14.1665 12.7418 14.1248 12.4668 14.0582C12.1418 14.5248 11.7335 14.9915 11.2252 15.4165C11.8752 15.6748 12.5835 15.8332 13.3335 15.8332C16.5502 15.8332 19.1668 13.2165 19.1668 9.99984C19.1668 6.78317 16.5502 4.1665 13.3335 4.1665Z" fill="#080D19"/>
</svg>
