<svg width="21" height="20" viewBox="0 0 21 20" fill="none" xmlns="http://www.w3.org/2000/svg">
<path d="M10.5 14.7835C11.8807 14.7835 13 12.6419 13 10.0001C13 7.35837 11.8807 5.2168 10.5 5.2168C9.11929 5.2168 8 7.35837 8 10.0001C8 12.6419 9.11929 14.7835 10.5 14.7835Z" fill="white"/>
<path d="M8.03594 14.0582C7.76094 14.1248 7.46927 14.1665 7.16927 14.1665C4.86927 14.1665 3.0026 12.2998 3.0026 9.99984C3.0026 7.69984 4.86927 5.83317 7.16927 5.83317C7.46927 5.83317 7.76094 5.87484 8.03594 5.9415C8.36094 5.47484 8.76927 5.00817 9.2776 4.58317C8.6276 4.32484 7.91927 4.1665 7.16927 4.1665C3.9526 4.1665 1.33594 6.78317 1.33594 9.99984C1.33594 13.2165 3.9526 15.8332 7.16927 15.8332C7.91927 15.8332 8.6276 15.6748 9.2776 15.4165C8.76927 14.9915 8.36094 14.5248 8.03594 14.0582ZM13.8359 4.1665C13.0859 4.1665 12.3776 4.32484 11.7276 4.58317C12.2359 5.00817 12.6443 5.47484 12.9693 5.9415C13.2443 5.87484 13.5359 5.83317 13.8359 5.83317C16.1359 5.83317 18.0026 7.69984 18.0026 9.99984C18.0026 12.2998 16.1359 14.1665 13.8359 14.1665C13.5359 14.1665 13.2443 14.1248 12.9693 14.0582C12.6443 14.5248 12.2359 14.9915 11.7276 15.4165C12.3776 15.6748 13.0859 15.8332 13.8359 15.8332C17.0526 15.8332 19.6693 13.2165 19.6693 9.99984C19.6693 6.78317 17.0526 4.1665 13.8359 4.1665Z" fill="white"/>
</svg>
