<svg width="20" height="20" viewBox="0 0 20 20" fill="none" xmlns="http://www.w3.org/2000/svg">
<path d="M10 14.7835C11.3807 14.7835 12.5 12.6419 12.5 10.0001C12.5 7.35837 11.3807 5.2168 10 5.2168C8.61929 5.2168 7.5 7.35837 7.5 10.0001C7.5 12.6419 8.61929 14.7835 10 14.7835Z" fill="#61656C"/>
<path d="M7.53594 14.0582C7.26094 14.1248 6.96927 14.1665 6.66927 14.1665C4.36927 14.1665 2.5026 12.2998 2.5026 9.99984C2.5026 7.69984 4.36927 5.83317 6.66927 5.83317C6.96927 5.83317 7.26094 5.87484 7.53594 5.9415C7.86094 5.47484 8.26927 5.00817 8.7776 4.58317C8.1276 4.32484 7.41927 4.1665 6.66927 4.1665C3.4526 4.1665 0.835938 6.78317 0.835938 9.99984C0.835938 13.2165 3.4526 15.8332 6.66927 15.8332C7.41927 15.8332 8.1276 15.6748 8.7776 15.4165C8.26927 14.9915 7.86094 14.5248 7.53594 14.0582ZM13.3359 4.1665C12.5859 4.1665 11.8776 4.32484 11.2276 4.58317C11.7359 5.00817 12.1443 5.47484 12.4693 5.9415C12.7443 5.87484 13.0359 5.83317 13.3359 5.83317C15.6359 5.83317 17.5026 7.69984 17.5026 9.99984C17.5026 12.2998 15.6359 14.1665 13.3359 14.1665C13.0359 14.1665 12.7443 14.1248 12.4693 14.0582C12.1443 14.5248 11.7359 14.9915 11.2276 15.4165C11.8776 15.6748 12.5859 15.8332 13.3359 15.8332C16.5526 15.8332 19.1693 13.2165 19.1693 9.99984C19.1693 6.78317 16.5526 4.1665 13.3359 4.1665Z" fill="#61656C"/>
</svg>
