<svg width="61" height="60" viewBox="0 0 61 60" fill="none" xmlns="http://www.w3.org/2000/svg">
    <path fill-rule="evenodd" clip-rule="evenodd"
        d="M15.389 9C13.6002 9 12.1504 10.4913 12.1504 12.3304V47.6696C12.1504 49.5094 13.6002 51 15.389 51H44.6111C46.3993 51 47.8504 49.5094 47.8504 47.6696V22.3307L35.7827 9L15.389 9Z"
        fill="#45B058" />
    <path
        d="M24.9505 37.3479C25.0332 37.4424 25.0805 37.5606 25.0805 37.6905C25.0805 37.9386 24.8797 38.163 24.6191 38.163C24.501 38.163 24.3711 38.1158 24.2884 38.0094C23.8277 37.4543 23.0474 37.0992 22.315 37.0992C20.5898 37.0992 19.2786 38.4229 19.2786 40.3017C19.2786 42.1688 20.5904 43.5036 22.315 43.5036C23.0592 43.5036 23.7916 43.1846 24.2884 42.6052C24.3704 42.5107 24.501 42.4523 24.6191 42.4523C24.8915 42.4523 25.0805 42.6878 25.0805 42.9366C25.0805 43.0547 25.0332 43.1728 24.9505 43.2673C24.3356 43.9052 23.4969 44.3783 22.3157 44.3783C20.047 44.3783 18.2627 42.7239 18.2627 40.3017C18.2627 37.8795 20.047 36.2251 22.3157 36.2251C23.4969 36.2258 24.3474 36.6983 24.9505 37.3479ZM29.4144 44.379C28.2449 44.379 27.3229 43.9892 26.6496 43.3979C26.5433 43.3034 26.496 43.1735 26.496 43.0435C26.496 42.8066 26.6732 42.5468 26.9567 42.5468C27.0512 42.5468 27.1575 42.5704 27.2402 42.6413C27.7836 43.1262 28.5396 43.5036 29.4498 43.5036C30.8561 43.5036 31.305 42.7476 31.305 42.1445C31.305 40.1121 26.6378 41.2349 26.6378 38.4222C26.6378 37.1228 27.7954 36.2363 29.3435 36.2363C30.3594 36.2363 31.2341 36.5427 31.872 37.0749C31.9783 37.1694 32.0374 37.2994 32.0374 37.4293C32.0374 37.6656 31.8366 37.9018 31.576 37.9018C31.4815 37.9018 31.3752 37.8664 31.2925 37.7955C30.7137 37.323 29.9932 37.1104 29.2719 37.1104C28.3269 37.1104 27.653 37.6183 27.653 38.3632C27.653 40.1357 32.3202 39.1192 32.3202 42.0618C32.3209 43.2089 31.5413 44.379 29.4144 44.379ZM40.5667 36.9936L37.8373 43.7759C37.7074 44.0948 37.3878 44.3075 37.0577 44.3075H37.0341C36.6915 44.3075 36.3726 44.0948 36.242 43.7759L33.5238 36.9936C33.5002 36.9345 33.4884 36.8754 33.4884 36.8046C33.4884 36.5683 33.7003 36.2842 34.0199 36.2842C34.2207 36.2842 34.4097 36.4023 34.4924 36.6031L37.0446 43.1603L39.5967 36.6031C39.6676 36.4141 39.8566 36.2842 40.0692 36.2842C40.3764 36.2842 40.6008 36.5322 40.6008 36.8046C40.6014 36.8636 40.5896 36.9345 40.5667 36.9936Z"
        fill="white" />
    <path fill-rule="evenodd" clip-rule="evenodd"
        d="M47.8496 22.3592V23.0155H39.6921C39.6921 23.0155 35.6694 22.1886 35.7867 18.614C35.7867 18.614 35.9193 22.3592 39.6124 22.3592H47.8496Z"
        fill="#349C42" />
    <path opacity="0.5" fill-rule="evenodd" clip-rule="evenodd"
        d="M35.7998 9.00391V18.5596C35.7998 19.6463 36.5034 22.3599 39.6899 22.3599H47.8474L35.7998 9.00391Z"
        fill="white" />
</svg>