<svg width="20" height="20" viewBox="0 0 20 20" fill="none" xmlns="http://www.w3.org/2000/svg">
<path d="M4.99984 15.8333C4.99984 16.75 5.74984 17.5 6.6665 17.5H13.3332C14.2498 17.5 14.9998 16.75 14.9998 15.8333V7.5C14.9998 6.58333 14.2498 5.83333 13.3332 5.83333H6.6665C5.74984 5.83333 4.99984 6.58333 4.99984 7.5V15.8333ZM7.49984 7.5H12.4998C12.9582 7.5 13.3332 7.875 13.3332 8.33333V15C13.3332 15.4583 12.9582 15.8333 12.4998 15.8333H7.49984C7.0415 15.8333 6.6665 15.4583 6.6665 15V8.33333C6.6665 7.875 7.0415 7.5 7.49984 7.5ZM12.9165 3.33333L12.3248 2.74167C12.1748 2.59167 11.9582 2.5 11.7415 2.5H8.25817C8.0415 2.5 7.82484 2.59167 7.67484 2.74167L7.08317 3.33333H4.99984C4.5415 3.33333 4.1665 3.70833 4.1665 4.16667C4.1665 4.625 4.5415 5 4.99984 5H14.9998C15.4582 5 15.8332 4.625 15.8332 4.16667C15.8332 3.70833 15.4582 3.33333 14.9998 3.33333H12.9165Z" fill="#61656C"/>
</svg>
