<svg width="20" height="20" viewBox="0 0 20 20" fill="none" xmlns="http://www.w3.org/2000/svg">
    <g clip-path="url(#clip0_121_7060)">
        <path
            d="M12.5 17.5V14.1667C12.5 13.7246 12.6756 13.3007 12.9882 12.9882C13.3007 12.6756 13.7246 12.5 14.1667 12.5H17.5"
            stroke="white" stroke-width="2" stroke-linecap="round" stroke-linejoin="round" />
        <path
            d="M5.83594 3.33398V5.00065C6.01571 5.51188 6.35672 5.95085 6.80762 6.25145C7.25852 6.55206 7.79489 6.698 8.33594 6.66732C8.77796 6.66732 9.20189 6.84291 9.51445 7.15547C9.82701 7.46803 10.0026 7.89196 10.0026 8.33398C10.0026 8.77601 10.1782 9.19994 10.4908 9.5125C10.8033 9.82506 11.2272 10.0007 11.6693 10.0007C12.1113 10.0007 12.5352 9.82506 12.8478 9.5125C13.1603 9.19994 13.3359 8.77601 13.3359 8.33398C13.3359 7.89196 13.5115 7.46803 13.8241 7.15547C14.1367 6.84291 14.5606 6.66732 15.0026 6.66732H17.5026"
            stroke="white" stroke-width="2" stroke-linecap="round" stroke-linejoin="round" />
        <path
            d="M2.5 9.16602H4.16667C4.60869 9.16602 5.03262 9.34161 5.34518 9.65417C5.65774 9.96673 5.83333 10.3907 5.83333 10.8327V11.666C5.83333 12.108 6.00893 12.532 6.32149 12.8445C6.63405 13.1571 7.05797 13.3327 7.5 13.3327C7.94203 13.3327 8.36595 13.5083 8.67851 13.8208C8.99107 14.1334 9.16667 14.5573 9.16667 14.9993V18.3327"
            stroke="white" stroke-width="2" stroke-linecap="round" stroke-linejoin="round" />
        <path
            d="M9.9974 18.3327C14.5998 18.3327 18.3307 14.6017 18.3307 9.99935C18.3307 5.39698 14.5998 1.66602 9.9974 1.66602C5.39502 1.66602 1.66406 5.39698 1.66406 9.99935C1.66406 14.6017 5.39502 18.3327 9.9974 18.3327Z"
            stroke="white" stroke-width="2" stroke-linecap="round" stroke-linejoin="round" />
    </g>
    <defs>
        <clipPath id="clip0_121_7060">
            <rect width="20" height="20" fill="white" />
        </clipPath>
    </defs>
</svg>