<svg width="20" height="20" viewBox="0 0 20 20" fill="none" xmlns="http://www.w3.org/2000/svg">
    <g clip-path="url(#clip0_51_2701)">
        <path
            d="M12.5 17.5V14.1667C12.5 13.7246 12.6756 13.3007 12.9882 12.9882C13.3007 12.6756 13.7246 12.5 14.1667 12.5H17.5"
            stroke="#17212F" stroke-width="2" stroke-linecap="round" stroke-linejoin="round" />
        <path
            d="M5.83325 3.33325V4.99992C6.01302 5.51115 6.35404 5.95012 6.80494 6.25072C7.25584 6.55132 7.79221 6.69727 8.33325 6.66659C8.77528 6.66659 9.1992 6.84218 9.51176 7.15474C9.82432 7.4673 9.99992 7.89122 9.99992 8.33325C9.99992 8.77528 10.1755 9.1992 10.4881 9.51176C10.8006 9.82432 11.2246 9.99992 11.6666 9.99992C12.1086 9.99992 12.5325 9.82432 12.8451 9.51176C13.1577 9.1992 13.3333 8.77528 13.3333 8.33325C13.3333 7.89122 13.5088 7.4673 13.8214 7.15474C14.134 6.84218 14.5579 6.66659 14.9999 6.66659H17.4999"
            stroke="#17212F" stroke-width="2" stroke-linecap="round" stroke-linejoin="round" />
        <path
            d="M2.5 9.16675H4.16667C4.60869 9.16675 5.03262 9.34234 5.34518 9.6549C5.65774 9.96746 5.83333 10.3914 5.83333 10.8334V11.6667C5.83333 12.1088 6.00893 12.5327 6.32149 12.8453C6.63405 13.1578 7.05797 13.3334 7.5 13.3334C7.94203 13.3334 8.36595 13.509 8.67851 13.8216C8.99107 14.1341 9.16667 14.5581 9.16667 15.0001V18.3334"
            stroke="#17212F" stroke-width="2" stroke-linecap="round" stroke-linejoin="round" />
        <path
            d="M10.0001 18.3334C14.6025 18.3334 18.3334 14.6025 18.3334 10.0001C18.3334 5.39771 14.6025 1.66675 10.0001 1.66675C5.39771 1.66675 1.66675 5.39771 1.66675 10.0001C1.66675 14.6025 5.39771 18.3334 10.0001 18.3334Z"
            stroke="#17212F" stroke-width="2" stroke-linecap="round" stroke-linejoin="round" />
    </g>
    <defs>
        <clipPath id="clip0_51_2701">
            <rect width="20" height="20" fill="white" />
        </clipPath>
    </defs>
</svg>