<svg width="25" height="25" viewBox="0 0 25 25" fill="none" xmlns="http://www.w3.org/2000/svg">
<path fill-rule="evenodd" clip-rule="evenodd" d="M21.2378 12.9493C21.2378 12.3227 21.1781 11.706 21.0786 11.1191H12.644V14.5904H17.4581C17.3572 15.1374 17.1465 15.6582 16.8388 16.1214C16.5311 16.5847 16.1327 16.9808 15.6678 17.2859V19.5338H18.5721C19.453 18.6843 20.1455 17.6592 20.6047 16.5248C21.0639 15.3905 21.2796 14.1723 21.2378 12.9493Z" fill="#4285F4"/>
<path fill-rule="evenodd" clip-rule="evenodd" d="M12.6449 21.7021C14.8251 21.7615 16.9456 20.9859 18.573 19.5338L15.6785 17.2859C14.9879 17.7374 14.2025 18.0237 13.3834 18.1225C12.5642 18.2214 11.7333 18.1303 10.955 17.8561C10.1768 17.5819 9.47218 17.1322 8.89587 16.5417C8.31956 15.9512 7.88704 15.2358 7.63188 14.4512H4.64795V16.7687C5.39275 18.2513 6.53497 19.4978 7.94709 20.369C9.35921 21.2401 10.9857 21.7017 12.6449 21.7021Z" fill="#34A853"/>
<path fill-rule="evenodd" clip-rule="evenodd" d="M7.62865 14.4511C7.26082 13.3471 7.26082 12.1535 7.62865 11.0495V8.73193H4.64472C4.01835 9.97884 3.69214 11.3549 3.69214 12.7503C3.69214 14.1457 4.01835 15.5217 4.64472 16.7686L7.62865 14.4511Z" fill="#FBBC05"/>
<path fill-rule="evenodd" clip-rule="evenodd" d="M12.6449 7.35873C13.9578 7.35873 15.1315 7.80632 16.0665 8.7015L18.6326 6.12537C17.6116 5.2032 16.3917 4.52878 15.0678 4.1545C13.7438 3.78022 12.3514 3.71615 10.9987 3.96726C9.646 4.21837 8.36936 4.7779 7.26794 5.60241C6.16653 6.42692 5.26999 7.4942 4.64795 8.72139L7.63188 11.0489C7.97563 9.98618 8.64444 9.05831 9.5439 8.3962C10.4434 7.73409 11.5281 7.37119 12.6449 7.35873Z" fill="#EA4335"/>
</svg>
