<svg width="61" height="60" viewBox="0 0 61 60" fill="none" xmlns="http://www.w3.org/2000/svg">
    <g opacity="0.5">
        <path
            d="M44.2505 13H38.0585C36.5608 13 35.3314 14.2303 35.3314 15.7289V23.7368H26.3675C24.9145 23.7368 23.7298 24.9224 23.7298 26.3987V35.3684H15.6601C14.1847 35.3684 13 36.5539 13 38.0303V44.2934C13 45.7697 14.1847 46.9553 15.6601 47H44.2728C45.7705 47 47 45.7697 47 44.2711V15.7289C46.9776 14.2303 45.7482 13 44.2505 13Z"
            fill="url(#paint0_linear_370_2814)" />
        <path
            d="M44.2505 13H38.0585C36.5608 13 35.3314 14.2303 35.3314 15.7289V23.7368H26.3675C24.9145 23.7368 23.7298 24.9224 23.7298 26.3987V35.3684H15.6601C14.1847 35.3684 13 36.5539 13 38.0303V44.2934C13 45.7697 14.1847 46.9553 15.6601 47H44.2728C45.7705 47 47 45.7697 47 44.2711V15.7289C46.9776 14.2303 45.7482 13 44.2505 13Z"
            fill="url(#paint1_linear_370_2814)" />
        <mask id="mask0_370_2814" style="mask-type:luminance" maskUnits="userSpaceOnUse" x="13" y="13" width="35"
            height="34">
            <path
                d="M44.2974 13H38.1461C36.6474 13 35.4172 14.2303 35.4172 15.7289V23.7368H26.4698C24.9935 23.7368 23.7856 24.9447 23.7856 26.4211V35.3684H15.7106C14.2343 35.3684 13.0264 36.5763 13.0264 38.0526V44.3158C13.0264 45.7921 14.2343 47 15.7106 47H44.2974C45.7961 47 47.0264 45.7697 47.0264 44.2711V15.7289C47.0264 14.2303 45.7961 13 44.2974 13Z"
                fill="white" />
        </mask>
        <g mask="url(#mask0_370_2814)">
            <path
                d="M44.2987 13H38.1474C36.6487 13 35.4185 14.2303 35.4185 15.7289V47H44.2987C45.7974 47 47.0277 45.7697 47.0277 44.2711V15.7289C47.0277 14.2303 45.7974 13 44.2987 13Z"
                fill="#F57C00" />
            <path
                d="M23.7632 26.421V35.3684H15.7106C14.2343 35.3684 13.0264 36.5763 13.0264 38.0526V44.3158C13.0264 45.7921 14.2343 47 15.7106 47H35.3948V23.7368H26.4474C24.9711 23.7368 23.7632 24.9447 23.7632 26.421Z"
                fill="#FFC107" />
        </g>
        <mask id="mask1_370_2814" style="mask-type:luminance" maskUnits="userSpaceOnUse" x="13" y="13" width="35"
            height="34">
            <path
                d="M44.2974 13H38.1461C36.6474 13 35.4172 14.2303 35.4172 15.7289V23.7368H26.4698C24.9935 23.7368 23.7856 24.9447 23.7856 26.4211V35.3684H15.7106C14.2343 35.3684 13.0264 36.5763 13.0264 38.0526V44.3158C13.0264 45.7921 14.2343 47 15.7106 47H44.2974C45.7961 47 47.0264 45.7697 47.0264 44.2711V15.7289C47.0264 14.2303 45.7961 13 44.2974 13Z"
                fill="white" />
        </mask>
        <g mask="url(#mask1_370_2814)">
            <path d="M35.3906 23.7368V47H44.2709C45.7696 47 46.9998 45.7697 46.9998 44.271V35.3684L35.3906 23.7368Z"
                fill="url(#paint2_linear_370_2814)" />
        </g>
        <mask id="mask2_370_2814" style="mask-type:luminance" maskUnits="userSpaceOnUse" x="13" y="13" width="35"
            height="34">
            <path
                d="M44.2994 13H38.1481C36.6494 13 35.4191 14.2303 35.4191 15.7289V23.7368H26.4717C24.9954 23.7368 23.7875 24.9447 23.7875 26.4211V35.3684H15.7125C14.2362 35.3684 13.0283 36.5763 13.0283 38.0526V44.3158C13.0283 45.7921 14.2362 47 15.7125 47H44.2994C45.7981 47 47.0283 45.7697 47.0283 44.2711V15.7289C47.0283 14.2303 45.7981 13 44.2994 13Z"
                fill="white" />
        </mask>
        <g mask="url(#mask2_370_2814)">
            <path opacity="0.2"
                d="M26.442 23.9605H35.3894V23.7368H26.442C24.9657 23.7368 23.7578 24.9447 23.7578 26.421V26.6447C23.7578 25.1684 24.9657 23.9605 26.442 23.9605Z"
                fill="white" />
        </g>
        <mask id="mask3_370_2814" style="mask-type:luminance" maskUnits="userSpaceOnUse" x="13" y="13" width="35"
            height="34">
            <path
                d="M44.2994 13H38.1481C36.6494 13 35.4191 14.2303 35.4191 15.7289V23.7368H26.4717C24.9954 23.7368 23.7875 24.9447 23.7875 26.4211V35.3684H15.7125C14.2362 35.3684 13.0283 36.5763 13.0283 38.0526V44.3158C13.0283 45.7921 14.2362 47 15.7125 47H44.2994C45.7981 47 47.0283 45.7697 47.0283 44.2711V15.7289C47.0283 14.2303 45.7981 13 44.2994 13Z"
                fill="white" />
        </mask>
        <g mask="url(#mask3_370_2814)">
            <path opacity="0.2"
                d="M15.7111 35.5921H23.7637V35.3684H15.7111C14.2348 35.3684 13.0269 36.5763 13.0269 38.0526V38.2763C13.0269 36.8 14.2348 35.5921 15.7111 35.5921Z"
                fill="white" />
        </g>
        <mask id="mask4_370_2814" style="mask-type:luminance" maskUnits="userSpaceOnUse" x="13" y="13" width="35"
            height="34">
            <path
                d="M44.2994 13H38.1481C36.6494 13 35.4191 14.2303 35.4191 15.7289V23.7368H26.4717C24.9954 23.7368 23.7875 24.9447 23.7875 26.4211V35.3684H15.7125C14.2362 35.3684 13.0283 36.5763 13.0283 38.0526V44.3158C13.0283 45.7921 14.2362 47 15.7125 47H44.2994C45.7981 47 47.0283 45.7697 47.0283 44.2711V15.7289C47.0283 14.2303 45.7981 13 44.2994 13Z"
                fill="white" />
        </mask>
        <g mask="url(#mask4_370_2814)">
            <path opacity="0.2"
                d="M44.2992 13H38.1479C36.6492 13 35.4189 14.2303 35.4189 15.7289V15.9526C35.4189 14.4539 36.6492 13.2237 38.1479 13.2237H44.2992C45.7979 13.2237 47.0282 14.4539 47.0282 15.9526V15.7289C47.0282 14.2303 45.7979 13 44.2992 13Z"
                fill="white" />
        </g>
        <mask id="mask5_370_2814" style="mask-type:luminance" maskUnits="userSpaceOnUse" x="13" y="13" width="35"
            height="34">
            <path
                d="M44.2994 13H38.1481C36.6494 13 35.4191 14.2303 35.4191 15.7289V23.7368H26.4717C24.9954 23.7368 23.7875 24.9447 23.7875 26.4211V35.3684H15.7125C14.2362 35.3684 13.0283 36.5763 13.0283 38.0526V44.3158C13.0283 45.7921 14.2362 47 15.7125 47H44.2994C45.7981 47 47.0283 45.7697 47.0283 44.2711V15.7289C47.0283 14.2303 45.7981 13 44.2994 13Z"
                fill="white" />
        </mask>
        <g mask="url(#mask5_370_2814)">
            <path opacity="0.2"
                d="M44.2979 46.7763H15.7111C14.2348 46.7763 13.0269 45.5684 13.0269 44.0921V44.3158C13.0269 45.7921 14.2348 47 15.7111 47H44.2755C45.7742 47 47.0045 45.7697 47.0045 44.271V44.0474C47.0269 45.546 45.7966 46.7763 44.2979 46.7763Z"
                fill="#BF360C" />
        </g>
        <path
            d="M44.2711 13H38.1197C36.6211 13 35.3908 14.2303 35.3908 15.7289V23.7368H26.4434C24.9671 23.7368 23.7592 24.9447 23.7592 26.4211V35.3684H15.6842C14.2079 35.3684 13 36.5763 13 38.0526V44.3158C13 45.7921 14.2079 47 15.6842 47H44.2711C45.7697 47 47 45.7697 47 44.2711V15.7289C47 14.2303 45.7697 13 44.2711 13Z"
            fill="url(#paint3_linear_370_2814)" />
    </g>
    <defs>
        <linearGradient id="paint0_linear_370_2814" x1="13" y1="30" x2="47" y2="30" gradientUnits="userSpaceOnUse">
            <stop stop-color="white" stop-opacity="0.1" />
            <stop offset="1" stop-color="white" stop-opacity="0" />
        </linearGradient>
        <linearGradient id="paint1_linear_370_2814" x1="13" y1="30" x2="47" y2="30" gradientUnits="userSpaceOnUse">
            <stop stop-color="white" stop-opacity="0.1" />
            <stop offset="1" stop-color="white" stop-opacity="0" />
        </linearGradient>
        <linearGradient id="paint2_linear_370_2814" x1="29.6308" y1="29.6085" x2="46.208" y2="46.1858"
            gradientUnits="userSpaceOnUse">
            <stop stop-color="#BF360C" stop-opacity="0.2" />
            <stop offset="1" stop-color="#BF360C" stop-opacity="0.02" />
        </linearGradient>
        <linearGradient id="paint3_linear_370_2814" x1="24.401" y1="24.4148" x2="46.3949" y2="46.4088"
            gradientUnits="userSpaceOnUse">
            <stop stop-color="white" stop-opacity="0.1" />
            <stop offset="1" stop-color="white" stop-opacity="0" />
        </linearGradient>
    </defs>
</svg>