<svg width="20" height="20" viewBox="0 0 20 20" fill="none" xmlns="http://www.w3.org/2000/svg">
<path d="M3.10052 5.03333C3.49219 5.41667 4.10885 5.43333 4.52552 5.08333C4.83385 4.81667 5.10052 4.65833 5.25052 4.725C5.66719 4.89167 5.25052 5.58333 5.00052 5.99167C4.79219 6.34167 2.61719 9.23333 2.61719 11.25C2.61719 12.3167 3.01719 13.2 3.73385 13.7333C4.35885 14.2 5.18385 14.3417 5.93385 14.1167C6.82552 13.8583 7.55885 12.95 8.48385 11.8083C9.49219 10.5667 10.8422 8.94167 11.8839 8.94167C13.2422 8.94167 13.2589 9.78333 13.3505 10.4333C10.2005 10.9667 8.86719 13.4917 8.86719 14.9083C8.86719 16.325 10.0672 17.4833 11.5422 17.4833C12.9005 17.4833 15.1172 16.375 15.4505 12.4H16.4589C16.7351 12.4 17.0001 12.2903 17.1954 12.0949C17.3908 11.8996 17.5005 11.6346 17.5005 11.3583C17.5005 11.0821 17.3908 10.8171 17.1954 10.6218C17.0001 10.4264 16.7351 10.3167 16.4589 10.3167H15.4422C15.3172 8.94167 14.5339 6.81667 12.0839 6.81667C10.2089 6.81667 8.60052 8.40833 7.96719 9.18333C7.48385 9.79167 6.25052 11.25 6.05885 11.45C5.85052 11.7 5.49219 12.15 5.13385 12.15C4.75885 12.15 4.53385 11.4583 4.83385 10.55C5.12552 9.64167 6.00052 8.16667 6.37552 7.61667C7.02552 6.66667 7.45885 6.01667 7.45885 4.88333C7.45885 3.075 6.09219 2.5 5.36719 2.5C4.45885 2.5 3.66719 3.025 3.11719 3.51667C2.67552 3.91667 2.67552 4.61667 3.10052 5.03333ZM11.5672 15.4583C11.3089 15.4583 10.9505 15.2417 10.9505 14.8583C10.9505 14.3583 11.5589 13.025 13.3422 12.5583C13.0922 14.8 12.1505 15.4583 11.5672 15.4583Z" fill="#61656C"/>
</svg>
