<svg width="20" height="20" viewBox="0 0 20 20" fill="none" xmlns="http://www.w3.org/2000/svg">
<path d="M3.10003 5.03333C3.4917 5.41667 4.10837 5.43333 4.52503 5.08333C4.83337 4.81667 5.10003 4.65833 5.25003 4.725C5.6667 4.89167 5.25003 5.58333 5.00003 5.99167C4.7917 6.34167 2.6167 9.23333 2.6167 11.25C2.6167 12.3167 3.0167 13.2 3.73337 13.7333C4.35837 14.2 5.18337 14.3417 5.93337 14.1167C6.82503 13.8583 7.55837 12.95 8.48337 11.8083C9.4917 10.5667 10.8417 8.94167 11.8834 8.94167C13.2417 8.94167 13.2584 9.78333 13.35 10.4333C10.2 10.9667 8.8667 13.4917 8.8667 14.9083C8.8667 16.325 10.0667 17.4833 11.5417 17.4833C12.9 17.4833 15.1167 16.375 15.45 12.4H16.4584C16.7346 12.4 16.9996 12.2903 17.1949 12.0949C17.3903 11.8996 17.5 11.6346 17.5 11.3583C17.5 11.0821 17.3903 10.8171 17.1949 10.6218C16.9996 10.4264 16.7346 10.3167 16.4584 10.3167H15.4417C15.3167 8.94167 14.5334 6.81667 12.0834 6.81667C10.2084 6.81667 8.60003 8.40833 7.9667 9.18333C7.48337 9.79167 6.25003 11.25 6.05837 11.45C5.85003 11.7 5.4917 12.15 5.13337 12.15C4.75837 12.15 4.53337 11.4583 4.83337 10.55C5.12503 9.64167 6.00003 8.16667 6.37503 7.61667C7.02503 6.66667 7.45837 6.01667 7.45837 4.88333C7.45837 3.075 6.0917 2.5 5.3667 2.5C4.45837 2.5 3.6667 3.025 3.1167 3.51667C2.67503 3.91667 2.67503 4.61667 3.10003 5.03333ZM11.5667 15.4583C11.3084 15.4583 10.95 15.2417 10.95 14.8583C10.95 14.3583 11.5584 13.025 13.3417 12.5583C13.0917 14.8 12.15 15.4583 11.5667 15.4583Z" fill="#6366F1"/>
</svg>
