<svg width="156" height="28" viewBox="0 0 156 28" fill="none" xmlns="http://www.w3.org/2000/svg">
<path d="M23.8993 4.10071C21.2552 1.4566 17.7393 0 14 0C10.2607 0 6.74482 1.45604 4.10071 4.10071C1.4566 6.74482 0 10.2607 0 14C0 17.7393 1.45604 21.2552 4.10071 23.8993C6.74482 26.5434 10.2607 28 14 28C17.7393 28 21.2552 26.544 23.8993 23.8993C26.5434 21.2552 28 17.7393 28 14C28 10.2607 26.544 6.74482 23.8993 4.10071ZM9.19712 22.5333C9.24216 22.4633 9.31554 22.4227 9.39893 22.4227H18.5999C18.6833 22.4227 18.7567 22.4633 18.8018 22.5333C18.8468 22.6034 18.8524 22.6868 18.8179 22.7618C18.4443 23.5724 17.7994 24.2657 16.9543 24.766C16.0848 25.2803 15.063 25.5527 13.9994 25.5527C12.9359 25.5527 11.9141 25.2808 11.0446 24.766C10.199 24.2657 9.5546 23.5724 9.181 22.7618C9.14653 22.6868 9.15209 22.6034 9.19712 22.5333ZM6.16774 3.24732C6.22 3.21007 6.29394 3.22175 6.33174 3.27289L14 13.6976L21.6683 3.27289C21.7061 3.22175 21.7794 3.21007 21.8323 3.24732C22.545 3.75101 23.2094 4.32698 23.8064 4.95854C23.8476 5.00191 23.8509 5.06695 23.8148 5.11365L15.8836 15.1953C15.4321 15.769 14.7455 16.0982 14 16.0982C13.2545 16.0982 12.5679 15.769 12.1164 15.1953L4.18521 5.11365C4.14908 5.06751 4.15241 5.00246 4.19355 4.95854C4.7912 4.32698 5.45556 3.75101 6.16774 3.24732ZM26.3633 18.8457C25.9991 19.7636 25.5293 20.6436 24.9684 21.4609C24.9423 21.4992 24.8978 21.522 24.85 21.522H3.14892C3.1011 21.522 3.05718 21.4992 3.0305 21.4609C2.46899 20.6436 1.99976 19.7636 1.63561 18.8457C1.61838 18.8018 1.62338 18.754 1.65062 18.7145C1.67787 18.6739 1.72179 18.6505 1.77071 18.6505H26.2287C26.2777 18.6505 26.321 18.6739 26.3488 18.7145C26.3755 18.754 26.3811 18.8018 26.3638 18.8457H26.3633ZM1.41323 9.54071C1.42435 9.51013 1.44826 9.4979 1.4616 9.49289C1.46771 9.49067 1.47661 9.48845 1.48773 9.48845C1.49996 9.48845 1.51442 9.49122 1.52943 9.50068L12.2638 16.3923C13.285 17.0477 14.6043 17.0477 15.625 16.3923L26.3594 9.50068C26.3872 9.48289 26.4139 9.48789 26.4272 9.49233C26.4405 9.49678 26.4645 9.50902 26.4756 9.54015C26.7991 10.4502 27.0232 11.3987 27.141 12.3594C27.1444 12.3883 27.1305 12.4172 27.1055 12.4333L19.49 17.3224C19.0397 17.6115 18.5193 17.7638 17.9845 17.7638H9.90374C9.36891 17.7638 8.84854 17.6109 8.39822 17.3224L0.782782 12.4333C0.757764 12.4172 0.743309 12.3877 0.7472 12.3588C0.865062 11.3981 1.08911 10.4497 1.41268 9.53959L1.41323 9.54071Z" fill="#6366F1"/>
<path d="M35.747 16.9399C35.775 19.8799 37.035 21.4759 39.303 21.4759C41.627 21.4759 42.943 19.7959 42.943 16.7999V3.91992H45.967V16.7999C45.967 21.3359 43.335 24.2479 39.275 24.2479C35.411 24.2479 32.695 21.3079 32.667 17.1639L35.747 16.9399Z" fill="#080D19"/>
<path d="M48.6388 16.3799C48.6388 11.6759 51.4108 8.62392 55.7228 8.62392C59.2788 8.62392 62.2748 11.0039 62.4148 16.2679L62.4428 17.2199H51.7748C51.9708 19.9919 53.3988 21.6159 55.7228 21.6159C57.1788 21.6159 58.5228 20.7479 59.1108 19.3199L62.2188 19.5439C61.3508 22.3719 58.7468 24.1359 55.7228 24.1359C51.4108 24.1359 48.6388 21.0839 48.6388 16.3799ZM51.8308 15.0079H59.3068C58.9708 12.1799 57.4028 11.1439 55.7228 11.1439C53.5668 11.1439 52.1668 12.5719 51.8308 15.0079Z" fill="#080D19"/>
<path d="M65.0523 8.95992H67.7683L67.8523 11.7599C68.3843 9.85592 69.5043 8.95992 71.4083 8.95992H72.8363V11.3959H71.3803C69.0563 11.3959 68.0203 12.6839 68.0203 15.1479V23.7999H65.0523V8.95992Z" fill="#080D19"/>
<path d="M74.8829 8.95992H77.5989L77.6829 11.7599C78.2149 9.85592 79.3349 8.95992 81.2389 8.95992H82.6669V11.3959H81.2109C78.8869 11.3959 77.8509 12.6839 77.8509 15.1479V23.7999H74.8829V8.95992Z" fill="#080D19"/>
<path d="M83.9678 8.95992H86.9638L91.1638 20.6639L95.2518 8.95992H98.2478L92.2838 25.5359C91.6958 27.2159 90.5478 27.9999 88.6998 27.9999H86.5438V25.5919H88.3078C89.0918 25.5919 89.5118 25.3119 89.7918 24.5839L90.2678 23.3519H89.3718L83.9678 8.95992Z" fill="#080D19"/>
<path d="M112.538 3.91992V23.7999H109.766L109.682 21.6719C108.842 23.1839 107.106 24.1359 105.062 24.1359C101.198 24.1359 98.7901 21.1399 98.7901 16.3799C98.7901 11.6199 101.198 8.62392 105.062 8.62392C106.994 8.62392 108.73 9.51992 109.57 10.9479V3.91992H112.538ZM101.87 16.3799C101.87 19.5719 103.438 21.5879 105.818 21.5879C108.254 21.5879 109.794 19.5719 109.794 16.3799C109.794 13.1319 108.254 11.0879 105.818 11.0879C103.41 11.0879 101.87 13.1319 101.87 16.3799Z" fill="#080D19"/>
<path d="M115.571 13.4119C116.159 10.4159 118.511 8.62392 121.927 8.62392C125.959 8.62392 128.171 10.8639 128.171 14.9239V20.4399C128.171 21.1959 128.507 21.4759 129.095 21.4759H129.683V23.7999H128.759C127.415 23.8279 125.595 23.6039 125.455 21.5039C124.783 22.9319 123.131 24.1359 120.667 24.1359C117.671 24.1359 115.319 22.5399 115.319 19.9079C115.319 16.9399 117.531 16.0719 120.947 15.4279L125.203 14.5879C125.175 12.2079 124.083 11.0319 121.927 11.0319C120.191 11.0319 119.043 11.9279 118.651 13.6079L115.571 13.4119ZM118.399 19.8519C118.399 20.9439 119.351 21.8399 121.311 21.8399C123.523 21.8119 125.259 20.2439 125.259 17.0519V16.8559L122.095 17.4159C120.051 17.7799 118.399 17.9759 118.399 19.8519Z" fill="#080D19"/>
<path d="M132.398 5.59992H135.366V8.95992H139.286V11.3679H135.366V19.5439C135.366 20.7479 135.954 21.3639 137.102 21.3639H139.258V23.7999H136.794C133.938 23.7999 132.398 22.3159 132.398 19.5439V11.3679H130.13V8.95992H132.398V5.59992Z" fill="#080D19"/>
<path d="M141.193 13.4119C141.781 10.4159 144.133 8.62392 147.549 8.62392C151.581 8.62392 153.793 10.8639 153.793 14.9239V20.4399C153.793 21.1959 154.129 21.4759 154.717 21.4759H155.305V23.7999H154.381C153.037 23.8279 151.217 23.6039 151.077 21.5039C150.405 22.9319 148.753 24.1359 146.289 24.1359C143.293 24.1359 140.941 22.5399 140.941 19.9079C140.941 16.9399 143.153 16.0719 146.569 15.4279L150.825 14.5879C150.797 12.2079 149.705 11.0319 147.549 11.0319C145.813 11.0319 144.665 11.9279 144.273 13.6079L141.193 13.4119ZM144.021 19.8519C144.021 20.9439 144.973 21.8399 146.933 21.8399C149.145 21.8119 150.881 20.2439 150.881 17.0519V16.8559L147.717 17.4159C145.673 17.7799 144.021 17.9759 144.021 19.8519Z" fill="#080D19"/>
</svg>
