<svg width="219" height="48" viewBox="0 0 219 48" fill="none" xmlns="http://www.w3.org/2000/svg">
<path d="M28 45H42V31H28V45Z" fill="#4187F5"/>
<path d="M28 3L14 17H28V31L42 17V3H28Z" fill="#4187F5"/>
<path d="M14 45L28 31H14V17L0 31V45H14Z" fill="#4187F5"/>
<path d="M0 17H14V3H0V17Z" fill="#4187F5"/>
<path d="M59.0029 39V9.90909H69.912C72.1468 9.90909 74.0218 10.2973 75.537 11.0739C77.0616 11.8504 78.2122 12.9394 78.9887 14.3409C79.7747 15.733 80.1677 17.357 80.1677 19.2131C80.1677 21.0786 79.77 22.6979 78.9745 24.071C78.1885 25.4347 77.0285 26.4905 75.4944 27.2386C73.9603 27.9773 72.0758 28.3466 69.841 28.3466H62.0711V23.9716H69.1308C70.4376 23.9716 71.5076 23.7917 72.341 23.4318C73.1743 23.0625 73.7898 22.5275 74.1876 21.8267C74.5948 21.1165 74.7984 20.2453 74.7984 19.2131C74.7984 18.1809 74.5948 17.3002 74.1876 16.571C73.7804 15.8324 73.1601 15.2737 72.3268 14.8949C71.4934 14.5066 70.4186 14.3125 69.1023 14.3125H64.2728V39H59.0029ZM74.0313 25.8182L81.233 39H75.3523L68.2785 25.8182H74.0313ZM89.8697 39.4403C88.4871 39.4403 87.2418 39.1941 86.1339 38.7017C85.0354 38.1998 84.1642 37.4612 83.5202 36.4858C82.8858 35.5104 82.5685 34.3078 82.5685 32.8778C82.5685 31.6468 82.7958 30.6288 83.2504 29.8239C83.7049 29.0189 84.3252 28.375 85.1111 27.892C85.8971 27.4091 86.7825 27.0445 87.7674 26.7983C88.7617 26.5426 89.7892 26.358 90.8498 26.2443C92.1282 26.1117 93.1651 25.9934 93.9606 25.8892C94.756 25.7756 95.3337 25.6051 95.6935 25.3778C96.0629 25.1411 96.2475 24.7765 96.2475 24.2841V24.1989C96.2475 23.1288 95.9303 22.3002 95.2958 21.7131C94.6613 21.1259 93.7475 20.8324 92.5543 20.8324C91.2949 20.8324 90.2958 21.107 89.5572 21.6562C88.828 22.2055 88.3356 22.8542 88.0799 23.6023L83.2788 22.9205C83.6575 21.5947 84.2825 20.4867 85.1538 19.5966C86.025 18.697 87.0903 18.0246 88.3498 17.5795C89.6093 17.125 91.0013 16.8977 92.5259 16.8977C93.5771 16.8977 94.6235 17.0208 95.6651 17.267C96.7068 17.5133 97.6585 17.9205 98.5202 18.4886C99.382 19.0473 100.073 19.8097 100.594 20.7756C101.124 21.7415 101.39 22.9489 101.39 24.3977V39H96.4464V36.0028H96.2759C95.9634 36.6089 95.5231 37.1771 94.9549 37.7074C94.3962 38.2282 93.6907 38.6496 92.8384 38.9716C91.9956 39.2841 91.006 39.4403 89.8697 39.4403ZM91.2049 35.6619C92.2371 35.6619 93.132 35.4583 93.8896 35.0511C94.6471 34.6345 95.2295 34.0852 95.6367 33.4034C96.0534 32.7216 96.2617 31.9782 96.2617 31.1733V28.6023C96.1007 28.7348 95.8261 28.858 95.4379 28.9716C95.0591 29.0852 94.6329 29.1847 94.1594 29.2699C93.686 29.3551 93.2172 29.4309 92.7532 29.4972C92.2892 29.5634 91.8867 29.6203 91.5458 29.6676C90.7788 29.7718 90.0922 29.9422 89.4861 30.179C88.8801 30.4157 88.4019 30.7472 88.0515 31.1733C87.7011 31.59 87.5259 32.1297 87.5259 32.7926C87.5259 33.7396 87.8716 34.4545 88.5629 34.9375C89.2541 35.4205 90.1348 35.6619 91.2049 35.6619ZM105.36 47.1818V17.1818H110.417V20.7898H110.715C110.98 20.2595 111.354 19.696 111.837 19.0994C112.32 18.4934 112.974 17.9773 113.798 17.5511C114.621 17.1155 115.673 16.8977 116.951 16.8977C118.637 16.8977 120.156 17.3286 121.511 18.1903C122.874 19.0426 123.954 20.3068 124.749 21.983C125.554 23.6496 125.957 25.6951 125.957 28.1193C125.957 30.5152 125.564 32.5511 124.778 34.2273C123.992 35.9034 122.922 37.1818 121.567 38.0625C120.213 38.9432 118.679 39.3835 116.965 39.3835C115.715 39.3835 114.678 39.1752 113.854 38.7585C113.03 38.3419 112.368 37.84 111.866 37.2528C111.373 36.6562 110.99 36.0928 110.715 35.5625H110.502V47.1818H105.36ZM110.403 28.0909C110.403 29.5019 110.601 30.7377 110.999 31.7983C111.406 32.8589 111.989 33.6875 112.746 34.2841C113.513 34.8712 114.441 35.1648 115.53 35.1648C116.667 35.1648 117.619 34.8617 118.386 34.2557C119.153 33.6402 119.73 32.8021 120.119 31.7415C120.516 30.6714 120.715 29.4545 120.715 28.0909C120.715 26.7367 120.521 25.5341 120.133 24.483C119.744 23.4318 119.167 22.608 118.4 22.0114C117.633 21.4148 116.676 21.1165 115.53 21.1165C114.432 21.1165 113.499 21.4053 112.732 21.983C111.965 22.5606 111.383 23.3703 110.985 24.4119C110.597 25.4536 110.403 26.6799 110.403 28.0909ZM140.055 17.1818V21.1591H127.512V17.1818H140.055ZM130.609 11.9545H135.751V32.4375C135.751 33.1288 135.855 33.6591 136.063 34.0284C136.281 34.3883 136.565 34.6345 136.916 34.767C137.266 34.8996 137.654 34.9659 138.08 34.9659C138.402 34.9659 138.696 34.9422 138.961 34.8949C139.236 34.8475 139.444 34.8049 139.586 34.767L140.453 38.7869C140.178 38.8816 139.785 38.9858 139.274 39.0994C138.772 39.2131 138.156 39.2794 137.427 39.2983C136.139 39.3362 134.979 39.142 133.947 38.7159C132.915 38.2803 132.096 37.608 131.49 36.6989C130.893 35.7898 130.599 34.6534 130.609 33.2898V11.9545ZM152.438 39.4261C150.307 39.4261 148.461 38.9574 146.898 38.0199C145.336 37.0824 144.124 35.7708 143.262 34.0852C142.41 32.3996 141.983 30.4299 141.983 28.1761C141.983 25.9223 142.41 23.9479 143.262 22.2528C144.124 20.5578 145.336 19.2415 146.898 18.304C148.461 17.3665 150.307 16.8977 152.438 16.8977C154.569 16.8977 156.415 17.3665 157.978 18.304C159.54 19.2415 160.748 20.5578 161.6 22.2528C162.462 23.9479 162.893 25.9223 162.893 28.1761C162.893 30.4299 162.462 32.3996 161.6 34.0852C160.748 35.7708 159.54 37.0824 157.978 38.0199C156.415 38.9574 154.569 39.4261 152.438 39.4261ZM152.466 35.3068C153.622 35.3068 154.588 34.9896 155.364 34.3551C156.141 33.7112 156.718 32.8494 157.097 31.7699C157.485 30.6903 157.679 29.4877 157.679 28.1619C157.679 26.8267 157.485 25.6193 157.097 24.5398C156.718 23.4508 156.141 22.5843 155.364 21.9403C154.588 21.2964 153.622 20.9744 152.466 20.9744C151.283 20.9744 150.298 21.2964 149.512 21.9403C148.735 22.5843 148.153 23.4508 147.765 24.5398C147.386 25.6193 147.197 26.8267 147.197 28.1619C147.197 29.4877 147.386 30.6903 147.765 31.7699C148.153 32.8494 148.735 33.7112 149.512 34.3551C150.298 34.9896 151.283 35.3068 152.466 35.3068ZM166.057 39V17.1818H171.043V20.8182H171.27C171.668 19.5587 172.35 18.5881 173.315 17.9062C174.291 17.215 175.403 16.8693 176.653 16.8693C176.938 16.8693 177.255 16.8835 177.605 16.9119C177.965 16.9309 178.263 16.964 178.5 17.0114V21.7415C178.282 21.6657 177.937 21.5994 177.463 21.5426C176.999 21.4763 176.549 21.4432 176.114 21.4432C175.176 21.4432 174.333 21.6468 173.585 22.054C172.847 22.4517 172.264 23.0057 171.838 23.7159C171.412 24.4261 171.199 25.2453 171.199 26.1733V39H166.057Z" fill="#17212F"/>
<path d="M186.213 9.90909V39H180.944V9.90909H186.213ZM201.558 29.2273H206.331L209.158 32.892L211.175 35.2784L216.018 41.5H210.905L207.609 37.3239L206.203 35.3352L201.558 29.2273ZM216.714 24.4545C216.714 27.589 216.127 30.2737 214.953 32.5085C213.788 34.7339 212.197 36.4384 210.18 37.6222C208.173 38.8059 205.895 39.3977 203.348 39.3977C200.801 39.3977 198.518 38.8059 196.501 37.6222C194.494 36.429 192.903 34.7197 191.729 32.4943C190.564 30.2595 189.981 27.5795 189.981 24.4545C189.981 21.3201 190.564 18.6402 191.729 16.4148C192.903 14.1799 194.494 12.4706 196.501 11.2869C198.518 10.1032 200.801 9.51136 203.348 9.51136C205.895 9.51136 208.173 10.1032 210.18 11.2869C212.197 12.4706 213.788 14.1799 214.953 16.4148C216.127 18.6402 216.714 21.3201 216.714 24.4545ZM211.416 24.4545C211.416 22.2481 211.07 20.3873 210.379 18.8722C209.697 17.3475 208.75 16.197 207.538 15.4205C206.326 14.6345 204.929 14.2415 203.348 14.2415C201.767 14.2415 200.37 14.6345 199.158 15.4205C197.945 16.197 196.994 17.3475 196.302 18.8722C195.621 20.3873 195.28 22.2481 195.28 24.4545C195.28 26.661 195.621 28.5265 196.302 30.0511C196.994 31.5663 197.945 32.7169 199.158 33.5028C200.37 34.2794 201.767 34.6676 203.348 34.6676C204.929 34.6676 206.326 34.2794 207.538 33.5028C208.75 32.7169 209.697 31.5663 210.379 30.0511C211.07 28.5265 211.416 26.661 211.416 24.4545Z" fill="#4187F5"/>
</svg>
