<svg width="21" height="20" viewBox="0 0 21 20" fill="none" xmlns="http://www.w3.org/2000/svg">
<path d="M12.2158 8.28353L11.3325 7.8752C11.2597 7.84205 11.198 7.78868 11.1548 7.72145C11.1115 7.65422 11.0885 7.57597 11.0885 7.49603C11.0885 7.41609 11.1115 7.33784 11.1548 7.27061C11.198 7.20338 11.2597 7.15001 11.3325 7.11686L12.2158 6.70853L12.6241 5.83353C12.6573 5.76078 12.7106 5.69911 12.7779 5.65586C12.8451 5.61261 12.9233 5.58962 13.0033 5.58962C13.0832 5.58962 13.1615 5.61261 13.2287 5.65586C13.2959 5.69911 13.3493 5.76078 13.3825 5.83353L13.7908 6.71686L14.6658 7.1252C14.7385 7.15834 14.8002 7.21171 14.8435 7.27894C14.8867 7.34617 14.9097 7.42442 14.9097 7.50436C14.9097 7.5843 14.8867 7.66255 14.8435 7.72979C14.8002 7.79702 14.7385 7.85039 14.6658 7.88353L13.7825 8.29186L13.3741 9.16686C13.341 9.23961 13.2876 9.30128 13.2204 9.34453C13.1531 9.38778 13.0749 9.41078 12.995 9.41078C12.915 9.41078 12.8368 9.38778 12.7695 9.34453C12.7023 9.30128 12.6489 9.23961 12.6158 9.16686L12.2158 8.28353ZM4.20745 10.8335L4.61579 9.9502L5.49912 9.54186C5.57187 9.50872 5.63354 9.45535 5.67679 9.38812C5.72004 9.32089 5.74303 9.24264 5.74303 9.1627C5.74303 9.08276 5.72004 9.0045 5.67679 8.93727C5.63354 8.87004 5.57187 8.81667 5.49912 8.78353L4.61579 8.3752L4.20745 7.5002C4.17533 7.42753 4.12279 7.36576 4.05622 7.3224C3.98964 7.27904 3.91191 7.25595 3.83245 7.25595C3.753 7.25595 3.67527 7.27904 3.60869 7.3224C3.54212 7.36576 3.48958 7.42753 3.45745 7.5002L3.04912 8.38353L2.16579 8.79186C2.09304 8.82501 2.03137 8.87838 1.98812 8.94561C1.94487 9.01284 1.92187 9.09109 1.92188 9.17103C1.92187 9.25097 1.94487 9.32922 1.98812 9.39645C2.03137 9.46368 2.09304 9.51705 2.16579 9.5502L3.04912 9.95853L3.45745 10.8335C3.59912 11.1585 4.06579 11.1585 4.20745 10.8335ZM7.96579 6.65853L8.49079 5.49186L9.65745 4.96686C9.7302 4.93372 9.79188 4.88035 9.83512 4.81312C9.87837 4.74589 9.90137 4.66764 9.90137 4.5877C9.90137 4.50776 9.87837 4.4295 9.83512 4.36227C9.79188 4.29504 9.7302 4.24167 9.65745 4.20853L8.49079 3.68353L7.96579 2.51686C7.93264 2.44412 7.87927 2.38244 7.81204 2.33919C7.74481 2.29594 7.66656 2.27295 7.58662 2.27295C7.50668 2.27295 7.42843 2.29594 7.3612 2.33919C7.29397 2.38244 7.2406 2.44412 7.20746 2.51686L6.68246 3.68353L5.51579 4.20853C5.44304 4.24167 5.38137 4.29504 5.33812 4.36227C5.29487 4.4295 5.27187 4.50776 5.27187 4.5877C5.27187 4.66764 5.29487 4.74589 5.33812 4.81312C5.38137 4.88035 5.44304 4.93372 5.51579 4.96686L6.68246 5.49186L7.20746 6.65853C7.34912 6.98353 7.81579 6.98353 7.96579 6.65853ZM19.1158 6.89186C19.0357 6.81202 18.9402 6.74932 18.8351 6.70757C18.73 6.66581 18.6175 6.64589 18.5045 6.64901C18.3914 6.65213 18.2802 6.67822 18.1776 6.7257C18.0749 6.77319 17.983 6.84106 17.9075 6.9252L12.5825 12.9085L9.84079 10.1669C9.76369 10.0896 9.67212 10.0283 9.57131 9.9865C9.4705 9.94468 9.36243 9.92316 9.25329 9.92316C9.14415 9.92316 9.03608 9.94468 8.93527 9.9865C8.83446 10.0283 8.74288 10.0896 8.66579 10.1669L3.63245 15.2085C3.29079 15.5502 3.29079 16.1169 3.63245 16.4585C3.97412 16.8002 4.54079 16.8002 4.88246 16.4585L9.25745 12.0752L11.9658 14.7835C12.3075 15.1252 12.8575 15.1085 13.1741 14.7502L19.1491 8.0252C19.4408 7.7002 19.4241 7.2002 19.1158 6.89186Z" fill="white"/>
</svg>
