<svg width="61" height="60" viewBox="0 0 61 60" fill="none" xmlns="http://www.w3.org/2000/svg">
    <g opacity="0.5">
        <g clip-path="url(#clip0_370_2856)">
            <path
                d="M54.8561 13.0009C54.0538 13.0271 54.3075 13.2613 52.574 13.6937C50.8234 14.1304 48.6851 13.9963 46.8001 14.7978C41.1728 17.1902 40.0438 25.3664 34.9281 28.2953C31.1043 30.4846 27.2463 30.6592 23.7778 31.7611C21.4984 32.4856 19.0048 33.9715 16.9397 35.7756C15.3367 37.1762 15.2949 38.408 13.6199 40.165C11.8285 42.0441 6.4996 40.1967 4.08447 43.0729C4.86237 43.8703 5.20359 44.0937 6.73663 43.8868C6.41938 44.4966 4.54816 45.0105 4.91436 45.9077C5.29986 46.8517 9.82343 47.4916 13.9357 44.9751C15.8508 43.803 17.3763 42.1135 20.3587 41.7104C24.2184 41.1889 28.6647 42.0447 33.1329 42.698C32.4703 44.7004 31.1402 46.0321 30.0747 47.6268C29.7447 47.9871 30.7374 48.0275 31.87 47.8098C33.9071 47.2993 35.3752 46.8879 36.9127 45.9808C38.8016 44.8661 39.0879 42.0087 41.4054 41.3902C42.6965 43.4021 46.2086 43.8773 48.3877 42.2681C46.4755 41.7194 45.947 37.5936 46.5925 35.7756C47.2038 34.0544 47.8081 31.3018 48.4239 29.0268C49.085 26.5838 49.3287 23.5044 50.1288 22.2598C51.3326 20.3876 52.6625 19.7446 53.8172 18.6888C54.972 17.6328 56.029 16.6053 55.9943 14.1893C55.9831 13.411 55.586 12.9774 54.8561 13.0009Z"
                fill="#002B64" />
            <path
                d="M5.74573 45.7354C8.67411 46.1607 10.4549 45.7354 12.8065 44.7018C14.8075 43.8221 16.7398 42.0087 19.1028 41.2399C22.5728 40.1113 26.3782 41.2414 30.0878 41.4668C30.9912 41.5218 31.8887 41.5224 32.7747 41.4246C34.1564 40.5636 34.1279 37.3434 35.4729 37.0484C35.4333 41.5665 33.606 44.2736 31.6949 46.8949C35.7225 46.1739 38.1328 43.8124 39.7607 40.6585C40.2546 39.7022 40.6763 38.6734 41.0492 37.595C41.6258 38.0436 41.299 39.4084 41.5888 40.1479C44.3631 38.5814 45.9516 35.0064 47.0036 31.3907C48.2206 27.2062 48.7189 22.9689 49.5039 21.7307C50.27 20.5222 51.4622 19.7773 52.5505 19.0036C53.7874 18.1239 54.8902 17.2071 55.0808 15.531C53.7766 15.4087 53.475 15.1028 53.2821 14.4365C52.6291 14.8096 52.0287 14.8895 51.3503 14.9101C50.7617 14.9282 50.115 14.9016 49.3251 14.9838C42.7933 15.6638 41.9632 22.9617 37.7765 27.0987C37.4678 27.4018 37.1398 27.6841 36.7945 27.9436C35.3281 29.0513 33.5294 29.8427 31.8753 30.4836C29.1978 31.5206 26.6522 31.5943 24.1402 32.4895C22.296 33.1465 20.4222 34.0995 18.9076 35.1503C18.5418 35.4027 18.1869 35.6708 17.8437 35.9539C16.9549 36.691 16.3714 37.5089 15.8072 38.3504C15.2251 39.2171 14.6631 40.1092 13.8064 40.9614C12.4184 42.3428 7.23185 41.3643 5.40593 42.6455C5.20242 42.788 5.04075 42.9591 4.93066 43.1645C5.9271 43.6234 6.59248 43.3418 7.7386 43.4703C7.8889 44.5728 5.37404 45.2279 5.74573 45.7356V45.7354ZM45.3191 37.7937C45.3971 39.0584 46.1213 41.5675 46.7607 42.1775C45.5084 42.4863 43.3512 41.9762 42.7977 41.0808C43.0821 39.7878 44.5619 38.6061 45.3191 37.7937Z"
                fill="white" />
            <path
                d="M47.1533 17.722C48.0779 18.5356 50.0181 17.8825 49.6714 16.2635C48.2347 16.1428 47.4023 16.6372 47.1533 17.722ZM53.5997 15.8297C53.3539 16.3526 52.8829 17.0269 52.8829 18.3579C52.8809 18.5865 52.7117 18.7431 52.7089 18.3909C52.7217 17.0897 53.0613 16.5274 53.4222 15.7883C53.5899 15.4855 53.6909 15.6104 53.5997 15.8297Z"
                fill="#002B64" />
            <path
                d="M53.3521 15.6329C53.0619 16.1317 52.3634 17.0419 52.2478 18.368C52.2265 18.5953 52.0441 18.7361 52.0717 18.3847C52.1976 17.0901 52.756 16.2798 53.1797 15.5754C53.372 15.2891 53.4624 15.4225 53.3521 15.6329ZM53.1262 15.3718C52.7958 15.8441 51.7203 16.9371 51.4955 18.249C51.4551 18.4734 51.2617 18.5986 51.3186 18.2507C51.5514 16.9711 52.4783 15.9654 52.9589 15.3002C53.1742 15.0305 53.253 15.1715 53.1262 15.3718ZM52.9248 15.0807C52.5321 15.5011 51.2501 16.8949 50.846 18.1615C50.7745 18.3779 50.5657 18.4745 50.6705 18.1381C51.0781 16.9044 52.2009 15.5754 52.769 14.9856C53.0198 14.7494 53.0781 14.9001 52.9248 15.0807Z"
                fill="#002B64" />
        </g>
    </g>
    <defs>
        <clipPath id="clip0_370_2856">
            <rect width="52" height="35" fill="white" transform="translate(4 13)" />
        </clipPath>
    </defs>
</svg>