<svg width="60" height="60" viewBox="0 0 60 60" fill="none" xmlns="http://www.w3.org/2000/svg">
    <path
        d="M14.9714 46.6766H12.8896C12.816 43.0953 12.6132 39.7284 12.2817 36.5735H12.2632L9.09357 46.6766H7.50855L4.35782 36.5735H4.33972C4.10599 39.6026 3.95875 42.9702 3.8976 46.6766H2C2.1223 42.1695 2.42965 37.9441 2.92084 34H5.50112L8.50422 43.3146H8.52272L11.5443 34H14.0132C14.5538 38.6198 14.8733 42.8456 14.9714 46.6766ZM24 37.3238C23.1524 42.0117 22.034 45.4179 20.6461 47.5441C19.5648 49.1808 18.38 50 17.0899 50C16.7459 50 16.3215 49.8942 15.8186 49.6843V48.554C16.0644 48.59 16.3529 48.6105 16.6844 48.6105C17.287 48.6105 17.7714 48.4416 18.1407 48.103C18.5824 47.6905 18.8032 47.2268 18.8032 46.7139C18.8032 46.3621 18.631 45.643 18.2875 44.5541L16.0029 37.3234H18.0481L19.6879 42.7312C20.0564 43.9592 20.21 44.8165 20.1485 45.3048C21.0452 42.8641 21.6715 40.2028 22.0284 37.323H24V37.3238Z"
        fill="#5D87A1" />
    <path
        d="M53 46.3401H46.7287V34.1809H48.8383V44.8433H53V46.3401ZM45.087 46.6338L42.6621 45.5307C42.8771 45.3679 43.0828 45.1917 43.2679 44.9876C44.2986 43.8716 44.8127 42.2211 44.8127 40.0349C44.8127 36.0123 43.1003 34 39.6741 34C37.994 34 36.6834 34.5104 35.7462 35.5317C34.7163 36.6486 34.2022 38.2932 34.2022 40.4675C34.2022 42.6049 34.6579 44.1728 35.5695 45.1674C36.4036 46.0683 37.6608 46.5194 39.3421 46.5194C39.9693 46.5194 40.5448 46.4486 41.0691 46.3058L44.2261 48L45.087 46.6338ZM37.2317 43.907C36.6975 43.1149 36.4305 41.8431 36.4305 40.0896C36.4305 37.0281 37.4394 35.4956 39.4595 35.4956C40.5154 35.4956 41.2892 35.8621 41.7841 36.5935C42.3174 37.3867 42.5858 38.6471 42.5858 40.3763C42.5858 43.463 41.5759 45.0065 39.5572 45.0065C38.5009 45.0069 37.727 44.6416 37.2317 43.907ZM33.2829 42.9698C33.2829 44.001 32.8724 44.8469 32.0525 45.5095C31.2317 46.1694 30.131 46.5001 28.7517 46.5001C27.4616 46.5001 26.2108 46.1202 25 45.3644L25.567 44.3203C26.6088 44.8012 27.552 45.0403 28.3989 45.0403C29.1937 45.0403 29.8148 44.8779 30.2654 44.5558C30.7154 44.2326 30.9838 43.7792 30.9838 43.2058C30.9838 42.4834 30.4373 41.866 29.4347 41.3488C28.5102 40.8808 26.6613 39.9024 26.6613 39.9024C25.6591 39.2292 25.1574 38.5063 25.1574 37.3156C25.1574 36.3301 25.5316 35.5345 26.2803 34.9293C27.0299 34.3217 27.997 34.0189 29.1826 34.0189C30.407 34.0189 31.5201 34.3213 32.5226 34.9198L32.0141 35.9643C31.1566 35.6285 30.3102 35.4606 29.4753 35.4606C28.7991 35.4606 28.2769 35.6104 27.9138 35.9112C27.5478 36.2109 27.3221 36.5943 27.3221 37.0647C27.3221 37.7835 27.8801 38.4088 28.91 38.9362C29.8468 39.4049 31.7419 40.4003 31.7419 40.4003C32.7696 41.0724 33.2829 41.7885 33.2829 42.9698Z"
        fill="#F8981D" />
    <path
        d="M55.2629 29.789C54.0654 29.7566 53.1382 29.885 52.3599 30.2356C52.1352 30.3312 51.778 30.3312 51.7467 30.6336C51.8681 30.7616 51.8821 30.968 51.9875 31.1446C52.1669 31.4633 52.4797 31.892 52.7653 32.1155C53.0789 32.3715 53.3937 32.6248 53.7237 32.8479C54.3057 33.2314 54.9653 33.4545 55.5325 33.8367C55.8629 34.059 56.1913 34.3465 56.5222 34.5858C56.6848 34.7133 56.7889 34.9202 57 35V34.9514C56.8943 34.808 56.8642 34.6007 56.7605 34.4412L56.3111 33.9796C55.8769 33.3585 55.3374 32.8164 54.7555 32.371C54.2764 32.0195 53.2287 31.5418 53.0344 30.954L53.004 30.9215C53.3332 30.8887 53.7237 30.7616 54.0365 30.6639C54.5456 30.521 55.0098 30.5534 55.5321 30.4105C55.7724 30.3465 56.0107 30.2663 56.2518 30.1874V30.0436C55.9811 29.7566 55.788 29.3752 55.5032 29.1039C54.7414 28.403 53.902 27.7175 53.0344 27.1438C52.5698 26.8243 51.9722 26.6187 51.4776 26.347C51.2994 26.251 50.999 26.2036 50.894 26.0441C50.6257 25.6934 50.4747 25.2319 50.28 24.8168C49.8475 23.9411 49.4273 22.9693 49.054 22.0433C48.7841 21.4222 48.6198 20.8019 48.2906 20.2273C46.7486 17.5186 45.074 15.878 42.5003 14.2677C41.9471 13.9324 41.2891 13.7895 40.5862 13.6137L39.4635 13.5506C39.224 13.4388 38.9841 13.1355 38.775 12.9922C37.9211 12.4189 35.7226 11.1763 35.0946 12.8169C34.6901 13.8539 35.693 14.8734 36.0374 15.3994C36.2917 15.7645 36.6214 16.18 36.7992 16.5946C36.9045 16.8655 36.9342 17.153 37.0395 17.4392C37.279 18.1405 37.5029 18.9207 37.8177 19.5751C37.9819 19.9087 38.161 20.2593 38.3709 20.5613C38.491 20.7379 38.7001 20.816 38.7457 21.1039C38.5371 21.4213 38.5207 21.9004 38.4009 22.2988C37.8626 24.0993 38.0729 26.3299 38.8359 27.6531C39.0746 28.0515 39.6441 28.9286 40.4059 28.5924C41.0804 28.3058 40.931 27.3976 41.1249 26.6012C41.1693 26.4088 41.1401 26.2825 41.2298 26.1563V26.1874C41.4385 26.6332 41.6491 27.0627 41.8426 27.5098C42.3068 28.29 43.1151 29.103 43.7883 29.6435C44.1468 29.9319 44.4308 30.425 44.8798 30.6012V30.5534H44.8501C44.7592 30.4105 44.6262 30.3465 44.5069 30.2356C44.2369 29.9485 43.9381 29.5979 43.7287 29.2796C43.1014 28.3868 42.5463 27.3985 42.0537 26.3785C41.8126 25.8837 41.6047 25.3428 41.4104 24.8488C41.3199 24.6582 41.3199 24.3706 41.1697 24.2747C40.9446 24.6249 40.6166 24.9282 40.4524 25.3573C40.1676 26.0437 40.138 26.8879 40.0322 27.7657L39.9734 27.7965C39.4967 27.6689 39.3309 27.1438 39.1499 26.698C38.7017 25.5659 38.6264 23.7487 39.0153 22.4425C39.1194 22.1085 39.57 21.0566 39.3902 20.7384C39.3001 20.4334 39.0005 20.2598 38.8363 20.0196C38.6432 19.7176 38.4317 19.3354 38.2972 19.0001C37.9383 18.1081 37.7577 17.1197 37.3712 16.2282C37.1905 15.8127 36.8769 15.3827 36.623 15.0001C36.3378 14.5701 36.0242 14.2672 35.7987 13.7575C35.7242 13.5822 35.6197 13.2955 35.7394 13.1048C35.7687 12.9769 35.8295 12.9291 35.9489 12.8971C36.1427 12.7226 36.6967 12.9444 36.8909 13.0404C37.4457 13.2793 37.9095 13.5024 38.3725 13.8368C38.5819 13.9968 38.8066 14.2997 39.0754 14.3794H39.3902C39.868 14.4903 40.4067 14.4102 40.8565 14.5543C41.6491 14.8256 42.3673 15.2236 43.0113 15.6532C44.9711 16.9768 46.5872 18.8576 47.6782 21.1039C47.8573 21.4699 47.9334 21.8052 48.0968 22.187C48.412 22.9685 48.8017 23.7653 49.1145 24.5302C49.4289 25.2788 49.7285 26.0432 50.1775 26.6652C50.4014 26.9996 51.301 27.1749 51.7043 27.3503C52.0027 27.4932 52.4673 27.6203 52.7364 27.7956C53.2455 28.1296 53.7526 28.5131 54.2312 28.8804C54.4695 29.0715 55.2185 29.4699 55.2629 29.789ZM40.0006 15.9407C39.794 15.9384 39.5881 15.9654 39.3882 16.0209V16.0529H39.417C39.5376 16.3075 39.7471 16.4842 39.8965 16.7064C40.017 16.9619 40.1215 17.2153 40.2397 17.4704L40.2685 17.4388C40.4796 17.2797 40.5846 17.0246 40.5846 16.642C40.4936 16.5294 40.4796 16.4193 40.4039 16.3075C40.3158 16.148 40.1215 16.0687 40.0006 15.9407Z"
        fill="#5D87A1" />
    <path
        d="M56.7142 47H57V45.0005H56.5714L56.2218 46.365L55.8419 45.0005H55.4291V47H55.699V45.4788H55.7141L56.1121 47H56.3177L56.7142 45.4788V47ZM54.4124 47H54.7147V45.3394H55.1105V45H54V45.3394H54.4116L54.4124 47Z"
        fill="#F8981D" />
</svg>