<svg width="139" height="144" viewBox="0 0 139 144" fill="none" xmlns="http://www.w3.org/2000/svg">
<g filter="url(#filter0_d_370_7467)">
<path fill-rule="evenodd" clip-rule="evenodd" d="M128.5 145L128.5 -4.37114e-07L138.5 0L138.5 145L128.5 145Z" fill="white"/>
<path fill-rule="evenodd" clip-rule="evenodd" d="M117 145L117 -3.93402e-07L126 0L126 145L117 145Z" fill="white"/>
<path fill-rule="evenodd" clip-rule="evenodd" d="M105.5 145L105.5 -3.49691e-07L113.5 0L113.5 145L105.5 145Z" fill="white"/>
<path fill-rule="evenodd" clip-rule="evenodd" d="M94 145L94 -3.0598e-07L101 0L101 145L94 145Z" fill="white"/>
<path fill-rule="evenodd" clip-rule="evenodd" d="M82.5 145L82.5 -2.62268e-07L88.5 0L88.5 145L82.5 145Z" fill="white"/>
<path fill-rule="evenodd" clip-rule="evenodd" d="M71 145L71 -2.18557e-07L76 0L76 145L71 145Z" fill="white"/>
<path fill-rule="evenodd" clip-rule="evenodd" d="M59.5 145L59.5 -1.74846e-07L63.5 0L63.5 145L59.5 145Z" fill="white"/>
<path fill-rule="evenodd" clip-rule="evenodd" d="M48 145L48 -1.31134e-07L51 0L51 145L48 145Z" fill="white"/>
<path fill-rule="evenodd" clip-rule="evenodd" d="M36.5 145L36.5 -8.74228e-08L38.5 0L38.5 145L36.5 145Z" fill="white"/>
<path fill-rule="evenodd" clip-rule="evenodd" d="M25 145L25 -4.37114e-08L26 0L26 145L25 145Z" fill="white"/>
</g>
<defs>
<filter id="filter0_d_370_7467" x="0" y="-25" width="163.5" height="195" filterUnits="userSpaceOnUse" color-interpolation-filters="sRGB">
<feFlood flood-opacity="0" result="BackgroundImageFix"/>
<feColorMatrix in="SourceAlpha" type="matrix" values="0 0 0 0 0 0 0 0 0 0 0 0 0 0 0 0 0 0 127 0" result="hardAlpha"/>
<feOffset/>
<feGaussianBlur stdDeviation="12.5"/>
<feComposite in2="hardAlpha" operator="out"/>
<feColorMatrix type="matrix" values="0 0 0 0 0.933333 0 0 0 0 0.933333 0 0 0 0 1 0 0 0 1 0"/>
<feBlend mode="normal" in2="BackgroundImageFix" result="effect1_dropShadow_370_7467"/>
<feBlend mode="normal" in="SourceGraphic" in2="effect1_dropShadow_370_7467" result="shape"/>
</filter>
</defs>
</svg>
