<svg width="20" height="21" viewBox="0 0 20 21" fill="none" xmlns="http://www.w3.org/2000/svg">
    <g clip-path="url(#clip0_370_7381)">
        <path
            d="M15.9734 7.95288C15.9734 7.09288 15.5461 6.39677 15.0128 6.36843V3.80566L5.0128 3.63232V6.36899C4.47947 6.39732 4.05225 7.09343 4.05225 7.95343C4.05225 8.81343 4.48002 9.50955 5.0128 9.53788V9.77788C5.0128 12.5395 7.25113 14.7779 10.0128 14.7779C12.7745 14.7779 15.0128 12.5395 15.0128 9.77788V9.53732C15.5461 9.50899 15.9734 8.81288 15.9734 7.95288Z"
            fill="#FDD54C" />
        <path
            d="M10.0127 0.790527C6.11322 0.790527 4.37988 3.39275 4.37988 5.56164C4.37988 7.72997 5.12599 8.33164 5.24655 7.72997C5.67988 5.56164 6.97988 4.89608 6.97988 4.89608C9.57988 7.06497 9.14655 5.32997 9.14655 5.32997C11.746 7.93219 10.4465 5.32997 10.4465 5.32997C11.3132 6.19775 13.9127 6.19775 13.9127 6.19775C13.9127 6.19775 14.346 6.8633 14.7788 7.73053C15.2121 8.5983 15.6454 7.73053 15.6454 5.56219C15.6454 3.39275 13.4788 0.790527 10.0127 0.790527Z"
            fill="#FFAC33" />
        <path
            d="M7.79053 12.5557H12.235C12.235 12.5557 11.6794 13.6668 10.0128 13.6668C8.34608 13.6668 7.79053 12.5557 7.79053 12.5557Z"
            fill="#C1694F" />
        <path d="M3.3335 15.8892H16.6668V20.3336H3.3335V15.8892Z" fill="#2A6797" />
        <path
            d="M10.5686 11.1669H9.45747C9.30413 11.1669 9.17969 11.0424 9.17969 10.8891C9.17969 10.7358 9.30413 10.6113 9.45747 10.6113H10.5686C10.7219 10.6113 10.8464 10.7358 10.8464 10.8891C10.8464 11.0424 10.7219 11.1669 10.5686 11.1669Z"
            fill="#C1694F" />
        <path
            d="M7.79042 9.22233C7.48375 9.22233 7.23486 8.97344 7.23486 8.66678V8.11122C7.23486 7.80455 7.48375 7.55566 7.79042 7.55566C8.09709 7.55566 8.34597 7.80455 8.34597 8.11122V8.66678C8.34597 8.97344 8.09709 9.22233 7.79042 9.22233ZM12.2349 9.22233C11.9282 9.22233 11.6793 8.97344 11.6793 8.66678V8.11122C11.6793 7.80455 11.9282 7.55566 12.2349 7.55566C12.5415 7.55566 12.7904 7.80455 12.7904 8.11122V8.66678C12.7904 8.97344 12.5415 9.22233 12.2349 9.22233Z"
            fill="#662113" />
        <path
            d="M1.77519 10.3475C1.9213 10.0786 2.2063 9.93637 2.47963 9.96192C2.49852 9.92637 6.41519 11.5964 6.41519 11.5964L5.71074 12.4558C5.32186 12.9303 4.6513 13.0241 4.21297 12.6647L3.2813 11.9008L2.02574 11.2691C1.70019 11.1041 1.58797 10.6919 1.77519 10.3475Z"
            fill="#F5BF44" />
        <path
            d="M0.202758 8.65858C0.0083131 8.8958 0.0277575 9.23358 0.247202 9.41358L2.97887 10.9347L4.96165 12.5602C5.18109 12.7397 5.51609 12.693 5.71054 12.4558L6.41498 11.5964L5.62165 10.9464L3.83109 9.89469L0.951647 8.55413C0.951091 8.55413 0.397202 8.42135 0.202758 8.65858Z"
            fill="#FDD54C" />
        <path
            d="M5.28882 10.5767C5.28882 10.5767 16.176 15.3862 16.4599 15.5123C17.121 15.8062 18.2122 16.4567 18.2122 17.5556L18.0171 20.1945C18.0171 20.2712 17.9549 20.3334 17.8783 20.3334H16.0321C16.0044 20.3334 15.9777 20.3251 15.9549 20.3095L5.15493 13.0545C5.1166 13.0289 5.09326 12.9856 5.09326 12.9395V10.7034C5.09382 10.6028 5.1966 10.5356 5.28882 10.5767Z"
            fill="#4289C1" />
        <path
            d="M10.1253 12.7034L9.69254 12.5234L6.10254 13.6951L6.92587 14.2679L10.1253 12.7034ZM13.0159 13.9901L13.5753 14.2373L10.7003 16.7895L8.57754 16.7757L13.0159 13.9901Z"
            fill="#2A6797" />
        <path
            d="M18.1957 10.3475C18.0496 10.0786 17.7646 9.93637 17.4912 9.96192C17.4723 9.92637 13.5557 11.5964 13.5557 11.5964L14.2601 12.4558C14.649 12.9303 15.3196 13.0241 15.7579 12.6647L16.6896 11.9008L17.9451 11.2691C18.2707 11.1041 18.3829 10.6919 18.1957 10.3475Z"
            fill="#F5BF44" />
        <path
            d="M19.7679 8.65852C19.9623 8.89574 19.9429 9.23352 19.7234 9.41352L16.9918 10.9346L15.009 12.5602C14.7896 12.7396 14.4546 12.693 14.2601 12.4557L13.5557 11.5963L14.349 10.9463L16.1396 9.89518L19.019 8.55463C19.019 8.55407 19.5734 8.42129 19.7679 8.65852Z"
            fill="#FDD54C" />
        <path
            d="M14.6816 10.5767C14.6816 10.5767 3.79441 15.3862 3.51052 15.5123C2.84941 15.8062 1.7583 16.4567 1.7583 17.5556L1.9533 20.1945C1.9533 20.2712 2.01552 20.3334 2.09219 20.3334H3.9383C3.96608 20.3334 3.99275 20.3251 4.01552 20.3095L14.815 13.0545C14.8533 13.0289 14.8766 12.9856 14.8766 12.9395V10.7034C14.8766 10.6028 14.7733 10.5356 14.6816 10.5767Z"
            fill="#4289C1" />
    </g>
    <defs>
        <clipPath id="clip0_370_7381">
            <rect width="20" height="20" fill="white" transform="translate(0 0.333496)" />
        </clipPath>
    </defs>
</svg>