<svg width="128" height="88" viewBox="0 0 128 88" fill="none" xmlns="http://www.w3.org/2000/svg">
<g opacity="0.35">
<path d="M59.1074 69C77.609 69 92.6074 54.0015 92.6074 35.5C92.6074 16.9985 77.609 2 59.1074 2C40.6059 2 25.6074 16.9985 25.6074 35.5C25.6074 54.0015 40.6059 69 59.1074 69Z" fill="#EEEEFF" stroke="#6366F1" stroke-width="2.5"/>
<path fill-rule="evenodd" clip-rule="evenodd" d="M53.7395 61.4939C55.4982 61.8185 57.2875 61.9872 59.1074 62C73.743 62 85.6074 50.1355 85.6074 35.5C85.6074 20.8645 73.743 9 59.1074 9C55.3478 9 51.771 9.78293 48.5312 11.1946C42.9013 13.6479 38.289 17.9999 35.5034 23.4419C33.6519 27.0589 32.6074 31.1575 32.6074 35.5C32.6074 39.44 33.4673 43.1792 35.0096 46.5401C36.1106 48.9396 37.5596 51.1463 39.2918 53.0956" fill="white"/>
<path d="M53.7395 61.4939C55.4982 61.8185 57.2875 61.9872 59.1074 62C73.743 62 85.6074 50.1355 85.6074 35.5C85.6074 20.8645 73.743 9 59.1074 9C55.3478 9 51.771 9.78293 48.5312 11.1946C42.9013 13.6479 38.289 17.9999 35.5034 23.4419C33.6519 27.0589 32.6074 31.1575 32.6074 35.5C32.6074 39.44 33.4673 43.1792 35.0096 46.5401C36.1106 48.9396 37.5596 51.1463 39.2918 53.0956" stroke="#6366F1" stroke-width="2.5" stroke-linecap="round"/>
<path d="M42.4043 56.0747C44.5524 57.8207 46.9793 59.237 49.6077 60.2466" stroke="#6366F1" stroke-width="2.5" stroke-linecap="round"/>
<path d="M86.6074 62L92.6074 68" stroke="#6366F1" stroke-width="2.5"/>
<path fill-rule="evenodd" clip-rule="evenodd" d="M91.6363 67.0304C89.7436 68.9231 89.7436 71.9918 91.6363 73.8845L102.722 84.9698C104.614 86.8625 107.683 86.8625 109.576 84.9698C111.468 83.0771 111.468 80.0084 109.576 78.1157L98.4905 67.0304C96.5977 65.1377 93.529 65.1377 91.6363 67.0304Z" fill="#EEEEFF" stroke="#6366F1" stroke-width="2.5"/>
<path d="M96.6074 69L107.607 80" stroke="white" stroke-width="2.5" stroke-linecap="round"/>
<path fill-rule="evenodd" clip-rule="evenodd" d="M52.604 24C52.604 35.598 62.0061 45 73.604 45C75.8824 45 78.076 44.6372 80.1302 43.9662C76.7772 52.2871 68.6265 58.1607 59.104 58.1607C46.5889 58.1607 36.4434 48.0152 36.4434 35.5C36.4434 24.1596 44.7737 14.7648 55.649 13.1011C53.717 16.2793 52.604 20.0097 52.604 24Z" fill="#D2D2FF"/>
<path d="M59.6074 17C58.334 17 57.0899 17.1253 55.8867 17.3642M52.2522 18.4761C45.4113 21.3508 40.6074 28.1144 40.6074 36" stroke="#6366F1" stroke-width="2.5" stroke-linecap="round"/>
<path d="M112.787 35.7773H104.611M119.111 28H101.936H119.111ZM126.111 28H123.89H126.111Z" stroke="#6366F1" stroke-width="2.5" stroke-linecap="round" stroke-linejoin="round"/>
<path d="M22.8887 58H17.506M19.8103 49H8.50227H19.8103ZM4.66778 49H1.88867H4.66778Z" stroke="#6366F1" stroke-width="2.5" stroke-linecap="round" stroke-linejoin="round"/>
</g>
</svg>
