<svg width="82" height="90" viewBox="0 0 82 90" fill="none" xmlns="http://www.w3.org/2000/svg">
    <path fill-rule="evenodd" clip-rule="evenodd"
        d="M29.1186 60.2441C29.0404 60.7974 29 61.3627 29 61.9375C29 68.5649 34.3726 73.9375 41 73.9375C47.6274 73.9375 53 68.5649 53 61.9375C53 61.3627 52.9596 60.7974 52.8815 60.2441H82V86.9375C82 88.5944 80.6569 89.9375 79 89.9375H3C1.34315 89.9375 0 88.5944 0 86.9375V60.2441H29.1186Z"
        fill="white" />
    <path fill-rule="evenodd" clip-rule="evenodd"
        d="M54 59.9375C54 67.1172 48.1797 72.9375 41 72.9375C33.8203 72.9375 28 67.1172 28 59.9375C28 59.7049 28.0061 59.4737 28.0182 59.2441H0L9.56044 30.9764C9.9726 29.7577 11.1159 28.9375 12.4023 28.9375H69.5977C70.8842 28.9375 72.0274 29.7577 72.4396 30.9764L82 59.2441H53.9818C53.9939 59.4737 54 59.7049 54 59.9375Z"
        fill="white" />
    <path fill-rule="evenodd" clip-rule="evenodd"
        d="M52.0976 60.892C52.0976 66.44 47.129 71.9375 41 71.9375C34.871 71.9375 29.9024 66.44 29.9024 60.892C29.9024 60.7123 29.9077 59.5337 29.918 59.3563H9L17.1614 39.513C17.5132 38.5713 18.4891 37.9375 19.5873 37.9375H62.4127C63.5109 37.9375 64.4868 38.5713 64.8387 39.513L73 59.3563H52.082C52.0923 59.5337 52.0976 60.7123 52.0976 60.892Z"
        fill="#E8F0FE" />
    <path fill-rule="evenodd" clip-rule="evenodd"
        d="M1.25 59.4498V85.9375C1.25 86.904 2.0335 87.6875 3 87.6875H79C79.9665 87.6875 80.75 86.904 80.75 85.9375V59.4498L71.2554 31.3768C71.015 30.666 70.3481 30.1875 69.5977 30.1875H12.4023C11.6519 30.1875 10.985 30.666 10.7446 31.3768L1.25 59.4498Z"
        stroke="#1F64E7" stroke-width="2.5" />
    <path
        d="M7.5 58.9375C11.4366 58.9375 22.1815 58.9375 26.7415 58.9375C28.6178 58.9375 28.6178 60.2561 28.6178 60.9375C28.6178 67.5649 34.114 72.9375 40.8939 72.9375C47.6738 72.9375 53.1699 67.5649 53.1699 60.9375C53.1699 60.2561 53.1699 58.9375 55.0462 58.9375H79.9966"
        stroke="#1F64E7" stroke-width="2.5" stroke-linecap="round" stroke-linejoin="round" />
    <path d="M40.0996 1.9375V18.6934M14 6.24023L25.0996 18.6934M66.0996 6.24023L55 18.6934" stroke="#75A4FE"
        stroke-width="2.5" stroke-linecap="round" stroke-linejoin="round" />
</svg>