<svg width="61" height="60" viewBox="0 0 61 60" fill="none" xmlns="http://www.w3.org/2000/svg">
    <g opacity="0.5">
        <g clip-path="url(#clip0_370_2849)">
            <path
                d="M26.1159 45.5514H29.4996L27.7105 42.5775L24.4267 47.9544H22.9323L26.9263 41.4955C27.1 41.2346 27.3894 41.0769 27.7105 41.0769C28.0209 41.0769 28.3103 41.2291 28.4788 41.4846L32.4887 47.9544H30.9942L30.2891 46.7529H26.8633L26.1159 45.5514ZM41.6399 46.7528V41.1421H40.3717V47.302C40.3717 47.4705 40.4348 47.6337 40.5558 47.7587C40.6769 47.8837 40.84 47.9544 41.0189 47.9544H46.8023L47.5496 46.7529L41.6399 46.7528ZM20.6588 45.747C21.8903 45.747 22.8902 44.7195 22.8902 43.4473C22.8902 42.175 21.8903 41.142 20.6588 41.142H15.1107V47.9545H16.3785V42.3437H20.5747C21.1641 42.3437 21.6377 42.8386 21.6377 43.4475C21.6377 44.0563 21.1641 44.551 20.5747 44.551L16.9995 44.5457L20.7851 47.9545H22.627L20.08 45.7472L20.6588 45.747ZM7.30676 47.9544C5.48649 47.9545 4.00928 46.4322 4.00928 44.551C4.00928 42.6698 5.48649 41.1422 7.30676 41.1422H11.1393C12.96 41.1422 14.4361 42.6698 14.4361 44.551C14.4361 46.4322 12.96 47.9544 11.1392 47.9544H7.30676ZM11.0541 46.7529C12.2334 46.7529 13.1885 45.7688 13.1885 44.5509C13.1885 43.3332 12.2334 42.3437 11.0541 42.3437H7.39157C6.2127 42.3437 5.25706 43.3332 5.25706 44.551C5.25706 45.7688 6.2127 46.7529 7.39147 46.7529H11.0541ZM35.1356 47.9544C33.315 47.9544 31.8362 46.4322 31.8362 44.551C31.8362 42.6698 33.315 41.1422 35.1356 41.1422H39.6877L38.9456 42.3437H35.2199C34.0411 42.3437 33.0833 43.3332 33.0833 44.551C33.0833 45.7688 34.0411 46.7529 35.2199 46.7529H39.7928L39.0455 47.9544H35.1356ZM50.6439 46.7529C49.6704 46.7529 48.8442 46.0788 48.5916 45.149H54.0118L54.759 43.9475H48.5916C48.8442 43.0232 49.6704 42.3437 50.6439 42.3437H54.3645L55.1168 41.142H50.5596C48.7388 41.142 47.2601 42.6697 47.2601 44.5508C47.2601 46.4321 48.7388 47.9543 50.5596 47.9543H54.4696L55.2168 46.7529H50.6439Z"
                fill="#EA1B22" />
        </g>
        <g clip-path="url(#clip1_370_2849)">
            <path
                d="M23.6535 34.4272C17.3478 34.4272 12.3032 29.3826 12.3032 23.0769C12.3032 16.7711 17.3478 11.7266 23.6535 11.7266H36.9529C43.2586 11.7266 48.3032 16.7711 48.3032 23.0769C48.3032 29.3826 43.2586 34.4272 36.9529 34.4272H23.6535ZM36.609 30.4145C40.7363 30.4145 43.9465 27.0896 43.9465 23.0769C43.9465 18.9495 40.6217 15.7393 36.609 15.7393H23.9975C19.8701 15.7393 16.6599 19.0641 16.6599 23.0769C16.6599 27.0896 19.9848 30.4145 23.9975 30.4145H36.609Z"
                fill="#EA1B22" />
        </g>
    </g>
    <defs>
        <clipPath id="clip0_370_2849">
            <rect width="51.2308" height="6.92308" fill="white" transform="translate(3.99756 41.0769)" />
        </clipPath>
        <clipPath id="clip1_370_2849">
            <rect width="36" height="22.1538" fill="white" transform="translate(12.3032 12)" />
        </clipPath>
    </defs>
</svg>