<svg width="20" height="21" viewBox="0 0 20 21" fill="none" xmlns="http://www.w3.org/2000/svg">
    <g clip-path="url(#clip0_370_7368)">
        <path
            d="M17.9456 13.8594C17.5595 13.2983 17.7751 12.4872 17.679 11.5917C17.5801 10.1306 16.9523 8.71499 15.7345 7.58277L11.5867 3.72611C11.5867 3.72611 10.7695 2.96555 10.0084 3.78333C9.2484 4.60055 10.0662 5.36111 10.0662 5.36111L11.8184 6.99111L13.3373 8.40333C13.3373 8.40333 12.9567 8.81222 11.2756 7.24888L5.59785 1.96777C5.59785 1.96777 4.77951 1.20777 4.01896 2.02555C3.25896 2.84277 4.07618 3.60333 4.07618 3.60333L9.44507 8.59722C9.4334 8.58611 9.03896 8.98166 9.03173 8.975L3.28729 3.63222C3.28729 3.63222 2.46951 2.87166 1.70896 3.68944C0.948402 4.50722 1.76618 5.26722 1.76618 5.26722L7.51118 10.6111C7.51785 10.6178 7.14785 11.0356 7.15896 11.0461L2.2034 6.43611C2.2034 6.43611 1.38562 5.67555 0.625069 6.49333C-0.135487 7.31111 0.682291 8.07166 0.682291 8.07166L5.95118 12.9717C5.99951 13.0167 5.6734 13.4761 5.73396 13.5322L1.93729 10.0011C1.93729 10.0011 1.11951 9.24055 0.358958 10.0589C-0.401598 10.8767 0.41618 11.6372 0.41618 11.6372L6.60896 17.3944C7.64285 18.3561 8.70451 18.8428 9.98451 19.0211C10.2451 19.0572 10.5784 19.0572 10.7151 19.0744C11.1467 19.1289 11.5256 19.2822 12.0328 19.5933C12.6856 19.9933 13.6651 20.16 14.2278 19.5583L16.1467 17.5056L17.9184 15.61C18.4806 15.0089 18.3801 14.49 17.9456 13.8594Z"
            fill="#EF9645" />
        <path
            d="M1.08649 19.7925C0.944264 19.7925 0.802041 19.7381 0.693708 19.6297C0.476486 19.4125 0.476486 19.0614 0.693708 18.8442L2.66649 16.8725C2.88371 16.6553 3.23482 16.6553 3.45204 16.8725C3.66926 17.0897 3.66926 17.4408 3.45204 17.6581L1.47926 19.6303C1.37093 19.7386 1.22871 19.7925 1.08649 19.7925ZM4.83426 20.3047C4.77371 20.3047 4.71149 20.2947 4.65037 20.2736C4.36093 20.1725 4.20815 19.8558 4.30982 19.5658L4.84926 18.0253C4.95038 17.7358 5.2676 17.5836 5.55704 17.6842C5.84649 17.7858 5.99926 18.1025 5.8976 18.392L5.35815 19.9325C5.27815 20.1614 5.06371 20.3047 4.83426 20.3047ZM0.574819 16.0453C0.34593 16.0453 0.131486 15.9025 0.0509304 15.6747C-0.0512918 15.3853 0.100375 15.0681 0.389819 14.9658L1.77593 14.4764C2.06649 14.3764 2.3826 14.5269 2.48482 14.8153C2.58704 15.1047 2.43537 15.422 2.14593 15.5242L0.759819 16.0136C0.698153 16.0353 0.63593 16.0453 0.574819 16.0453ZM16.9415 3.95251C16.7993 3.95251 16.657 3.89806 16.5487 3.78973C16.3315 3.57251 16.3315 3.22084 16.5487 3.00362L18.522 1.0314C18.7393 0.814729 19.0904 0.814729 19.3076 1.0314C19.5248 1.24806 19.5248 1.60029 19.3076 1.81751L17.3343 3.78973C17.2259 3.89862 17.0837 3.95251 16.9415 3.95251ZM14.6282 3.00973C14.5676 3.00973 14.5054 2.99917 14.4448 2.97806C14.1554 2.87695 14.0026 2.56029 14.1037 2.27029L14.6426 0.729729C14.7443 0.440285 15.0604 0.287507 15.3504 0.388618C15.6398 0.489729 15.7926 0.806396 15.6915 1.0964L15.1526 2.63695C15.0726 2.8664 14.8576 3.00973 14.6282 3.00973ZM18.0409 6.21751C17.812 6.21751 17.5976 6.07473 17.517 5.84695C17.4148 5.55751 17.567 5.24028 17.8559 5.13806L19.2415 4.64862C19.5315 4.54584 19.8482 4.69862 19.9504 4.98751C20.0526 5.27695 19.9004 5.59417 19.6115 5.6964L18.2259 6.18584C18.1643 6.20751 18.102 6.21751 18.0409 6.21751Z"
            fill="#FA743E" />
        <path
            d="M19.6609 13.5681C19.2936 12.9947 19.5364 12.1908 19.4709 11.2925C19.4209 9.82918 18.8414 8.39306 17.6625 7.22029L13.647 3.2264C13.647 3.2264 12.8559 2.43918 12.0675 3.23084C11.2803 4.02195 12.072 4.80973 12.072 4.80973L13.7686 6.49806L15.2386 7.96029C15.2386 7.96029 14.8442 8.35584 13.217 6.73695C11.5886 5.11751 7.72031 1.26751 7.72031 1.26751C7.72031 1.26751 6.92864 0.480286 6.14087 1.27195C5.35309 2.06306 6.14476 2.85029 6.14476 2.85029L11.3425 8.02251C11.3314 8.0114 10.9236 8.39306 10.9164 8.38584L5.35531 2.85251C5.35531 2.85251 4.56364 2.06473 3.77587 2.8564C2.98864 3.64806 3.77976 4.43529 3.77976 4.43529L9.34142 9.96973C9.34809 9.9764 8.96364 10.3814 8.97476 10.3925L4.17753 5.61862C4.17753 5.61862 3.38587 4.8314 2.59809 5.62306C1.81031 6.41473 2.60198 7.20251 2.60198 7.20251L7.70253 12.2775C7.7492 12.3236 7.40809 12.7725 7.46642 12.8308L3.79087 9.17362C3.79087 9.17362 2.9992 8.3864 2.21142 9.17806C1.42364 9.96973 2.21531 10.7575 2.21531 10.7575L8.20976 16.7197C9.21087 17.7158 10.2553 18.2375 11.5286 18.4592C11.7881 18.5042 12.1214 18.5153 12.257 18.537C12.6864 18.6058 13.0598 18.772 13.557 19.1003C14.1959 19.522 15.1692 19.7214 15.752 19.1392L17.7392 17.1525L19.5736 15.3181C20.1564 14.7347 20.0736 14.2125 19.6609 13.5681Z"
            fill="#FFDB5E" />
    </g>
    <defs>
        <clipPath id="clip0_370_7368">
            <rect width="20" height="20" fill="white" transform="translate(0 0.333496)" />
        </clipPath>
    </defs>
</svg>