<svg width="60" height="60" viewBox="0 0 60 60" fill="none" xmlns="http://www.w3.org/2000/svg">
<path d="M51.8836 34.555C51.6191 33.7428 50.9263 33.1771 50.0304 33.0413C49.608 32.9774 49.1242 33.0047 48.5517 33.1243C47.5538 33.3331 46.8135 33.4126 46.2732 33.428C48.3125 29.9365 49.9708 25.9549 50.9255 22.2069C52.4692 16.1465 51.6442 13.3856 50.6803 12.1368C48.1292 8.83137 44.4073 7.05565 39.9171 7.00132C37.5218 6.97162 35.419 7.45119 34.3221 7.79606C33.3008 7.61331 32.2026 7.51128 31.0503 7.49242C28.8904 7.45747 26.9819 7.93495 25.3512 8.91627C24.4484 8.60669 22.9995 8.17028 21.3262 7.8918C17.3908 7.23665 14.219 7.74714 11.899 9.40912C9.08968 11.4214 7.78735 14.9176 8.02821 19.8007C8.10471 21.351 8.95994 26.0681 10.3065 30.5416C11.0805 33.113 11.9057 35.2482 12.7594 36.8887C13.9701 39.2149 15.2655 40.5848 16.7198 41.0768C17.5349 41.3521 19.0159 41.545 20.5735 40.2295C20.771 40.472 21.0344 40.7129 21.384 40.9367C21.8279 41.2206 22.3708 41.4526 22.913 41.5901C24.8669 42.0854 26.6971 41.9615 28.2586 41.2672C28.2682 41.5489 28.2756 41.8179 28.2818 42.0503C28.2922 42.4271 28.3025 42.7966 28.3161 43.1422C28.4087 45.4787 28.5654 47.2955 29.0299 48.5666C29.0554 48.6365 29.0897 48.7431 29.1259 48.8561C29.3576 49.5756 29.7451 50.78 30.7309 51.7232C31.7517 52.7004 32.9865 53 34.1174 53C34.6846 53 35.2257 52.9245 35.7004 52.8214C37.3923 52.4537 39.3138 51.8936 40.7038 49.8866C42.018 47.9892 42.6569 45.1316 42.7725 40.6288C42.7874 40.5015 42.8012 40.3799 42.8145 40.2641L42.8421 40.0261L43.1517 40.0537L43.2314 40.0591C44.9547 40.1388 47.0617 39.7682 48.3558 39.1587C49.3783 38.6775 52.6551 36.9233 51.8836 34.555Z" fill="black"/>
<path d="M48.8541 34.9938C43.7537 36.0619 43.403 34.3088 43.403 34.3088C48.788 26.197 51.0393 15.9002 49.0967 13.3801C43.7968 6.50573 34.6225 9.75688 34.4693 9.84114L34.4201 9.8502C33.4124 9.63779 32.2848 9.5114 31.0173 9.49033C28.7096 9.45203 26.9589 10.1046 25.6305 11.1272C25.6305 11.1272 9.26448 4.28264 10.0258 19.7354C10.1877 23.0228 14.6672 44.6097 20.01 38.0894C21.9629 35.7051 23.8499 33.6892 23.8499 33.6892C24.7869 34.3212 25.9089 34.6436 27.085 34.5279L27.1764 34.4492C27.1479 34.7451 27.161 35.0347 27.2129 35.3775C25.8365 36.9386 26.241 37.2127 23.4895 37.7877C20.7053 38.3703 22.3408 39.4072 23.4088 39.6784C24.7034 40.007 27.6984 40.4725 29.7221 37.5966L29.6415 37.9247C30.1807 38.3633 30.5594 40.777 30.4959 42.9653C30.4325 45.1534 30.3901 46.6557 30.8149 47.8291C31.24 49.0026 31.6635 51.6428 35.2807 50.856C38.303 50.1985 39.8693 48.4945 40.0873 45.6522C40.2418 43.6316 40.5918 43.9303 40.6138 42.1237L40.8945 41.2685C41.2181 38.5294 40.946 37.6457 42.8079 38.0567L43.2607 38.0971C44.6309 38.1603 46.4248 37.8732 47.4776 37.3765C49.7445 36.3086 51.089 34.5253 48.8537 34.9938H48.8541Z" fill="#336791"/>
<path d="M26.2942 21.3709C25.8201 21.3014 25.3909 21.3657 25.1737 21.539C25.0516 21.6365 25.0138 21.7494 25.0035 21.8271C24.9763 22.033 25.1132 22.2607 25.1974 22.378C25.4354 22.7104 25.7832 22.9389 26.1274 22.9892C26.1773 22.9966 26.227 23 26.2763 23C26.8503 23 27.3722 22.5292 27.4182 22.1817C27.4757 21.7464 26.8759 21.4561 26.2942 21.3709ZM41.9976 21.3847C41.9523 21.0436 41.3761 20.9463 40.8292 21.0264C40.283 21.1065 39.7535 21.3663 39.7977 21.7082C39.833 21.9741 40.2888 22.428 40.8283 22.428C40.8739 22.428 40.9199 22.4248 40.9663 22.4179C41.3264 22.3654 41.5906 22.1244 41.7162 21.9856C41.9072 21.774 42.018 21.5381 41.9976 21.3847Z" fill="white"/>
<path d="M50.9543 34.9265C50.7564 34.3217 50.1192 34.1271 49.0607 34.348C45.9178 35.0034 44.7923 34.5494 44.4228 34.2744C46.8657 30.5139 48.8753 25.9681 49.9595 21.7269C50.473 19.7179 50.7567 17.8521 50.7799 16.3313C50.8056 14.6622 50.5242 13.4356 49.944 12.6863C47.6046 9.66575 44.1711 8.04549 40.0149 8.00104C37.1576 7.96858 34.7435 8.70746 34.2755 8.91524C33.2899 8.66759 32.2156 8.51555 31.0459 8.49615C28.9009 8.46105 27.0468 8.97997 25.5117 10.0377C24.8449 9.78693 23.1217 9.18916 21.0143 8.8461C17.371 8.25344 14.4758 8.70252 12.4097 10.1815C9.94449 11.9464 8.80638 15.1012 9.02685 19.5581C9.10104 21.0576 9.94658 25.6704 11.2809 30.0879C13.0373 35.9023 14.9466 39.1938 16.9554 39.8709C17.1905 39.9501 17.4616 40.0055 17.7606 40.0055C18.4934 40.0055 19.3918 39.6718 20.3266 38.5362C21.4667 37.1542 22.6461 35.8057 23.8632 34.4924C24.6529 34.9207 25.5205 35.1599 26.4077 35.1838C26.4095 35.2073 26.4117 35.2308 26.4138 35.254C26.2611 35.4381 26.1115 35.6248 25.9652 35.8141C25.3504 36.6027 25.2225 36.7669 23.2436 37.1786C22.6806 37.2961 21.1855 37.6074 21.1635 38.6664C21.1398 39.8235 22.9309 40.3094 23.135 40.3609C23.8461 40.5408 24.5313 40.6295 25.1846 40.6295C26.7736 40.6295 28.172 40.1018 29.2895 39.0807C29.2551 43.2056 29.4253 47.2702 29.9154 48.5086C30.3169 49.5225 31.2976 52.0002 34.3952 52C34.8498 52 35.3501 51.9466 35.9004 51.8273C39.1334 51.1271 40.5373 49.6832 41.0804 46.5C41.371 44.7987 41.8697 40.7364 42.1043 38.5574C42.5994 38.7135 43.2367 38.7849 43.9256 38.7847C45.3626 38.7847 47.0207 38.4762 48.0605 37.9885C49.2286 37.4403 51.3366 36.0952 50.9543 34.9265ZM43.2553 20.2019C43.2447 20.8452 43.1571 21.4292 43.0642 22.0388C42.9642 22.6944 42.8608 23.3722 42.8348 24.1951C42.8092 24.9959 42.9081 25.8284 43.0038 26.6336C43.1972 28.2599 43.3957 29.9341 42.6275 31.5861C42.4998 31.3576 42.3862 31.1215 42.2871 30.879C42.1916 30.6451 41.9842 30.2694 41.6971 29.7494C40.5801 27.7252 37.9644 22.9851 39.3034 21.0509C39.7023 20.4751 40.7145 19.8832 43.2553 20.2019ZM40.1755 9.30364C43.8994 9.38671 46.8453 10.7944 48.9308 13.4875C50.5305 15.5531 48.769 24.9521 43.6697 33.0607C43.6185 32.9948 43.5669 32.9291 43.5151 32.8637L43.4505 32.7822C44.7682 30.5832 44.5106 28.4075 44.2812 26.4786C44.1869 25.6869 44.0979 24.9392 44.1206 24.2369C44.144 23.4925 44.2414 22.854 44.3357 22.2367C44.4514 21.4759 44.5692 20.6887 44.5368 19.7608C44.561 19.6634 44.5708 19.5484 44.558 19.4119C44.4751 18.522 43.4697 15.8588 41.4204 13.4483C40.2994 12.1298 38.6647 10.6544 36.4326 9.65923C37.3927 9.45815 38.7055 9.27065 40.1755 9.30364ZM19.3373 37.7051C18.3075 38.9564 17.5963 38.7165 17.3624 38.6378C15.8385 38.1242 14.0703 34.8695 12.5113 29.7085C11.1624 25.2428 10.3741 20.7522 10.3116 19.493C10.1147 15.5106 11.07 12.7352 13.1513 11.2437C16.5383 8.81664 22.107 10.2693 24.3447 11.0061C24.3125 11.0382 24.279 11.0682 24.2472 11.1008C20.5753 14.8479 20.6624 21.25 20.6715 21.6414C20.6711 21.7924 20.6837 22.0062 20.7008 22.3002C20.764 23.377 20.8816 25.3811 20.5674 27.6506C20.2756 29.7597 20.919 31.8239 22.3324 33.3142C22.4774 33.4668 22.6299 33.6121 22.7892 33.7495C22.1601 34.4303 20.7928 35.9359 19.3373 37.7051ZM23.2612 32.4148C22.122 31.2136 21.6046 29.5429 21.8415 27.8305C22.1732 25.4331 22.0508 23.3451 21.985 22.2233C21.9758 22.0663 21.9675 21.9287 21.9628 21.8202C22.4992 21.3396 24.9851 19.9938 26.7579 20.4042C27.5668 20.5914 28.0597 21.148 28.2647 22.1055C29.3253 27.0624 28.405 29.1284 27.6656 30.7887C27.5132 31.1307 27.3692 31.454 27.2463 31.7884L27.151 32.047C26.9097 32.7007 26.6853 33.3085 26.5462 33.8857C25.3351 33.8821 24.157 33.3593 23.2612 32.4146V32.4148ZM23.4471 39.0998C23.0934 39.0105 22.7754 38.8555 22.5888 38.7269C22.7447 38.6528 23.022 38.5519 23.5031 38.4517C25.8312 37.9675 26.1908 37.6257 26.9759 36.6184C27.1559 36.3873 27.3599 36.1256 27.6425 35.8067L27.6429 35.8063C28.0637 35.3301 28.2563 35.4109 28.6054 35.5573C28.8883 35.6754 29.164 36.0338 29.2757 36.4282C29.3286 36.6145 29.3879 36.968 29.1936 37.2431C27.5535 39.5637 25.1635 39.5338 23.4471 39.0998ZM35.6309 50.5563C32.7829 51.1729 31.7744 49.7045 31.1099 48.0259C30.681 46.9422 30.4702 42.0553 30.6198 36.6584C30.6217 36.5866 30.6116 36.5173 30.592 36.452C30.5745 36.3232 30.5479 36.1957 30.5124 36.0707C30.29 35.2854 29.748 34.6286 29.0978 34.3562C28.8395 34.2481 28.3654 34.0497 27.7956 34.197C27.9171 33.6911 28.1278 33.1198 28.3563 32.5012L28.4521 32.241C28.56 31.9477 28.6955 31.6438 28.8386 31.3221C29.6124 29.585 30.6721 27.2058 29.522 21.8308C29.0912 19.8176 27.6525 18.8344 25.4716 19.0628C24.1642 19.1995 22.9679 19.7326 22.3713 20.0382C22.243 20.1038 22.1257 20.1673 22.0161 20.2291C22.1826 18.2007 22.8117 14.4098 25.1651 12.0113C26.6469 10.5015 28.6202 9.75571 31.0246 9.79593C35.762 9.87424 38.8 12.3309 40.5145 14.3782C41.9919 16.1422 42.7919 17.9193 43.1112 18.8778C40.7101 18.631 39.0772 19.1099 38.2494 20.3058C36.4485 22.9071 39.2346 27.956 40.5736 30.3825C40.8192 30.8271 41.0311 31.2115 41.0978 31.3748C41.5339 32.4427 42.0984 33.1556 42.5105 33.6759C42.6369 33.8354 42.7594 33.9901 42.8526 34.1252C42.1254 34.337 40.8192 34.8265 40.9383 37.2731C40.8423 38.5008 40.1596 44.2484 39.8127 46.2791C39.3549 48.962 38.3779 49.9612 35.6309 50.5565V50.5563ZM47.5189 36.8096C46.7753 37.1583 45.5308 37.4199 44.3488 37.4761C43.0431 37.5379 42.3784 37.3283 42.222 37.1994C42.1487 35.6747 42.7102 35.5154 43.3046 35.3468C43.3979 35.3204 43.4891 35.2944 43.577 35.2634C43.6317 35.3084 43.6916 35.353 43.7572 35.3967C44.8066 36.0966 46.6784 36.1721 49.321 35.6209L49.35 35.6151C48.9935 35.9518 48.3836 36.4037 47.5189 36.8096Z" fill="white"/>
</svg>
