<svg width="16" height="16" viewBox="0 0 16 16" fill="none" xmlns="http://www.w3.org/2000/svg">
<path d="M13.2537 12.314C13.547 11.8473 13.7203 11.3073 13.7203 10.7207C13.7203 9.06065 12.3803 7.72065 10.7203 7.72065C9.06033 7.72065 7.72033 9.06065 7.72033 10.7207C7.72033 12.3807 9.06033 13.7207 10.7137 13.7207C11.3003 13.7207 11.847 13.5473 12.307 13.254L14.387 15.334L15.3337 14.3873L13.2537 12.314ZM10.7203 12.3873C10.2783 12.3873 9.85437 12.2117 9.54181 11.8992C9.22925 11.5866 9.05366 11.1627 9.05366 10.7207C9.05366 10.2786 9.22925 9.8547 9.54181 9.54214C9.85437 9.22958 10.2783 9.05398 10.7203 9.05398C11.1624 9.05398 11.5863 9.22958 11.8988 9.54214C12.2114 9.8547 12.387 10.2786 12.387 10.7207C12.387 11.1627 12.2114 11.5866 11.8988 11.8992C11.5863 12.2117 11.1624 12.3873 10.7203 12.3873ZM10.4803 6.72065C9.98699 6.73398 9.51366 6.84065 9.08033 7.02065L8.71366 6.46732L6.18033 10.5873L4.17366 8.24065L1.75366 12.114L0.666992 11.334L4.00033 6.00065L6.00033 8.33398L8.66699 4.00065L10.4803 6.72065ZM12.207 7.05398C11.7803 6.86732 11.3203 6.75398 10.8403 6.72732L14.2537 1.33398L15.3337 2.12065L12.207 7.05398Z" fill="#61656C"/>
</svg>
