<svg width="20" height="21" viewBox="0 0 20 21" fill="none" xmlns="http://www.w3.org/2000/svg">
<path d="M10.0021 4.83328L10.0021 2.50828C10.0021 2.13328 10.4521 1.94994 10.7104 2.21661L13.8771 5.37494C14.0438 5.54161 14.0438 5.79994 13.8771 5.96661L10.7188 9.12494C10.4521 9.38328 10.0021 9.19995 10.0021 8.82495L10.0021 6.49994C6.89376 6.49995 4.43543 9.34995 5.11876 12.5749C5.51043 14.4666 7.04376 15.9916 8.92709 16.3833C11.9021 17.0083 14.5521 14.9666 14.9521 12.2083C14.9818 12.0124 15.0803 11.8335 15.23 11.7037C15.3796 11.5739 15.5707 11.5017 15.7688 11.4999C16.2688 11.4999 16.6688 11.9416 16.6021 12.4416C16.0854 16.0999 12.6021 18.8083 8.66043 18.0416C6.06043 17.5333 3.96876 15.4416 3.46043 12.8416C2.63543 8.56661 5.88543 4.83328 10.0021 4.83328Z" fill="#61656C"/>
</svg>
