<svg width="16" height="16" viewBox="0 0 16 16" fill="none" xmlns="http://www.w3.org/2000/svg">
<path d="M14 1H5C4.73486 1.00026 4.48066 1.10571 4.29319 1.29319C4.10571 1.48066 4.00026 1.73486 4 2V3.5H2C1.73486 3.50026 1.48066 3.60571 1.29319 3.79319C1.10571 3.98066 1.00026 4.23486 1 4.5V14C1.00026 14.2651 1.10571 14.5193 1.29319 14.7068C1.48066 14.8943 1.73486 14.9997 2 15H14C14.2651 14.9997 14.5193 14.8943 14.7068 14.7068C14.8943 14.5193 14.9997 14.2651 15 14V2C14.9997 1.73486 14.8943 1.48066 14.7068 1.29319C14.5193 1.10571 14.2651 1.00026 14 1ZM5 2H14V3.5H5V2ZM14 7H10V4.5H14V7ZM5 10.5V8H9V10.5H5ZM9 11.5V14H5V11.5H9ZM4 10.5H2V8H4V10.5ZM9 4.5V7H5V4.5H9ZM10 8H14V10.5H10V8ZM4 4.5V7H2V4.5H4ZM2 11.5H4V14H2V11.5ZM10 14V11.5H14V14H10Z" fill="#61656C"/>
</svg>
