<svg width="22" height="22" viewBox="0 0 22 22" fill="none" xmlns="http://www.w3.org/2000/svg">
    <path
        d="M18.2719 11.954C18.0988 13.274 17.5696 14.5219 16.7412 15.564C15.9128 16.6061 14.8163 17.403 13.5694 17.8693C12.3224 18.3356 10.9721 18.4536 9.66316 18.2108C8.35423 17.968 7.1361 17.3734 6.1394 16.4909C5.1427 15.6084 4.40503 14.4712 4.00551 13.2013C3.60599 11.9314 3.55968 10.5767 3.87157 9.28249C4.18345 7.98828 4.84175 6.80338 5.77587 5.85486C6.70999 4.90635 7.88468 4.23001 9.17398 3.89837C12.7481 2.9817 16.4477 4.82145 17.8136 8.24979"
        stroke="#6366F1" stroke-width="2" stroke-linecap="round" stroke-linejoin="round" />
    <path d="M18.3333 3.66602V8.24935H13.75" stroke="#6366F1" stroke-width="2" stroke-linecap="round"
        stroke-linejoin="round" />
</svg>