<svg width="61" height="60" viewBox="0 0 61 60" fill="none" xmlns="http://www.w3.org/2000/svg">
    <g opacity="0.5">
        <path fill-rule="evenodd" clip-rule="evenodd"
            d="M23.0324 30.7778C22.8444 31.3846 22.4363 31.9237 21.8354 32.2683L12.9341 37.388C11.6768 38.108 10.0752 37.6811 9.35366 36.4358C8.62753 35.1835 9.05493 33.5902 10.3111 32.8681L15.2857 30.012L10.3111 27.1483C9.05493 26.4272 8.62538 24.8337 9.35366 23.586C10.0752 22.3374 11.6768 21.9092 12.9341 22.6292L21.8354 27.7457C22.4613 28.1051 22.8795 28.6752 23.0552 29.3127C23.1143 29.5177 23.1407 29.7226 23.1509 29.9286C23.1579 30.2123 23.1213 30.4998 23.0324 30.7778ZM25.4477 35.5729C26.8033 35.6699 27.8735 36.7988 27.8735 38.1722V48.4087C27.8735 49.8522 26.6971 51.0207 25.253 51.0207C23.8018 51.0207 22.63 49.8522 22.63 48.4087V42.6833L17.6384 45.5483C16.3868 46.2739 14.7863 45.8446 14.0591 44.5982C13.3365 43.3494 13.7639 41.7481 15.0179 41.027L23.9262 35.9137C24.4049 35.6357 24.936 35.5292 25.4477 35.5729ZM34.5714 24.4481C33.2127 24.3483 32.1446 23.2176 32.1446 21.8452V11.6075C32.1446 10.1688 33.3142 9 34.7665 9C36.2174 9 37.3894 10.1688 37.3894 11.6075V17.3363L42.3775 14.4668C43.6315 13.7457 45.2328 14.1736 45.9558 15.4203C46.677 16.6738 46.2521 18.2681 44.997 18.9892L36.0898 24.107C35.6111 24.3815 35.081 24.4891 34.5714 24.4481ZM15.0179 18.9892C13.7639 18.2681 13.3365 16.6738 14.0591 15.4203C14.7863 14.1736 16.3868 13.7457 17.6384 14.4668L22.63 17.3363V11.6075C22.63 10.1688 23.8018 9 25.253 9C26.6971 9 27.8735 10.1688 27.8735 11.6075V21.8452C27.8735 23.2176 26.8033 24.3483 25.4477 24.4481C24.936 24.4891 24.4049 24.3815 23.9262 24.107L15.0179 18.9892ZM31.0163 34.6926C30.9102 34.8013 30.706 34.8895 30.551 34.8895H29.4625C29.3131 34.8895 29.1057 34.8013 28.9975 34.6926L25.2973 31.0124C25.1914 30.9084 25.1057 30.6999 25.1057 30.5535V29.4672C25.1057 29.3173 25.1914 29.1091 25.2973 29.0037L28.9975 25.3224C29.1057 25.2151 29.3131 25.129 29.4625 25.129H30.551C30.7028 25.129 30.9102 25.2151 31.0163 25.3224L34.7187 29.0037C34.8245 29.1091 34.9099 29.3173 34.9099 29.4672V30.5535C34.9099 30.6999 34.8245 30.9084 34.7187 31.0124L31.0163 34.6926ZM31.7593 29.9904C31.7593 29.8415 31.6694 29.6344 31.5632 29.5244L30.4906 28.4622C30.3858 28.357 30.1773 28.2699 30.028 28.2699H29.9858C29.8364 28.2699 29.6291 28.357 29.5251 28.4622L28.4527 29.5244C28.3455 29.6344 28.2633 29.8415 28.2633 29.9904V30.0327C28.2633 30.1792 28.3455 30.3841 28.4527 30.4917L29.5251 31.5561C29.6301 31.6615 29.8364 31.7484 29.9858 31.7484H30.028C30.1773 31.7484 30.3858 31.6615 30.4906 31.5561L31.5632 30.4917C31.6694 30.3841 31.7593 30.1792 31.7593 30.0327V29.9904ZM44.997 41.027C46.2521 41.7481 46.677 43.3494 45.9558 44.5982C45.2328 45.8446 43.6302 46.2739 42.3775 45.5483L37.3894 42.6833V48.4087C37.3894 49.8522 36.2174 51.0207 34.7665 51.0207C33.3142 51.0207 32.1446 49.8522 32.1446 48.4087V38.1722C32.1446 36.7988 33.2127 35.6699 34.5714 35.5729C35.081 35.5292 35.6111 35.6357 36.0898 35.9137L44.997 41.027ZM44.7313 30.012L49.7059 32.8681C50.9621 33.5902 51.3919 35.1835 50.6658 36.4358C49.9407 37.6811 48.337 38.108 47.0854 37.388L38.1771 32.2683C37.5821 31.9237 37.1705 31.3846 36.987 30.7778C36.9003 30.4998 36.8592 30.2123 36.8696 29.9286C36.8742 29.7226 36.9048 29.5177 36.9618 29.3127C37.1396 28.6752 37.5582 28.1051 38.1771 27.7457L47.0854 22.6292C48.337 21.9092 49.9407 22.3374 50.6658 23.586C51.3919 24.8337 50.9621 26.4272 49.7059 27.1483L44.7313 30.012Z"
            fill="#29B5E8" />
    </g>
</svg>