<svg width="63" height="60" viewBox="0 0 63 60" fill="none" xmlns="http://www.w3.org/2000/svg">
    <g opacity="0.5">
        <path
            d="M42.5922 22.4324L35.9499 24.5427L30.1646 27.0206L28.5494 27.4363C28.1373 27.82 27.7088 28.2037 27.2308 28.5873C26.7198 29.019 26.2419 29.4027 25.8792 29.6904C25.4672 30.0102 24.8738 30.5857 24.5607 30.9534C24.0992 31.513 23.7366 32.1045 23.5882 32.5521C23.308 33.3674 23.4399 34.1988 23.9838 34.9661C24.6596 35.9413 26.0276 36.9325 27.6099 37.604C28.4175 37.9557 29.7855 38.3873 30.8074 38.6431C32.5051 39.0588 35.8015 39.5224 37.6146 39.5864C37.9772 39.6023 38.4717 39.6023 38.4881 39.5864C38.5211 39.5544 38.8178 39.0428 39.1309 38.3873C40.2517 36.1811 41.0429 34.1028 41.4879 32.3443C41.7516 31.2731 41.9494 29.8503 42.0977 28.1557C42.1307 27.6761 42.1472 26.0934 42.1142 25.5658C42.0648 24.6865 41.9824 23.9831 41.867 23.2797C41.8505 23.1838 41.834 23.0878 41.8505 23.0878C41.867 23.0719 41.9329 23.0559 42.757 22.832L42.5922 22.4324ZM41.0758 23.2957C41.1418 23.2957 41.2901 24.7984 41.3396 25.7417C41.356 25.9335 41.3396 26.0774 41.3396 26.0774C41.3066 26.0774 40.499 25.6138 39.9056 25.2621C39.4111 24.9583 38.4552 24.3348 38.3068 24.2229C38.2574 24.1909 38.2574 24.1909 38.6694 24.0471C39.3617 23.8073 41.0099 23.2957 41.0758 23.2957ZM37.6805 24.3828C37.73 24.3828 37.8453 24.4467 38.1255 24.6066C39.1639 25.2301 40.5649 25.9975 41.1747 26.2533C41.356 26.3332 41.3725 26.3012 40.9605 26.589C40.054 27.1965 38.9002 27.788 37.5157 28.3795C37.2685 28.4914 37.0707 28.5714 37.0542 28.5714C37.0377 28.5714 37.0707 28.4435 37.1201 28.2996C37.4498 27.0846 37.6475 25.8536 37.664 24.8784C37.6311 24.3828 37.6311 24.3828 37.6805 24.3828ZM36.9883 24.6386C37.0212 24.6705 37.0047 25.7577 36.9553 26.0614C36.8729 26.7648 36.7245 27.4363 36.4938 28.1877C36.4443 28.3635 36.3949 28.5234 36.3784 28.5234C36.3619 28.5554 35.6697 27.8999 35.4389 27.6441C35.0434 27.2125 34.7467 26.7648 34.5159 26.3332C34.4005 26.1094 34.2192 25.6777 34.2357 25.6777C34.3181 25.6138 36.9718 24.6226 36.9883 24.6386ZM33.7083 25.8856C33.7413 25.9015 33.7742 25.9815 33.7907 26.0614C33.9555 26.4931 34.3181 27.1165 34.6313 27.5002C34.9774 27.9319 35.4224 28.4115 35.7851 28.7152C35.9004 28.8112 36.0158 28.9071 36.0323 28.9231C36.0653 28.955 36.0653 28.955 35.2576 29.2428C34.3017 29.5945 33.2798 29.9462 32.093 30.3139C31.8128 30.4099 31.5326 30.4898 31.2524 30.5857C31.203 30.6017 31.2195 30.5697 31.3513 30.3779C31.9447 29.4826 32.8347 27.74 33.3292 26.4931C33.4116 26.2852 33.494 26.0614 33.5105 26.0134C33.527 25.9495 33.56 25.9175 33.6259 25.8856C33.6588 25.9015 33.6918 25.8856 33.7083 25.8856ZM32.7029 26.2852C32.7194 26.3012 32.4556 26.8128 32.2084 27.2924C31.7139 28.2196 31.1865 29.1149 30.4778 30.218C30.3624 30.4099 30.247 30.5857 30.2305 30.6017C30.1976 30.6337 30.1976 30.6337 30.1152 30.4738C29.9504 30.1541 29.802 29.7224 29.7361 29.3387C29.6537 28.955 29.6702 28.2996 29.769 27.8839C29.835 27.5802 29.835 27.5802 29.9833 27.5162C30.5932 27.2125 32.6699 26.2692 32.7029 26.2852ZM41.356 26.6369V26.8448C41.356 27.9319 41.2407 29.4187 41.0594 30.5058C41.0264 30.6976 41.0099 30.8575 40.9934 30.8575C40.9934 30.8575 40.8451 30.8255 40.6803 30.7776C39.9221 30.5537 39.1145 30.218 38.3728 29.8183C37.8783 29.5625 37.1696 29.1309 37.2025 29.1149C37.2025 29.1149 37.4168 29.003 37.664 28.8751C38.653 28.3795 39.5924 27.836 40.4166 27.3084C40.7297 27.1165 41.1912 26.7808 41.2901 26.7009L41.356 26.6369ZM28.912 28.0758C28.9285 28.0758 28.9285 28.1077 28.8955 28.2836C28.879 28.4115 28.846 28.6513 28.846 28.8112C28.8131 29.5146 28.9285 30.0422 29.2911 30.7616C29.39 30.9534 29.4724 31.1293 29.4724 31.1293C29.4394 31.1612 26.11 32.1045 25.0716 32.3762C24.7585 32.4562 24.4947 32.5361 24.4618 32.5361C24.4288 32.5521 24.4288 32.5361 24.4288 32.4562C24.5442 31.7368 25.1046 30.8095 25.8957 30.0102C26.4232 29.4826 26.8352 29.1789 27.5439 28.7792C28.0549 28.5234 28.8296 28.0917 28.912 28.0758C28.8955 28.0758 28.8955 28.0758 28.912 28.0758ZM36.741 29.4346C36.741 29.4346 36.8729 29.4986 37.0047 29.5785C38.0761 30.186 39.576 30.7456 40.8451 31.0333L40.9605 31.0653L40.7957 31.1453C40.1199 31.513 37.9277 32.3922 35.6862 33.2076C35.3565 33.3195 35.0434 33.4474 34.9774 33.4634C34.9115 33.4953 34.8621 33.4953 34.8621 33.4953C34.8621 33.4953 34.9445 33.3195 35.0598 33.1116C35.6862 31.9766 36.3125 30.5857 36.6421 29.6265C36.7081 29.5146 36.741 29.4346 36.741 29.4346ZM35.9499 29.6904C35.9499 29.6904 35.9169 29.8023 35.8675 29.9143C35.4224 30.9374 34.8621 32.0565 34.1204 33.3195C33.939 33.6392 33.7742 33.895 33.7742 33.895C33.7742 33.895 33.6259 33.8151 33.4446 33.7032C32.3732 33.0637 31.4338 32.2963 30.8239 31.5289L30.7415 31.417L31.203 31.2891C32.8347 30.8575 34.2357 30.3939 35.6202 29.8183C35.7686 29.7544 35.9334 29.6904 35.9499 29.6904ZM40.911 31.3691C40.911 31.481 40.6638 32.4882 40.4495 33.2076C40.2682 33.8151 40.1199 34.2947 39.8397 35.142C39.7243 35.5097 39.6089 35.8134 39.6089 35.8134C39.6089 35.8134 39.576 35.8134 39.543 35.7975C38.0596 35.5417 36.7081 35.174 35.4554 34.6784C35.1093 34.5345 34.5983 34.3267 34.5654 34.2947C34.5489 34.2787 34.8621 34.1508 35.2411 33.9909C37.5322 33.0157 39.8891 31.9286 40.7132 31.449C40.8121 31.401 40.8945 31.3691 40.911 31.3691ZM29.4559 31.7528C29.4724 31.7687 28.8296 32.648 27.9395 33.863C27.6264 34.2947 27.2637 34.7903 27.1319 34.9661C27 35.158 26.7858 35.4457 26.6704 35.6216L26.4561 35.9413L26.2254 35.7495C25.9617 35.5417 25.5002 35.078 25.2859 34.8222C24.8573 34.2947 24.5607 33.7511 24.4453 33.2555C24.3958 33.0157 24.3958 32.9038 24.4453 32.8878C24.5277 32.8718 25.8628 32.5681 27.1154 32.2803C27.8077 32.1205 28.6153 31.9446 28.912 31.8647C29.2087 31.8007 29.4394 31.7528 29.4559 31.7528ZM30.0987 31.9926L30.2635 32.1684C30.9887 32.9518 31.7304 33.5273 32.6205 34.0389C32.7853 34.1188 32.9007 34.1988 32.8842 34.2147C32.8512 34.2467 29.7855 35.3019 28.3516 35.7655C27.5604 36.0373 26.9011 36.2611 26.8847 36.2611L26.7858 36.1971L26.7034 36.1332L26.8517 35.9253C27.3297 35.2699 27.923 34.5345 29.2087 33.0317L30.0987 31.9926ZM34.1039 34.7743C34.1039 34.7743 34.3346 34.8542 34.5983 34.9501C35.2576 35.1899 35.7686 35.3338 36.4608 35.5097C37.3179 35.7175 38.5541 35.9253 39.2793 35.9893C39.3947 36.0053 39.4441 36.0053 39.4276 36.0213C39.3947 36.0373 38.653 36.2771 38.109 36.4529C37.252 36.7087 34.6148 37.4761 32.4556 38.0676C32.0601 38.1795 31.7139 38.2754 31.6975 38.2754C31.648 38.2914 31.4832 38.2435 31.4832 38.2275C31.4832 38.2115 31.5986 38.0676 31.7469 37.9077C32.4721 37.0764 33.1809 36.1332 33.7907 35.2539C33.9555 34.9661 34.1039 34.7743 34.1039 34.7743ZM33.2138 34.7903C33.2138 34.7903 32.8677 35.3498 32.2414 36.309C31.9777 36.7087 31.681 37.1723 31.5656 37.3322C31.4667 37.4921 31.3184 37.7319 31.236 37.8758L31.0876 38.1315L31.0052 38.1156C30.8239 38.0676 29.5548 37.6359 29.2251 37.5081C28.8131 37.3482 28.3845 37.1563 28.0549 36.9805C27.6593 36.7727 27.1484 36.4529 27.1978 36.4529C27.2143 36.4529 27.8901 36.2611 28.7307 36.0532C30.9228 35.4777 32.1425 35.142 32.9501 34.8862C33.082 34.8222 33.2138 34.7903 33.2138 34.7903ZM39.4606 36.2131C39.4936 36.2611 38.6694 38.4513 38.3728 39.1387C38.3068 39.2986 38.2904 39.3306 38.2409 39.3306C38.1585 39.3306 36.9718 39.1707 36.263 39.0588C35.0104 38.8669 32.9172 38.5152 32.3897 38.4033L32.2743 38.3713L33.016 38.2115C34.6313 37.8598 35.3895 37.6679 36.1806 37.4441C37.1696 37.1563 38.142 36.7886 39.1309 36.341C39.2958 36.2771 39.4276 36.2131 39.4606 36.2131Z"
            fill="url(#paint0_linear_370_2807)" />
        <path
            d="M49.2559 6.3615C49.1033 6.33969 46.7482 7.19014 45.2218 7.80071C43.172 8.62936 41.5801 9.43619 40.5988 10.134C40.2281 10.3957 39.7702 10.8536 39.7047 11.0281C39.6829 11.0935 39.6611 11.1807 39.6611 11.2461L40.5552 12.0966L42.6704 12.7726L47.7077 13.6666L53.4646 14.6479L53.53 14.1464H53.4864L52.7231 14.0373L52.5705 13.7757C51.7855 12.4019 50.9132 10.6792 50.4117 9.52342C50.0192 8.62936 49.6484 7.58265 49.4522 6.84123C49.3432 6.3833 49.3214 6.3615 49.2559 6.3615ZM49.1469 6.68859C49.1687 6.68859 49.1905 6.88485 49.2123 7.10291C49.3214 8.04059 49.5394 8.93465 49.8665 9.89413C50.1064 10.6355 50.1064 10.5919 49.8229 10.5047C49.1469 10.3084 46.1158 9.7851 43.9134 9.47981C43.5645 9.43619 43.2592 9.39258 43.2592 9.37077C43.2374 9.34897 44.851 8.49852 45.5489 8.17142C46.4647 7.7571 48.9725 6.7322 49.1469 6.68859ZM42.7358 9.67606L42.9975 9.76329C44.4149 10.243 47.9476 10.919 49.9101 11.0717C50.1282 11.0935 50.3244 11.1153 50.3244 11.1153C50.3244 11.1153 50.15 11.2243 49.9101 11.3333C48.9725 11.8131 47.9257 12.3801 47.2061 12.838C46.9881 12.9688 46.7918 13.0779 46.77 13.0779C46.7482 13.0779 46.5956 13.0561 46.4647 13.0342L46.203 12.9906L45.5489 12.3364C44.3713 11.2025 43.4554 10.3303 43.1065 9.98135L42.7358 9.67606ZM42.4742 9.87232L43.4118 11.0499C43.9134 11.7041 44.4367 12.3146 44.5458 12.4673C44.6548 12.5981 44.742 12.729 44.742 12.729C44.7202 12.7508 43.39 12.4891 42.6922 12.3364C41.9726 12.162 41.6673 12.0966 41.2312 11.9439L40.8605 11.8349V11.7477C40.8605 11.3115 41.4274 10.6355 42.3869 9.95955L42.4742 9.87232ZM50.4335 11.4642C50.4553 11.4642 50.4989 11.5296 50.5643 11.7041C50.7824 12.2056 51.502 13.5358 51.6764 13.7975C51.7201 13.8847 51.8291 13.8847 50.8914 13.732C48.6454 13.3613 47.9257 13.2523 47.9257 13.2305C47.9257 13.2305 47.9912 13.1869 48.0784 13.1215C48.7762 12.729 49.474 12.2492 50.1064 11.7259C50.259 11.595 50.3899 11.486 50.4335 11.4642Z"
            fill="url(#paint1_linear_370_2807)" />
        <path
            d="M28.223 10.6311C28.223 10.6311 28.1075 10.8111 28.223 11.073C28.2891 11.2366 28.4871 11.433 28.7017 11.6294C28.7017 11.6294 30.9465 13.7897 31.2106 14.1007C32.4485 15.5245 32.9932 16.9156 33.0427 18.8304C33.0757 20.0742 32.8447 21.1544 32.2504 22.4145C31.2106 24.673 28.9988 27.177 25.5986 29.9428L26.0938 29.7792C26.4074 29.5337 26.8531 29.2882 27.8764 28.7318C30.2533 27.4388 32.9107 26.2605 36.1788 25.0494C40.883 23.2983 48.6241 21.2362 53.0312 20.5652L53.4933 20.4997L53.4273 20.3852C53.0312 19.7633 52.7506 19.3868 52.4205 18.9777C51.4631 17.783 50.2912 16.8338 48.8552 16.0318C46.891 14.9353 44.3327 14.0843 41.0975 13.446C40.4868 13.3315 39.1498 13.1023 38.0605 12.9387C35.7497 12.5786 34.2641 12.3332 32.6301 12.0549C32.0359 11.9567 31.1611 11.8094 30.5834 11.6785C30.2863 11.6131 29.7086 11.4821 29.2464 11.3185C28.8503 11.2039 28.3386 11.0566 28.223 10.6311ZM29.527 11.8913C29.527 11.8913 29.6095 11.924 29.7251 11.9567C29.9231 12.0222 30.1707 12.104 30.4513 12.1695C30.6659 12.235 30.897 12.2841 31.1116 12.3495C31.4087 12.4313 31.6727 12.4968 31.6727 12.4968C31.7058 12.5295 32.2174 14.1498 32.3825 14.7553C32.4485 14.9844 32.498 15.1972 32.498 15.1972C32.498 15.1972 32.432 15.1154 32.366 15.0008C31.7718 13.9697 30.8475 12.9387 29.7746 12.0877C29.626 11.9731 29.527 11.8913 29.527 11.8913ZM32.0029 12.5623C32.0359 12.5623 32.1349 12.5786 32.267 12.6114C33.1253 12.8078 34.6603 13.086 35.6341 13.2496C35.7992 13.2824 35.9312 13.2987 35.9312 13.3151C35.9312 13.3315 35.8652 13.3642 35.7992 13.3969C35.6341 13.4788 34.9574 13.8715 34.7428 14.0188C34.1816 14.3953 33.6865 14.788 33.3233 15.1481L33.0592 15.4099C33.0592 15.4099 33.0262 15.3281 33.0097 15.2135C32.8281 14.5262 32.4485 13.4951 32.1019 12.775C32.0359 12.6768 31.9864 12.5623 32.0029 12.5623C31.9864 12.5623 31.9864 12.5623 32.0029 12.5623ZM36.3439 13.3806C36.3769 13.3969 36.4264 13.5606 36.5254 13.937C36.707 14.6571 36.7895 15.4754 36.773 16.2282C36.7565 16.441 36.7565 16.6374 36.74 16.6537L36.7235 16.7028L36.4594 16.621C35.9147 16.4574 35.0399 16.1955 34.2972 15.9827C33.868 15.8682 33.5214 15.77 33.5214 15.7536C33.5214 15.7209 34.1486 15.099 34.4127 14.8699C34.9244 14.428 36.3109 13.3642 36.3439 13.3806ZM36.6905 13.4297C36.707 13.4133 38.7702 13.7733 39.711 13.9534C40.4043 14.0843 41.4276 14.2971 41.4937 14.3298C41.5267 14.3462 41.4111 14.3953 41.081 14.5425C39.7606 15.1317 38.7702 15.6718 37.7799 16.3101C37.5158 16.4737 37.3012 16.621 37.3012 16.621C37.3012 16.621 37.2847 16.4737 37.2847 16.3101C37.2847 15.3608 37.0866 14.4116 36.74 13.5933C36.7235 13.5115 36.6905 13.446 36.6905 13.4297ZM42.0384 14.4771C42.0549 14.4934 41.9888 14.9026 41.9228 15.1317C41.7412 15.8682 41.2461 16.9811 40.6519 18.0121C40.5528 18.1921 40.4538 18.3394 40.4373 18.3558C40.4208 18.3558 40.2887 18.2903 40.1402 18.1921C39.5625 17.8485 38.8858 17.5375 38.176 17.2429C37.9779 17.1611 37.7964 17.0956 37.7964 17.0793C37.7634 17.0465 39.3809 15.9827 40.2392 15.4754C40.916 15.0663 42.0218 14.4607 42.0384 14.4771ZM42.418 14.5425C42.4675 14.5425 43.3753 14.788 43.854 14.9353C45.0424 15.279 46.3959 15.77 47.2707 16.1791L47.6338 16.3428L47.3697 16.4083C45.2075 16.8992 43.3588 17.472 41.5762 18.1921C41.4276 18.2576 41.2956 18.3067 41.2956 18.3067C41.2791 18.3067 41.3286 18.1921 41.3946 18.0448C41.9393 16.9156 42.2859 15.7373 42.3685 14.7226C42.4015 14.6244 42.418 14.5425 42.418 14.5425ZM33.3068 16.621C33.3233 16.6046 34.0166 16.7683 34.3962 16.8829C34.9739 17.0465 36.1788 17.4393 36.1788 17.472C36.1788 17.472 36.0468 17.5866 35.8817 17.7339C35.2215 18.274 34.5943 18.8468 33.835 19.5832C33.6039 19.796 33.4224 19.976 33.4059 19.976C33.3893 19.976 33.3893 19.9433 33.3893 19.9106C33.5049 19.0759 33.4719 17.9957 33.3233 16.8992C33.3233 16.7356 33.3068 16.621 33.3068 16.621ZM47.9969 16.6374C48.0134 16.6537 47.6668 17.1611 47.4687 17.4557C47.1716 17.8812 46.726 18.454 45.7191 19.6978C45.1909 20.3524 44.5967 21.1053 44.3987 21.3507C44.2006 21.5962 44.0355 21.809 44.019 21.809C44.019 21.809 43.953 21.7272 43.8705 21.6126C43.3093 20.7779 42.6326 20.0415 41.8403 19.3868C41.6917 19.2559 41.5267 19.125 41.4607 19.0923C41.4111 19.0595 41.3616 19.0104 41.3616 19.0104C41.3616 18.9941 42.2199 18.634 42.8636 18.3722C44.0025 17.9139 45.5541 17.3575 46.7095 17.0138C47.3367 16.801 47.9969 16.621 47.9969 16.6374ZM48.3931 16.7356C48.4096 16.7356 48.5416 16.7847 48.6737 16.8829C49.8951 17.5702 51.1 18.4704 52.0408 19.3868C52.3049 19.6487 52.9652 20.3197 52.9487 20.3361C52.9487 20.3361 52.7176 20.3524 52.4535 20.3688C50.3407 20.5325 47.6338 20.9743 45.0259 21.5962C44.8443 21.629 44.6958 21.6781 44.6793 21.6781C44.6628 21.6781 44.8608 21.4817 45.1084 21.2526C46.6435 19.796 47.3367 18.8631 48.162 17.2265C48.2775 16.9483 48.3766 16.7519 48.3931 16.7356C48.3766 16.7356 48.3766 16.7356 48.3931 16.7356ZM37.1857 17.8648C37.2517 17.8812 37.9119 18.1921 38.4071 18.4213C38.8527 18.6504 39.546 19.0104 39.579 19.0268C39.579 19.0268 39.3479 19.1577 39.0508 19.305C38.11 19.7796 37.3012 20.2215 36.4429 20.7288C36.1953 20.8761 35.9973 20.9907 35.9973 20.9907C35.9807 20.9907 35.9807 20.9743 36.1128 20.7288C36.5584 19.9106 36.9216 18.9286 37.1361 17.9794C37.1527 17.9139 37.1692 17.8648 37.1857 17.8648ZM36.5419 17.9957C36.5584 18.0121 36.3934 18.6176 36.2779 18.9613C36.0798 19.5996 35.7167 20.3852 35.3865 20.9907C35.304 21.138 35.1885 21.3344 35.1224 21.4489L34.9904 21.6453L34.7098 21.3835C34.3797 21.0725 34.1156 20.8761 33.769 20.6961C33.6369 20.6306 33.5214 20.5652 33.5214 20.5488C33.5214 20.5161 34.3797 19.7305 35.0399 19.1741C35.5186 18.7649 36.5254 17.9794 36.5419 17.9957ZM40.5363 19.616L40.7839 19.7796C41.3451 20.1397 42.0053 20.6306 42.517 21.0562C42.7976 21.2853 43.3588 21.7763 43.4744 21.9072L43.5404 21.9726L43.1277 22.0872C40.8169 22.7255 39.0508 23.2819 36.9711 24.0347C36.74 24.1166 36.5419 24.182 36.5254 24.182C36.4924 24.182 36.4759 24.2148 36.9876 23.7402C38.3081 22.5291 39.4965 21.1871 40.3713 19.8942L40.5363 19.616ZM39.48 19.8778C39.4965 19.8942 38.8032 20.8434 38.3906 21.3998C37.8954 22.0545 37.0206 23.1346 36.4264 23.8384C36.1788 24.1329 35.9642 24.3784 35.9477 24.3784C35.9312 24.3784 35.9312 24.313 35.9312 24.1984C35.9312 23.5929 35.7827 22.9546 35.5021 22.3982C35.3865 22.169 35.37 22.1199 35.3865 22.0872C35.4856 22.0054 36.9381 21.1707 37.8789 20.6797C38.4896 20.3524 39.4635 19.8615 39.48 19.8778ZM33.1253 21.4162C33.1418 21.4162 33.2573 21.4817 33.3893 21.5471C33.703 21.7272 34.0001 21.9236 34.2476 22.1199C34.2641 22.1363 34.1321 22.2345 33.9505 22.3654C33.4719 22.7091 32.7456 23.2492 32.333 23.5765C31.8873 23.9202 31.8708 23.9366 31.9203 23.8547C32.2504 23.3474 32.4155 23.0692 32.5971 22.7091C32.7456 22.3818 32.9107 22.0054 33.0262 21.6617C33.0592 21.5308 33.1087 21.4162 33.1253 21.4162ZM34.8253 22.7418C34.8584 22.7418 34.8749 22.7746 35.0234 22.9873C35.304 23.4128 35.5351 23.9857 35.5846 24.4439L35.6011 24.5421L34.9079 24.8039C33.6699 25.2786 32.531 25.7532 31.7718 26.0968C31.5572 26.195 31.1776 26.3751 30.93 26.4896C30.6824 26.6206 30.4843 26.7024 30.4843 26.7024C30.4843 26.7024 30.6329 26.5878 30.831 26.4405C32.333 25.3604 33.6369 24.1657 34.6108 22.9873C34.7098 22.8564 34.8088 22.7418 34.8253 22.7418ZM34.0496 22.9219C34.0661 22.9382 33.4884 23.5929 33.1087 23.9857C32.1349 24.9676 31.1776 25.7368 29.9892 26.4896C29.8406 26.5878 29.7086 26.6697 29.6921 26.686C29.659 26.7024 29.7086 26.6533 30.2202 26.0968C30.5504 25.7368 30.7979 25.4422 31.095 25.0822C31.2931 24.8367 31.3261 24.8039 31.5902 24.6076C32.3165 24.0511 34.0166 22.9055 34.0496 22.9219Z"
            fill="url(#paint2_radial_370_2807)" />
        <path
            d="M12.5872 42.9105C12.4901 42.9105 12.4092 42.9266 12.3122 42.9266C10.4683 43.023 9.23898 43.826 8.51112 45.4C7.89648 46.8133 7.96118 48.6764 8.51112 50.0898C9.15811 51.4871 10.2095 52.2259 11.9563 52.4989C12.3284 52.5632 12.571 52.7559 13.2988 53.5911L14.1885 54.619H15.7898L14.7222 53.559C14.1399 52.9808 13.6547 52.4668 13.6547 52.4186C13.6547 52.3704 13.8811 52.2741 14.1561 52.1938C15.0619 51.9207 15.8059 51.2301 16.3235 50.1701C16.7441 49.3189 16.8088 49.0619 16.8735 48.0019C17.0352 44.8539 15.3692 42.8945 12.5872 42.9105ZM13.9944 51.1337C13.218 51.5031 12.0857 51.5835 11.3417 51.3104C10.5815 51.0374 9.83745 50.2504 9.49778 49.351C9.12576 48.3713 9.17428 46.5724 9.611 45.7694C10.2903 44.4845 11.1961 43.8902 12.5063 43.8902C14.4473 43.8902 15.5633 45.0788 15.7089 47.2952C15.8221 49.1582 15.1913 50.5555 13.9944 51.1337ZM41.6693 45.5927C40.99 45.5927 40.4886 45.8657 40.1327 46.3958L39.8578 46.8133V45.7212H38.6932V52.2901H39.8578V50.1861C39.8578 48.2588 39.8739 48.034 40.1489 47.52C40.5209 46.7973 41.1679 46.4439 41.7826 46.6046L42.2031 46.717V45.5766L41.6693 45.5927ZM34.8436 45.5285C34.6172 45.5285 34.3745 45.5606 34.1319 45.6088C32.5791 46.0103 31.7057 47.4879 31.7542 49.0137C31.7542 50.2825 31.9968 50.925 32.6277 51.5995C33.8893 52.6274 35.0377 52.7077 36.5905 52.1616C36.8493 52.0492 37.1404 51.9207 37.1404 51.9207V50.8928L36.5905 51.1819C35.345 51.728 34.3907 51.728 33.6305 51.0856C33.1453 50.6037 32.935 50.0095 32.8379 49.351H37.5286V48.4676C37.5286 46.6527 36.4287 45.5124 34.8436 45.5285ZM32.9512 48.4194C32.9512 48.4194 33.1291 47.2952 33.7599 46.8455C34.0672 46.6367 34.4231 46.5242 34.7789 46.5242C35.1347 46.5242 35.4744 46.6367 35.7656 46.8615C36.3479 47.3112 36.4611 48.4194 36.4611 48.4194H32.9512ZM4.90415 47.2309C3.64252 46.4761 3.0764 45.93 3.15728 45.2876C3.35138 43.5048 5.56732 43.7457 6.7966 44.4203L6.81277 43.2157C6.81277 43.2157 6.13343 42.9266 5.16295 42.9105C3.67487 42.8945 2.70438 43.3763 2.25149 44.3721C1.58833 45.8336 2.17062 46.9418 4.30568 48.1625C5.50262 48.8531 6.03638 49.4473 6.03638 50.1058C6.03638 51.455 4.40273 51.9207 2.70438 51.0856C2.34854 50.9089 2.0574 50.7643 2.04122 50.7643C1.97652 51.1498 2.00887 52.0653 2.00887 52.0653C2.00887 52.0653 2.52646 52.2741 3.30285 52.4347C5.24382 52.8201 6.99069 51.9207 7.16861 50.4592C7.29801 49.0779 6.7966 48.3552 4.90415 47.2309ZM51.9727 45.5285C51.7462 45.5285 51.5036 45.5606 51.261 45.6088C49.7082 46.0103 48.8348 47.4879 48.8833 49.0137C48.8833 50.2825 49.1259 50.925 49.7567 51.5835C51.0183 52.6114 52.1668 52.7077 53.7357 52.1456C53.9945 52.0332 54.2856 51.9047 54.2856 51.9047V50.8768L53.7357 51.1659C52.4741 51.7119 51.5359 51.7119 50.7757 51.0695C50.2905 50.5877 50.0802 50.0095 49.9832 49.3349H54.6577V48.4516C54.6577 46.6367 53.5578 45.4963 51.9727 45.5285ZM50.064 48.4034C50.064 48.4034 50.242 47.2791 50.8728 46.8294C51.1801 46.6046 51.5359 46.5082 51.8756 46.5082C52.2153 46.5082 52.5711 46.6206 52.8623 46.8455C53.4446 47.2952 53.5578 48.4034 53.5578 48.4034H50.064ZM28.7457 47.247C27.4841 46.4921 26.9342 45.9461 26.9989 45.3036C27.1929 43.5208 29.4089 43.7618 30.6382 44.4363L30.6543 43.2317C30.6543 43.2317 29.975 42.9426 29.0045 42.9266C27.5164 42.9105 26.546 43.3924 26.0931 44.3881C25.4299 45.8497 26.0284 46.9579 28.1473 48.1785C29.3442 48.8691 29.8618 49.4634 29.8618 50.1058C29.8618 51.455 28.2281 51.9368 26.5298 51.0856C26.1901 50.9089 25.8828 50.7643 25.8666 50.7643C25.8019 51.1498 25.8343 52.0653 25.8343 52.0653C25.8343 52.0653 26.3519 52.2741 27.1283 52.4347C29.0692 52.8201 30.8161 51.9207 30.994 50.4592C31.1396 49.094 30.6382 48.3713 28.7457 47.247ZM58.7984 45.5766C58.1191 45.5766 57.6015 45.8497 57.2618 46.3797L56.9868 46.7973V45.7051H55.8222V52.2741H56.9868V50.1861C56.9868 48.2588 57.003 48.034 57.278 47.52C57.65 46.7973 58.297 46.4439 58.9116 46.6206L59.3322 46.733V45.5927L58.7984 45.5766ZM19.4938 47.2149V43.023H18.3292V52.2901H23.2625V51.198H19.5099L19.4938 47.2149ZM46.6188 48.5158L45.6483 51.0053L44.7264 48.4997L43.7882 45.7212H42.5913C43.3677 47.9055 44.2088 50.138 45.066 52.2901C45.4381 52.3062 45.8101 52.2901 46.1821 52.2901L47.4923 49.0298L48.8186 45.7051H47.6702C47.654 45.7212 47.1526 47.0382 46.6188 48.5158ZM22.2111 40.5014C22.4052 40.5014 22.5508 40.4371 22.6802 40.3086C22.8096 40.1802 22.8743 40.0356 22.8743 39.8429C22.8743 39.6501 22.8096 39.5056 22.6802 39.3771C22.5508 39.2647 22.4052 39.2004 22.2111 39.2004C22.017 39.2004 21.8553 39.2647 21.7421 39.3932C21.6127 39.5217 21.548 39.6823 21.548 39.8589C21.548 40.0517 21.6127 40.2123 21.7421 40.3247C21.8553 40.4371 22.017 40.5014 22.2111 40.5014ZM21.7906 39.4253C21.9038 39.3129 22.0332 39.2647 22.2111 39.2647C22.3729 39.2647 22.5184 39.3129 22.6317 39.4253C22.7449 39.5377 22.8096 39.6662 22.8096 39.8429C22.8096 40.0035 22.7449 40.148 22.6317 40.2605C22.5184 40.3729 22.3729 40.4211 22.2111 40.4211C22.0494 40.4211 21.9038 40.3729 21.7906 40.2605C21.6774 40.148 21.6127 40.0035 21.6127 39.8429C21.6288 39.6823 21.6774 39.5377 21.7906 39.4253ZM22.0656 39.9071H22.1464C22.195 39.9071 22.2597 39.9553 22.292 40.0517L22.389 40.2605H22.5346L22.4214 40.0356C22.3729 39.9392 22.3244 39.8911 22.2758 39.875C22.3405 39.8589 22.389 39.8429 22.4376 39.7947C22.4699 39.7626 22.4861 39.6983 22.4861 39.6501C22.4861 39.5859 22.4699 39.5377 22.4214 39.4895C22.3729 39.4414 22.292 39.4253 22.1788 39.4253H21.9362V40.2605H22.0494L22.0656 39.9071ZM22.0656 39.5217H22.1788C22.2597 39.5217 22.3082 39.5377 22.3405 39.5538C22.3729 39.5698 22.3729 39.602 22.3729 39.6662C22.3729 39.7626 22.3082 39.8108 22.195 39.8108H22.0656V39.5217ZM2.70438 39.8268C2.70438 39.5377 2.68821 39.3129 2.68821 39.1844C2.72056 39.3289 2.75291 39.4414 2.78526 39.5217L3.91749 42.0111H4.11159L5.24382 39.4895C5.27617 39.4253 5.30852 39.3129 5.34087 39.1683H5.35704C5.34087 39.4253 5.32469 39.6341 5.32469 39.8108V42.0111H5.71289V38.7347H5.22764L4.17629 41.0314C4.14394 41.1278 4.07924 41.2562 4.01454 41.4329H3.99836C3.98219 41.3366 3.91749 41.2081 3.85279 41.0475L2.83378 38.7507H2.31619V42.0272H2.68821L2.70438 39.8268ZM6.5378 39.8429H6.87747V41.8826H6.5378V39.8429ZM6.69955 39.088C6.76425 39.088 6.82895 39.072 6.87747 39.0238C6.92599 38.9756 6.95834 38.9274 6.95834 38.8471C6.95834 38.7829 6.94217 38.7186 6.87747 38.6704C6.82895 38.6222 6.76425 38.6062 6.69955 38.6062C6.63485 38.6062 6.57015 38.6222 6.52162 38.6704C6.4731 38.7186 6.44075 38.7829 6.44075 38.8471C6.44075 38.9274 6.45693 38.9756 6.52162 39.0238C6.57015 39.072 6.63485 39.088 6.69955 39.088ZM9.23898 41.9147V41.5614C9.06106 41.6899 8.86696 41.7702 8.65669 41.7702C8.41407 41.7702 8.21997 41.6899 8.0744 41.5293C7.92883 41.3687 7.84795 41.1599 7.84795 40.8868C7.84795 40.5977 7.92883 40.3729 8.0744 40.2123C8.21997 40.0517 8.43025 39.9714 8.65669 39.9714C8.85079 39.9714 9.04489 40.0356 9.22281 40.148V39.7465C9.06106 39.6662 8.88314 39.6341 8.67287 39.6341C8.30085 39.6341 7.99353 39.7465 7.78326 39.9874C7.57298 40.2123 7.45976 40.5335 7.45976 40.919C7.45976 41.2562 7.55681 41.5453 7.76708 41.7541C7.97735 41.979 8.25232 42.0914 8.57582 42.0914C8.85079 42.0754 9.06106 42.0272 9.23898 41.9147ZM10.1933 40.8387C10.1933 40.5656 10.258 40.3568 10.3712 40.1962C10.4844 40.0677 10.5977 39.9874 10.7594 39.9874C10.8888 39.9874 10.9859 40.0035 11.0506 40.0677V39.6823C11.002 39.6662 10.9212 39.6501 10.8241 39.6501C10.6947 39.6501 10.5653 39.6983 10.4683 39.7786C10.355 39.875 10.258 40.0035 10.2095 40.1802H10.1933V39.6983H9.82127V42.0432H10.1933V40.8387ZM12.3607 42.0754C12.7166 42.0754 13.0077 41.9629 13.218 41.7381C13.4282 41.5132 13.5415 41.2081 13.5415 40.8387C13.5415 40.4532 13.4444 40.1641 13.2503 39.9392C13.0562 39.7144 12.7813 39.618 12.4254 39.618C12.0696 39.618 11.7784 39.7305 11.5681 39.9232C11.3417 40.148 11.2285 40.4693 11.2285 40.8708C11.2285 41.2241 11.3255 41.5132 11.5358 41.7381C11.7299 41.9629 12.0049 42.0754 12.3607 42.0754ZM11.8269 40.1802C11.9725 40.0356 12.1666 39.9553 12.3931 39.9553C12.6357 39.9553 12.8136 40.0356 12.9592 40.1802C13.0886 40.3408 13.1694 40.5656 13.1694 40.8547C13.1694 41.1438 13.1047 41.3687 12.9753 41.5132C12.846 41.6738 12.6519 41.7541 12.4092 41.7541C12.1666 41.7541 11.9725 41.6738 11.8269 41.5132C11.6814 41.3526 11.6167 41.1438 11.6167 40.8547C11.6005 40.5656 11.6652 40.3408 11.8269 40.1802ZM15.1751 41.8826C15.3207 41.7541 15.4016 41.5935 15.4016 41.4008C15.4016 41.2241 15.3369 41.0796 15.2236 40.9671C15.1266 40.8708 14.9972 40.7905 14.7869 40.7102C14.609 40.6299 14.4958 40.5656 14.4311 40.5174C14.3664 40.4532 14.334 40.389 14.334 40.2765C14.334 40.1802 14.3664 40.0999 14.4473 40.0517C14.5281 39.9874 14.6252 39.9553 14.7546 39.9553C14.9648 39.9553 15.1266 40.0035 15.2883 40.1159V39.7465C15.1428 39.6662 14.9648 39.6341 14.7869 39.6341C14.5443 39.6341 14.334 39.6983 14.1885 39.8268C14.0267 39.9553 13.962 40.1159 13.962 40.3086C13.962 40.4853 14.0105 40.6299 14.1076 40.7262C14.1885 40.8226 14.334 40.9029 14.5281 40.9832C14.7222 41.0635 14.8516 41.1438 14.9163 41.2081C14.981 41.2723 15.0134 41.3366 15.0134 41.4329C15.0134 41.6578 14.8678 41.7702 14.5605 41.7702C14.334 41.7702 14.1238 41.6899 13.9458 41.5453V41.9469C14.1076 42.0432 14.3017 42.0914 14.5281 42.0914C14.8031 42.0754 15.0295 42.0111 15.1751 41.8826ZM16.9705 39.6341C16.6147 39.6341 16.3235 39.7465 16.1132 39.9392C15.8868 40.1641 15.7736 40.4853 15.7736 40.8868C15.7736 41.2402 15.8706 41.5293 16.0809 41.7541C16.2912 41.979 16.5661 42.0914 16.922 42.0914C17.2778 42.0914 17.569 41.979 17.7792 41.7541C17.9895 41.5293 18.1027 41.2241 18.1027 40.8547C18.1027 40.4693 18.0057 40.1802 17.8116 39.9553C17.6013 39.7305 17.3264 39.6341 16.9705 39.6341ZM17.7145 40.8547C17.7145 41.1438 17.6499 41.3687 17.5205 41.5132C17.3911 41.6738 17.197 41.7541 16.9543 41.7541C16.7117 41.7541 16.5176 41.6738 16.372 41.5132C16.2265 41.3526 16.1618 41.1438 16.1618 40.8547C16.1618 40.5496 16.2426 40.3247 16.3882 40.1641C16.5338 40.0196 16.7279 39.9392 16.9543 39.9392C17.1808 39.9392 17.3749 40.0196 17.5043 40.1641C17.6498 40.3247 17.7145 40.5496 17.7145 40.8547ZM18.7336 42.0272H19.1056V40.0035H19.6555V39.6823H19.1056V39.3289C19.1056 39.0077 19.235 38.831 19.4938 38.831C19.5908 38.831 19.6717 38.8471 19.7364 38.8953V38.558C19.6717 38.5259 19.5746 38.5259 19.4614 38.5259C19.2512 38.5259 19.0894 38.5901 18.96 38.7186C18.7983 38.8632 18.7174 39.0559 18.7174 39.3289V39.7144H18.313V40.0356H18.7174L18.7336 42.0272ZM20.2863 41.3847C20.2863 41.8344 20.4966 42.0754 20.901 42.0754C21.0465 42.0754 21.1598 42.0593 21.2568 41.9951V41.6738C21.1921 41.722 21.1112 41.7541 21.0142 41.7541C20.8848 41.7541 20.8039 41.722 20.7392 41.6578C20.6907 41.5935 20.6584 41.4811 20.6584 41.3205V40.0035H21.2568V39.6823H20.6584V38.9916C20.529 39.0398 20.3996 39.072 20.2863 39.1041V39.6662H19.882V39.9874H20.2863V41.3847ZM60.8041 45.7051C60.6747 45.5927 60.5291 45.5285 60.335 45.5285C60.1409 45.5285 59.9792 45.5927 59.8659 45.7212C59.7365 45.8497 59.6718 46.0103 59.6718 46.187C59.6718 46.3797 59.7365 46.5242 59.8659 46.6527C59.9953 46.7652 60.1571 46.8294 60.335 46.8294C60.5291 46.8294 60.6747 46.7652 60.8041 46.6367C60.9335 46.5082 60.9982 46.3636 60.9982 46.1709C61.0143 45.9782 60.9335 45.8176 60.8041 45.7051ZM60.7555 46.5885C60.6423 46.7009 60.5129 46.7491 60.335 46.7491C60.1733 46.7491 60.0277 46.7009 59.9145 46.5885C59.8012 46.4761 59.7365 46.3315 59.7365 46.1709C59.7365 46.0103 59.7851 45.8657 59.8983 45.7533C60.0115 45.6409 60.1409 45.5927 60.3188 45.5927C60.4806 45.5927 60.6261 45.6409 60.7394 45.7533C60.8526 45.8657 60.9173 46.0103 60.9173 46.1709C60.9173 46.3315 60.8688 46.4761 60.7555 46.5885ZM60.4159 46.203C60.4806 46.187 60.5291 46.1548 60.5776 46.1227C60.61 46.0906 60.6261 46.0264 60.6261 45.9782C60.6261 45.9139 60.61 45.8657 60.5615 45.8176C60.5129 45.7694 60.4321 45.7533 60.3188 45.7533H60.0762V46.5885H60.1894V46.2351H60.2703C60.3188 46.2351 60.3674 46.2833 60.4159 46.3797L60.5129 46.5885H60.6585L60.5453 46.3636C60.4967 46.2673 60.4482 46.2191 60.4159 46.203ZM60.335 46.1227H60.2056V45.8497H60.3188C60.3997 45.8497 60.4482 45.8657 60.4806 45.8818C60.5129 45.8979 60.5129 45.93 60.5129 45.9942C60.4967 46.0906 60.4482 46.1227 60.335 46.1227ZM39.2593 39.5859H39.3725V38.7507H39.6475V38.6383H38.9843V38.7507H39.2593V39.5859ZM39.8901 38.9595V38.7668C39.8901 38.815 39.9063 38.8471 39.9225 38.8632L40.246 39.5859H40.2945L40.618 38.8632C40.6342 38.8471 40.6342 38.815 40.6503 38.7668V39.5859H40.7636V38.6383H40.6342L40.343 39.2968C40.343 39.3129 40.3107 39.3611 40.2945 39.4253H40.2783C40.2783 39.3932 40.2621 39.361 40.2298 39.3129L39.9386 38.6544H39.7931V39.602H39.9063L39.8901 38.9595Z"
            fill="#231F1F" />
    </g>
    <defs>
        <linearGradient id="paint0_linear_370_2807" x1="28.4492" y1="36.404" x2="30.8128" y2="34.9641"
            gradientUnits="userSpaceOnUse">
            <stop stop-color="#909CA9" />
            <stop offset="1" stop-color="#EDEDEE" />
        </linearGradient>
        <linearGradient id="paint1_linear_370_2807" x1="39.687" y1="10.5128" x2="42.2441" y2="10.5128"
            gradientUnits="userSpaceOnUse">
            <stop stop-color="#939FAB" />
            <stop offset="1" stop-color="#DCDEE1" />
        </linearGradient>
        <radialGradient id="paint2_radial_370_2807" cx="0" cy="0" r="1" gradientUnits="userSpaceOnUse"
            gradientTransform="translate(37.9347 19.1162) rotate(-171.529) scale(2.49503 4.95084)">
            <stop stop-color="#EE352C" />
            <stop offset="1" stop-color="#A91D22" />
        </radialGradient>
    </defs>
</svg>