<svg width="900" height="900" viewBox="0 0 900 900" fill="none" xmlns="http://www.w3.org/2000/svg">
<g clip-path="url(#clip0_24_1472)">
<rect width="900" height="900" fill="url(#paint0_linear_24_1472)"/>
<path opacity="0.3" d="M225 899.646H376.183M225 899.646V748.463M225 899.646L298.817 827.248M376.183 899.646L450 827.248M376.183 899.646V748.463M225 748.463L298.817 675.355M225 748.463H376.183M298.817 827.248H450M298.817 827.248V675.355M450 827.248V675.355M376.183 748.463L450 675.355M450 675.355H298.817" stroke="#3287FF" stroke-width="2.25"/>
<path opacity="0.3" d="M225 674.646H376.183M225 674.646V523.463M225 674.646L298.817 602.248M376.183 674.646L450 602.248M376.183 674.646V523.463M225 523.463L298.817 450.355M225 523.463H376.183M298.817 602.248H450M298.817 602.248V450.355M450 602.248V450.355M376.183 523.463L450 450.355M450 450.355H298.817" stroke="#3287FF" stroke-width="2.25"/>
<path opacity="0.3" d="M450 674.646H601.183M450 674.646V523.463M450 674.646L523.817 602.248M601.183 674.646L675 602.248M601.183 674.646V523.463M450 523.463L523.817 450.355M450 523.463H601.183M523.817 602.248H675M523.817 602.248V450.355M675 602.248V450.355M601.183 523.463L675 450.355M675 450.355H523.817" stroke="#3287FF" stroke-width="2.25"/>
<path opacity="0.3" d="M675 674.646H826.183M675 674.646V523.463M675 674.646L748.817 602.248M826.183 674.646L900 602.248M826.183 674.646V523.463M675 523.463L748.817 450.355M675 523.463H826.183M748.817 602.248H900M748.817 602.248V450.355M900 602.248V450.355M826.183 523.463L900 450.355M900 450.355H748.817" stroke="#3287FF" stroke-width="2.25"/>
<path opacity="0.3" d="M675 224.646H826.183M675 224.646V73.4627M675 224.646L748.817 152.248M826.183 224.646L900 152.248M826.183 224.646V73.4627M675 73.4627L748.817 0.355469M675 73.4627H826.183M748.817 152.248H900M748.817 152.248V0.355469M900 152.248V0.355469M826.183 73.4627L900 0.355469M900 0.355469H748.817" stroke="#3287FF" stroke-width="2.25"/>
<path opacity="0.3" d="M675 899.646H826.183M675 899.646V748.463M675 899.646L748.817 827.248M826.183 899.646L900 827.248M826.183 899.646V748.463M675 748.463L748.817 675.355M675 748.463H826.183M748.817 827.248H900M748.817 827.248V675.355M900 827.248V675.355M826.183 748.463L900 675.355M900 675.355H748.817" stroke="#3287FF" stroke-width="2.25"/>
<path opacity="0.3" d="M450 449.646H601.183M450 449.646V298.463M450 449.646L523.817 377.248M601.183 449.646L675 377.248M601.183 449.646V298.463M450 298.463L523.817 225.355M450 298.463H601.183M523.817 377.248H675M523.817 377.248V225.355M675 377.248V225.355M601.183 298.463L675 225.355M675 225.355H523.817" stroke="#3287FF" stroke-width="2.25"/>
<path opacity="0.3" d="M450 899.646H601.183M450 899.646V748.463M450 899.646L523.817 827.248M601.183 899.646L675 827.248M601.183 899.646V748.463M450 748.463L523.817 675.355M450 748.463H601.183M523.817 827.248H675M523.817 827.248V675.355M675 827.248V675.355M601.183 748.463L675 675.355M675 675.355H523.817" stroke="white" stroke-width="2.25"/>
<path opacity="0.3" d="M0 449.646H151.183M0 449.646V298.463M0 449.646L73.817 377.248M151.183 449.646L225 377.248M151.183 449.646V298.463M0 298.463L73.817 225.355M0 298.463H151.183M73.817 377.248H225M73.817 377.248V225.355M225 377.248V225.355M151.183 298.463L225 225.355M225 225.355H73.817" stroke="#3287FF" stroke-width="2.25"/>
<path opacity="0.3" d="M225 224.646H376.183M225 224.646V73.4627M225 224.646L298.817 152.248M376.183 224.646L450 152.248M376.183 224.646V73.4627M225 73.4627L298.817 0.355469M225 73.4627H376.183M298.817 152.248H450M298.817 152.248V0.355469M450 152.248V0.355469M376.183 73.4627L450 0.355469M450 0.355469H298.817" stroke="#3287FF" stroke-width="2.25"/>
<path opacity="0.3" d="M225 449.646H376.183M225 449.646V298.463M225 449.646L298.817 377.248M376.183 449.646L450 377.248M376.183 449.646V298.463M225 298.463L298.817 225.355M225 298.463H376.183M298.817 377.248H450M298.817 377.248V225.355M450 377.248V225.355M376.183 298.463L450 225.355M450 225.355H298.817" stroke="white" stroke-width="2.25"/>
<path opacity="0.3" d="M0 224.646H151.183M0 224.646V73.4627M0 224.646L73.817 152.248M151.183 224.646L225 152.248M151.183 224.646V73.4627M0 73.4627L73.817 0.355469M0 73.4627L151.183 73.4627M73.817 152.248H225M73.817 152.248V0.355469M225 152.248V0.355469M151.183 73.4627L225 0.355469M225 0.355469H73.817" stroke="white" stroke-width="2.25"/>
<path opacity="0.3" d="M675 449.646H826.183M675 449.646V298.463M675 449.646L748.817 377.248M826.183 449.646L900 377.248M826.183 449.646V298.463M675 298.463L748.817 225.355M675 298.463H826.183M748.817 377.248H900M748.817 377.248V225.355M900 377.248V225.355M826.183 298.463L900 225.355M900 225.355H748.817" stroke="white" stroke-width="2.25"/>
<path opacity="0.3" d="M0 674.646H151.183M0 674.646V523.463M0 674.646L73.817 602.248M151.183 674.646L225 602.248M151.183 674.646V523.463M0 523.463L73.817 450.355M0 523.463H151.183M73.817 602.248H225M73.817 602.248V450.355M225 602.248V450.355M151.183 523.463L225 450.355M225 450.355H73.817" stroke="#A1C8FF" stroke-width="2.25"/>
<path opacity="0.3" d="M450 224.646H601.183M450 224.646V73.4627M450 224.646L523.817 152.248M601.183 224.646L675 152.248M601.183 224.646V73.4627M450 73.4627L523.817 0.355469M450 73.4627H601.183M523.817 152.248H675M523.817 152.248V0.355469M675 152.248V0.355469M601.183 73.4627L675 0.355469M675 0.355469H523.817" stroke="#A1C8FF" stroke-width="2.25"/>
</g>
<defs>
<linearGradient id="paint0_linear_24_1472" x1="0" y1="0" x2="900" y2="900" gradientUnits="userSpaceOnUse">
<stop stop-color="#175DE5"/>
<stop offset="1" stop-color="#005DCA"/>
</linearGradient>
<clipPath id="clip0_24_1472">
<rect width="900" height="900" fill="white"/>
</clipPath>
</defs>
</svg>
