<svg width="20" height="20" viewBox="0 0 20 20" fill="none" xmlns="http://www.w3.org/2000/svg">
<path d="M14.9974 9.16683V10.8335H18.3307V9.16683H14.9974ZM13.3307 14.6752C14.1307 15.2668 15.1724 16.0502 15.9974 16.6668C16.3307 16.2252 16.6641 15.7752 16.9974 15.3335C16.1724 14.7168 15.1307 13.9335 14.3307 13.3335C13.9974 13.7835 13.6641 14.2335 13.3307 14.6752ZM16.9974 4.66683C16.6641 4.22516 16.3307 3.77516 15.9974 3.3335C15.1724 3.95016 14.1307 4.7335 13.3307 5.3335C13.6641 5.77516 13.9974 6.22516 14.3307 6.66683C15.1307 6.06683 16.1724 5.29183 16.9974 4.66683ZM3.33073 7.50016C2.41406 7.50016 1.66406 8.25016 1.66406 9.16683V10.8335C1.66406 11.7502 2.41406 12.5002 3.33073 12.5002H4.16406V15.8335H5.83073V12.5002H6.66406L10.8307 15.0002V5.00016L6.66406 7.50016H3.33073ZM7.5224 8.92516L9.16406 7.94183V12.0585L7.5224 11.0752L7.1224 10.8335H3.33073V9.16683H7.1224L7.5224 8.92516ZM12.9141 10.0002C12.9141 8.89183 12.4307 7.89183 11.6641 7.2085V12.7835C12.4307 12.1085 12.9141 11.1085 12.9141 10.0002Z" fill="#080D19"/>
</svg>
