<svg width="20" height="21" viewBox="0 0 20 21" fill="none" xmlns="http://www.w3.org/2000/svg">
<path d="M17.5002 4.83317C16.5752 4.5415 15.5585 4.4165 14.5835 4.4165C12.9585 4.4165 11.2085 4.74984 10.0002 5.6665C8.79183 4.74984 7.04183 4.4165 5.41683 4.4165C3.79183 4.4165 2.04183 4.74984 0.833496 5.6665V17.8748C0.833496 18.0832 1.04183 18.2915 1.25016 18.2915C1.3335 18.2915 1.37516 18.2498 1.4585 18.2498C2.5835 17.7082 4.2085 17.3332 5.41683 17.3332C7.04183 17.3332 8.79183 17.6665 10.0002 18.5832C11.1252 17.8748 13.1668 17.3332 14.5835 17.3332C15.9585 17.3332 17.3752 17.5832 18.5418 18.2082C18.6252 18.2498 18.6668 18.2498 18.7502 18.2498C18.9585 18.2498 19.1668 18.0415 19.1668 17.8332V5.6665C18.6668 5.2915 18.1252 5.0415 17.5002 4.83317ZM17.5002 16.0832C16.5835 15.7915 15.5835 15.6665 14.5835 15.6665C13.1668 15.6665 11.1252 16.2082 10.0002 16.9165V7.33317C11.1252 6.62484 13.1668 6.08317 14.5835 6.08317C15.5835 6.08317 16.5835 6.20817 17.5002 6.49984V16.0832Z" fill="white"/>
<path d="M14.5835 9.4165C15.3168 9.4165 16.0252 9.4915 16.6668 9.63317V8.3665C16.0085 8.2415 15.3002 8.1665 14.5835 8.1665C13.1668 8.1665 11.8835 8.40817 10.8335 8.85817V10.2415C11.7752 9.70817 13.0835 9.4165 14.5835 9.4165ZM10.8335 11.0748V12.4582C11.7752 11.9248 13.0835 11.6332 14.5835 11.6332C15.3168 11.6332 16.0252 11.7082 16.6668 11.8498V10.5832C16.0085 10.4582 15.3002 10.3832 14.5835 10.3832C13.1668 10.3832 11.8835 10.6332 10.8335 11.0748ZM14.5835 12.6082C13.1668 12.6082 11.8835 12.8498 10.8335 13.2998V14.6832C11.7752 14.1498 13.0835 13.8582 14.5835 13.8582C15.3168 13.8582 16.0252 13.9332 16.6668 14.0748V12.8082C16.0085 12.6748 15.3002 12.6082 14.5835 12.6082Z" fill="white"/>
</svg>
