<svg width="20" height="20" viewBox="0 0 20 20" fill="none" xmlns="http://www.w3.org/2000/svg">
<path d="M14.9998 9.16683V10.8335H18.3332V9.16683H14.9998ZM13.3332 14.6752C14.1332 15.2668 15.1748 16.0502 15.9998 16.6668C16.3332 16.2252 16.6665 15.7752 16.9998 15.3335C16.1748 14.7168 15.1332 13.9335 14.3332 13.3335C13.9998 13.7835 13.6665 14.2335 13.3332 14.6752ZM16.9998 4.66683C16.6665 4.22516 16.3332 3.77516 15.9998 3.3335C15.1748 3.95016 14.1332 4.7335 13.3332 5.3335C13.6665 5.77516 13.9998 6.22516 14.3332 6.66683C15.1332 6.06683 16.1748 5.29183 16.9998 4.66683ZM3.33317 7.50016C2.4165 7.50016 1.6665 8.25016 1.6665 9.16683V10.8335C1.6665 11.7502 2.4165 12.5002 3.33317 12.5002H4.1665V15.8335H5.83317V12.5002H6.6665L10.8332 15.0002V5.00016L6.6665 7.50016H3.33317ZM7.52484 8.92516L9.1665 7.94183V12.0585L7.52484 11.0752L7.12484 10.8335H3.33317V9.16683H7.12484L7.52484 8.92516ZM12.9165 10.0002C12.9165 8.89183 12.4332 7.89183 11.6665 7.2085V12.7835C12.4332 12.1085 12.9165 11.1085 12.9165 10.0002Z" fill="#61656C"/>
</svg>
