<svg width="34" height="34" viewBox="0 0 34 34" fill="none" xmlns="http://www.w3.org/2000/svg">
    <circle cx="17" cy="17" r="17" fill="#1CB87E" />
    <path
        d="M16.2615 15.3811H14.5027C14.4526 15.0927 14.3601 14.8372 14.2253 14.6146C14.0905 14.3889 13.9227 14.1976 13.7221 14.0409C13.5215 13.8841 13.2926 13.7666 13.0355 13.6882C12.7816 13.6067 12.5073 13.5659 12.2126 13.5659C11.6891 13.5659 11.2251 13.6976 10.8207 13.9609C10.4162 14.2211 10.0996 14.6036 9.87075 15.1084C9.6419 15.61 9.52747 16.2228 9.52747 16.947C9.52747 17.6838 9.6419 18.3045 9.87075 18.8092C10.1027 19.3108 10.4194 19.6902 10.8207 19.9472C11.2251 20.2012 11.6875 20.3281 12.2079 20.3281C12.4963 20.3281 12.7659 20.2905 13.0167 20.2153C13.2707 20.1369 13.4979 20.0225 13.6986 19.872C13.9024 19.7215 14.0732 19.5365 14.2112 19.3171C14.3522 19.0976 14.4494 18.8468 14.5027 18.5647L16.2615 18.5741C16.1956 19.0318 16.053 19.4613 15.8335 19.8626C15.6172 20.2639 15.3335 20.6181 14.9824 20.9253C14.6313 21.2294 14.2206 21.4677 13.7503 21.6401C13.2801 21.8094 12.7581 21.8941 12.1844 21.8941C11.3379 21.8941 10.5824 21.6981 9.91778 21.3063C9.25316 20.9144 8.72961 20.3485 8.34714 19.6086C7.96467 18.8688 7.77344 17.9816 7.77344 16.947C7.77344 15.9093 7.96624 15.0221 8.35185 14.2854C8.73745 13.5456 9.26256 12.9797 9.92718 12.5878C10.5918 12.1959 11.3442 12 12.1844 12C12.7205 12 13.2189 12.0752 13.6798 12.2257C14.1406 12.3762 14.5513 12.5972 14.9118 12.8888C15.2724 13.1772 15.5686 13.5314 15.8006 13.9515C16.0357 14.3685 16.1893 14.845 16.2615 15.3811Z"
        fill="white" />
    <path
        d="M25.7734 12.1317V21.7624H24.2216L19.6837 15.2024H19.6038V21.7624H17.8591V12.1317H19.4204L23.9536 18.6964H24.0382V12.1317H25.7734Z"
        fill="white" />
</svg>