<svg width="20" height="24" viewBox="0 0 20 24" fill="none" xmlns="http://www.w3.org/2000/svg">
    <g clip-path="url(#clip0_370_3783)">
        <path
            d="M9 12C9 12.5523 9.44772 13 10 13C10.5523 13 11 12.5523 11 12C11 11.4477 10.5523 11 10 11C9.44772 11 9 11.4477 9 12Z"
            stroke="#61656C" stroke-width="2" stroke-linecap="round" stroke-linejoin="round" />
        <path
            d="M9 19C9 19.5523 9.44772 20 10 20C10.5523 20 11 19.5523 11 19C11 18.4477 10.5523 18 10 18C9.44772 18 9 18.4477 9 19Z"
            stroke="#61656C" stroke-width="2" stroke-linecap="round" stroke-linejoin="round" />
        <path
            d="M9 5C9 5.55228 9.44772 6 10 6C10.5523 6 11 5.55228 11 5C11 4.44772 10.5523 4 10 4C9.44772 4 9 4.44772 9 5Z"
            stroke="#61656C" stroke-width="2" stroke-linecap="round" stroke-linejoin="round" />
    </g>
    <defs>
        <clipPath id="clip0_370_3783">
            <rect width="24" height="20" fill="white" transform="translate(20) rotate(90)" />
        </clipPath>
    </defs>
</svg>