<svg width="61" height="60" viewBox="0 0 61 60" fill="none" xmlns="http://www.w3.org/2000/svg">
    <path
        d="M32.8682 11.1875H18.5344C18.0593 11.1875 17.6037 11.3762 17.2678 11.7121C16.9319 12.0481 16.7432 12.5037 16.7432 12.9787V20.5938L32.8682 30L40.9307 33.4024L48.9932 30V20.5938L32.8682 11.1875Z"
        fill="#21A366" />
    <path d="M16.7432 20.5938H32.8682V30H16.7432V20.5938Z" fill="#107C41" />
    <path
        d="M47.2088 11.1875H32.875V20.5938H49V12.9787C49 12.5037 48.8113 12.0481 48.4754 11.7121C48.1394 11.3762 47.6838 11.1875 47.2088 11.1875Z"
        fill="#33C481" />
    <path
        d="M32.8682 30H16.7432V47.0213C16.7432 47.4963 16.9319 47.9519 17.2678 48.2879C17.6037 48.6238 18.0593 48.8125 18.5344 48.8125H47.2019C47.677 48.8125 48.1326 48.6238 48.4685 48.2879C48.8044 47.9519 48.9932 47.4963 48.9932 47.0213V39.4062L32.8682 30Z"
        fill="#185C37" />
    <path d="M32.875 30H49V39.4062H32.875V30Z" fill="#107C41" />
    <path opacity="0.2"
        d="M26.8642 20.6833H16.4854V42.1833H26.8642C27.3423 42.182 27.8005 42.004 28.1386 41.6881C28.4767 41.3722 28.6673 40.9442 28.6687 40.4975V22.3692C28.6673 21.9225 28.4767 21.4945 28.1386 21.1786C27.8005 20.8627 27.3423 20.6847 26.8642 20.6833Z"
        fill="black" />
    <path
        d="M7.79122 19.25H25.7088C26.1838 19.25 26.6394 19.4387 26.9754 19.7746C27.3113 20.1106 27.5 20.5662 27.5 21.0412V38.9588C27.5 39.4338 27.3113 39.8894 26.9754 40.2254C26.6394 40.5613 26.1838 40.75 25.7088 40.75H7.79122C7.31616 40.75 6.86055 40.5613 6.52464 40.2254C6.18872 39.8894 6 39.4338 6 38.9588V21.0412C6 20.5662 6.18872 20.1106 6.52464 19.7746C6.86055 19.4387 7.31616 19.25 7.79122 19.25Z"
        fill="#107C41" />
    <path
        d="M10.7529 36.7188L15.1013 29.9812L11.1184 23.2812H14.3233L16.4975 27.5638C16.6972 27.9696 16.8347 28.2724 16.91 28.4722H16.9382C17.0815 28.1479 17.2316 27.8325 17.3884 27.5262L19.7117 23.2812H22.6532L18.5682 29.9436L22.7566 36.7188H19.6257L17.1142 32.0156C16.9959 31.8153 16.8956 31.6048 16.8146 31.3867H16.777C16.7037 31.6 16.6063 31.8043 16.4867 31.9955L13.9027 36.7188H10.7529Z"
        fill="white" />
</svg>