<svg width="1385" height="380" viewBox="0 0 1385 380" fill="none" xmlns="http://www.w3.org/2000/svg">
<path d="M21 1L124.62 99.9312C132.061 107.036 141.954 111 152.242 111H341H478.103C486.488 111 494.662 113.635 501.468 118.534L623 206" stroke="#6366F1" stroke-opacity="0.2" stroke-width="2"/>
<path d="M1364.5 1L1260.88 99.9312C1253.44 107.036 1243.55 111 1233.26 111H1044.5H907.397C899.012 111 890.838 113.635 884.032 118.534L762.5 206" stroke="#6366F1" stroke-opacity="0.2" stroke-width="2"/>
<path d="M623 206L532.847 291.089C525.422 298.097 515.6 302 505.391 302H316.5H175.298C169.502 302 163.775 303.259 158.514 305.691L1 378.5" stroke="#6366F1" stroke-opacity="0.2" stroke-width="2"/>
<path d="M762.5 206L852.653 291.089C860.078 298.097 869.9 302 880.109 302H1069H1210.2C1216 302 1221.72 303.259 1226.99 305.691L1384.5 378.5" stroke="#6366F1" stroke-opacity="0.2" stroke-width="2"/>
<path d="M3 206L136.212 206H340.999H490.999H623.503" stroke="#6366F1" stroke-opacity="0.2" stroke-width="2"/>
<path d="M1382.5 206L1249.29 206H1044.5H894.501H761.997" stroke="#6366F1" stroke-opacity="0.2" stroke-width="2"/>
</svg>
