<svg width="524" height="344" viewBox="0 0 524 344" fill="none" xmlns="http://www.w3.org/2000/svg">
<rect x="0.5" y="0.5" width="523" height="343" rx="5.5" fill="white"/>
<rect x="0.5" y="0.5" width="523" height="343" rx="5.5" stroke="#EEEEFF"/>
<path d="M33.358 65.6C34.422 65.6 34.884 65.138 34.884 64.06H35.836V74H34.618V66.636H32.56V65.6H33.358ZM38.591 65.6C39.655 65.6 40.117 65.138 40.117 64.06H41.069V74H39.851V66.636H37.793V65.6H38.591ZM43.7541 72.474H45.2521V74H43.7541V72.474ZM43.7541 69.058V67.532H45.2521V69.058H43.7541ZM50.6143 68.134C51.5523 68.148 52.6723 67.714 52.6723 66.426C52.6723 65.558 51.8883 65.012 50.6143 65.012C49.5783 65.012 48.8503 65.516 48.7243 66.314L47.4643 66.23C47.6463 64.83 48.9483 63.836 50.6143 63.836C52.5743 63.836 53.9463 64.9 53.9463 66.426C53.9463 67.532 53.3163 68.274 52.1123 68.624C53.4983 69.03 54.2823 69.982 54.2823 71.27C54.2823 73.006 52.7703 74.224 50.6143 74.224C48.6263 74.224 47.1843 73.076 47.1003 71.438L48.3463 71.354C48.4583 72.572 49.6203 73.048 50.6143 73.048C51.7903 73.048 53.0223 72.516 53.0223 71.172C53.0223 69.842 51.7903 69.268 50.6143 69.296L49.8443 69.31V68.12L50.6143 68.134ZM59.5363 74.224C57.1283 74.224 55.6023 72.222 55.6023 69.044C55.6023 65.838 57.1283 63.836 59.5363 63.836C61.9583 63.836 63.4843 65.838 63.4843 69.044C63.4843 72.222 61.9583 74.224 59.5363 74.224ZM56.8623 69.044C56.8623 71.606 57.8283 73.048 59.5363 73.048C61.2583 73.048 62.2243 71.606 62.2243 69.044C62.2243 66.468 61.2583 65.012 59.5363 65.012C57.8283 65.012 56.8623 66.468 56.8623 69.044ZM64.8828 68.764C65.1768 67.322 66.3388 66.412 67.9208 66.412C69.8248 66.412 70.9028 67.532 70.9028 69.52V72.502C70.9028 72.81 71.0428 72.964 71.3508 72.964H71.6588V74H71.1548C70.3988 74 69.7408 73.762 69.7408 72.852C69.4188 73.538 68.6068 74.168 67.4308 74.168C65.9468 74.168 64.7568 73.384 64.7568 72.054C64.7568 70.528 65.9048 70.136 67.5568 69.828L69.7268 69.394C69.7128 68.148 69.1108 67.532 67.9208 67.532C66.9828 67.532 66.3528 68.008 66.1288 68.862L64.8828 68.764ZM65.9888 72.054C65.9888 72.642 66.4928 73.132 67.5848 73.132C68.7888 73.118 69.7548 72.278 69.7548 70.542V70.444L68.0048 70.752C66.8988 70.948 65.9888 71.018 65.9888 72.054ZM73.0222 66.58H74.1002L74.1282 67.826C74.4782 66.93 75.2482 66.412 76.2702 66.412C77.3482 66.412 78.1182 66.972 78.4402 67.966C78.7622 66.972 79.5322 66.412 80.6942 66.412C82.1922 66.412 83.0602 67.434 83.0602 69.226V74H81.8842V69.562C81.8842 68.218 81.3522 67.448 80.4562 67.448C79.2942 67.448 78.6222 68.232 78.6222 69.562V74H77.4462V69.562C77.4462 68.246 76.9142 67.448 76.0322 67.448C74.8842 67.448 74.1982 68.246 74.1982 69.562V74H73.0222V66.58ZM86.2095 74L85.4115 76.156H84.7255L85.2715 74H84.6975V72.474H86.1955V74H86.2095ZM91.4476 65.6C92.5116 65.6 92.9736 65.138 92.9736 64.06H93.9256V74H92.7076V66.636H90.6496V65.6H91.4476ZM99.5367 68.134C100.475 68.148 101.595 67.714 101.595 66.426C101.595 65.558 100.811 65.012 99.5367 65.012C98.5007 65.012 97.7727 65.516 97.6467 66.314L96.3867 66.23C96.5687 64.83 97.8707 63.836 99.5367 63.836C101.497 63.836 102.869 64.9 102.869 66.426C102.869 67.532 102.239 68.274 101.035 68.624C102.421 69.03 103.205 69.982 103.205 71.27C103.205 73.006 101.693 74.224 99.5367 74.224C97.5487 74.224 96.1067 73.076 96.0227 71.438L97.2687 71.354C97.3807 72.572 98.5427 73.048 99.5367 73.048C100.713 73.048 101.945 72.516 101.945 71.172C101.945 69.842 100.713 69.268 99.5367 69.296L98.7667 69.31V68.12L99.5367 68.134ZM103.905 75.54L108.035 63.5H109.169L105.025 75.54H103.905ZM114.211 74.224C111.803 74.224 110.277 72.222 110.277 69.044C110.277 65.838 111.803 63.836 114.211 63.836C116.633 63.836 118.159 65.838 118.159 69.044C118.159 72.222 116.633 74.224 114.211 74.224ZM111.537 69.044C111.537 71.606 112.503 73.048 114.211 73.048C115.933 73.048 116.899 71.606 116.899 69.044C116.899 66.468 115.933 65.012 114.211 65.012C112.503 65.012 111.537 66.468 111.537 69.044ZM119.659 67.028C119.925 65.194 121.227 63.836 123.215 63.836C125.035 63.836 126.379 65.04 126.379 66.664C126.379 68.106 125.231 69.086 123.733 70.024C122.935 70.472 121.017 71.83 120.975 72.824H126.463V74H119.477C119.477 71.032 121.605 69.954 123.299 68.876C124.349 68.204 125.119 67.434 125.119 66.664C125.119 65.698 124.335 65.012 123.215 65.012C122.011 65.012 121.185 65.768 120.919 67.112L119.659 67.028ZM127.725 75.54L131.855 63.5H132.989L128.845 75.54H127.725ZM134.787 67.028C135.053 65.194 136.355 63.836 138.343 63.836C140.163 63.836 141.507 65.04 141.507 66.664C141.507 68.106 140.359 69.086 138.861 70.024C138.063 70.472 136.145 71.83 136.103 72.824H141.591V74H134.605C134.605 71.032 136.733 69.954 138.427 68.876C139.477 68.204 140.247 67.434 140.247 66.664C140.247 65.698 139.463 65.012 138.343 65.012C137.139 65.012 136.313 65.768 136.047 67.112L134.787 67.028ZM146.846 74.224C144.438 74.224 142.912 72.222 142.912 69.044C142.912 65.838 144.438 63.836 146.846 63.836C149.268 63.836 150.794 65.838 150.794 69.044C150.794 72.222 149.268 74.224 146.846 74.224ZM144.172 69.044C144.172 71.606 145.138 73.048 146.846 73.048C148.568 73.048 149.534 71.606 149.534 69.044C149.534 66.468 148.568 65.012 146.846 65.012C145.138 65.012 144.172 66.468 144.172 69.044ZM152.294 67.028C152.56 65.194 153.862 63.836 155.85 63.836C157.67 63.836 159.014 65.04 159.014 66.664C159.014 68.106 157.866 69.086 156.368 70.024C155.57 70.472 153.652 71.83 153.61 72.824H159.098V74H152.112C152.112 71.032 154.24 69.954 155.934 68.876C156.984 68.204 157.754 67.434 157.754 66.664C157.754 65.698 156.97 65.012 155.85 65.012C154.646 65.012 153.82 65.768 153.554 67.112L152.294 67.028ZM166.856 64.06V70.78H167.99V71.956H166.856V74H165.652V71.956H160.5V70.78L165.568 64.06H166.856ZM161.984 70.78H165.652V65.908L161.984 70.78Z" fill="#A9AAAE"/>
<path d="M34.384 115.272C34.672 116.808 35.76 117.848 37.552 117.848C39.008 117.848 39.984 117.272 39.984 116.136C39.984 114.984 38.992 114.28 36.72 113.704C34.864 113.24 33.184 112.328 33.184 110.504C33.184 108.584 34.72 107.384 36.896 107.384C39.328 107.384 40.944 108.904 41.184 111L39.744 111.096C39.536 109.672 38.448 108.728 36.88 108.728C35.584 108.728 34.624 109.416 34.624 110.504C34.624 111.88 36.272 112.264 37.712 112.664C39.776 113.24 41.424 114.264 41.424 115.992C41.424 118.104 39.504 119.192 37.44 119.192C34.96 119.192 33.136 117.672 32.944 115.368L34.384 115.272ZM43.111 113.016C43.447 111.368 44.775 110.328 46.583 110.328C48.759 110.328 49.991 111.608 49.991 113.88V117.288C49.991 117.64 50.151 117.816 50.503 117.816H50.855V119H50.279C49.415 119 48.663 118.728 48.663 117.688C48.295 118.472 47.367 119.192 46.023 119.192C44.327 119.192 42.967 118.296 42.967 116.776C42.967 115.032 44.279 114.584 46.167 114.232L48.647 113.736C48.631 112.312 47.943 111.608 46.583 111.608C45.511 111.608 44.791 112.152 44.535 113.128L43.111 113.016ZM44.375 116.776C44.375 117.448 44.951 118.008 46.199 118.008C47.575 117.992 48.679 117.032 48.679 115.048V114.936L46.679 115.288C45.415 115.512 44.375 115.592 44.375 116.776ZM52.5381 107.64H53.8821V117.288C53.8821 117.64 54.0581 117.816 54.4101 117.816H55.1461V119H54.2021C53.2101 119 52.5381 118.328 52.5381 117.352V107.64ZM56.2251 114.76C56.2251 112.072 57.7451 110.328 60.1131 110.328C61.9851 110.328 63.6491 111.56 63.7771 114.568L63.7931 115.176H57.6491C57.7771 116.904 58.6571 117.912 60.1131 117.912C61.0091 117.912 61.8411 117.384 62.2251 116.488L63.6651 116.6C63.1691 118.2 61.7291 119.192 60.1131 119.192C57.7451 119.192 56.2251 117.448 56.2251 114.76ZM57.6811 113.992H62.3211C62.0971 112.216 61.1371 111.608 60.1131 111.608C58.7691 111.608 57.9051 112.488 57.6811 113.992ZM70.5513 113.144C70.3593 112.184 69.4153 111.608 68.4713 111.608C67.5273 111.608 66.7593 112.088 66.7593 112.904C66.7593 113.736 67.8633 114.072 68.7913 114.264C70.7113 114.632 72.1193 115.16 72.1193 116.84C72.1193 118.488 70.4233 119.192 68.8073 119.192C66.8073 119.192 65.2713 118.088 65.1433 116.328L66.5513 116.232C66.7273 117.256 67.5433 117.912 68.8073 117.912C69.6393 117.912 70.7113 117.64 70.7113 116.76C70.7113 115.752 69.5113 115.64 68.5513 115.416C66.9993 115.064 65.3513 114.616 65.3513 112.968C65.3513 111.352 66.6633 110.328 68.6153 110.328C70.2953 110.328 71.6873 111.4 71.9593 113.048L70.5513 113.144ZM77.8356 110.52H79.1796V119H77.8356V110.52ZM77.8036 109.192V107.656H79.2116V109.192H77.8036ZM81.3475 110.52H82.5795L82.6115 111.992C83.0435 110.84 84.0515 110.328 85.2195 110.328C87.1555 110.328 88.0835 111.752 88.0835 113.544V119H86.7395V113.928C86.7395 112.36 86.2115 111.512 84.9315 111.512C83.5875 111.512 82.6915 112.36 82.6915 113.928V119H81.3475V110.52ZM95.1724 108.6H96.5164V110.52H98.7724V111.704H96.5164V116.744C96.5164 117.448 96.8524 117.816 97.5244 117.816H98.7404V119H97.5244C96.0044 119 95.1724 118.184 95.1724 116.744V111.704H93.9244V110.52H95.1724V108.6ZM100.477 107.64H101.821V111.672C102.301 110.744 103.293 110.328 104.349 110.328C106.109 110.328 107.213 111.576 107.213 113.544V119H105.869V114.024C105.869 112.408 105.277 111.608 104.061 111.608C102.717 111.608 101.821 112.456 101.821 114.024V119H100.477V107.64ZM108.851 114.76C108.851 112.072 110.371 110.328 112.739 110.328C114.611 110.328 116.275 111.56 116.403 114.568L116.419 115.176H110.275C110.403 116.904 111.283 117.912 112.739 117.912C113.635 117.912 114.467 117.384 114.851 116.488L116.291 116.6C115.795 118.2 114.355 119.192 112.739 119.192C110.371 119.192 108.851 117.448 108.851 114.76ZM110.307 113.992H114.947C114.723 112.216 113.763 111.608 112.739 111.608C111.395 111.608 110.531 112.488 110.307 113.992ZM122.985 108.6H124.329V110.52H126.585V111.704H124.329V116.744C124.329 117.448 124.665 117.816 125.337 117.816H126.553V119H125.337C123.817 119 122.985 118.184 122.985 116.744V111.704H121.737V110.52H122.985V108.6ZM128.29 107.64H129.634V111.672C130.114 110.744 131.106 110.328 132.162 110.328C133.922 110.328 135.026 111.576 135.026 113.544V119H133.682V114.024C133.682 112.408 133.09 111.608 131.874 111.608C130.53 111.608 129.634 112.456 129.634 114.024V119H128.29V107.64ZM137.427 110.52H138.771V119H137.427V110.52ZM137.395 109.192V107.656H138.803V109.192H137.395ZM140.939 110.52H142.123L142.171 112.072C142.459 111.016 143.083 110.52 144.187 110.52H145.019V111.704H144.187C142.891 111.704 142.283 112.488 142.283 113.944V119H140.939V110.52ZM153.412 107.64V119H152.196L152.148 117.784C151.668 118.648 150.644 119.192 149.46 119.192C147.252 119.192 145.876 117.48 145.876 114.76C145.876 112.04 147.252 110.328 149.46 110.328C150.596 110.328 151.604 110.84 152.068 111.64V107.64H153.412ZM147.284 114.76C147.284 116.696 148.244 117.912 149.732 117.912C151.236 117.912 152.196 116.696 152.196 114.76C152.196 112.792 151.236 111.544 149.732 111.544C148.244 111.544 147.284 112.792 147.284 114.76ZM166.654 121.4H165.31V117.848C164.83 118.728 163.966 119.192 162.782 119.192C160.254 119.192 159.118 117.096 159.118 114.76C159.118 112.424 160.254 110.328 162.782 110.328C164.014 110.328 164.926 110.84 165.39 111.784L165.438 110.52H166.654V121.4ZM160.558 114.76C160.558 116.376 161.262 117.912 163.006 117.912C164.734 117.912 165.454 116.344 165.454 114.76C165.454 113.176 164.734 111.608 163.006 111.608C161.262 111.608 160.558 113.144 160.558 114.76ZM175.376 119H174.096V117.592C173.648 118.696 172.672 119.192 171.552 119.192C169.664 119.192 168.736 117.768 168.736 115.976V110.52H170.08V115.576C170.08 117.16 170.608 118.008 171.84 118.008C173.152 118.008 174.032 117.16 174.032 115.576V110.52H175.376V119ZM177.395 113.016C177.731 111.368 179.059 110.328 180.867 110.328C183.043 110.328 184.275 111.608 184.275 113.88V117.288C184.275 117.64 184.435 117.816 184.787 117.816H185.139V119H184.563C183.699 119 182.947 118.728 182.947 117.688C182.579 118.472 181.651 119.192 180.307 119.192C178.611 119.192 177.251 118.296 177.251 116.776C177.251 115.032 178.563 114.584 180.451 114.232L182.931 113.736C182.915 112.312 182.227 111.608 180.867 111.608C179.795 111.608 179.075 112.152 178.819 113.128L177.395 113.016ZM178.659 116.776C178.659 117.448 179.235 118.008 180.483 118.008C181.859 117.992 182.963 117.032 182.963 115.048V114.936L180.963 115.288C179.699 115.512 178.659 115.592 178.659 116.776ZM186.697 110.52H187.881L187.929 112.072C188.217 111.016 188.841 110.52 189.945 110.52H190.777V111.704H189.945C188.649 111.704 188.041 112.488 188.041 113.944V119H186.697V110.52ZM193.261 108.6H194.605V110.52H196.861V111.704H194.605V116.744C194.605 117.448 194.941 117.816 195.613 117.816H196.829V119H195.613C194.093 119 193.261 118.184 193.261 116.744V111.704H192.013V110.52H193.261V108.6ZM197.803 114.76C197.803 112.072 199.323 110.328 201.691 110.328C203.563 110.328 205.227 111.56 205.355 114.568L205.371 115.176H199.227C199.355 116.904 200.235 117.912 201.691 117.912C202.587 117.912 203.419 117.384 203.803 116.488L205.243 116.6C204.747 118.2 203.307 119.192 201.691 119.192C199.323 119.192 197.803 117.448 197.803 114.76ZM199.259 113.992H203.899C203.675 112.216 202.715 111.608 201.691 111.608C200.347 111.608 199.483 112.488 199.259 113.992ZM207.171 110.52H208.355L208.403 112.072C208.691 111.016 209.315 110.52 210.419 110.52H211.251V111.704H210.419C209.123 111.704 208.515 112.488 208.515 113.944V119H207.171V110.52ZM216.96 110.52H218.304V119H216.96V110.52ZM216.928 109.192V107.656H218.336V109.192H216.928ZM220.472 110.52H221.704L221.736 111.992C222.168 110.84 223.176 110.328 224.344 110.328C226.28 110.328 227.208 111.752 227.208 113.544V119H225.864V113.928C225.864 112.36 225.336 111.512 224.056 111.512C222.712 111.512 221.816 112.36 221.816 113.928V119H220.472V110.52ZM234.846 113.368C234.67 112.264 233.742 111.608 232.734 111.608C231.166 111.608 230.254 112.792 230.254 114.76C230.254 116.728 231.166 117.912 232.734 117.912C233.79 117.912 234.718 117.208 234.91 115.992L236.334 116.088C236.062 118.008 234.526 119.192 232.734 119.192C230.366 119.192 228.846 117.448 228.846 114.76C228.846 112.072 230.366 110.328 232.734 110.328C234.462 110.328 236.03 111.448 236.254 113.272L234.846 113.368ZM237.964 110.52H239.148L239.196 112.072C239.484 111.016 240.108 110.52 241.212 110.52H242.044V111.704H241.212C239.916 111.704 239.308 112.488 239.308 113.944V119H237.964V110.52ZM242.901 114.76C242.901 112.072 244.421 110.328 246.789 110.328C248.661 110.328 250.325 111.56 250.453 114.568L250.469 115.176H244.325C244.453 116.904 245.333 117.912 246.789 117.912C247.685 117.912 248.517 117.384 248.901 116.488L250.341 116.6C249.845 118.2 248.405 119.192 246.789 119.192C244.421 119.192 242.901 117.448 242.901 114.76ZM244.357 113.992H248.997C248.773 112.216 247.813 111.608 246.789 111.608C245.445 111.608 244.581 112.488 244.357 113.992ZM252.042 113.016C252.378 111.368 253.706 110.328 255.514 110.328C257.69 110.328 258.922 111.608 258.922 113.88V117.288C258.922 117.64 259.082 117.816 259.434 117.816H259.786V119H259.21C258.346 119 257.594 118.728 257.594 117.688C257.226 118.472 256.298 119.192 254.954 119.192C253.258 119.192 251.898 118.296 251.898 116.776C251.898 115.032 253.21 114.584 255.098 114.232L257.578 113.736C257.562 112.312 256.874 111.608 255.514 111.608C254.442 111.608 253.722 112.152 253.466 113.128L252.042 113.016ZM253.306 116.776C253.306 117.448 253.882 118.008 255.13 118.008C256.506 117.992 257.61 117.032 257.61 115.048V114.936L255.61 115.288C254.346 115.512 253.306 115.592 253.306 116.776ZM266.193 113.144C266.001 112.184 265.057 111.608 264.113 111.608C263.169 111.608 262.401 112.088 262.401 112.904C262.401 113.736 263.505 114.072 264.433 114.264C266.353 114.632 267.761 115.16 267.761 116.84C267.761 118.488 266.065 119.192 264.449 119.192C262.449 119.192 260.913 118.088 260.785 116.328L262.193 116.232C262.369 117.256 263.185 117.912 264.449 117.912C265.281 117.912 266.353 117.64 266.353 116.76C266.353 115.752 265.153 115.64 264.193 115.416C262.641 115.064 260.993 114.616 260.993 112.968C260.993 111.352 262.305 110.328 264.257 110.328C265.937 110.328 267.329 111.4 267.601 113.048L266.193 113.144ZM269.109 114.76C269.109 112.072 270.629 110.328 272.997 110.328C274.869 110.328 276.533 111.56 276.661 114.568L276.677 115.176H270.533C270.661 116.904 271.541 117.912 272.997 117.912C273.893 117.912 274.725 117.384 275.109 116.488L276.549 116.6C276.053 118.2 274.613 119.192 272.997 119.192C270.629 119.192 269.109 117.448 269.109 114.76ZM270.565 113.992H275.205C274.981 112.216 274.021 111.608 272.997 111.608C271.653 111.608 270.789 112.488 270.565 113.992ZM285.563 107.64V119H284.347L284.299 117.784C283.819 118.648 282.795 119.192 281.611 119.192C279.403 119.192 278.027 117.48 278.027 114.76C278.027 112.04 279.403 110.328 281.611 110.328C282.747 110.328 283.755 110.84 284.219 111.64V107.64H285.563ZM279.435 114.76C279.435 116.696 280.395 117.912 281.883 117.912C283.387 117.912 284.347 116.696 284.347 114.76C284.347 112.792 283.387 111.544 281.883 111.544C280.395 111.544 279.435 112.792 279.435 114.76ZM291.797 107.64H293.141V111.64C293.605 110.84 294.613 110.328 295.749 110.328C297.957 110.328 299.333 112.04 299.333 114.76C299.333 117.48 297.957 119.192 295.749 119.192C294.565 119.192 293.541 118.648 293.061 117.784L293.013 119H291.797V107.64ZM293.013 114.76C293.013 116.696 293.973 117.912 295.477 117.912C296.965 117.912 297.925 116.696 297.925 114.76C297.925 112.792 296.965 111.544 295.477 111.544C293.973 111.544 293.013 112.792 293.013 114.76ZM299.866 110.52H301.306L303.85 117.56L306.33 110.52H307.754L304.314 120.072C303.994 120.984 303.386 121.4 302.426 121.4H301.322V120.216H302.298C302.714 120.216 302.954 120.04 303.114 119.624L303.418 118.84H302.97L299.866 110.52ZM312.956 111.032C313.26 108.936 314.748 107.384 317.02 107.384C319.1 107.384 320.636 108.76 320.636 110.616C320.636 112.264 319.324 113.384 317.612 114.456C316.7 114.968 314.508 116.52 314.46 117.656H320.732V119H312.748C312.748 115.608 315.18 114.376 317.116 113.144C318.316 112.376 319.196 111.496 319.196 110.616C319.196 109.512 318.3 108.728 317.02 108.728C315.644 108.728 314.7 109.592 314.396 111.128L312.956 111.032ZM326.738 119.256C323.986 119.256 322.242 116.968 322.242 113.336C322.242 109.672 323.986 107.384 326.738 107.384C329.506 107.384 331.25 109.672 331.25 113.336C331.25 116.968 329.506 119.256 326.738 119.256ZM323.682 113.336C323.682 116.264 324.786 117.912 326.738 117.912C328.706 117.912 329.81 116.264 329.81 113.336C329.81 110.392 328.706 108.728 326.738 108.728C324.786 108.728 323.682 110.392 323.682 113.336ZM341.52 107.384H343.04L334.752 119.192H333.232L341.52 107.384ZM332.704 110.392C332.704 108.84 333.728 107.624 335.008 107.624C336.288 107.624 337.312 108.84 337.312 110.392C337.312 111.928 336.288 113.144 335.008 113.144C333.728 113.144 332.704 111.928 332.704 110.392ZM333.92 110.392C333.92 111.336 334.336 111.928 335.008 111.928C335.68 111.928 336.112 111.336 336.112 110.392C336.112 109.448 335.68 108.84 335.008 108.84C334.336 108.84 333.92 109.448 333.92 110.392ZM338.88 116.232C338.88 114.696 339.904 113.48 341.184 113.48C342.464 113.48 343.488 114.696 343.488 116.232C343.488 117.784 342.464 119 341.184 119C339.904 119 338.88 117.784 338.88 116.232ZM340.096 116.232C340.096 117.176 340.512 117.784 341.184 117.784C341.856 117.784 342.288 117.176 342.288 116.232C342.288 115.288 341.856 114.696 341.184 114.696C340.512 114.696 340.096 115.288 340.096 116.232ZM354.665 113.368C354.489 112.264 353.561 111.608 352.553 111.608C350.985 111.608 350.073 112.792 350.073 114.76C350.073 116.728 350.985 117.912 352.553 117.912C353.609 117.912 354.537 117.208 354.729 115.992L356.153 116.088C355.881 118.008 354.345 119.192 352.553 119.192C350.185 119.192 348.665 117.448 348.665 114.76C348.665 112.072 350.185 110.328 352.553 110.328C354.281 110.328 355.849 111.448 356.073 113.272L354.665 113.368ZM361.221 119.192C358.869 119.192 357.333 117.464 357.333 114.76C357.333 112.056 358.869 110.328 361.221 110.328C363.557 110.328 365.093 112.056 365.093 114.76C365.093 117.464 363.557 119.192 361.221 119.192ZM358.741 114.76C358.741 116.728 359.653 117.912 361.221 117.912C362.773 117.912 363.685 116.728 363.685 114.76C363.685 112.792 362.773 111.608 361.221 111.608C359.653 111.608 358.741 112.792 358.741 114.76ZM366.889 110.52H368.121L368.153 111.944C368.553 110.92 369.433 110.328 370.601 110.328C371.833 110.328 372.713 110.968 373.081 112.104C373.449 110.968 374.329 110.328 375.657 110.328C377.369 110.328 378.361 111.496 378.361 113.544V119H377.017V113.928C377.017 112.392 376.409 111.512 375.385 111.512C374.057 111.512 373.289 112.408 373.289 113.928V119H371.945V113.928C371.945 112.424 371.337 111.512 370.329 111.512C369.017 111.512 368.233 112.424 368.233 113.928V119H366.889V110.52ZM380.448 121.4V110.52H381.664L381.712 111.784C382.176 110.84 383.088 110.328 384.32 110.328C386.848 110.328 387.984 112.424 387.984 114.76C387.984 117.096 386.848 119.192 384.32 119.192C383.136 119.192 382.272 118.728 381.792 117.848V121.4H380.448ZM381.648 114.76C381.648 116.344 382.368 117.912 384.096 117.912C385.84 117.912 386.544 116.376 386.544 114.76C386.544 113.144 385.84 111.608 384.096 111.608C382.368 111.608 381.648 113.176 381.648 114.76ZM389.544 113.016C389.88 111.368 391.208 110.328 393.016 110.328C395.192 110.328 396.424 111.608 396.424 113.88V117.288C396.424 117.64 396.584 117.816 396.936 117.816H397.288V119H396.712C395.848 119 395.096 118.728 395.096 117.688C394.728 118.472 393.8 119.192 392.456 119.192C390.76 119.192 389.4 118.296 389.4 116.776C389.4 115.032 390.712 114.584 392.6 114.232L395.08 113.736C395.064 112.312 394.376 111.608 393.016 111.608C391.944 111.608 391.224 112.152 390.968 113.128L389.544 113.016ZM390.808 116.776C390.808 117.448 391.384 118.008 392.632 118.008C394.008 117.992 395.112 117.032 395.112 115.048V114.936L393.112 115.288C391.848 115.512 390.808 115.592 390.808 116.776ZM398.846 110.52H400.03L400.078 112.072C400.366 111.016 400.99 110.52 402.094 110.52H402.926V111.704H402.094C400.798 111.704 400.19 112.488 400.19 113.944V119H398.846V110.52ZM403.783 114.76C403.783 112.072 405.303 110.328 407.671 110.328C409.543 110.328 411.207 111.56 411.335 114.568L411.351 115.176H405.207C405.335 116.904 406.215 117.912 407.671 117.912C408.567 117.912 409.399 117.384 409.783 116.488L411.223 116.6C410.727 118.2 409.287 119.192 407.671 119.192C405.303 119.192 403.783 117.448 403.783 114.76ZM405.239 113.992H409.879C409.655 112.216 408.695 111.608 407.671 111.608C406.327 111.608 405.463 112.488 405.239 113.992ZM420.237 107.64V119H419.021L418.973 117.784C418.493 118.648 417.469 119.192 416.285 119.192C414.077 119.192 412.701 117.48 412.701 114.76C412.701 112.04 414.077 110.328 416.285 110.328C417.421 110.328 418.429 110.84 418.893 111.64V107.64H420.237ZM414.109 114.76C414.109 116.696 415.069 117.912 416.557 117.912C418.061 117.912 419.021 116.696 419.021 114.76C419.021 112.792 418.061 111.544 416.557 111.544C415.069 111.544 414.109 112.792 414.109 114.76ZM427.32 108.6H428.664V110.52H430.92V111.704H428.664V116.744C428.664 117.448 429 117.816 429.672 117.816H430.888V119H429.672C428.152 119 427.32 118.184 427.32 116.744V111.704H426.072V110.52H427.32V108.6ZM435.75 119.192C433.398 119.192 431.862 117.464 431.862 114.76C431.862 112.056 433.398 110.328 435.75 110.328C438.086 110.328 439.622 112.056 439.622 114.76C439.622 117.464 438.086 119.192 435.75 119.192ZM433.27 114.76C433.27 116.728 434.182 117.912 435.75 117.912C437.302 117.912 438.214 116.728 438.214 114.76C438.214 112.792 437.302 111.608 435.75 111.608C434.182 111.608 433.27 112.792 433.27 114.76ZM446.184 108.6H447.528V110.52H449.784V111.704H447.528V116.744C447.528 117.448 447.864 117.816 448.536 117.816H449.752V119H448.536C447.016 119 446.184 118.184 446.184 116.744V111.704H444.936V110.52H446.184V108.6ZM451.488 107.64H452.832V111.672C453.312 110.744 454.304 110.328 455.36 110.328C457.12 110.328 458.224 111.576 458.224 113.544V119H456.88V114.024C456.88 112.408 456.288 111.608 455.072 111.608C453.728 111.608 452.832 112.456 452.832 114.024V119H451.488V107.64ZM459.863 114.76C459.863 112.072 461.383 110.328 463.751 110.328C465.623 110.328 467.287 111.56 467.415 114.568L467.431 115.176H461.287C461.415 116.904 462.295 117.912 463.751 117.912C464.647 117.912 465.479 117.384 465.863 116.488L467.303 116.6C466.807 118.2 465.367 119.192 463.751 119.192C461.383 119.192 459.863 117.448 459.863 114.76ZM461.319 113.992H465.959C465.735 112.216 464.775 111.608 463.751 111.608C462.407 111.608 461.543 112.488 461.319 113.992ZM38.16 139.144C37.968 138.184 37.024 137.608 36.08 137.608C35.136 137.608 34.368 138.088 34.368 138.904C34.368 139.736 35.472 140.072 36.4 140.264C38.32 140.632 39.728 141.16 39.728 142.84C39.728 144.488 38.032 145.192 36.416 145.192C34.416 145.192 32.88 144.088 32.752 142.328L34.16 142.232C34.336 143.256 35.152 143.912 36.416 143.912C37.248 143.912 38.32 143.64 38.32 142.76C38.32 141.752 37.12 141.64 36.16 141.416C34.608 141.064 32.96 140.616 32.96 138.968C32.96 137.352 34.272 136.328 36.224 136.328C37.904 136.328 39.296 137.4 39.568 139.048L38.16 139.144ZM41.2985 139.016C41.6345 137.368 42.9625 136.328 44.7705 136.328C46.9465 136.328 48.1785 137.608 48.1785 139.88V143.288C48.1785 143.64 48.3385 143.816 48.6905 143.816H49.0425V145H48.4665C47.6025 145 46.8505 144.728 46.8505 143.688C46.4825 144.472 45.5545 145.192 44.2105 145.192C42.5145 145.192 41.1545 144.296 41.1545 142.776C41.1545 141.032 42.4665 140.584 44.3545 140.232L46.8345 139.736C46.8185 138.312 46.1305 137.608 44.7705 137.608C43.6985 137.608 42.9785 138.152 42.7225 139.128L41.2985 139.016ZM42.5625 142.776C42.5625 143.448 43.1385 144.008 44.3865 144.008C45.7625 143.992 46.8665 143.032 46.8665 141.048V140.936L44.8665 141.288C43.6025 141.512 42.5625 141.592 42.5625 142.776ZM50.6006 136.52H51.8326L51.8646 137.944C52.2646 136.92 53.1446 136.328 54.3126 136.328C55.5446 136.328 56.4246 136.968 56.7926 138.104C57.1606 136.968 58.0406 136.328 59.3686 136.328C61.0806 136.328 62.0726 137.496 62.0726 139.544V145H60.7286V139.928C60.7286 138.392 60.1206 137.512 59.0966 137.512C57.7686 137.512 57.0006 138.408 57.0006 139.928V145H55.6566V139.928C55.6566 138.424 55.0486 137.512 54.0406 137.512C52.7286 137.512 51.9446 138.424 51.9446 139.928V145H50.6006V136.52ZM63.7095 140.76C63.7095 138.072 65.2295 136.328 67.5975 136.328C69.4695 136.328 71.1335 137.56 71.2615 140.568L71.2775 141.176H65.1335C65.2615 142.904 66.1415 143.912 67.5975 143.912C68.4935 143.912 69.3255 143.384 69.7095 142.488L71.1495 142.6C70.6535 144.2 69.2135 145.192 67.5975 145.192C65.2295 145.192 63.7095 143.448 63.7095 140.76ZM65.1655 139.992H69.8055C69.5815 138.216 68.6215 137.608 67.5975 137.608C66.2535 137.608 65.3895 138.488 65.1655 139.992ZM76.9956 147.4V136.52H78.2116L78.2596 137.784C78.7236 136.84 79.6356 136.328 80.8676 136.328C83.3956 136.328 84.5316 138.424 84.5316 140.76C84.5316 143.096 83.3956 145.192 80.8676 145.192C79.6836 145.192 78.8196 144.728 78.3396 143.848V147.4H76.9956ZM78.1956 140.76C78.1956 142.344 78.9156 143.912 80.6436 143.912C82.3876 143.912 83.0916 142.376 83.0916 140.76C83.0916 139.144 82.3876 137.608 80.6436 137.608C78.9156 137.608 78.1956 139.176 78.1956 140.76ZM85.8701 140.76C85.8701 138.072 87.3901 136.328 89.7581 136.328C91.6301 136.328 93.2941 137.56 93.4221 140.568L93.4381 141.176H87.2941C87.4221 142.904 88.3021 143.912 89.7581 143.912C90.6541 143.912 91.4861 143.384 91.8701 142.488L93.3101 142.6C92.8141 144.2 91.3741 145.192 89.7581 145.192C87.3901 145.192 85.8701 143.448 85.8701 140.76ZM87.3261 139.992H91.9661C91.7421 138.216 90.7821 137.608 89.7581 137.608C88.4141 137.608 87.5501 138.488 87.3261 139.992ZM95.2381 136.52H96.4221L96.4701 138.072C96.7581 137.016 97.3821 136.52 98.4861 136.52H99.3181V137.704H98.4861C97.1901 137.704 96.5821 138.488 96.5821 139.944V145H95.2381V136.52ZM101.188 136.52H102.532V145H101.188V136.52ZM101.156 135.192V133.656H102.564V135.192H101.156ZM108.294 145.192C105.942 145.192 104.406 143.464 104.406 140.76C104.406 138.056 105.942 136.328 108.294 136.328C110.63 136.328 112.166 138.056 112.166 140.76C112.166 143.464 110.63 145.192 108.294 145.192ZM105.814 140.76C105.814 142.728 106.726 143.912 108.294 143.912C109.846 143.912 110.758 142.728 110.758 140.76C110.758 138.792 109.846 137.608 108.294 137.608C106.726 137.608 105.814 138.792 105.814 140.76ZM121.047 133.64V145H119.831L119.783 143.784C119.303 144.648 118.279 145.192 117.095 145.192C114.887 145.192 113.511 143.48 113.511 140.76C113.511 138.04 114.887 136.328 117.095 136.328C118.231 136.328 119.239 136.84 119.703 137.64V133.64H121.047ZM114.919 140.76C114.919 142.696 115.879 143.912 117.367 143.912C118.871 143.912 119.831 142.696 119.831 140.76C119.831 138.792 118.871 137.544 117.367 137.544C115.879 137.544 114.919 138.792 114.919 140.76ZM127.282 133.64H128.626V143.288C128.626 143.64 128.802 143.816 129.154 143.816H129.89V145H128.946C127.954 145 127.282 144.328 127.282 143.352V133.64ZM131.269 139.016C131.605 137.368 132.933 136.328 134.741 136.328C136.917 136.328 138.149 137.608 138.149 139.88V143.288C138.149 143.64 138.309 143.816 138.661 143.816H139.013V145H138.437C137.573 145 136.821 144.728 136.821 143.688C136.453 144.472 135.525 145.192 134.181 145.192C132.485 145.192 131.125 144.296 131.125 142.776C131.125 141.032 132.437 140.584 134.325 140.232L136.805 139.736C136.789 138.312 136.101 137.608 134.741 137.608C133.669 137.608 132.949 138.152 132.693 139.128L131.269 139.016ZM132.533 142.776C132.533 143.448 133.109 144.008 134.357 144.008C135.733 143.992 136.837 143.032 136.837 141.048V140.936L134.837 141.288C133.573 141.512 132.533 141.592 132.533 142.776ZM145.42 139.144C145.228 138.184 144.284 137.608 143.34 137.608C142.396 137.608 141.628 138.088 141.628 138.904C141.628 139.736 142.732 140.072 143.66 140.264C145.58 140.632 146.988 141.16 146.988 142.84C146.988 144.488 145.292 145.192 143.676 145.192C141.676 145.192 140.14 144.088 140.012 142.328L141.42 142.232C141.596 143.256 142.412 143.912 143.676 143.912C144.508 143.912 145.58 143.64 145.58 142.76C145.58 141.752 144.38 141.64 143.42 141.416C141.868 141.064 140.22 140.616 140.22 138.968C140.22 137.352 141.532 136.328 143.484 136.328C145.164 136.328 146.556 137.4 146.828 139.048L145.42 139.144ZM149.228 134.6H150.572V136.52H152.828V137.704H150.572V142.744C150.572 143.448 150.908 143.816 151.58 143.816H152.796V145H151.58C150.06 145 149.228 144.184 149.228 142.744V137.704H147.98V136.52H149.228V134.6ZM157.444 136.52H158.884L161.428 143.56L163.908 136.52H165.332L161.892 146.072C161.572 146.984 160.964 147.4 160.004 147.4H158.9V146.216H159.876C160.292 146.216 160.532 146.04 160.692 145.624L160.996 144.84H160.548L157.444 136.52ZM165.872 140.76C165.872 138.072 167.392 136.328 169.76 136.328C171.632 136.328 173.296 137.56 173.424 140.568L173.44 141.176H167.296C167.424 142.904 168.304 143.912 169.76 143.912C170.656 143.912 171.488 143.384 171.872 142.488L173.312 142.6C172.816 144.2 171.376 145.192 169.76 145.192C167.392 145.192 165.872 143.448 165.872 140.76ZM167.328 139.992H171.968C171.744 138.216 170.784 137.608 169.76 137.608C168.416 137.608 167.552 138.488 167.328 139.992ZM175.012 139.016C175.348 137.368 176.676 136.328 178.484 136.328C180.66 136.328 181.892 137.608 181.892 139.88V143.288C181.892 143.64 182.052 143.816 182.404 143.816H182.756V145H182.18C181.316 145 180.564 144.728 180.564 143.688C180.196 144.472 179.268 145.192 177.924 145.192C176.228 145.192 174.868 144.296 174.868 142.776C174.868 141.032 176.18 140.584 178.068 140.232L180.548 139.736C180.532 138.312 179.844 137.608 178.484 137.608C177.412 137.608 176.692 138.152 176.436 139.128L175.012 139.016ZM176.276 142.776C176.276 143.448 176.852 144.008 178.1 144.008C179.476 143.992 180.58 143.032 180.58 141.048V140.936L178.58 141.288C177.316 141.512 176.276 141.592 176.276 142.776ZM184.314 136.52H185.498L185.546 138.072C185.834 137.016 186.458 136.52 187.562 136.52H188.394V137.704H187.562C186.266 137.704 185.658 138.488 185.658 139.944V145H184.314V136.52ZM190.511 145L189.599 147.464H188.815L189.439 145H188.783V143.256H190.495V145H190.511ZM203.233 133.64V145H202.017L201.969 143.784C201.489 144.648 200.465 145.192 199.281 145.192C197.073 145.192 195.697 143.48 195.697 140.76C195.697 138.04 197.073 136.328 199.281 136.328C200.417 136.328 201.425 136.84 201.889 137.64V133.64H203.233ZM197.105 140.76C197.105 142.696 198.065 143.912 199.553 143.912C201.057 143.912 202.017 142.696 202.017 140.76C202.017 138.792 201.057 137.544 199.553 137.544C198.065 137.544 197.105 138.792 197.105 140.76ZM205.393 136.52H206.577L206.625 138.072C206.913 137.016 207.537 136.52 208.641 136.52H209.473V137.704H208.641C207.345 137.704 206.737 138.488 206.737 139.944V145H205.393V136.52ZM211.343 136.52H212.687V145H211.343V136.52ZM211.311 135.192V133.656H212.719V135.192H211.311ZM222.033 136.52L218.945 145H217.249L214.161 136.52H215.601L218.097 143.592L220.593 136.52H222.033ZM222.573 140.76C222.573 138.072 224.093 136.328 226.461 136.328C228.333 136.328 229.997 137.56 230.125 140.568L230.141 141.176H223.997C224.125 142.904 225.005 143.912 226.461 143.912C227.357 143.912 228.189 143.384 228.573 142.488L230.013 142.6C229.517 144.2 228.077 145.192 226.461 145.192C224.093 145.192 222.573 143.448 222.573 140.76ZM224.029 139.992H228.669C228.445 138.216 227.485 137.608 226.461 137.608C225.117 137.608 224.253 138.488 224.029 139.992ZM231.941 136.52H233.173L233.205 137.992C233.637 136.84 234.645 136.328 235.813 136.328C237.749 136.328 238.677 137.752 238.677 139.544V145H237.333V139.928C237.333 138.36 236.805 137.512 235.525 137.512C234.181 137.512 233.285 138.36 233.285 139.928V145H231.941V136.52ZM244.917 147.4V136.52H246.133L246.181 137.784C246.645 136.84 247.557 136.328 248.789 136.328C251.317 136.328 252.453 138.424 252.453 140.76C252.453 143.096 251.317 145.192 248.789 145.192C247.605 145.192 246.741 144.728 246.261 143.848V147.4H244.917ZM246.117 140.76C246.117 142.344 246.837 143.912 248.565 143.912C250.309 143.912 251.013 142.376 251.013 140.76C251.013 139.144 250.309 137.608 248.565 137.608C246.837 137.608 246.117 139.176 246.117 140.76ZM254.242 136.52H255.426L255.474 138.072C255.762 137.016 256.386 136.52 257.49 136.52H258.322V137.704H257.49C256.194 137.704 255.586 138.488 255.586 139.944V145H254.242V136.52ZM260.191 136.52H261.535V145H260.191V136.52ZM260.159 135.192V133.656H261.567V135.192H260.159ZM263.703 136.52H264.935L264.967 137.944C265.367 136.92 266.247 136.328 267.415 136.328C268.647 136.328 269.527 136.968 269.895 138.104C270.263 136.968 271.143 136.328 272.471 136.328C274.183 136.328 275.175 137.496 275.175 139.544V145H273.831V139.928C273.831 138.392 273.223 137.512 272.199 137.512C270.871 137.512 270.103 138.408 270.103 139.928V145H268.759V139.928C268.759 138.424 268.151 137.512 267.143 137.512C265.831 137.512 265.047 138.424 265.047 139.928V145H263.703V136.52ZM277.034 139.016C277.37 137.368 278.698 136.328 280.506 136.328C282.682 136.328 283.914 137.608 283.914 139.88V143.288C283.914 143.64 284.074 143.816 284.426 143.816H284.778V145H284.202C283.338 145 282.586 144.728 282.586 143.688C282.218 144.472 281.29 145.192 279.946 145.192C278.25 145.192 276.89 144.296 276.89 142.776C276.89 141.032 278.202 140.584 280.09 140.232L282.57 139.736C282.554 138.312 281.866 137.608 280.506 137.608C279.434 137.608 278.714 138.152 278.458 139.128L277.034 139.016ZM278.298 142.776C278.298 143.448 278.874 144.008 280.122 144.008C281.498 143.992 282.602 143.032 282.602 141.048V140.936L280.602 141.288C279.338 141.512 278.298 141.592 278.298 142.776ZM286.336 136.52H287.52L287.568 138.072C287.856 137.016 288.48 136.52 289.584 136.52H290.416V137.704H289.584C288.288 137.704 287.68 138.488 287.68 139.944V145H286.336V136.52ZM292.286 136.52H293.63V145H292.286V136.52ZM292.254 135.192V133.656H293.662V135.192H292.254ZM296.032 133.64H297.376V143.288C297.376 143.64 297.552 143.816 297.904 143.816H298.64V145H297.696C296.704 145 296.032 144.328 296.032 143.352V133.64ZM299.069 136.52H300.509L303.053 143.56L305.533 136.52H306.957L303.517 146.072C303.197 146.984 302.589 147.4 301.629 147.4H300.525V146.216H301.501C301.917 146.216 302.157 146.04 302.317 145.624L302.621 144.84H302.173L299.069 136.52ZM312.271 133.64H313.615V137.64C314.079 136.84 315.087 136.328 316.223 136.328C318.431 136.328 319.807 138.04 319.807 140.76C319.807 143.48 318.431 145.192 316.223 145.192C315.039 145.192 314.015 144.648 313.535 143.784L313.487 145H312.271V133.64ZM313.487 140.76C313.487 142.696 314.447 143.912 315.951 143.912C317.439 143.912 318.399 142.696 318.399 140.76C318.399 138.792 317.439 137.544 315.951 137.544C314.447 137.544 313.487 138.792 313.487 140.76ZM320.339 136.52H321.779L324.323 143.56L326.803 136.52H328.227L324.787 146.072C324.467 146.984 323.859 147.4 322.899 147.4H321.795V146.216H322.771C323.187 146.216 323.427 146.04 323.587 145.624L323.891 144.84H323.443L320.339 136.52ZM333.157 139.016C333.493 137.368 334.821 136.328 336.629 136.328C338.805 136.328 340.037 137.608 340.037 139.88V143.288C340.037 143.64 340.197 143.816 340.549 143.816H340.901V145H340.325C339.461 145 338.709 144.728 338.709 143.688C338.341 144.472 337.413 145.192 336.069 145.192C334.373 145.192 333.013 144.296 333.013 142.776C333.013 141.032 334.325 140.584 336.213 140.232L338.693 139.736C338.677 138.312 337.989 137.608 336.629 137.608C335.557 137.608 334.837 138.152 334.581 139.128L333.157 139.016ZM334.421 142.776C334.421 143.448 334.997 144.008 336.245 144.008C337.621 143.992 338.725 143.032 338.725 141.048V140.936L336.725 141.288C335.461 141.512 334.421 141.592 334.421 142.776ZM351.304 139.144C351.112 138.184 350.168 137.608 349.224 137.608C348.28 137.608 347.512 138.088 347.512 138.904C347.512 139.736 348.616 140.072 349.544 140.264C351.464 140.632 352.872 141.16 352.872 142.84C352.872 144.488 351.176 145.192 349.56 145.192C347.56 145.192 346.024 144.088 345.896 142.328L347.304 142.232C347.48 143.256 348.296 143.912 349.56 143.912C350.392 143.912 351.464 143.64 351.464 142.76C351.464 141.752 350.264 141.64 349.304 141.416C347.752 141.064 346.104 140.616 346.104 138.968C346.104 137.352 347.416 136.328 349.368 136.328C351.048 136.328 352.44 137.4 352.712 139.048L351.304 139.144ZM361.232 145H359.952V143.592C359.504 144.696 358.528 145.192 357.408 145.192C355.52 145.192 354.592 143.768 354.592 141.976V136.52H355.936V141.576C355.936 143.16 356.464 144.008 357.696 144.008C359.008 144.008 359.888 143.16 359.888 141.576V136.52H361.232V145ZM368.873 139.368C368.697 138.264 367.769 137.608 366.761 137.608C365.193 137.608 364.281 138.792 364.281 140.76C364.281 142.728 365.193 143.912 366.761 143.912C367.817 143.912 368.745 143.208 368.937 141.992L370.361 142.088C370.089 144.008 368.553 145.192 366.761 145.192C364.393 145.192 362.873 143.448 362.873 140.76C362.873 138.072 364.393 136.328 366.761 136.328C368.489 136.328 370.057 137.448 370.281 139.272L368.873 139.368ZM377.541 139.368C377.365 138.264 376.437 137.608 375.429 137.608C373.861 137.608 372.949 138.792 372.949 140.76C372.949 142.728 373.861 143.912 375.429 143.912C376.485 143.912 377.413 143.208 377.605 141.992L379.029 142.088C378.757 144.008 377.221 145.192 375.429 145.192C373.061 145.192 371.541 143.448 371.541 140.76C371.541 138.072 373.061 136.328 375.429 136.328C377.157 136.328 378.725 137.448 378.949 139.272L377.541 139.368ZM380.209 140.76C380.209 138.072 381.729 136.328 384.097 136.328C385.969 136.328 387.633 137.56 387.761 140.568L387.777 141.176H381.633C381.761 142.904 382.641 143.912 384.097 143.912C384.993 143.912 385.825 143.384 386.209 142.488L387.649 142.6C387.153 144.2 385.713 145.192 384.097 145.192C381.729 145.192 380.209 143.448 380.209 140.76ZM381.665 139.992H386.305C386.081 138.216 385.121 137.608 384.097 137.608C382.753 137.608 381.889 138.488 381.665 139.992ZM394.535 139.144C394.343 138.184 393.399 137.608 392.455 137.608C391.511 137.608 390.743 138.088 390.743 138.904C390.743 139.736 391.847 140.072 392.775 140.264C394.695 140.632 396.103 141.16 396.103 142.84C396.103 144.488 394.407 145.192 392.791 145.192C390.791 145.192 389.255 144.088 389.127 142.328L390.535 142.232C390.711 143.256 391.527 143.912 392.791 143.912C393.623 143.912 394.695 143.64 394.695 142.76C394.695 141.752 393.495 141.64 392.535 141.416C390.983 141.064 389.335 140.616 389.335 138.968C389.335 137.352 390.647 136.328 392.599 136.328C394.279 136.328 395.671 137.4 395.943 139.048L394.535 139.144ZM402.859 139.144C402.667 138.184 401.723 137.608 400.779 137.608C399.835 137.608 399.067 138.088 399.067 138.904C399.067 139.736 400.171 140.072 401.099 140.264C403.019 140.632 404.427 141.16 404.427 142.84C404.427 144.488 402.731 145.192 401.115 145.192C399.115 145.192 397.579 144.088 397.451 142.328L398.859 142.232C399.035 143.256 399.851 143.912 401.115 143.912C401.947 143.912 403.019 143.64 403.019 142.76C403.019 141.752 401.819 141.64 400.859 141.416C399.307 141.064 397.659 140.616 397.659 138.968C397.659 137.352 398.971 136.328 400.923 136.328C402.603 136.328 403.995 137.4 404.267 139.048L402.859 139.144ZM406.823 135.976C406.823 134.552 407.527 133.64 409.095 133.64H410.407V134.824H409.095C408.551 134.824 408.167 135.256 408.167 135.976V136.52H410.295V137.704H408.167V145H406.823V137.704H405.671V136.52H406.823V135.976ZM418.846 145H417.566V143.592C417.118 144.696 416.142 145.192 415.022 145.192C413.134 145.192 412.206 143.768 412.206 141.976V136.52H413.55V141.576C413.55 143.16 414.078 144.008 415.31 144.008C416.622 144.008 417.502 143.16 417.502 141.576V136.52H418.846V145ZM421.249 133.64H422.593V143.288C422.593 143.64 422.769 143.816 423.121 143.816H423.857V145H422.913C421.921 145 421.249 144.328 421.249 143.352V133.64ZM33.28 162.52H34.512L34.544 163.944C34.944 162.92 35.824 162.328 36.992 162.328C38.224 162.328 39.104 162.968 39.472 164.104C39.84 162.968 40.72 162.328 42.048 162.328C43.76 162.328 44.752 163.496 44.752 165.544V171H43.408V165.928C43.408 164.392 42.8 163.512 41.776 163.512C40.448 163.512 39.68 164.408 39.68 165.928V171H38.336V165.928C38.336 164.424 37.728 163.512 36.72 163.512C35.408 163.512 34.624 164.424 34.624 165.928V171H33.28V162.52ZM46.611 165.016C46.947 163.368 48.275 162.328 50.083 162.328C52.259 162.328 53.491 163.608 53.491 165.88V169.288C53.491 169.64 53.651 169.816 54.003 169.816H54.355V171H53.779C52.915 171 52.163 170.728 52.163 169.688C51.795 170.472 50.867 171.192 49.523 171.192C47.827 171.192 46.467 170.296 46.467 168.776C46.467 167.032 47.779 166.584 49.667 166.232L52.147 165.736C52.131 164.312 51.443 163.608 50.083 163.608C49.011 163.608 48.291 164.152 48.035 165.128L46.611 165.016ZM47.875 168.776C47.875 169.448 48.451 170.008 49.699 170.008C51.075 169.992 52.179 169.032 52.179 167.048V166.936L50.179 167.288C48.915 167.512 47.875 167.592 47.875 168.776ZM55.9131 162.52H57.0971L57.1451 164.072C57.4331 163.016 58.0571 162.52 59.1611 162.52H59.9931V163.704H59.1611C57.8651 163.704 57.2571 164.488 57.2571 165.944V171H55.9131V162.52ZM61.3938 159.64H62.7378V167.08L66.8018 162.52H68.6418L65.3138 166.12L68.8018 171H67.1538L64.3858 167.048L62.7378 168.824V171H61.3938V159.64ZM69.3464 166.76C69.3464 164.072 70.8664 162.328 73.2344 162.328C75.1064 162.328 76.7704 163.56 76.8984 166.568L76.9144 167.176H70.7704C70.8984 168.904 71.7784 169.912 73.2344 169.912C74.1304 169.912 74.9624 169.384 75.3464 168.488L76.7864 168.6C76.2904 170.2 74.8504 171.192 73.2344 171.192C70.8664 171.192 69.3464 169.448 69.3464 166.76ZM70.8024 165.992H75.4424C75.2184 164.216 74.2584 163.608 73.2344 163.608C71.8904 163.608 71.0264 164.488 70.8024 165.992ZM79.1561 160.6H80.5001V162.52H82.7561V163.704H80.5001V168.744C80.5001 169.448 80.8361 169.816 81.5081 169.816H82.7241V171H81.5081C79.9881 171 79.1561 170.184 79.1561 168.744V163.704H77.9081V162.52H79.1561V160.6ZM84.4606 162.52H85.8046V171H84.4606V162.52ZM84.4286 161.192V159.656H85.8366V161.192H84.4286ZM87.9725 162.52H89.2045L89.2365 163.992C89.6685 162.84 90.6765 162.328 91.8445 162.328C93.7805 162.328 94.7085 163.752 94.7085 165.544V171H93.3645V165.928C93.3645 164.36 92.8365 163.512 91.5565 163.512C90.2125 163.512 89.3165 164.36 89.3165 165.928V171H87.9725V162.52ZM100.091 170.552C97.899 170.552 96.347 168.856 96.347 166.44C96.347 164.024 97.883 162.328 100.075 162.328C101.227 162.328 102.203 162.92 102.587 163.864V162.52H103.867V170.168C103.867 172.408 102.331 173.592 100.123 173.592C98.315 173.592 96.971 172.616 96.587 171.128L97.995 171.032C98.331 171.832 99.067 172.312 100.123 172.312C101.611 172.312 102.523 171.672 102.523 170.472V169.08C102.107 169.976 101.163 170.552 100.091 170.552ZM97.755 166.44C97.755 168.184 98.683 169.272 100.171 169.272C101.595 169.272 102.523 168.184 102.539 166.44C102.571 164.696 101.643 163.608 100.171 163.608C98.683 163.608 97.755 164.696 97.755 166.44ZM115.574 165.368C115.398 164.264 114.47 163.608 113.462 163.608C111.894 163.608 110.982 164.792 110.982 166.76C110.982 168.728 111.894 169.912 113.462 169.912C114.518 169.912 115.446 169.208 115.638 167.992L117.062 168.088C116.79 170.008 115.254 171.192 113.462 171.192C111.094 171.192 109.574 169.448 109.574 166.76C109.574 164.072 111.094 162.328 113.462 162.328C115.19 162.328 116.758 163.448 116.982 165.272L115.574 165.368ZM118.464 165.016C118.8 163.368 120.128 162.328 121.936 162.328C124.112 162.328 125.344 163.608 125.344 165.88V169.288C125.344 169.64 125.504 169.816 125.856 169.816H126.208V171H125.632C124.768 171 124.016 170.728 124.016 169.688C123.648 170.472 122.72 171.192 121.376 171.192C119.68 171.192 118.32 170.296 118.32 168.776C118.32 167.032 119.632 166.584 121.52 166.232L124 165.736C123.984 164.312 123.296 163.608 121.936 163.608C120.864 163.608 120.144 164.152 119.888 165.128L118.464 165.016ZM119.728 168.776C119.728 169.448 120.304 170.008 121.552 170.008C122.928 169.992 124.032 169.032 124.032 167.048V166.936L122.032 167.288C120.768 167.512 119.728 167.592 119.728 168.776ZM127.766 162.52H128.998L129.03 163.944C129.43 162.92 130.31 162.328 131.478 162.328C132.71 162.328 133.59 162.968 133.958 164.104C134.326 162.968 135.206 162.328 136.534 162.328C138.246 162.328 139.238 163.496 139.238 165.544V171H137.894V165.928C137.894 164.392 137.286 163.512 136.262 163.512C134.934 163.512 134.166 164.408 134.166 165.928V171H132.822V165.928C132.822 164.424 132.214 163.512 131.206 163.512C129.894 163.512 129.11 164.424 129.11 165.928V171H127.766V162.52ZM141.325 173.4V162.52H142.541L142.589 163.784C143.053 162.84 143.965 162.328 145.197 162.328C147.725 162.328 148.861 164.424 148.861 166.76C148.861 169.096 147.725 171.192 145.197 171.192C144.013 171.192 143.149 170.728 142.669 169.848V173.4H141.325ZM142.525 166.76C142.525 168.344 143.245 169.912 144.973 169.912C146.717 169.912 147.421 168.376 147.421 166.76C147.421 165.144 146.717 163.608 144.973 163.608C143.245 163.608 142.525 165.176 142.525 166.76ZM150.422 165.016C150.758 163.368 152.086 162.328 153.894 162.328C156.07 162.328 157.302 163.608 157.302 165.88V169.288C157.302 169.64 157.462 169.816 157.814 169.816H158.166V171H157.59C156.726 171 155.974 170.728 155.974 169.688C155.606 170.472 154.678 171.192 153.334 171.192C151.638 171.192 150.278 170.296 150.278 168.776C150.278 167.032 151.59 166.584 153.478 166.232L155.958 165.736C155.942 164.312 155.254 163.608 153.894 163.608C152.822 163.608 152.102 164.152 151.846 165.128L150.422 165.016ZM151.686 168.776C151.686 169.448 152.262 170.008 153.51 170.008C154.886 169.992 155.99 169.032 155.99 167.048V166.936L153.99 167.288C152.726 167.512 151.686 167.592 151.686 168.776ZM159.849 162.52H161.193V171H159.849V162.52ZM159.817 161.192V159.656H161.225V161.192H159.817ZM166.811 170.552C164.619 170.552 163.067 168.856 163.067 166.44C163.067 164.024 164.603 162.328 166.795 162.328C167.947 162.328 168.923 162.92 169.307 163.864V162.52H170.587V170.168C170.587 172.408 169.051 173.592 166.843 173.592C165.035 173.592 163.691 172.616 163.307 171.128L164.715 171.032C165.051 171.832 165.787 172.312 166.843 172.312C168.331 172.312 169.243 171.672 169.243 170.472V169.08C168.827 169.976 167.883 170.552 166.811 170.552ZM164.475 166.44C164.475 168.184 165.403 169.272 166.891 169.272C168.315 169.272 169.243 168.184 169.259 166.44C169.291 164.696 168.363 163.608 166.891 163.608C165.403 163.608 164.475 164.696 164.475 166.44ZM172.982 162.52H174.214L174.246 163.992C174.678 162.84 175.686 162.328 176.854 162.328C178.79 162.328 179.718 163.752 179.718 165.544V171H178.374V165.928C178.374 164.36 177.846 163.512 176.566 163.512C175.222 163.512 174.326 164.36 174.326 165.928V171H172.982V162.52ZM186.807 160.6H188.151V162.52H190.407V163.704H188.151V168.744C188.151 169.448 188.487 169.816 189.159 169.816H190.375V171H189.159C187.639 171 186.807 170.184 186.807 168.744V163.704H185.559V162.52H186.807V160.6ZM191.727 165.016C192.063 163.368 193.391 162.328 195.199 162.328C197.375 162.328 198.607 163.608 198.607 165.88V169.288C198.607 169.64 198.767 169.816 199.119 169.816H199.471V171H198.895C198.031 171 197.279 170.728 197.279 169.688C196.911 170.472 195.983 171.192 194.639 171.192C192.943 171.192 191.583 170.296 191.583 168.776C191.583 167.032 192.895 166.584 194.783 166.232L197.263 165.736C197.247 164.312 196.559 163.608 195.199 163.608C194.127 163.608 193.407 164.152 193.151 165.128L191.727 165.016ZM192.991 168.776C192.991 169.448 193.567 170.008 194.815 170.008C196.191 169.992 197.295 169.032 197.295 167.048V166.936L195.295 167.288C194.031 167.512 192.991 167.592 192.991 168.776ZM201.029 162.52H202.213L202.261 164.072C202.549 163.016 203.173 162.52 204.277 162.52H205.109V163.704H204.277C202.981 163.704 202.373 164.488 202.373 165.944V171H201.029V162.52ZM209.71 170.552C207.518 170.552 205.966 168.856 205.966 166.44C205.966 164.024 207.502 162.328 209.694 162.328C210.846 162.328 211.822 162.92 212.206 163.864V162.52H213.486V170.168C213.486 172.408 211.95 173.592 209.742 173.592C207.934 173.592 206.59 172.616 206.206 171.128L207.614 171.032C207.95 171.832 208.686 172.312 209.742 172.312C211.23 172.312 212.142 171.672 212.142 170.472V169.08C211.726 169.976 210.782 170.552 209.71 170.552ZM207.374 166.44C207.374 168.184 208.302 169.272 209.79 169.272C211.214 169.272 212.142 168.184 212.158 166.44C212.19 164.696 211.262 163.608 209.79 163.608C208.302 163.608 207.374 164.696 207.374 166.44ZM215.119 166.76C215.119 164.072 216.639 162.328 219.007 162.328C220.879 162.328 222.543 163.56 222.671 166.568L222.687 167.176H216.543C216.671 168.904 217.551 169.912 219.007 169.912C219.903 169.912 220.735 169.384 221.119 168.488L222.559 168.6C222.063 170.2 220.623 171.192 219.007 171.192C216.639 171.192 215.119 169.448 215.119 166.76ZM216.575 165.992H221.215C220.991 164.216 220.031 163.608 219.007 163.608C217.663 163.608 216.799 164.488 216.575 165.992ZM224.929 160.6H226.273V162.52H228.529V163.704H226.273V168.744C226.273 169.448 226.609 169.816 227.281 169.816H228.497V171H227.281C225.761 171 224.929 170.184 224.929 168.744V163.704H223.681V162.52H224.929V160.6ZM230.233 162.52H231.577V171H230.233V162.52ZM230.201 161.192V159.656H231.609V161.192H230.201ZM233.745 162.52H234.977L235.009 163.992C235.441 162.84 236.449 162.328 237.617 162.328C239.553 162.328 240.481 163.752 240.481 165.544V171H239.137V165.928C239.137 164.36 238.609 163.512 237.329 163.512C235.985 163.512 235.089 164.36 235.089 165.928V171H233.745V162.52ZM245.863 170.552C243.671 170.552 242.119 168.856 242.119 166.44C242.119 164.024 243.655 162.328 245.847 162.328C246.999 162.328 247.975 162.92 248.359 163.864V162.52H249.639V170.168C249.639 172.408 248.103 173.592 245.895 173.592C244.087 173.592 242.743 172.616 242.359 171.128L243.767 171.032C244.103 171.832 244.839 172.312 245.895 172.312C247.383 172.312 248.295 171.672 248.295 170.472V169.08C247.879 169.976 246.935 170.552 245.863 170.552ZM243.527 166.44C243.527 168.184 244.455 169.272 245.943 169.272C247.367 169.272 248.295 168.184 248.311 166.44C248.343 164.696 247.415 163.608 245.943 163.608C244.455 163.608 243.527 164.696 243.527 166.44ZM255.874 162.52H257.106L257.138 163.992C257.57 162.84 258.578 162.328 259.746 162.328C261.682 162.328 262.61 163.752 262.61 165.544V171H261.266V165.928C261.266 164.36 260.738 163.512 259.458 163.512C258.114 163.512 257.218 164.36 257.218 165.928V171H255.874V162.52ZM264.249 166.76C264.249 164.072 265.769 162.328 268.137 162.328C270.009 162.328 271.673 163.56 271.801 166.568L271.817 167.176H265.673C265.801 168.904 266.681 169.912 268.137 169.912C269.033 169.912 269.865 169.384 270.249 168.488L271.689 168.6C271.193 170.2 269.753 171.192 268.137 171.192C265.769 171.192 264.249 169.448 264.249 166.76ZM265.705 165.992H270.345C270.121 164.216 269.161 163.608 268.137 163.608C266.793 163.608 265.929 164.488 265.705 165.992ZM279.273 162.52L281.289 169.512L283.321 162.52H284.761L282.137 171H280.441L278.553 164.552L276.665 171H274.985L272.361 162.52H273.801L275.817 169.512L277.833 162.52H279.273ZM295.55 165.368C295.374 164.264 294.446 163.608 293.438 163.608C291.87 163.608 290.958 164.792 290.958 166.76C290.958 168.728 291.87 169.912 293.438 169.912C294.494 169.912 295.422 169.208 295.614 167.992L297.038 168.088C296.766 170.008 295.23 171.192 293.438 171.192C291.07 171.192 289.55 169.448 289.55 166.76C289.55 164.072 291.07 162.328 293.438 162.328C295.166 162.328 296.734 163.448 296.958 165.272L295.55 165.368ZM305.23 171H303.95V169.592C303.502 170.696 302.526 171.192 301.406 171.192C299.518 171.192 298.59 169.768 298.59 167.976V162.52H299.934V167.576C299.934 169.16 300.462 170.008 301.694 170.008C303.006 170.008 303.886 169.16 303.886 167.576V162.52H305.23V171ZM312.279 165.144C312.087 164.184 311.143 163.608 310.199 163.608C309.255 163.608 308.487 164.088 308.487 164.904C308.487 165.736 309.591 166.072 310.519 166.264C312.439 166.632 313.847 167.16 313.847 168.84C313.847 170.488 312.151 171.192 310.535 171.192C308.535 171.192 306.999 170.088 306.871 168.328L308.279 168.232C308.455 169.256 309.271 169.912 310.535 169.912C311.367 169.912 312.439 169.64 312.439 168.76C312.439 167.752 311.239 167.64 310.279 167.416C308.727 167.064 307.079 166.616 307.079 164.968C307.079 163.352 308.391 162.328 310.343 162.328C312.023 162.328 313.415 163.4 313.687 165.048L312.279 165.144ZM316.087 160.6H317.431V162.52H319.687V163.704H317.431V168.744C317.431 169.448 317.767 169.816 318.439 169.816H319.655V171H318.439C316.919 171 316.087 170.184 316.087 168.744V163.704H314.839V162.52H316.087V160.6ZM324.517 171.192C322.165 171.192 320.629 169.464 320.629 166.76C320.629 164.056 322.165 162.328 324.517 162.328C326.853 162.328 328.389 164.056 328.389 166.76C328.389 169.464 326.853 171.192 324.517 171.192ZM322.037 166.76C322.037 168.728 322.949 169.912 324.517 169.912C326.069 169.912 326.981 168.728 326.981 166.76C326.981 164.792 326.069 163.608 324.517 163.608C322.949 163.608 322.037 164.792 322.037 166.76ZM330.184 162.52H331.416L331.448 163.944C331.848 162.92 332.728 162.328 333.896 162.328C335.128 162.328 336.008 162.968 336.376 164.104C336.744 162.968 337.624 162.328 338.952 162.328C340.664 162.328 341.656 163.496 341.656 165.544V171H340.312V165.928C340.312 164.392 339.704 163.512 338.68 163.512C337.352 163.512 336.584 164.408 336.584 165.928V171H335.24V165.928C335.24 164.424 334.632 163.512 333.624 163.512C332.312 163.512 331.528 164.424 331.528 165.928V171H330.184V162.52ZM343.293 166.76C343.293 164.072 344.813 162.328 347.181 162.328C349.053 162.328 350.717 163.56 350.845 166.568L350.861 167.176H344.717C344.845 168.904 345.725 169.912 347.181 169.912C348.077 169.912 348.909 169.384 349.293 168.488L350.733 168.6C350.237 170.2 348.797 171.192 347.181 171.192C344.813 171.192 343.293 169.448 343.293 166.76ZM344.749 165.992H349.389C349.165 164.216 348.205 163.608 347.181 163.608C345.837 163.608 344.973 164.488 344.749 165.992ZM352.661 162.52H353.845L353.893 164.072C354.181 163.016 354.805 162.52 355.909 162.52H356.741V163.704H355.909C354.613 163.704 354.005 164.488 354.005 165.944V171H352.661V162.52ZM367.331 165.144C367.139 164.184 366.195 163.608 365.251 163.608C364.307 163.608 363.539 164.088 363.539 164.904C363.539 165.736 364.643 166.072 365.571 166.264C367.491 166.632 368.899 167.16 368.899 168.84C368.899 170.488 367.203 171.192 365.587 171.192C363.587 171.192 362.051 170.088 361.923 168.328L363.331 168.232C363.507 169.256 364.323 169.912 365.587 169.912C366.419 169.912 367.491 169.64 367.491 168.76C367.491 167.752 366.291 167.64 365.331 167.416C363.779 167.064 362.131 166.616 362.131 164.968C362.131 163.352 363.443 162.328 365.395 162.328C367.075 162.328 368.467 163.4 368.739 165.048L367.331 165.144ZM370.247 166.76C370.247 164.072 371.767 162.328 374.135 162.328C376.007 162.328 377.671 163.56 377.799 166.568L377.815 167.176H371.671C371.799 168.904 372.679 169.912 374.135 169.912C375.031 169.912 375.863 169.384 376.247 168.488L377.687 168.6C377.191 170.2 375.751 171.192 374.135 171.192C371.767 171.192 370.247 169.448 370.247 166.76ZM371.703 165.992H376.343C376.119 164.216 375.159 163.608 374.135 163.608C372.791 163.608 371.927 164.488 371.703 165.992ZM382.909 170.552C380.717 170.552 379.165 168.856 379.165 166.44C379.165 164.024 380.701 162.328 382.893 162.328C384.045 162.328 385.021 162.92 385.405 163.864V162.52H386.685V170.168C386.685 172.408 385.149 173.592 382.941 173.592C381.133 173.592 379.789 172.616 379.405 171.128L380.813 171.032C381.149 171.832 381.885 172.312 382.941 172.312C384.429 172.312 385.341 171.672 385.341 170.472V169.08C384.925 169.976 383.981 170.552 382.909 170.552ZM380.573 166.44C380.573 168.184 381.501 169.272 382.989 169.272C384.413 169.272 385.341 168.184 385.357 166.44C385.389 164.696 384.461 163.608 382.989 163.608C381.501 163.608 380.573 164.696 380.573 166.44ZM389.08 162.52H390.312L390.344 163.944C390.744 162.92 391.624 162.328 392.792 162.328C394.024 162.328 394.904 162.968 395.272 164.104C395.64 162.968 396.52 162.328 397.848 162.328C399.56 162.328 400.552 163.496 400.552 165.544V171H399.208V165.928C399.208 164.392 398.6 163.512 397.576 163.512C396.248 163.512 395.48 164.408 395.48 165.928V171H394.136V165.928C394.136 164.424 393.528 163.512 392.52 163.512C391.208 163.512 390.424 164.424 390.424 165.928V171H389.08V162.52ZM402.189 166.76C402.189 164.072 403.709 162.328 406.077 162.328C407.949 162.328 409.613 163.56 409.741 166.568L409.757 167.176H403.613C403.741 168.904 404.621 169.912 406.077 169.912C406.973 169.912 407.805 169.384 408.189 168.488L409.629 168.6C409.133 170.2 407.693 171.192 406.077 171.192C403.709 171.192 402.189 169.448 402.189 166.76ZM403.645 165.992H408.285C408.061 164.216 407.101 163.608 406.077 163.608C404.733 163.608 403.869 164.488 403.645 165.992ZM411.557 162.52H412.789L412.821 163.992C413.253 162.84 414.261 162.328 415.429 162.328C417.365 162.328 418.293 163.752 418.293 165.544V171H416.949V165.928C416.949 164.36 416.421 163.512 415.141 163.512C413.797 163.512 412.901 164.36 412.901 165.928V171H411.557V162.52ZM421.136 160.6H422.48V162.52H424.736V163.704H422.48V168.744C422.48 169.448 422.816 169.816 423.488 169.816H424.704V171H423.488C421.968 171 421.136 170.184 421.136 168.744V163.704H419.888V162.52H421.136V160.6ZM431.086 165.144C430.894 164.184 429.95 163.608 429.006 163.608C428.062 163.608 427.294 164.088 427.294 164.904C427.294 165.736 428.398 166.072 429.326 166.264C431.246 166.632 432.654 167.16 432.654 168.84C432.654 170.488 430.958 171.192 429.342 171.192C427.342 171.192 425.806 170.088 425.678 168.328L427.086 168.232C427.262 169.256 428.078 169.912 429.342 169.912C430.174 169.912 431.246 169.64 431.246 168.76C431.246 167.752 430.046 167.64 429.086 167.416C427.534 167.064 425.886 166.616 425.886 164.968C425.886 163.352 427.198 162.328 429.15 162.328C430.83 162.328 432.222 163.4 432.494 165.048L431.086 165.144ZM434.002 169.256H435.714V171H434.002V169.256Z" fill="#61656C"/>
<rect x="32.5" y="198.5" width="364" height="41" rx="3.5" fill="white"/>
<rect x="32.5" y="198.5" width="364" height="41" rx="3.5" stroke="#EEEEFF"/>
<g clip-path="url(#clip0_7479_11030)">
<path d="M65.9417 222.526C65.5556 221.965 65.7712 221.154 65.6751 220.258C65.5762 218.797 64.9484 217.382 63.7306 216.25L59.5828 212.393C59.5828 212.393 58.7656 211.632 58.0045 212.45C57.2445 213.267 58.0623 214.028 58.0623 214.028L59.8145 215.658L61.3334 217.07C61.3334 217.07 60.9528 217.479 59.2717 215.916L53.5939 210.635C53.5939 210.635 52.7756 209.875 52.0151 210.692C51.2551 211.51 52.0723 212.27 52.0723 212.27L57.4412 217.264C57.4295 217.253 57.0351 217.648 57.0278 217.642L51.2834 212.299C51.2834 212.299 50.4656 211.538 49.7051 212.356C48.9445 213.174 49.7623 213.934 49.7623 213.934L55.5073 219.278C55.5139 219.285 55.1439 219.702 55.1551 219.713L50.1995 215.103C50.1995 215.103 49.3817 214.342 48.6212 215.16C47.8606 215.978 48.6784 216.738 48.6784 216.738L53.9473 221.638C53.9956 221.683 53.6695 222.143 53.7301 222.199L49.9334 218.668C49.9334 218.668 49.1156 217.907 48.3551 218.726C47.5945 219.543 48.4123 220.304 48.4123 220.304L54.6051 226.061C55.6389 227.023 56.7006 227.51 57.9806 227.688C58.2412 227.724 58.5745 227.724 58.7112 227.741C59.1428 227.796 59.5217 227.949 60.0289 228.26C60.6817 228.66 61.6612 228.827 62.2239 228.225L64.1428 226.172L65.9145 224.277C66.4767 223.676 66.3762 223.157 65.9417 222.526V222.526Z" fill="#EF9645"/>
<path d="M49.0831 228.459C48.9408 228.459 48.7986 228.404 48.6903 228.296C48.4731 228.079 48.4731 227.728 48.6903 227.51L50.6631 225.539C50.8803 225.322 51.2314 225.322 51.4486 225.539C51.6658 225.756 51.6658 226.107 51.4486 226.324L49.4758 228.297C49.3675 228.405 49.2253 228.459 49.0831 228.459V228.459ZM52.8308 228.971C52.7703 228.971 52.7081 228.961 52.647 228.94C52.3575 228.839 52.2047 228.522 52.3064 228.232L52.8458 226.692C52.947 226.402 53.2642 226.25 53.5536 226.35C53.8431 226.452 53.9958 226.769 53.8942 227.058L53.3547 228.599C53.2747 228.828 53.0603 228.971 52.8308 228.971V228.971ZM48.5714 224.712C48.3425 224.712 48.1281 224.569 48.0475 224.341C47.9453 224.052 48.097 223.734 48.3864 223.632L49.7725 223.143C50.0631 223.043 50.3792 223.193 50.4814 223.482C50.5836 223.771 50.432 224.088 50.1425 224.19L48.7564 224.68C48.6947 224.702 48.6325 224.712 48.5714 224.712V224.712ZM64.9381 212.619C64.7958 212.619 64.6536 212.564 64.5453 212.456C64.3281 212.239 64.3281 211.887 64.5453 211.67L66.5186 209.698C66.7358 209.481 67.087 209.481 67.3042 209.698C67.5214 209.914 67.5214 210.267 67.3042 210.484L65.3308 212.456C65.2225 212.565 65.0803 212.619 64.9381 212.619V212.619ZM62.6247 211.676C62.5642 211.676 62.502 211.665 62.4414 211.644C62.152 211.543 61.9992 211.227 62.1003 210.937L62.6392 209.396C62.7408 209.107 63.057 208.954 63.347 209.055C63.6364 209.156 63.7892 209.473 63.6881 209.763L63.1492 211.303C63.0692 211.533 62.8542 211.676 62.6247 211.676V211.676ZM66.0375 214.884C65.8086 214.884 65.5942 214.741 65.5136 214.513C65.4114 214.224 65.5636 213.907 65.8525 213.804L67.2381 213.315C67.5281 213.212 67.8447 213.365 67.947 213.654C68.0492 213.943 67.897 214.26 67.6081 214.363L66.2225 214.852C66.1608 214.874 66.0986 214.884 66.0375 214.884V214.884Z" fill="#FA743E"/>
<path d="M67.6579 222.234C67.2907 221.661 67.5335 220.857 67.4679 219.959C67.4179 218.495 66.8385 217.059 65.6596 215.887L61.644 211.893C61.644 211.893 60.8529 211.105 60.0646 211.897C59.2774 212.688 60.069 213.476 60.069 213.476L61.7657 215.164L63.2357 216.627C63.2357 216.627 62.8413 217.022 61.214 215.403C59.5857 213.784 55.7174 209.934 55.7174 209.934C55.7174 209.934 54.9257 209.147 54.1379 209.938C53.3502 210.729 54.1418 211.517 54.1418 211.517L59.3396 216.689C59.3285 216.678 58.9207 217.059 58.9135 217.052L53.3524 211.519C53.3524 211.519 52.5607 210.731 51.7729 211.523C50.9857 212.314 51.7768 213.102 51.7768 213.102L57.3385 218.636C57.3452 218.643 56.9607 219.048 56.9718 219.059L52.1746 214.285C52.1746 214.285 51.3829 213.498 50.5952 214.289C49.8074 215.081 50.599 215.869 50.599 215.869L55.6996 220.944C55.7463 220.99 55.4052 221.439 55.4635 221.497L51.7879 217.84C51.7879 217.84 50.9963 217.053 50.2085 217.844C49.4207 218.636 50.2124 219.424 50.2124 219.424L56.2068 225.386C57.2079 226.382 58.2524 226.904 59.5257 227.125C59.7852 227.17 60.1185 227.182 60.254 227.203C60.6835 227.272 61.0568 227.438 61.554 227.767C62.1929 228.188 63.1663 228.388 63.749 227.805L65.7363 225.819L67.5707 223.984C68.1535 223.401 68.0707 222.879 67.6579 222.234V222.234Z" fill="#FFDB5E"/>
</g>
<path d="M77.4091 225V213.364H81.3409C82.2538 213.364 83 213.528 83.5795 213.858C84.1629 214.184 84.5947 214.625 84.875 215.182C85.1553 215.739 85.2955 216.36 85.2955 217.045C85.2955 217.731 85.1553 218.354 84.875 218.915C84.5985 219.475 84.1705 219.922 83.5909 220.256C83.0114 220.585 82.2689 220.75 81.3636 220.75H78.5455V219.5H81.3182C81.9432 219.5 82.4451 219.392 82.8239 219.176C83.2027 218.96 83.4773 218.669 83.6477 218.301C83.822 217.93 83.9091 217.511 83.9091 217.045C83.9091 216.58 83.822 216.163 83.6477 215.795C83.4773 215.428 83.2008 215.14 82.8182 214.932C82.4356 214.72 81.928 214.614 81.2955 214.614H78.8182V225H77.4091ZM90.8352 225.182C90.0473 225.182 89.3561 224.994 88.7614 224.619C88.1705 224.244 87.7083 223.72 87.375 223.045C87.0455 222.371 86.8807 221.583 86.8807 220.682C86.8807 219.773 87.0455 218.979 87.375 218.301C87.7083 217.623 88.1705 217.097 88.7614 216.722C89.3561 216.347 90.0473 216.159 90.8352 216.159C91.6231 216.159 92.3125 216.347 92.9034 216.722C93.4981 217.097 93.9602 217.623 94.2898 218.301C94.6231 218.979 94.7898 219.773 94.7898 220.682C94.7898 221.583 94.6231 222.371 94.2898 223.045C93.9602 223.72 93.4981 224.244 92.9034 224.619C92.3125 224.994 91.6231 225.182 90.8352 225.182ZM90.8352 223.977C91.4337 223.977 91.9261 223.824 92.3125 223.517C92.6989 223.21 92.9848 222.807 93.1705 222.307C93.3561 221.807 93.4489 221.265 93.4489 220.682C93.4489 220.098 93.3561 219.555 93.1705 219.051C92.9848 218.547 92.6989 218.14 92.3125 217.83C91.9261 217.519 91.4337 217.364 90.8352 217.364C90.2367 217.364 89.7443 217.519 89.358 217.83C88.9716 218.14 88.6856 218.547 88.5 219.051C88.3144 219.555 88.2216 220.098 88.2216 220.682C88.2216 221.265 88.3144 221.807 88.5 222.307C88.6856 222.807 88.9716 223.21 89.358 223.517C89.7443 223.824 90.2367 223.977 90.8352 223.977ZM103.018 218.227L101.814 218.568C101.738 218.367 101.626 218.172 101.479 217.983C101.335 217.79 101.138 217.631 100.888 217.506C100.638 217.381 100.318 217.318 99.9276 217.318C99.3935 217.318 98.9484 217.441 98.5923 217.688C98.2401 217.93 98.0639 218.239 98.0639 218.614C98.0639 218.947 98.1851 219.21 98.4276 219.403C98.67 219.597 99.0488 219.758 99.5639 219.886L100.859 220.205C101.64 220.394 102.221 220.684 102.604 221.074C102.986 221.46 103.178 221.958 103.178 222.568C103.178 223.068 103.034 223.515 102.746 223.909C102.462 224.303 102.064 224.614 101.553 224.841C101.041 225.068 100.446 225.182 99.7685 225.182C98.8783 225.182 98.1416 224.989 97.5582 224.602C96.9749 224.216 96.6056 223.652 96.4503 222.909L97.723 222.591C97.8442 223.061 98.0734 223.413 98.4105 223.648C98.7514 223.883 99.1965 224 99.7457 224C100.371 224 100.867 223.867 101.234 223.602C101.606 223.333 101.791 223.011 101.791 222.636C101.791 222.333 101.685 222.08 101.473 221.875C101.261 221.667 100.935 221.511 100.496 221.409L99.0412 221.068C98.242 220.879 97.6548 220.585 97.2798 220.188C96.9086 219.786 96.723 219.284 96.723 218.682C96.723 218.189 96.8613 217.754 97.1378 217.375C97.4181 216.996 97.7988 216.699 98.2798 216.483C98.7647 216.267 99.3139 216.159 99.9276 216.159C100.791 216.159 101.469 216.348 101.962 216.727C102.458 217.106 102.81 217.606 103.018 218.227ZM105.196 225V216.273H106.537V225H105.196ZM105.878 214.818C105.616 214.818 105.391 214.729 105.202 214.551C105.016 214.373 104.923 214.159 104.923 213.909C104.923 213.659 105.016 213.445 105.202 213.267C105.391 213.089 105.616 213 105.878 213C106.139 213 106.363 213.089 106.548 213.267C106.738 213.445 106.832 213.659 106.832 213.909C106.832 214.159 106.738 214.373 106.548 214.551C106.363 214.729 106.139 214.818 105.878 214.818ZM112.788 216.273V217.409H108.266V216.273H112.788ZM109.584 214.182H110.925V222.5C110.925 222.879 110.98 223.163 111.089 223.352C111.203 223.538 111.347 223.663 111.521 223.727C111.699 223.788 111.887 223.818 112.084 223.818C112.232 223.818 112.353 223.811 112.447 223.795C112.542 223.777 112.618 223.761 112.675 223.75L112.947 224.955C112.857 224.989 112.73 225.023 112.567 225.057C112.404 225.095 112.197 225.114 111.947 225.114C111.569 225.114 111.197 225.032 110.834 224.869C110.474 224.706 110.175 224.458 109.936 224.125C109.701 223.792 109.584 223.371 109.584 222.864V214.182ZM114.805 225V216.273H116.146V225H114.805ZM115.487 214.818C115.226 214.818 115 214.729 114.811 214.551C114.625 214.373 114.533 214.159 114.533 213.909C114.533 213.659 114.625 213.445 114.811 213.267C115 213.089 115.226 213 115.487 213C115.749 213 115.972 213.089 116.158 213.267C116.347 213.445 116.442 213.659 116.442 213.909C116.442 214.159 116.347 214.373 116.158 214.551C115.972 214.729 115.749 214.818 115.487 214.818ZM125.739 216.273L122.511 225H121.148L117.92 216.273H119.375L121.784 223.227H121.875L124.284 216.273H125.739ZM130.855 225.182C130.014 225.182 129.289 224.996 128.679 224.625C128.073 224.25 127.605 223.727 127.276 223.057C126.95 222.383 126.787 221.598 126.787 220.705C126.787 219.811 126.95 219.023 127.276 218.341C127.605 217.655 128.063 217.121 128.651 216.739C129.241 216.352 129.931 216.159 130.719 216.159C131.173 216.159 131.622 216.235 132.065 216.386C132.509 216.538 132.912 216.784 133.276 217.125C133.639 217.462 133.929 217.909 134.145 218.466C134.361 219.023 134.469 219.708 134.469 220.523V221.091H127.741V219.932H133.105C133.105 219.439 133.007 219 132.81 218.614C132.616 218.227 132.34 217.922 131.98 217.699C131.624 217.475 131.204 217.364 130.719 217.364C130.185 217.364 129.723 217.496 129.332 217.761C128.946 218.023 128.649 218.364 128.44 218.784C128.232 219.205 128.128 219.655 128.128 220.136V220.909C128.128 221.568 128.241 222.127 128.469 222.585C128.7 223.04 129.02 223.386 129.429 223.625C129.838 223.86 130.313 223.977 130.855 223.977C131.207 223.977 131.526 223.928 131.81 223.83C132.098 223.727 132.346 223.576 132.554 223.375C132.762 223.17 132.923 222.917 133.037 222.614L134.332 222.977C134.196 223.417 133.967 223.803 133.645 224.136C133.323 224.466 132.925 224.723 132.452 224.909C131.978 225.091 131.446 225.182 130.855 225.182ZM142.599 213.364V225H141.19V213.364H142.599ZM145.243 225V216.273H146.538V217.636H146.652C146.834 217.17 147.127 216.809 147.533 216.551C147.938 216.29 148.425 216.159 148.993 216.159C149.569 216.159 150.048 216.29 150.43 216.551C150.817 216.809 151.118 217.17 151.334 217.636H151.425C151.648 217.186 151.983 216.828 152.43 216.562C152.877 216.294 153.413 216.159 154.038 216.159C154.819 216.159 155.457 216.403 155.953 216.892C156.449 217.377 156.697 218.133 156.697 219.159V225H155.357V219.159C155.357 218.515 155.18 218.055 154.828 217.778C154.476 217.502 154.061 217.364 153.584 217.364C152.97 217.364 152.495 217.549 152.158 217.92C151.821 218.288 151.652 218.754 151.652 219.318V225H150.288V219.023C150.288 218.527 150.127 218.127 149.805 217.824C149.483 217.517 149.069 217.364 148.561 217.364C148.213 217.364 147.887 217.456 147.584 217.642C147.285 217.828 147.042 218.085 146.857 218.415C146.675 218.741 146.584 219.117 146.584 219.545V225H145.243ZM159.149 228.273V216.273H160.445V217.659H160.604C160.702 217.508 160.839 217.314 161.013 217.08C161.191 216.841 161.445 216.629 161.774 216.443C162.107 216.254 162.558 216.159 163.126 216.159C163.861 216.159 164.509 216.343 165.07 216.71C165.63 217.078 166.068 217.598 166.382 218.273C166.696 218.947 166.854 219.742 166.854 220.659C166.854 221.583 166.696 222.384 166.382 223.062C166.068 223.737 165.632 224.259 165.075 224.631C164.518 224.998 163.876 225.182 163.149 225.182C162.589 225.182 162.14 225.089 161.803 224.903C161.465 224.714 161.206 224.5 161.024 224.261C160.842 224.019 160.702 223.818 160.604 223.659H160.49V228.273H159.149ZM160.467 220.636C160.467 221.295 160.564 221.877 160.757 222.381C160.95 222.881 161.232 223.273 161.604 223.557C161.975 223.837 162.429 223.977 162.967 223.977C163.528 223.977 163.996 223.83 164.371 223.534C164.75 223.235 165.034 222.833 165.223 222.33C165.416 221.822 165.513 221.258 165.513 220.636C165.513 220.023 165.418 219.47 165.229 218.977C165.043 218.481 164.761 218.089 164.382 217.801C164.007 217.509 163.536 217.364 162.967 217.364C162.422 217.364 161.964 217.502 161.592 217.778C161.221 218.051 160.941 218.434 160.751 218.926C160.562 219.415 160.467 219.985 160.467 220.636ZM171.467 225.205C170.914 225.205 170.412 225.1 169.962 224.892C169.511 224.68 169.153 224.375 168.888 223.977C168.623 223.576 168.49 223.091 168.49 222.523C168.49 222.023 168.589 221.617 168.786 221.307C168.982 220.992 169.246 220.746 169.575 220.568C169.905 220.39 170.268 220.258 170.666 220.17C171.068 220.08 171.471 220.008 171.876 219.955C172.407 219.886 172.837 219.835 173.166 219.801C173.5 219.763 173.742 219.701 173.893 219.614C174.049 219.527 174.126 219.375 174.126 219.159V219.114C174.126 218.553 173.973 218.117 173.666 217.807C173.363 217.496 172.903 217.341 172.286 217.341C171.645 217.341 171.143 217.481 170.78 217.761C170.416 218.042 170.161 218.341 170.013 218.659L168.74 218.205C168.967 217.674 169.27 217.261 169.649 216.966C170.032 216.667 170.448 216.458 170.899 216.341C171.354 216.22 171.801 216.159 172.24 216.159C172.52 216.159 172.842 216.193 173.206 216.261C173.573 216.326 173.928 216.46 174.268 216.665C174.613 216.869 174.899 217.178 175.126 217.591C175.354 218.004 175.467 218.557 175.467 219.25V225H174.126V223.818H174.058C173.967 224.008 173.816 224.21 173.604 224.426C173.392 224.642 173.109 224.826 172.757 224.977C172.405 225.129 171.975 225.205 171.467 225.205ZM171.672 224C172.202 224 172.649 223.896 173.013 223.688C173.38 223.479 173.657 223.21 173.842 222.881C174.032 222.551 174.126 222.205 174.126 221.841V220.614C174.07 220.682 173.945 220.744 173.751 220.801C173.562 220.854 173.342 220.902 173.092 220.943C172.846 220.981 172.606 221.015 172.371 221.045C172.14 221.072 171.952 221.095 171.808 221.114C171.46 221.159 171.134 221.233 170.831 221.335C170.532 221.434 170.289 221.583 170.104 221.784C169.922 221.981 169.831 222.25 169.831 222.591C169.831 223.057 170.003 223.409 170.348 223.648C170.696 223.883 171.138 224 171.672 224ZM181.46 225.182C180.642 225.182 179.938 224.989 179.347 224.602C178.756 224.216 178.301 223.684 177.983 223.006C177.665 222.328 177.506 221.553 177.506 220.682C177.506 219.795 177.669 219.013 177.994 218.335C178.324 217.653 178.782 217.121 179.369 216.739C179.96 216.352 180.65 216.159 181.438 216.159C182.051 216.159 182.604 216.273 183.097 216.5C183.589 216.727 183.992 217.045 184.307 217.455C184.621 217.864 184.816 218.341 184.892 218.886H183.551C183.449 218.489 183.222 218.136 182.869 217.83C182.521 217.519 182.051 217.364 181.46 217.364C180.938 217.364 180.479 217.5 180.085 217.773C179.695 218.042 179.39 218.422 179.17 218.915C178.955 219.403 178.847 219.977 178.847 220.636C178.847 221.311 178.953 221.898 179.165 222.398C179.381 222.898 179.684 223.286 180.074 223.562C180.468 223.839 180.93 223.977 181.46 223.977C181.809 223.977 182.125 223.917 182.409 223.795C182.693 223.674 182.934 223.5 183.131 223.273C183.328 223.045 183.468 222.773 183.551 222.455H184.892C184.816 222.97 184.629 223.434 184.33 223.847C184.034 224.256 183.642 224.581 183.153 224.824C182.669 225.062 182.104 225.182 181.46 225.182ZM190.648 216.273V217.409H186.125V216.273H190.648ZM187.443 214.182H188.784V222.5C188.784 222.879 188.839 223.163 188.949 223.352C189.063 223.538 189.206 223.663 189.381 223.727C189.559 223.788 189.746 223.818 189.943 223.818C190.091 223.818 190.212 223.811 190.307 223.795C190.402 223.777 190.477 223.761 190.534 223.75L190.807 224.955C190.716 224.989 190.589 225.023 190.426 225.057C190.263 225.095 190.057 225.114 189.807 225.114C189.428 225.114 189.057 225.032 188.693 224.869C188.333 224.706 188.034 224.458 187.795 224.125C187.561 223.792 187.443 223.371 187.443 222.864V214.182ZM193.642 225.091C193.362 225.091 193.121 224.991 192.92 224.79C192.72 224.589 192.619 224.348 192.619 224.068C192.619 223.788 192.72 223.547 192.92 223.347C193.121 223.146 193.362 223.045 193.642 223.045C193.922 223.045 194.163 223.146 194.364 223.347C194.564 223.547 194.665 223.788 194.665 224.068C194.665 224.254 194.617 224.424 194.523 224.58C194.432 224.735 194.309 224.86 194.153 224.955C194.002 225.045 193.831 225.091 193.642 225.091ZM201.753 225V213.364H203.162V219.136H203.298L208.526 213.364H210.366L205.48 218.614L210.366 225H208.662L204.616 219.591L203.162 221.227V225H201.753ZM215.027 225.182C214.186 225.182 213.461 224.996 212.851 224.625C212.245 224.25 211.777 223.727 211.447 223.057C211.122 222.383 210.959 221.598 210.959 220.705C210.959 219.811 211.122 219.023 211.447 218.341C211.777 217.655 212.235 217.121 212.822 216.739C213.413 216.352 214.103 216.159 214.891 216.159C215.345 216.159 215.794 216.235 216.237 216.386C216.68 216.538 217.084 216.784 217.447 217.125C217.811 217.462 218.101 217.909 218.317 218.466C218.533 219.023 218.641 219.708 218.641 220.523V221.091H211.913V219.932H217.277C217.277 219.439 217.179 219 216.982 218.614C216.788 218.227 216.512 217.922 216.152 217.699C215.796 217.475 215.375 217.364 214.891 217.364C214.357 217.364 213.894 217.496 213.504 217.761C213.118 218.023 212.821 218.364 212.612 218.784C212.404 219.205 212.3 219.655 212.3 220.136V220.909C212.3 221.568 212.413 222.127 212.641 222.585C212.872 223.04 213.192 223.386 213.601 223.625C214.01 223.86 214.485 223.977 215.027 223.977C215.379 223.977 215.697 223.928 215.982 223.83C216.269 223.727 216.518 223.576 216.726 223.375C216.934 223.17 217.095 222.917 217.209 222.614L218.504 222.977C218.368 223.417 218.139 223.803 217.817 224.136C217.495 224.466 217.097 224.723 216.624 224.909C216.15 225.091 215.618 225.182 215.027 225.182ZM224.339 225.182C223.499 225.182 222.773 224.996 222.163 224.625C221.557 224.25 221.089 223.727 220.76 223.057C220.434 222.383 220.271 221.598 220.271 220.705C220.271 219.811 220.434 219.023 220.76 218.341C221.089 217.655 221.548 217.121 222.135 216.739C222.726 216.352 223.415 216.159 224.203 216.159C224.658 216.159 225.107 216.235 225.55 216.386C225.993 216.538 226.396 216.784 226.76 217.125C227.124 217.462 227.413 217.909 227.629 218.466C227.845 219.023 227.953 219.708 227.953 220.523V221.091H221.226V219.932H226.589C226.589 219.439 226.491 219 226.294 218.614C226.101 218.227 225.824 217.922 225.464 217.699C225.108 217.475 224.688 217.364 224.203 217.364C223.669 217.364 223.207 217.496 222.817 217.761C222.43 218.023 222.133 218.364 221.925 218.784C221.716 219.205 221.612 219.655 221.612 220.136V220.909C221.612 221.568 221.726 222.127 221.953 222.585C222.184 223.04 222.504 223.386 222.913 223.625C223.322 223.86 223.798 223.977 224.339 223.977C224.692 223.977 225.01 223.928 225.294 223.83C225.582 223.727 225.83 223.576 226.038 223.375C226.247 223.17 226.408 222.917 226.521 222.614L227.817 222.977C227.68 223.417 227.451 223.803 227.129 224.136C226.807 224.466 226.41 224.723 225.936 224.909C225.463 225.091 224.93 225.182 224.339 225.182ZM229.993 228.273V216.273H231.288V217.659H231.447C231.546 217.508 231.682 217.314 231.857 217.08C232.035 216.841 232.288 216.629 232.618 216.443C232.951 216.254 233.402 216.159 233.97 216.159C234.705 216.159 235.353 216.343 235.913 216.71C236.474 217.078 236.911 217.598 237.226 218.273C237.54 218.947 237.697 219.742 237.697 220.659C237.697 221.583 237.54 222.384 237.226 223.062C236.911 223.737 236.476 224.259 235.919 224.631C235.362 224.998 234.72 225.182 233.993 225.182C233.432 225.182 232.983 225.089 232.646 224.903C232.309 224.714 232.05 224.5 231.868 224.261C231.686 224.019 231.546 223.818 231.447 223.659H231.334V228.273H229.993ZM231.311 220.636C231.311 221.295 231.408 221.877 231.601 222.381C231.794 222.881 232.076 223.273 232.447 223.557C232.819 223.837 233.273 223.977 233.811 223.977C234.372 223.977 234.839 223.83 235.214 223.534C235.593 223.235 235.877 222.833 236.067 222.33C236.26 221.822 236.357 221.258 236.357 220.636C236.357 220.023 236.262 219.47 236.072 218.977C235.887 218.481 235.605 218.089 235.226 217.801C234.851 217.509 234.379 217.364 233.811 217.364C233.266 217.364 232.807 217.502 232.436 217.778C232.065 218.051 231.785 218.434 231.595 218.926C231.406 219.415 231.311 219.985 231.311 220.636ZM249.743 221.432V216.273H251.084V225H249.743V223.523H249.652C249.447 223.966 249.129 224.343 248.697 224.653C248.266 224.96 247.72 225.114 247.061 225.114C246.516 225.114 246.031 224.994 245.607 224.756C245.182 224.513 244.849 224.15 244.607 223.665C244.364 223.176 244.243 222.561 244.243 221.818V216.273H245.584V221.727C245.584 222.364 245.762 222.871 246.118 223.25C246.478 223.629 246.936 223.818 247.493 223.818C247.826 223.818 248.165 223.733 248.51 223.562C248.858 223.392 249.15 223.131 249.385 222.778C249.624 222.426 249.743 221.977 249.743 221.432ZM253.54 228.273V216.273H254.835V217.659H254.994C255.093 217.508 255.229 217.314 255.403 217.08C255.581 216.841 255.835 216.629 256.165 216.443C256.498 216.254 256.949 216.159 257.517 216.159C258.252 216.159 258.9 216.343 259.46 216.71C260.021 217.078 260.458 217.598 260.773 218.273C261.087 218.947 261.244 219.742 261.244 220.659C261.244 221.583 261.087 222.384 260.773 223.062C260.458 223.737 260.023 224.259 259.466 224.631C258.909 224.998 258.267 225.182 257.54 225.182C256.979 225.182 256.53 225.089 256.193 224.903C255.856 224.714 255.597 224.5 255.415 224.261C255.233 224.019 255.093 223.818 254.994 223.659H254.881V228.273H253.54ZM254.858 220.636C254.858 221.295 254.955 221.877 255.148 222.381C255.341 222.881 255.623 223.273 255.994 223.557C256.366 223.837 256.82 223.977 257.358 223.977C257.919 223.977 258.386 223.83 258.761 223.534C259.14 223.235 259.424 222.833 259.614 222.33C259.807 221.822 259.903 221.258 259.903 220.636C259.903 220.023 259.809 219.47 259.619 218.977C259.434 218.481 259.152 218.089 258.773 217.801C258.398 217.509 257.926 217.364 257.358 217.364C256.813 217.364 256.354 217.502 255.983 217.778C255.612 218.051 255.331 218.434 255.142 218.926C254.953 219.415 254.858 219.985 254.858 220.636ZM271.585 216.273V217.409H267.062V216.273H271.585ZM268.381 214.182H269.722V222.5C269.722 222.879 269.777 223.163 269.886 223.352C270 223.538 270.144 223.663 270.318 223.727C270.496 223.788 270.684 223.818 270.881 223.818C271.028 223.818 271.15 223.811 271.244 223.795C271.339 223.777 271.415 223.761 271.472 223.75L271.744 224.955C271.653 224.989 271.527 225.023 271.364 225.057C271.201 225.095 270.994 225.114 270.744 225.114C270.366 225.114 269.994 225.032 269.631 224.869C269.271 224.706 268.972 224.458 268.733 224.125C268.498 223.792 268.381 223.371 268.381 222.864V214.182ZM275.131 219.75V225H273.79V213.364H275.131V217.636H275.244C275.449 217.186 275.756 216.828 276.165 216.562C276.578 216.294 277.127 216.159 277.812 216.159C278.407 216.159 278.928 216.278 279.375 216.517C279.822 216.752 280.169 217.114 280.415 217.602C280.665 218.087 280.79 218.705 280.79 219.455V225H279.449V219.545C279.449 218.852 279.269 218.316 278.909 217.938C278.553 217.555 278.059 217.364 277.426 217.364C276.987 217.364 276.593 217.456 276.244 217.642C275.9 217.828 275.627 218.098 275.426 218.455C275.229 218.811 275.131 219.242 275.131 219.75ZM286.902 225.182C286.061 225.182 285.336 224.996 284.726 224.625C284.12 224.25 283.652 223.727 283.322 223.057C282.997 222.383 282.834 221.598 282.834 220.705C282.834 219.811 282.997 219.023 283.322 218.341C283.652 217.655 284.11 217.121 284.697 216.739C285.288 216.352 285.978 216.159 286.766 216.159C287.22 216.159 287.669 216.235 288.112 216.386C288.555 216.538 288.959 216.784 289.322 217.125C289.686 217.462 289.976 217.909 290.192 218.466C290.408 219.023 290.516 219.708 290.516 220.523V221.091H283.788V219.932H289.152C289.152 219.439 289.054 219 288.857 218.614C288.663 218.227 288.387 217.922 288.027 217.699C287.671 217.475 287.25 217.364 286.766 217.364C286.232 217.364 285.769 217.496 285.379 217.761C284.993 218.023 284.696 218.364 284.487 218.784C284.279 219.205 284.175 219.655 284.175 220.136V220.909C284.175 221.568 284.288 222.127 284.516 222.585C284.747 223.04 285.067 223.386 285.476 223.625C285.885 223.86 286.36 223.977 286.902 223.977C287.254 223.977 287.572 223.928 287.857 223.83C288.144 223.727 288.393 223.576 288.601 223.375C288.809 223.17 288.97 222.917 289.084 222.614L290.379 222.977C290.243 223.417 290.014 223.803 289.692 224.136C289.37 224.466 288.972 224.723 288.499 224.909C288.025 225.091 287.493 225.182 286.902 225.182ZM300.578 228.455C299.93 228.455 299.374 228.371 298.908 228.205C298.442 228.042 298.054 227.826 297.743 227.557C297.436 227.292 297.192 227.008 297.01 226.705L298.078 225.955C298.199 226.114 298.353 226.295 298.538 226.5C298.724 226.708 298.978 226.888 299.3 227.04C299.625 227.195 300.052 227.273 300.578 227.273C301.283 227.273 301.864 227.102 302.322 226.761C302.781 226.42 303.01 225.886 303.01 225.159V223.386H302.896C302.798 223.545 302.658 223.742 302.476 223.977C302.298 224.208 302.04 224.415 301.703 224.597C301.37 224.775 300.919 224.864 300.351 224.864C299.646 224.864 299.014 224.697 298.453 224.364C297.896 224.03 297.455 223.545 297.129 222.909C296.807 222.273 296.646 221.5 296.646 220.591C296.646 219.697 296.804 218.919 297.118 218.256C297.432 217.589 297.87 217.074 298.43 216.71C298.991 216.343 299.639 216.159 300.374 216.159C300.942 216.159 301.393 216.254 301.726 216.443C302.063 216.629 302.321 216.841 302.499 217.08C302.68 217.314 302.821 217.508 302.919 217.659H303.055V216.273H304.351V225.25C304.351 226 304.18 226.61 303.839 227.08C303.502 227.553 303.048 227.9 302.476 228.119C301.908 228.343 301.275 228.455 300.578 228.455ZM300.533 223.659C301.071 223.659 301.525 223.536 301.896 223.29C302.268 223.044 302.55 222.689 302.743 222.227C302.936 221.765 303.033 221.212 303.033 220.568C303.033 219.939 302.938 219.384 302.749 218.903C302.559 218.422 302.279 218.045 301.908 217.773C301.536 217.5 301.078 217.364 300.533 217.364C299.964 217.364 299.491 217.508 299.112 217.795C298.737 218.083 298.455 218.47 298.266 218.955C298.08 219.439 297.987 219.977 297.987 220.568C297.987 221.174 298.082 221.71 298.271 222.176C298.464 222.638 298.749 223.002 299.124 223.267C299.502 223.528 299.972 223.659 300.533 223.659ZM310.351 225.182C309.563 225.182 308.872 224.994 308.277 224.619C307.686 224.244 307.224 223.72 306.891 223.045C306.561 222.371 306.396 221.583 306.396 220.682C306.396 219.773 306.561 218.979 306.891 218.301C307.224 217.623 307.686 217.097 308.277 216.722C308.872 216.347 309.563 216.159 310.351 216.159C311.139 216.159 311.828 216.347 312.419 216.722C313.014 217.097 313.476 217.623 313.805 218.301C314.139 218.979 314.305 219.773 314.305 220.682C314.305 221.583 314.139 222.371 313.805 223.045C313.476 223.72 313.014 224.244 312.419 224.619C311.828 224.994 311.139 225.182 310.351 225.182ZM310.351 223.977C310.949 223.977 311.442 223.824 311.828 223.517C312.214 223.21 312.5 222.807 312.686 222.307C312.872 221.807 312.964 221.265 312.964 220.682C312.964 220.098 312.872 219.555 312.686 219.051C312.5 218.547 312.214 218.14 311.828 217.83C311.442 217.519 310.949 217.364 310.351 217.364C309.752 217.364 309.26 217.519 308.874 217.83C308.487 218.14 308.201 218.547 308.016 219.051C307.83 219.555 307.737 220.098 307.737 220.682C307.737 221.265 307.83 221.807 308.016 222.307C308.201 222.807 308.487 223.21 308.874 223.517C309.26 223.824 309.752 223.977 310.351 223.977ZM319.898 225.182C319.11 225.182 318.419 224.994 317.824 224.619C317.233 224.244 316.771 223.72 316.438 223.045C316.108 222.371 315.943 221.583 315.943 220.682C315.943 219.773 316.108 218.979 316.438 218.301C316.771 217.623 317.233 217.097 317.824 216.722C318.419 216.347 319.11 216.159 319.898 216.159C320.686 216.159 321.375 216.347 321.966 216.722C322.561 217.097 323.023 217.623 323.352 218.301C323.686 218.979 323.852 219.773 323.852 220.682C323.852 221.583 323.686 222.371 323.352 223.045C323.023 223.72 322.561 224.244 321.966 224.619C321.375 224.994 320.686 225.182 319.898 225.182ZM319.898 223.977C320.496 223.977 320.989 223.824 321.375 223.517C321.761 223.21 322.047 222.807 322.233 222.307C322.419 221.807 322.511 221.265 322.511 220.682C322.511 220.098 322.419 219.555 322.233 219.051C322.047 218.547 321.761 218.14 321.375 217.83C320.989 217.519 320.496 217.364 319.898 217.364C319.299 217.364 318.807 217.519 318.42 217.83C318.034 218.14 317.748 218.547 317.562 219.051C317.377 219.555 317.284 220.098 317.284 220.682C317.284 221.265 317.377 221.807 317.562 222.307C317.748 222.807 318.034 223.21 318.42 223.517C318.807 223.824 319.299 223.977 319.898 223.977ZM329.195 225.182C328.467 225.182 327.825 224.998 327.268 224.631C326.712 224.259 326.276 223.737 325.962 223.062C325.647 222.384 325.49 221.583 325.49 220.659C325.49 219.742 325.647 218.947 325.962 218.273C326.276 217.598 326.714 217.078 327.274 216.71C327.835 216.343 328.482 216.159 329.217 216.159C329.786 216.159 330.234 216.254 330.564 216.443C330.897 216.629 331.151 216.841 331.325 217.08C331.503 217.314 331.642 217.508 331.74 217.659H331.854V213.364H333.195V225H331.899V223.659H331.74C331.642 223.818 331.501 224.019 331.32 224.261C331.138 224.5 330.878 224.714 330.541 224.903C330.204 225.089 329.755 225.182 329.195 225.182ZM329.376 223.977C329.914 223.977 330.369 223.837 330.74 223.557C331.111 223.273 331.393 222.881 331.587 222.381C331.78 221.877 331.876 221.295 331.876 220.636C331.876 219.985 331.782 219.415 331.592 218.926C331.403 218.434 331.123 218.051 330.751 217.778C330.38 217.502 329.922 217.364 329.376 217.364C328.808 217.364 328.335 217.509 327.956 217.801C327.581 218.089 327.299 218.481 327.109 218.977C326.924 219.47 326.831 220.023 326.831 220.636C326.831 221.258 326.926 221.822 327.115 222.33C327.308 222.833 327.592 223.235 327.967 223.534C328.346 223.83 328.816 223.977 329.376 223.977ZM342.314 225L339.655 216.273H341.064L342.95 222.955H343.041L344.905 216.273H346.337L348.178 222.932H348.268L350.155 216.273H351.564L348.905 225H347.587L345.678 218.295H345.541L343.632 225H342.314ZM356.585 225.182C355.797 225.182 355.106 224.994 354.511 224.619C353.92 224.244 353.458 223.72 353.125 223.045C352.795 222.371 352.631 221.583 352.631 220.682C352.631 219.773 352.795 218.979 353.125 218.301C353.458 217.623 353.92 217.097 354.511 216.722C355.106 216.347 355.797 216.159 356.585 216.159C357.373 216.159 358.063 216.347 358.653 216.722C359.248 217.097 359.71 217.623 360.04 218.301C360.373 218.979 360.54 219.773 360.54 220.682C360.54 221.583 360.373 222.371 360.04 223.045C359.71 223.72 359.248 224.244 358.653 224.619C358.063 224.994 357.373 225.182 356.585 225.182ZM356.585 223.977C357.184 223.977 357.676 223.824 358.062 223.517C358.449 223.21 358.735 222.807 358.92 222.307C359.106 221.807 359.199 221.265 359.199 220.682C359.199 220.098 359.106 219.555 358.92 219.051C358.735 218.547 358.449 218.14 358.062 217.83C357.676 217.519 357.184 217.364 356.585 217.364C355.987 217.364 355.494 217.519 355.108 217.83C354.722 218.14 354.436 218.547 354.25 219.051C354.064 219.555 353.972 220.098 353.972 220.682C353.972 221.265 354.064 221.807 354.25 222.307C354.436 222.807 354.722 223.21 355.108 223.517C355.494 223.824 355.987 223.977 356.585 223.977ZM362.587 225V216.273H363.882V217.591H363.973C364.132 217.159 364.42 216.809 364.837 216.54C365.253 216.271 365.723 216.136 366.246 216.136C366.344 216.136 366.467 216.138 366.615 216.142C366.763 216.146 366.875 216.152 366.95 216.159V217.523C366.905 217.511 366.801 217.494 366.638 217.472C366.479 217.445 366.31 217.432 366.132 217.432C365.708 217.432 365.329 217.521 364.996 217.699C364.666 217.873 364.405 218.116 364.212 218.426C364.022 218.733 363.928 219.083 363.928 219.477V225H362.587ZM369.79 221.818L369.767 220.159H370.04L373.858 216.273H375.517L371.449 220.386H371.335L369.79 221.818ZM368.54 225V213.364H369.881V225H368.54ZM374.085 225L370.676 220.682L371.631 219.75L375.79 225H374.085ZM378.22 225.091C377.94 225.091 377.699 224.991 377.499 224.79C377.298 224.589 377.197 224.348 377.197 224.068C377.197 223.788 377.298 223.547 377.499 223.347C377.699 223.146 377.94 223.045 378.22 223.045C378.5 223.045 378.741 223.146 378.942 223.347C379.143 223.547 379.243 223.788 379.243 224.068C379.243 224.254 379.196 224.424 379.101 224.58C379.01 224.735 378.887 224.86 378.732 224.955C378.58 225.045 378.41 225.091 378.22 225.091Z" fill="#080D19"/>
<path d="M36.992 267.64C40.48 267.64 42.448 269.688 42.448 273.336C42.448 276.968 40.528 279 37.088 279H33.472V267.64H36.992ZM34.848 277.656H36.992C39.664 277.656 41.008 276.216 41.008 273.336C41.008 270.424 39.664 268.984 36.992 268.984H34.848V277.656ZM47.7144 279.192C45.3624 279.192 43.8264 277.464 43.8264 274.76C43.8264 272.056 45.3624 270.328 47.7144 270.328C50.0504 270.328 51.5864 272.056 51.5864 274.76C51.5864 277.464 50.0504 279.192 47.7144 279.192ZM45.2344 274.76C45.2344 276.728 46.1464 277.912 47.7144 277.912C49.2664 277.912 50.1784 276.728 50.1784 274.76C50.1784 272.792 49.2664 271.608 47.7144 271.608C46.1464 271.608 45.2344 272.792 45.2344 274.76ZM59.0378 270.52L61.0538 277.512L63.0858 270.52H64.5258L61.9018 279H60.2058L58.3178 272.552L56.4298 279H54.7498L52.1258 270.52H53.5658L55.5818 277.512L57.5978 270.52H59.0378ZM66.0031 270.52H67.2351L67.2671 271.992C67.6991 270.84 68.7071 270.328 69.8751 270.328C71.8111 270.328 72.7391 271.752 72.7391 273.544V279H71.3951V273.928C71.3951 272.36 70.8671 271.512 69.5871 271.512C68.2431 271.512 67.3471 272.36 67.3471 273.928V279H66.0031V270.52ZM74.9056 267.64H76.2496V277.288C76.2496 277.64 76.4256 277.816 76.7776 277.816H77.5136V279H76.5696C75.5776 279 74.9056 278.328 74.9056 277.352V267.64ZM82.4806 279.192C80.1286 279.192 78.5926 277.464 78.5926 274.76C78.5926 272.056 80.1286 270.328 82.4806 270.328C84.8166 270.328 86.3526 272.056 86.3526 274.76C86.3526 277.464 84.8166 279.192 82.4806 279.192ZM80.0006 274.76C80.0006 276.728 80.9126 277.912 82.4806 277.912C84.0326 277.912 84.9446 276.728 84.9446 274.76C84.9446 272.792 84.0326 271.608 82.4806 271.608C80.9126 271.608 80.0006 272.792 80.0006 274.76ZM87.9204 273.016C88.2564 271.368 89.5844 270.328 91.3924 270.328C93.5684 270.328 94.8004 271.608 94.8004 273.88V277.288C94.8004 277.64 94.9604 277.816 95.3124 277.816H95.6644V279H95.0884C94.2244 279 93.4724 278.728 93.4724 277.688C93.1044 278.472 92.1764 279.192 90.8324 279.192C89.1364 279.192 87.7764 278.296 87.7764 276.776C87.7764 275.032 89.0884 274.584 90.9764 274.232L93.4564 273.736C93.4404 272.312 92.7524 271.608 91.3924 271.608C90.3204 271.608 89.6004 272.152 89.3444 273.128L87.9204 273.016ZM89.1844 276.776C89.1844 277.448 89.7604 278.008 91.0084 278.008C92.3844 277.992 93.4884 277.032 93.4884 275.048V274.936L91.4884 275.288C90.2244 275.512 89.1844 275.592 89.1844 276.776ZM104.199 267.64V279H102.983L102.935 277.784C102.455 278.648 101.431 279.192 100.247 279.192C98.0393 279.192 96.6633 277.48 96.6633 274.76C96.6633 272.04 98.0393 270.328 100.247 270.328C101.383 270.328 102.391 270.84 102.855 271.64V267.64H104.199ZM98.0713 274.76C98.0713 276.696 99.0313 277.912 100.519 277.912C102.023 277.912 102.983 276.696 102.983 274.76C102.983 272.792 102.023 271.544 100.519 271.544C99.0313 271.544 98.0713 272.792 98.0713 274.76ZM110.05 273.016C110.386 271.368 111.714 270.328 113.522 270.328C115.698 270.328 116.93 271.608 116.93 273.88V277.288C116.93 277.64 117.09 277.816 117.442 277.816H117.794V279H117.218C116.354 279 115.602 278.728 115.602 277.688C115.234 278.472 114.306 279.192 112.962 279.192C111.266 279.192 109.906 278.296 109.906 276.776C109.906 275.032 111.218 274.584 113.106 274.232L115.586 273.736C115.57 272.312 114.882 271.608 113.522 271.608C112.45 271.608 111.73 272.152 111.474 273.128L110.05 273.016ZM111.314 276.776C111.314 277.448 111.89 278.008 113.138 278.008C114.514 277.992 115.618 277.032 115.618 275.048V274.936L113.618 275.288C112.354 275.512 111.314 275.592 111.314 276.776ZM124.201 273.144C124.009 272.184 123.065 271.608 122.121 271.608C121.177 271.608 120.409 272.088 120.409 272.904C120.409 273.736 121.513 274.072 122.441 274.264C124.361 274.632 125.769 275.16 125.769 276.84C125.769 278.488 124.073 279.192 122.457 279.192C120.457 279.192 118.921 278.088 118.793 276.328L120.201 276.232C120.377 277.256 121.193 277.912 122.457 277.912C123.289 277.912 124.361 277.64 124.361 276.76C124.361 275.752 123.161 275.64 122.201 275.416C120.649 275.064 119.001 274.616 119.001 272.968C119.001 271.352 120.313 270.328 122.265 270.328C123.945 270.328 125.337 271.4 125.609 273.048L124.201 273.144ZM135.757 267.64C138.285 267.64 139.773 268.92 139.773 271.08C139.773 273.272 138.285 274.584 135.757 274.584H133.053V279H131.677V267.64H135.757ZM133.053 273.24H135.757C137.469 273.24 138.333 272.504 138.333 271.08C138.333 269.688 137.469 268.984 135.757 268.984H133.053V273.24ZM141.923 267.64H143.843L149.411 277.368V267.64H150.787V279H148.787L143.299 269.432V279H141.923V267.64ZM162.568 279H161.56L161.432 277.144C160.952 278.392 159.544 279.256 158.024 279.256C154.76 279.256 152.888 276.632 152.888 273.336C152.888 270.024 154.744 267.384 158.024 267.384C160.44 267.384 162.024 268.888 162.52 271.128L161.08 271.224C160.696 269.688 159.672 268.728 158.024 268.728C155.432 268.728 154.328 270.872 154.328 273.336C154.328 275.784 155.448 277.912 158.024 277.912C160.008 277.912 161.112 276.472 161.24 274.6H158.024V273.256H162.568V279Z" fill="#6366F1"/>
<path d="M32 281H163.432V281.8H32V281Z" fill="#6366F1"/>
<rect width="1" height="26" transform="translate(180 260)" fill="#EEEEFF"/>
<path d="M199.384 275.272C199.672 276.808 200.76 277.848 202.552 277.848C204.008 277.848 204.984 277.272 204.984 276.136C204.984 274.984 203.992 274.28 201.72 273.704C199.864 273.24 198.184 272.328 198.184 270.504C198.184 268.584 199.72 267.384 201.896 267.384C204.328 267.384 205.944 268.904 206.184 271L204.744 271.096C204.536 269.672 203.448 268.728 201.88 268.728C200.584 268.728 199.624 269.416 199.624 270.504C199.624 271.88 201.272 272.264 202.712 272.664C204.776 273.24 206.424 274.264 206.424 275.992C206.424 278.104 204.504 279.192 202.44 279.192C199.96 279.192 198.136 277.672 197.944 275.368L199.384 275.272ZM208.089 267.64H209.433V271.672C209.913 270.744 210.905 270.328 211.961 270.328C213.721 270.328 214.825 271.576 214.825 273.544V279H213.481V274.024C213.481 272.408 212.889 271.608 211.673 271.608C210.329 271.608 209.433 272.456 209.433 274.024V279H208.089V267.64ZM216.685 273.016C217.021 271.368 218.349 270.328 220.157 270.328C222.333 270.328 223.565 271.608 223.565 273.88V277.288C223.565 277.64 223.725 277.816 224.077 277.816H224.429V279H223.853C222.989 279 222.237 278.728 222.237 277.688C221.869 278.472 220.941 279.192 219.597 279.192C217.901 279.192 216.541 278.296 216.541 276.776C216.541 275.032 217.853 274.584 219.741 274.232L222.221 273.736C222.205 272.312 221.517 271.608 220.157 271.608C219.085 271.608 218.365 272.152 218.109 273.128L216.685 273.016ZM217.949 276.776C217.949 277.448 218.525 278.008 219.773 278.008C221.149 277.992 222.253 277.032 222.253 275.048V274.936L220.253 275.288C218.989 275.512 217.949 275.592 217.949 276.776ZM225.988 270.52H227.172L227.22 272.072C227.508 271.016 228.132 270.52 229.236 270.52H230.068V271.704H229.236C227.94 271.704 227.332 272.488 227.332 273.944V279H225.988V270.52ZM230.925 274.76C230.925 272.072 232.445 270.328 234.813 270.328C236.685 270.328 238.349 271.56 238.477 274.568L238.493 275.176H232.349C232.477 276.904 233.357 277.912 234.813 277.912C235.709 277.912 236.541 277.384 236.925 276.488L238.365 276.6C237.869 278.2 236.429 279.192 234.813 279.192C232.445 279.192 230.925 277.448 230.925 274.76ZM232.381 273.992H237.021C236.797 272.216 235.837 271.608 234.813 271.608C233.469 271.608 232.605 272.488 232.381 273.992Z" fill="#6366F1"/>
<path d="M197 281H239.244V281.8H197V281Z" fill="#6366F1"/>
<defs>
<clipPath id="clip0_7479_11030">
<rect width="20" height="20" fill="white" transform="translate(48 209)"/>
</clipPath>
</defs>
</svg>
