<svg width="524" height="344" viewBox="0 0 524 344" fill="none" xmlns="http://www.w3.org/2000/svg">
<rect x="0.5" y="0.5" width="523" height="343" rx="5.5" fill="white"/>
<rect x="0.5" y="0.5" width="523" height="343" rx="5.5" stroke="#EEEEFF"/>
<path d="M38.58 53.286C38.286 52.474 37.586 52.012 36.662 52.012C35.178 52.012 34.254 53.3 34.072 55.652C34.604 54.742 35.5 54.224 36.592 54.224C38.552 54.224 39.882 55.652 39.882 57.696C39.882 59.866 38.44 61.224 36.382 61.224C35.514 61.224 34.632 60.916 33.904 60.16C33.19 59.432 32.84 58.172 32.84 56.618C32.84 53.636 33.792 50.836 36.662 50.836C38.174 50.836 39.392 51.662 39.84 53.188L38.58 53.286ZM34.156 57.696C34.128 59.068 35.066 60.048 36.41 60.048C37.712 60.048 38.622 59.068 38.622 57.696C38.622 56.352 37.754 55.414 36.508 55.414C35.15 55.414 34.17 56.352 34.156 57.696ZM41.8843 59.474H43.3823V61H41.8843V59.474ZM41.8843 56.058V54.532H43.3823V56.058H41.8843ZM48.7445 55.134C49.6825 55.148 50.8025 54.714 50.8025 53.426C50.8025 52.558 50.0185 52.012 48.7445 52.012C47.7085 52.012 46.9805 52.516 46.8545 53.314L45.5945 53.23C45.7765 51.83 47.0785 50.836 48.7445 50.836C50.7045 50.836 52.0765 51.9 52.0765 53.426C52.0765 54.532 51.4465 55.274 50.2425 55.624C51.6285 56.03 52.4125 56.982 52.4125 58.27C52.4125 60.006 50.9005 61.224 48.7445 61.224C46.7565 61.224 45.3145 60.076 45.2305 58.438L46.4765 58.354C46.5885 59.572 47.7505 60.048 48.7445 60.048C49.9205 60.048 51.1525 59.516 51.1525 58.172C51.1525 56.842 49.9205 56.268 48.7445 56.296L47.9745 56.31V55.12L48.7445 55.134ZM57.6665 61.224C55.2585 61.224 53.7325 59.222 53.7325 56.044C53.7325 52.838 55.2585 50.836 57.6665 50.836C60.0885 50.836 61.6145 52.838 61.6145 56.044C61.6145 59.222 60.0885 61.224 57.6665 61.224ZM54.9925 56.044C54.9925 58.606 55.9585 60.048 57.6665 60.048C59.3885 60.048 60.3545 58.606 60.3545 56.044C60.3545 53.468 59.3885 52.012 57.6665 52.012C55.9585 52.012 54.9925 53.468 54.9925 56.044ZM63.0756 63.1V53.58H64.1396L64.1816 54.686C64.5876 53.86 65.3856 53.412 66.4636 53.412C68.6756 53.412 69.6696 55.246 69.6696 57.29C69.6696 59.334 68.6756 61.168 66.4636 61.168C65.4276 61.168 64.6716 60.762 64.2516 59.992V63.1H63.0756ZM64.1256 57.29C64.1256 58.676 64.7556 60.048 66.2676 60.048C67.7936 60.048 68.4096 58.704 68.4096 57.29C68.4096 55.876 67.7936 54.532 66.2676 54.532C64.7556 54.532 64.1256 55.904 64.1256 57.29ZM71.2345 53.58H72.3125L72.3405 54.826C72.6905 53.93 73.4605 53.412 74.4825 53.412C75.5605 53.412 76.3305 53.972 76.6525 54.966C76.9745 53.972 77.7445 53.412 78.9065 53.412C80.4045 53.412 81.2725 54.434 81.2725 56.226V61H80.0965V56.562C80.0965 55.218 79.5645 54.448 78.6685 54.448C77.5065 54.448 76.8345 55.232 76.8345 56.562V61H75.6585V56.562C75.6585 55.246 75.1265 54.448 74.2445 54.448C73.0965 54.448 72.4105 55.246 72.4105 56.562V61H71.2345V53.58ZM84.4218 61L83.6238 63.156H82.9378L83.4838 61H82.9098V59.474H84.4078V61H84.4218ZM89.6599 52.6C90.7239 52.6 91.1859 52.138 91.1859 51.06H92.1379V61H90.9199V53.636H88.8619V52.6H89.6599ZM94.5569 54.028C94.8229 52.194 96.1249 50.836 98.1129 50.836C99.9329 50.836 101.277 52.04 101.277 53.664C101.277 55.106 100.129 56.086 98.6309 57.024C97.8329 57.472 95.9149 58.83 95.8729 59.824H101.361V61H94.3749C94.3749 58.032 96.5029 56.954 98.1969 55.876C99.2469 55.204 100.017 54.434 100.017 53.664C100.017 52.698 99.2329 52.012 98.1129 52.012C96.9089 52.012 96.0829 52.768 95.8169 54.112L94.5569 54.028ZM102.623 62.54L106.753 50.5H107.887L103.743 62.54H102.623ZM112.929 61.224C110.521 61.224 108.995 59.222 108.995 56.044C108.995 52.838 110.521 50.836 112.929 50.836C115.351 50.836 116.877 52.838 116.877 56.044C116.877 59.222 115.351 61.224 112.929 61.224ZM110.255 56.044C110.255 58.606 111.221 60.048 112.929 60.048C114.651 60.048 115.617 58.606 115.617 56.044C115.617 53.468 114.651 52.012 112.929 52.012C111.221 52.012 110.255 53.468 110.255 56.044ZM118.377 54.028C118.643 52.194 119.945 50.836 121.933 50.836C123.753 50.836 125.097 52.04 125.097 53.664C125.097 55.106 123.949 56.086 122.451 57.024C121.653 57.472 119.735 58.83 119.693 59.824H125.181V61H118.195C118.195 58.032 120.323 56.954 122.017 55.876C123.067 55.204 123.837 54.434 123.837 53.664C123.837 52.698 123.053 52.012 121.933 52.012C120.729 52.012 119.903 52.768 119.637 54.112L118.377 54.028ZM126.443 62.54L130.573 50.5H131.707L127.563 62.54H126.443ZM133.505 54.028C133.771 52.194 135.073 50.836 137.061 50.836C138.881 50.836 140.225 52.04 140.225 53.664C140.225 55.106 139.077 56.086 137.579 57.024C136.781 57.472 134.863 58.83 134.821 59.824H140.309V61H133.323C133.323 58.032 135.451 56.954 137.145 55.876C138.195 55.204 138.965 54.434 138.965 53.664C138.965 52.698 138.181 52.012 137.061 52.012C135.857 52.012 135.031 52.768 134.765 54.112L133.505 54.028ZM145.565 61.224C143.157 61.224 141.631 59.222 141.631 56.044C141.631 52.838 143.157 50.836 145.565 50.836C147.987 50.836 149.513 52.838 149.513 56.044C149.513 59.222 147.987 61.224 145.565 61.224ZM142.891 56.044C142.891 58.606 143.857 60.048 145.565 60.048C147.287 60.048 148.253 58.606 148.253 56.044C148.253 53.468 147.287 52.012 145.565 52.012C143.857 52.012 142.891 53.468 142.891 56.044ZM151.012 54.028C151.278 52.194 152.58 50.836 154.568 50.836C156.388 50.836 157.732 52.04 157.732 53.664C157.732 55.106 156.584 56.086 155.086 57.024C154.288 57.472 152.37 58.83 152.328 59.824H157.816V61H150.83C150.83 58.032 152.958 56.954 154.652 55.876C155.702 55.204 156.472 54.434 156.472 53.664C156.472 52.698 155.688 52.012 154.568 52.012C153.364 52.012 152.538 52.768 152.272 54.112L151.012 54.028ZM165.574 51.06V57.78H166.708V58.956H165.574V61H164.37V58.956H159.218V57.78L164.286 51.06H165.574ZM160.702 57.78H164.37V52.908L160.702 57.78Z" fill="#A9AAAE"/>
<path d="M34.384 102.272C34.672 103.808 35.76 104.848 37.552 104.848C39.008 104.848 39.984 104.272 39.984 103.136C39.984 101.984 38.992 101.28 36.72 100.704C34.864 100.24 33.184 99.328 33.184 97.504C33.184 95.584 34.72 94.384 36.896 94.384C39.328 94.384 40.944 95.904 41.184 98L39.744 98.096C39.536 96.672 38.448 95.728 36.88 95.728C35.584 95.728 34.624 96.416 34.624 97.504C34.624 98.88 36.272 99.264 37.712 99.664C39.776 100.24 41.424 101.264 41.424 102.992C41.424 105.104 39.504 106.192 37.44 106.192C34.96 106.192 33.136 104.672 32.944 102.368L34.384 102.272ZM43.111 100.016C43.447 98.368 44.775 97.328 46.583 97.328C48.759 97.328 49.991 98.608 49.991 100.88V104.288C49.991 104.64 50.151 104.816 50.503 104.816H50.855V106H50.279C49.415 106 48.663 105.728 48.663 104.688C48.295 105.472 47.367 106.192 46.023 106.192C44.327 106.192 42.967 105.296 42.967 103.776C42.967 102.032 44.279 101.584 46.167 101.232L48.647 100.736C48.631 99.312 47.943 98.608 46.583 98.608C45.511 98.608 44.791 99.152 44.535 100.128L43.111 100.016ZM44.375 103.776C44.375 104.448 44.951 105.008 46.199 105.008C47.575 104.992 48.679 104.032 48.679 102.048V101.936L46.679 102.288C45.415 102.512 44.375 102.592 44.375 103.776ZM52.5381 94.64H53.8821V104.288C53.8821 104.64 54.0581 104.816 54.4101 104.816H55.1461V106H54.2021C53.2101 106 52.5381 105.328 52.5381 104.352V94.64ZM56.2251 101.76C56.2251 99.072 57.7451 97.328 60.1131 97.328C61.9851 97.328 63.6491 98.56 63.7771 101.568L63.7931 102.176H57.6491C57.7771 103.904 58.6571 104.912 60.1131 104.912C61.0091 104.912 61.8411 104.384 62.2251 103.488L63.6651 103.6C63.1691 105.2 61.7291 106.192 60.1131 106.192C57.7451 106.192 56.2251 104.448 56.2251 101.76ZM57.6811 100.992H62.3211C62.0971 99.216 61.1371 98.608 60.1131 98.608C58.7691 98.608 57.9051 99.488 57.6811 100.992ZM70.5513 100.144C70.3593 99.184 69.4153 98.608 68.4713 98.608C67.5273 98.608 66.7593 99.088 66.7593 99.904C66.7593 100.736 67.8633 101.072 68.7913 101.264C70.7113 101.632 72.1193 102.16 72.1193 103.84C72.1193 105.488 70.4233 106.192 68.8073 106.192C66.8073 106.192 65.2713 105.088 65.1433 103.328L66.5513 103.232C66.7273 104.256 67.5433 104.912 68.8073 104.912C69.6393 104.912 70.7113 104.64 70.7113 103.76C70.7113 102.752 69.5113 102.64 68.5513 102.416C66.9993 102.064 65.3513 101.616 65.3513 99.968C65.3513 98.352 66.6633 97.328 68.6153 97.328C70.2953 97.328 71.6873 98.4 71.9593 100.048L70.5513 100.144ZM81.1956 106.192C78.8436 106.192 77.3076 104.464 77.3076 101.76C77.3076 99.056 78.8436 97.328 81.1956 97.328C83.5316 97.328 85.0676 99.056 85.0676 101.76C85.0676 104.464 83.5316 106.192 81.1956 106.192ZM78.7156 101.76C78.7156 103.728 79.6276 104.912 81.1956 104.912C82.7476 104.912 83.6596 103.728 83.6596 101.76C83.6596 99.792 82.7476 98.608 81.1956 98.608C79.6276 98.608 78.7156 99.792 78.7156 101.76ZM87.4608 96.976C87.4608 95.552 88.1648 94.64 89.7328 94.64H91.0448V95.824H89.7328C89.1888 95.824 88.8048 96.256 88.8048 96.976V97.52H90.9328V98.704H88.8048V106H87.4608V98.704H86.3088V97.52H87.4608V96.976ZM96.6838 108.4V97.52H97.8998L97.9478 98.784C98.4118 97.84 99.3238 97.328 100.556 97.328C103.084 97.328 104.22 99.424 104.22 101.76C104.22 104.096 103.084 106.192 100.556 106.192C99.3718 106.192 98.5078 105.728 98.0278 104.848V108.4H96.6838ZM97.8838 101.76C97.8838 103.344 98.6038 104.912 100.332 104.912C102.076 104.912 102.78 103.376 102.78 101.76C102.78 100.144 102.076 98.608 100.332 98.608C98.6038 98.608 97.8838 100.176 97.8838 101.76ZM106.008 97.52H107.192L107.24 99.072C107.528 98.016 108.152 97.52 109.256 97.52H110.088V98.704H109.256C107.96 98.704 107.352 99.488 107.352 100.944V106H106.008V97.52ZM110.945 101.76C110.945 99.072 112.465 97.328 114.833 97.328C116.705 97.328 118.369 98.56 118.497 101.568L118.513 102.176H112.369C112.497 103.904 113.377 104.912 114.833 104.912C115.729 104.912 116.561 104.384 116.945 103.488L118.385 103.6C117.889 105.2 116.449 106.192 114.833 106.192C112.465 106.192 110.945 104.448 110.945 101.76ZM112.401 100.992H117.041C116.817 99.216 115.857 98.608 114.833 98.608C113.489 98.608 112.625 99.488 112.401 100.992ZM120.313 97.52H121.545L121.577 98.944C121.977 97.92 122.857 97.328 124.025 97.328C125.257 97.328 126.137 97.968 126.505 99.104C126.873 97.968 127.753 97.328 129.081 97.328C130.793 97.328 131.785 98.496 131.785 100.544V106H130.441V100.928C130.441 99.392 129.833 98.512 128.809 98.512C127.481 98.512 126.713 99.408 126.713 100.928V106H125.369V100.928C125.369 99.424 124.761 98.512 123.753 98.512C122.441 98.512 121.657 99.424 121.657 100.928V106H120.313V97.52ZM134.184 97.52H135.528V106H134.184V97.52ZM134.152 96.192V94.656H135.56V96.192H134.152ZM144.258 106H142.978V104.592C142.53 105.696 141.554 106.192 140.434 106.192C138.546 106.192 137.618 104.768 137.618 102.976V97.52H138.962V102.576C138.962 104.16 139.49 105.008 140.722 105.008C142.034 105.008 142.914 104.16 142.914 102.576V97.52H144.258V106ZM146.661 97.52H147.893L147.925 98.944C148.325 97.92 149.205 97.328 150.373 97.328C151.605 97.328 152.485 97.968 152.853 99.104C153.221 97.968 154.101 97.328 155.429 97.328C157.141 97.328 158.133 98.496 158.133 100.544V106H156.789V100.928C156.789 99.392 156.181 98.512 155.157 98.512C153.829 98.512 153.061 99.408 153.061 100.928V106H151.717V100.928C151.717 99.424 151.109 98.512 150.101 98.512C148.789 98.512 148.005 99.424 148.005 100.928V106H146.661V97.52ZM164.372 108.4V97.52H165.588L165.636 98.784C166.1 97.84 167.012 97.328 168.244 97.328C170.772 97.328 171.908 99.424 171.908 101.76C171.908 104.096 170.772 106.192 168.244 106.192C167.06 106.192 166.196 105.728 165.716 104.848V108.4H164.372ZM165.572 101.76C165.572 103.344 166.292 104.912 168.02 104.912C169.764 104.912 170.468 103.376 170.468 101.76C170.468 100.144 169.764 98.608 168.02 98.608C166.292 98.608 165.572 100.176 165.572 101.76ZM173.697 97.52H174.881L174.929 99.072C175.217 98.016 175.841 97.52 176.945 97.52H177.777V98.704H176.945C175.649 98.704 175.041 99.488 175.041 100.944V106H173.697V97.52ZM182.522 106.192C180.17 106.192 178.634 104.464 178.634 101.76C178.634 99.056 180.17 97.328 182.522 97.328C184.858 97.328 186.394 99.056 186.394 101.76C186.394 104.464 184.858 106.192 182.522 106.192ZM180.042 101.76C180.042 103.728 180.954 104.912 182.522 104.912C184.074 104.912 184.986 103.728 184.986 101.76C184.986 99.792 184.074 98.608 182.522 98.608C180.954 98.608 180.042 99.792 180.042 101.76ZM195.276 94.64V106H194.06L194.012 104.784C193.532 105.648 192.508 106.192 191.324 106.192C189.116 106.192 187.74 104.48 187.74 101.76C187.74 99.04 189.116 97.328 191.324 97.328C192.46 97.328 193.468 97.84 193.932 98.64V94.64H195.276ZM189.148 101.76C189.148 103.696 190.108 104.912 191.596 104.912C193.1 104.912 194.06 103.696 194.06 101.76C194.06 99.792 193.1 98.544 191.596 98.544C190.108 98.544 189.148 99.792 189.148 101.76ZM203.997 106H202.717V104.592C202.269 105.696 201.293 106.192 200.173 106.192C198.285 106.192 197.357 104.768 197.357 102.976V97.52H198.701V102.576C198.701 104.16 199.229 105.008 200.461 105.008C201.773 105.008 202.653 104.16 202.653 102.576V97.52H203.997V106ZM211.638 100.368C211.462 99.264 210.534 98.608 209.526 98.608C207.958 98.608 207.046 99.792 207.046 101.76C207.046 103.728 207.958 104.912 209.526 104.912C210.582 104.912 211.51 104.208 211.702 102.992L213.126 103.088C212.854 105.008 211.318 106.192 209.526 106.192C207.158 106.192 205.638 104.448 205.638 101.76C205.638 99.072 207.158 97.328 209.526 97.328C211.254 97.328 212.822 98.448 213.046 100.272L211.638 100.368ZM215.198 95.6H216.542V97.52H218.798V98.704H216.542V103.744C216.542 104.448 216.878 104.816 217.55 104.816H218.766V106H217.55C216.03 106 215.198 105.184 215.198 103.744V98.704H213.95V97.52H215.198V95.6ZM231.286 97.52L228.199 106H226.503L223.415 97.52H224.855L227.351 104.592L229.847 97.52H231.286ZM232.064 100.016C232.4 98.368 233.728 97.328 235.536 97.328C237.712 97.328 238.944 98.608 238.944 100.88V104.288C238.944 104.64 239.104 104.816 239.456 104.816H239.808V106H239.232C238.368 106 237.616 105.728 237.616 104.688C237.248 105.472 236.32 106.192 234.976 106.192C233.28 106.192 231.92 105.296 231.92 103.776C231.92 102.032 233.232 101.584 235.12 101.232L237.6 100.736C237.584 99.312 236.896 98.608 235.536 98.608C234.464 98.608 233.744 99.152 233.488 100.128L232.064 100.016ZM233.328 103.776C233.328 104.448 233.904 105.008 235.152 105.008C236.528 104.992 237.632 104.032 237.632 102.048V101.936L235.632 102.288C234.368 102.512 233.328 102.592 233.328 103.776ZM241.366 97.52H242.55L242.598 99.072C242.886 98.016 243.51 97.52 244.614 97.52H245.446V98.704H244.614C243.318 98.704 242.71 99.488 242.71 100.944V106H241.366V97.52ZM247.316 97.52H248.66V106H247.316V97.52ZM247.284 96.192V94.656H248.692V96.192H247.284ZM250.678 100.016C251.014 98.368 252.342 97.328 254.15 97.328C256.326 97.328 257.558 98.608 257.558 100.88V104.288C257.558 104.64 257.718 104.816 258.07 104.816H258.422V106H257.846C256.982 106 256.23 105.728 256.23 104.688C255.862 105.472 254.934 106.192 253.59 106.192C251.894 106.192 250.534 105.296 250.534 103.776C250.534 102.032 251.846 101.584 253.734 101.232L256.214 100.736C256.198 99.312 255.51 98.608 254.15 98.608C253.078 98.608 252.358 99.152 252.102 100.128L250.678 100.016ZM251.942 103.776C251.942 104.448 252.518 105.008 253.766 105.008C255.142 104.992 256.246 104.032 256.246 102.048V101.936L254.246 102.288C252.982 102.512 251.942 102.592 251.942 103.776ZM259.98 97.52H261.212L261.244 98.992C261.676 97.84 262.684 97.328 263.852 97.328C265.788 97.328 266.716 98.752 266.716 100.544V106H265.372V100.928C265.372 99.36 264.844 98.512 263.564 98.512C262.22 98.512 261.324 99.36 261.324 100.928V106H259.98V97.52ZM269.559 95.6H270.903V97.52H273.159V98.704H270.903V103.744C270.903 104.448 271.239 104.816 271.911 104.816H273.127V106H271.911C270.391 106 269.559 105.184 269.559 103.744V98.704H268.311V97.52H269.559V95.6ZM279.509 100.144C279.317 99.184 278.373 98.608 277.429 98.608C276.485 98.608 275.717 99.088 275.717 99.904C275.717 100.736 276.821 101.072 277.749 101.264C279.669 101.632 281.077 102.16 281.077 103.84C281.077 105.488 279.381 106.192 277.765 106.192C275.765 106.192 274.229 105.088 274.101 103.328L275.509 103.232C275.685 104.256 276.501 104.912 277.765 104.912C278.597 104.912 279.669 104.64 279.669 103.76C279.669 102.752 278.469 102.64 277.509 102.416C275.957 102.064 274.309 101.616 274.309 99.968C274.309 98.352 275.621 97.328 277.573 97.328C279.253 97.328 280.645 98.4 280.917 100.048L279.509 100.144ZM286.793 97.52H287.977L288.025 99.072C288.313 98.016 288.937 97.52 290.041 97.52H290.873V98.704H290.041C288.745 98.704 288.137 99.488 288.137 100.944V106H286.793V97.52ZM291.73 101.76C291.73 99.072 293.25 97.328 295.618 97.328C297.49 97.328 299.154 98.56 299.282 101.568L299.298 102.176H293.154C293.282 103.904 294.162 104.912 295.618 104.912C296.514 104.912 297.346 104.384 297.73 103.488L299.17 103.6C298.674 105.2 297.234 106.192 295.618 106.192C293.25 106.192 291.73 104.448 291.73 101.76ZM293.186 100.992H297.826C297.602 99.216 296.642 98.608 295.618 98.608C294.274 98.608 293.41 99.488 293.186 100.992ZM308.184 94.64V106H306.968L306.92 104.784C306.44 105.648 305.416 106.192 304.232 106.192C302.024 106.192 300.648 104.48 300.648 101.76C300.648 99.04 302.024 97.328 304.232 97.328C305.368 97.328 306.376 97.84 306.84 98.64V94.64H308.184ZM302.056 101.76C302.056 103.696 303.016 104.912 304.504 104.912C306.008 104.912 306.968 103.696 306.968 101.76C306.968 99.792 306.008 98.544 304.504 98.544C303.016 98.544 302.056 99.792 302.056 101.76ZM316.906 106H315.626V104.592C315.178 105.696 314.202 106.192 313.082 106.192C311.194 106.192 310.266 104.768 310.266 102.976V97.52H311.61V102.576C311.61 104.16 312.138 105.008 313.37 105.008C314.682 105.008 315.562 104.16 315.562 102.576V97.52H316.906V106ZM324.547 100.368C324.371 99.264 323.443 98.608 322.435 98.608C320.867 98.608 319.955 99.792 319.955 101.76C319.955 103.728 320.867 104.912 322.435 104.912C323.491 104.912 324.419 104.208 324.611 102.992L326.035 103.088C325.763 105.008 324.227 106.192 322.435 106.192C320.067 106.192 318.547 104.448 318.547 101.76C318.547 99.072 320.067 97.328 322.435 97.328C324.163 97.328 325.731 98.448 325.955 100.272L324.547 100.368ZM327.215 101.76C327.215 99.072 328.735 97.328 331.103 97.328C332.975 97.328 334.639 98.56 334.767 101.568L334.783 102.176H328.639C328.767 103.904 329.647 104.912 331.103 104.912C331.999 104.912 332.831 104.384 333.215 103.488L334.655 103.6C334.159 105.2 332.719 106.192 331.103 106.192C328.735 106.192 327.215 104.448 327.215 101.76ZM328.671 100.992H333.311C333.087 99.216 332.127 98.608 331.103 98.608C329.759 98.608 328.895 99.488 328.671 100.992ZM343.669 94.64V106H342.453L342.405 104.784C341.925 105.648 340.901 106.192 339.717 106.192C337.509 106.192 336.133 104.48 336.133 101.76C336.133 99.04 337.509 97.328 339.717 97.328C340.853 97.328 341.861 97.84 342.325 98.64V94.64H343.669ZM337.541 101.76C337.541 103.696 338.501 104.912 339.989 104.912C341.493 104.912 342.453 103.696 342.453 101.76C342.453 99.792 341.493 98.544 339.989 98.544C338.501 98.544 337.541 99.792 337.541 101.76ZM349.904 94.64H351.248V98.64C351.712 97.84 352.72 97.328 353.856 97.328C356.064 97.328 357.44 99.04 357.44 101.76C357.44 104.48 356.064 106.192 353.856 106.192C352.672 106.192 351.648 105.648 351.168 104.784L351.12 106H349.904V94.64ZM351.12 101.76C351.12 103.696 352.08 104.912 353.584 104.912C355.072 104.912 356.032 103.696 356.032 101.76C356.032 99.792 355.072 98.544 353.584 98.544C352.08 98.544 351.12 99.792 351.12 101.76ZM357.972 97.52H359.412L361.956 104.56L364.436 97.52H365.86L362.42 107.072C362.1 107.984 361.492 108.4 360.532 108.4H359.428V107.216H360.404C360.82 107.216 361.06 107.04 361.22 106.624L361.524 105.84H361.076L357.972 97.52ZM371.446 96.4C372.662 96.4 373.19 95.872 373.19 94.64H374.278V106H372.886V97.584H370.534V96.4H371.446ZM380.706 106.256C378.258 106.256 376.514 104.96 376.514 102.88C376.514 101.472 377.346 100.384 378.706 99.84C377.666 99.392 377.058 98.656 377.058 97.504C377.058 95.712 378.594 94.384 380.706 94.384C382.834 94.384 384.354 95.712 384.354 97.504C384.354 98.656 383.73 99.392 382.706 99.84C384.066 100.4 384.898 101.488 384.898 102.88C384.898 104.96 383.154 106.256 380.706 106.256ZM377.954 102.768C377.954 104.08 379.026 104.912 380.706 104.912C382.386 104.912 383.442 104.08 383.442 102.768C383.442 101.472 382.386 100.64 380.706 100.64C379.026 100.64 377.954 101.472 377.954 102.768ZM378.498 97.504C378.498 98.576 379.346 99.264 380.706 99.264C382.066 99.264 382.898 98.576 382.898 97.504C382.898 96.416 382.066 95.728 380.706 95.728C379.346 95.728 378.498 96.416 378.498 97.504ZM394.939 94.384H396.459L388.171 106.192H386.651L394.939 94.384ZM386.123 97.392C386.123 95.84 387.147 94.624 388.427 94.624C389.707 94.624 390.731 95.84 390.731 97.392C390.731 98.928 389.707 100.144 388.427 100.144C387.147 100.144 386.123 98.928 386.123 97.392ZM387.339 97.392C387.339 98.336 387.755 98.928 388.427 98.928C389.099 98.928 389.531 98.336 389.531 97.392C389.531 96.448 389.099 95.84 388.427 95.84C387.755 95.84 387.339 96.448 387.339 97.392ZM392.299 103.232C392.299 101.696 393.323 100.48 394.603 100.48C395.883 100.48 396.907 101.696 396.907 103.232C396.907 104.784 395.883 106 394.603 106C393.323 106 392.299 104.784 392.299 103.232ZM393.515 103.232C393.515 104.176 393.931 104.784 394.603 104.784C395.275 104.784 395.707 104.176 395.707 103.232C395.707 102.288 395.275 101.696 394.603 101.696C393.931 101.696 393.515 102.288 393.515 103.232ZM401.684 97.52H403.124L405.668 104.56L408.148 97.52H409.572L406.132 107.072C405.812 107.984 405.204 108.4 404.244 108.4H403.14V107.216H404.116C404.532 107.216 404.772 107.04 404.932 106.624L405.236 105.84H404.788L401.684 97.52ZM410.111 101.76C410.111 99.072 411.631 97.328 413.999 97.328C415.871 97.328 417.535 98.56 417.663 101.568L417.679 102.176H411.535C411.663 103.904 412.543 104.912 413.999 104.912C414.895 104.912 415.727 104.384 416.111 103.488L417.551 103.6C417.055 105.2 415.615 106.192 413.999 106.192C411.631 106.192 410.111 104.448 410.111 101.76ZM411.567 100.992H416.207C415.983 99.216 415.023 98.608 413.999 98.608C412.655 98.608 411.791 99.488 411.567 100.992ZM419.252 100.016C419.588 98.368 420.916 97.328 422.724 97.328C424.9 97.328 426.132 98.608 426.132 100.88V104.288C426.132 104.64 426.292 104.816 426.644 104.816H426.996V106H426.42C425.556 106 424.804 105.728 424.804 104.688C424.436 105.472 423.508 106.192 422.164 106.192C420.468 106.192 419.108 105.296 419.108 103.776C419.108 102.032 420.42 101.584 422.308 101.232L424.788 100.736C424.772 99.312 424.084 98.608 422.724 98.608C421.652 98.608 420.932 99.152 420.676 100.128L419.252 100.016ZM420.516 103.776C420.516 104.448 421.092 105.008 422.34 105.008C423.716 104.992 424.82 104.032 424.82 102.048V101.936L422.82 102.288C421.556 102.512 420.516 102.592 420.516 103.776ZM428.554 97.52H429.738L429.786 99.072C430.074 98.016 430.698 97.52 431.802 97.52H432.634V98.704H431.802C430.506 98.704 429.898 99.488 429.898 100.944V106H428.554V97.52ZM433.975 100.704H439.271V101.968H433.975V100.704ZM444.5 106.192C442.148 106.192 440.612 104.464 440.612 101.76C440.612 99.056 442.148 97.328 444.5 97.328C446.836 97.328 448.372 99.056 448.372 101.76C448.372 104.464 446.836 106.192 444.5 106.192ZM442.02 101.76C442.02 103.728 442.932 104.912 444.5 104.912C446.052 104.912 446.964 103.728 446.964 101.76C446.964 99.792 446.052 98.608 444.5 98.608C442.932 98.608 442.02 99.792 442.02 101.76ZM456.783 97.52L453.695 106H451.999L448.911 97.52H450.351L452.847 104.592L455.343 97.52H456.783ZM457.323 101.76C457.323 99.072 458.843 97.328 461.211 97.328C463.083 97.328 464.747 98.56 464.875 101.568L464.891 102.176H458.747C458.875 103.904 459.755 104.912 461.211 104.912C462.107 104.912 462.939 104.384 463.323 103.488L464.763 103.6C464.267 105.2 462.827 106.192 461.211 106.192C458.843 106.192 457.323 104.448 457.323 101.76ZM458.779 100.992H463.419C463.195 99.216 462.235 98.608 461.211 98.608C459.867 98.608 459.003 99.488 458.779 100.992ZM466.691 97.52H467.875L467.923 99.072C468.211 98.016 468.835 97.52 469.939 97.52H470.771V98.704H469.939C468.643 98.704 468.035 99.488 468.035 100.944V106H466.691V97.52ZM472.113 100.704H477.409V101.968H472.113V100.704ZM32.352 123.52H33.792L36.336 130.56L38.816 123.52H40.24L36.8 133.072C36.48 133.984 35.872 134.4 34.912 134.4H33.808V133.216H34.784C35.2 133.216 35.44 133.04 35.6 132.624L35.904 131.84H35.456L32.352 123.52ZM40.7795 127.76C40.7795 125.072 42.2995 123.328 44.6675 123.328C46.5395 123.328 48.2035 124.56 48.3315 127.568L48.3475 128.176H42.2035C42.3315 129.904 43.2115 130.912 44.6675 130.912C45.5635 130.912 46.3955 130.384 46.7795 129.488L48.2195 129.6C47.7235 131.2 46.2835 132.192 44.6675 132.192C42.2995 132.192 40.7795 130.448 40.7795 127.76ZM42.2355 126.992H46.8755C46.6515 125.216 45.6915 124.608 44.6675 124.608C43.3235 124.608 42.4595 125.488 42.2355 126.992ZM49.9198 126.016C50.2558 124.368 51.5838 123.328 53.3918 123.328C55.5678 123.328 56.7998 124.608 56.7998 126.88V130.288C56.7998 130.64 56.9598 130.816 57.3118 130.816H57.6638V132H57.0878C56.2238 132 55.4718 131.728 55.4718 130.688C55.1038 131.472 54.1758 132.192 52.8318 132.192C51.1358 132.192 49.7758 131.296 49.7758 129.776C49.7758 128.032 51.0878 127.584 52.9758 127.232L55.4558 126.736C55.4398 125.312 54.7518 124.608 53.3918 124.608C52.3198 124.608 51.5998 125.152 51.3438 126.128L49.9198 126.016ZM51.1838 129.776C51.1838 130.448 51.7598 131.008 53.0078 131.008C54.3838 130.992 55.4878 130.032 55.4878 128.048V127.936L53.4878 128.288C52.2238 128.512 51.1838 128.592 51.1838 129.776ZM59.2219 123.52H60.4059L60.4539 125.072C60.7419 124.016 61.3659 123.52 62.4699 123.52H63.3019V124.704H62.4699C61.1739 124.704 60.5659 125.488 60.5659 126.944V132H59.2219V123.52ZM65.4181 132L64.5061 134.464H63.7221L64.3461 132H63.6901V130.256H65.4021V132H65.4181ZM74.4925 132.192C72.1405 132.192 70.6045 130.464 70.6045 127.76C70.6045 125.056 72.1405 123.328 74.4925 123.328C76.8285 123.328 78.3645 125.056 78.3645 127.76C78.3645 130.464 76.8285 132.192 74.4925 132.192ZM72.0125 127.76C72.0125 129.728 72.9245 130.912 74.4925 130.912C76.0445 130.912 76.9565 129.728 76.9565 127.76C76.9565 125.792 76.0445 124.608 74.4925 124.608C72.9245 124.608 72.0125 125.792 72.0125 127.76ZM86.7219 132H85.4419V130.592C84.9939 131.696 84.0179 132.192 82.8979 132.192C81.0099 132.192 80.0819 130.768 80.0819 128.976V123.52H81.4259V128.576C81.4259 130.16 81.9539 131.008 83.1859 131.008C84.4979 131.008 85.3779 130.16 85.3779 128.576V123.52H86.7219V132ZM89.6761 121.6H91.0201V123.52H93.2761V124.704H91.0201V129.744C91.0201 130.448 91.3561 130.816 92.0281 130.816H93.2441V132H92.0281C90.5081 132 89.6761 131.184 89.6761 129.744V124.704H88.4281V123.52H89.6761V121.6ZM94.9806 134.4V123.52H96.1966L96.2446 124.784C96.7086 123.84 97.6206 123.328 98.8526 123.328C101.381 123.328 102.517 125.424 102.517 127.76C102.517 130.096 101.381 132.192 98.8526 132.192C97.6686 132.192 96.8046 131.728 96.3246 130.848V134.4H94.9806ZM96.1806 127.76C96.1806 129.344 96.9006 130.912 98.6286 130.912C100.373 130.912 101.077 129.376 101.077 127.76C101.077 126.144 100.373 124.608 98.6286 124.608C96.9006 124.608 96.1806 126.176 96.1806 127.76ZM104.077 126.016C104.413 124.368 105.741 123.328 107.549 123.328C109.725 123.328 110.957 124.608 110.957 126.88V130.288C110.957 130.64 111.117 130.816 111.469 130.816H111.821V132H111.245C110.381 132 109.629 131.728 109.629 130.688C109.261 131.472 108.333 132.192 106.989 132.192C105.293 132.192 103.933 131.296 103.933 129.776C103.933 128.032 105.245 127.584 107.133 127.232L109.613 126.736C109.597 125.312 108.909 124.608 107.549 124.608C106.477 124.608 105.757 125.152 105.501 126.128L104.077 126.016ZM105.341 129.776C105.341 130.448 105.917 131.008 107.165 131.008C108.541 130.992 109.645 130.032 109.645 128.048V127.936L107.645 128.288C106.381 128.512 105.341 128.592 105.341 129.776ZM118.82 126.368C118.644 125.264 117.716 124.608 116.708 124.608C115.14 124.608 114.228 125.792 114.228 127.76C114.228 129.728 115.14 130.912 116.708 130.912C117.764 130.912 118.692 130.208 118.884 128.992L120.308 129.088C120.036 131.008 118.5 132.192 116.708 132.192C114.34 132.192 112.82 130.448 112.82 127.76C112.82 125.072 114.34 123.328 116.708 123.328C118.436 123.328 120.004 124.448 120.228 126.272L118.82 126.368ZM121.704 123.52H123.048V132H121.704V123.52ZM121.672 122.192V120.656H123.08V122.192H121.672ZM125.216 123.52H126.448L126.48 124.992C126.912 123.84 127.92 123.328 129.088 123.328C131.024 123.328 131.952 124.752 131.952 126.544V132H130.608V126.928C130.608 125.36 130.08 124.512 128.8 124.512C127.456 124.512 126.56 125.36 126.56 126.928V132H125.216V123.52ZM137.334 131.552C135.142 131.552 133.59 129.856 133.59 127.44C133.59 125.024 135.126 123.328 137.318 123.328C138.47 123.328 139.446 123.92 139.83 124.864V123.52H141.11V131.168C141.11 133.408 139.574 134.592 137.366 134.592C135.558 134.592 134.214 133.616 133.83 132.128L135.238 132.032C135.574 132.832 136.31 133.312 137.366 133.312C138.854 133.312 139.766 132.672 139.766 131.472V130.08C139.35 130.976 138.406 131.552 137.334 131.552ZM134.998 127.44C134.998 129.184 135.926 130.272 137.414 130.272C138.838 130.272 139.766 129.184 139.782 127.44C139.814 125.696 138.886 124.608 137.414 124.608C135.926 124.608 134.998 125.696 134.998 127.44ZM148.193 121.6H149.537V123.52H151.793V124.704H149.537V129.744C149.537 130.448 149.873 130.816 150.545 130.816H151.761V132H150.545C149.025 132 148.193 131.184 148.193 129.744V124.704H146.945V123.52H148.193V121.6ZM153.497 120.64H154.841V124.672C155.321 123.744 156.313 123.328 157.369 123.328C159.129 123.328 160.233 124.576 160.233 126.544V132H158.889V127.024C158.889 125.408 158.297 124.608 157.081 124.608C155.737 124.608 154.841 125.456 154.841 127.024V132H153.497V120.64ZM161.872 127.76C161.872 125.072 163.392 123.328 165.76 123.328C167.632 123.328 169.296 124.56 169.424 127.568L169.44 128.176H163.296C163.424 129.904 164.304 130.912 165.76 130.912C166.656 130.912 167.488 130.384 167.872 129.488L169.312 129.6C168.816 131.2 167.376 132.192 165.76 132.192C163.392 132.192 161.872 130.448 161.872 127.76ZM163.328 126.992H167.968C167.744 125.216 166.784 124.608 165.76 124.608C164.416 124.608 163.552 125.488 163.328 126.992ZM178.374 131.552C176.182 131.552 174.63 129.856 174.63 127.44C174.63 125.024 176.166 123.328 178.358 123.328C179.51 123.328 180.486 123.92 180.87 124.864V123.52H182.15V131.168C182.15 133.408 180.614 134.592 178.406 134.592C176.598 134.592 175.254 133.616 174.87 132.128L176.278 132.032C176.614 132.832 177.35 133.312 178.406 133.312C179.894 133.312 180.806 132.672 180.806 131.472V130.08C180.39 130.976 179.446 131.552 178.374 131.552ZM176.038 127.44C176.038 129.184 176.966 130.272 178.454 130.272C179.878 130.272 180.806 129.184 180.822 127.44C180.854 125.696 179.926 124.608 178.454 124.608C176.966 124.608 176.038 125.696 176.038 127.44ZM184.545 123.52H185.729L185.777 125.072C186.065 124.016 186.689 123.52 187.793 123.52H188.625V124.704H187.793C186.497 124.704 185.889 125.488 185.889 126.944V132H184.545V123.52ZM193.37 132.192C191.018 132.192 189.482 130.464 189.482 127.76C189.482 125.056 191.018 123.328 193.37 123.328C195.706 123.328 197.242 125.056 197.242 127.76C197.242 130.464 195.706 132.192 193.37 132.192ZM190.89 127.76C190.89 129.728 191.802 130.912 193.37 130.912C194.922 130.912 195.834 129.728 195.834 127.76C195.834 125.792 194.922 124.608 193.37 124.608C191.802 124.608 190.89 125.792 190.89 127.76ZM204.693 123.52L206.709 130.512L208.741 123.52H210.181L207.557 132H205.861L203.973 125.552L202.085 132H200.405L197.781 123.52H199.221L201.237 130.512L203.253 123.52H204.693ZM212.507 121.6H213.851V123.52H216.107V124.704H213.851V129.744C213.851 130.448 214.187 130.816 214.859 130.816H216.075V132H214.859C213.339 132 212.507 131.184 212.507 129.744V124.704H211.259V123.52H212.507V121.6ZM217.811 120.64H219.155V124.672C219.635 123.744 220.627 123.328 221.683 123.328C223.443 123.328 224.547 124.576 224.547 126.544V132H223.203V127.024C223.203 125.408 222.611 124.608 221.395 124.608C220.051 124.608 219.155 125.456 219.155 127.024V132H217.811V120.64ZM234.148 132.192C231.796 132.192 230.26 130.464 230.26 127.76C230.26 125.056 231.796 123.328 234.148 123.328C236.484 123.328 238.02 125.056 238.02 127.76C238.02 130.464 236.484 132.192 234.148 132.192ZM231.668 127.76C231.668 129.728 232.58 130.912 234.148 130.912C235.7 130.912 236.612 129.728 236.612 127.76C236.612 125.792 235.7 124.608 234.148 124.608C232.58 124.608 231.668 125.792 231.668 127.76ZM240.413 122.976C240.413 121.552 241.117 120.64 242.685 120.64H243.997V121.824H242.685C242.141 121.824 241.757 122.256 241.757 122.976V123.52H243.885V124.704H241.757V132H240.413V124.704H239.261V123.52H240.413V122.976ZM254.516 126.144C254.324 125.184 253.38 124.608 252.436 124.608C251.492 124.608 250.724 125.088 250.724 125.904C250.724 126.736 251.828 127.072 252.756 127.264C254.676 127.632 256.084 128.16 256.084 129.84C256.084 131.488 254.388 132.192 252.772 132.192C250.772 132.192 249.236 131.088 249.108 129.328L250.516 129.232C250.692 130.256 251.508 130.912 252.772 130.912C253.604 130.912 254.676 130.64 254.676 129.76C254.676 128.752 253.476 128.64 252.516 128.416C250.964 128.064 249.316 127.616 249.316 125.968C249.316 124.352 250.628 123.328 252.58 123.328C254.26 123.328 255.652 124.4 255.924 126.048L254.516 126.144ZM258.324 121.6H259.668V123.52H261.924V124.704H259.668V129.744C259.668 130.448 260.004 130.816 260.676 130.816H261.892V132H260.676C259.156 132 258.324 131.184 258.324 129.744V124.704H257.076V123.52H258.324V121.6ZM263.245 126.016C263.581 124.368 264.909 123.328 266.717 123.328C268.893 123.328 270.125 124.608 270.125 126.88V130.288C270.125 130.64 270.285 130.816 270.637 130.816H270.989V132H270.413C269.549 132 268.797 131.728 268.797 130.688C268.429 131.472 267.501 132.192 266.157 132.192C264.461 132.192 263.101 131.296 263.101 129.776C263.101 128.032 264.413 127.584 266.301 127.232L268.781 126.736C268.765 125.312 268.077 124.608 266.717 124.608C265.645 124.608 264.925 125.152 264.669 126.128L263.245 126.016ZM264.509 129.776C264.509 130.448 265.085 131.008 266.333 131.008C267.709 130.992 268.813 130.032 268.813 128.048V127.936L266.813 128.288C265.549 128.512 264.509 128.592 264.509 129.776ZM272.547 123.52H273.779L273.811 124.992C274.243 123.84 275.251 123.328 276.419 123.328C278.355 123.328 279.283 124.752 279.283 126.544V132H277.939V126.928C277.939 125.36 277.411 124.512 276.131 124.512C274.787 124.512 273.891 125.36 273.891 126.928V132H272.547V123.52ZM288.457 120.64V132H287.241L287.193 130.784C286.713 131.648 285.689 132.192 284.505 132.192C282.297 132.192 280.921 130.48 280.921 127.76C280.921 125.04 282.297 123.328 284.505 123.328C285.641 123.328 286.649 123.84 287.113 124.64V120.64H288.457ZM282.329 127.76C282.329 129.696 283.289 130.912 284.777 130.912C286.281 130.912 287.241 129.696 287.241 127.76C287.241 125.792 286.281 124.544 284.777 124.544C283.289 124.544 282.329 125.792 282.329 127.76ZM290.468 126.016C290.804 124.368 292.132 123.328 293.94 123.328C296.116 123.328 297.348 124.608 297.348 126.88V130.288C297.348 130.64 297.508 130.816 297.86 130.816H298.212V132H297.636C296.772 132 296.02 131.728 296.02 130.688C295.652 131.472 294.724 132.192 293.38 132.192C291.684 132.192 290.324 131.296 290.324 129.776C290.324 128.032 291.636 127.584 293.524 127.232L296.004 126.736C295.988 125.312 295.3 124.608 293.94 124.608C292.868 124.608 292.148 125.152 291.892 126.128L290.468 126.016ZM291.732 129.776C291.732 130.448 292.308 131.008 293.556 131.008C294.932 130.992 296.036 130.032 296.036 128.048V127.936L294.036 128.288C292.772 128.512 291.732 128.592 291.732 129.776ZM299.77 123.52H300.954L301.002 125.072C301.29 124.016 301.914 123.52 303.018 123.52H303.85V124.704H303.018C301.722 124.704 301.114 125.488 301.114 126.944V132H299.77V123.52ZM312.243 120.64V132H311.027L310.979 130.784C310.499 131.648 309.475 132.192 308.291 132.192C306.083 132.192 304.707 130.48 304.707 127.76C304.707 125.04 306.083 123.328 308.291 123.328C309.427 123.328 310.435 123.84 310.899 124.64V120.64H312.243ZM306.115 127.76C306.115 129.696 307.075 130.912 308.563 130.912C310.067 130.912 311.027 129.696 311.027 127.76C311.027 125.792 310.067 124.544 308.563 124.544C307.075 124.544 306.115 125.792 306.115 127.76ZM325.422 123.52L322.334 132H320.638L317.55 123.52H318.99L321.486 130.592L323.982 123.52H325.422ZM326.199 126.016C326.535 124.368 327.863 123.328 329.671 123.328C331.847 123.328 333.079 124.608 333.079 126.88V130.288C333.079 130.64 333.239 130.816 333.591 130.816H333.943V132H333.367C332.503 132 331.751 131.728 331.751 130.688C331.383 131.472 330.455 132.192 329.111 132.192C327.415 132.192 326.055 131.296 326.055 129.776C326.055 128.032 327.367 127.584 329.255 127.232L331.735 126.736C331.719 125.312 331.031 124.608 329.671 124.608C328.599 124.608 327.879 125.152 327.623 126.128L326.199 126.016ZM327.463 129.776C327.463 130.448 328.039 131.008 329.287 131.008C330.663 130.992 331.767 130.032 331.767 128.048V127.936L329.767 128.288C328.503 128.512 327.463 128.592 327.463 129.776ZM335.501 123.52H336.685L336.733 125.072C337.021 124.016 337.645 123.52 338.749 123.52H339.581V124.704H338.749C337.453 124.704 336.845 125.488 336.845 126.944V132H335.501V123.52ZM341.451 123.52H342.795V132H341.451V123.52ZM341.419 122.192V120.656H342.827V122.192H341.419ZM344.813 126.016C345.149 124.368 346.477 123.328 348.285 123.328C350.461 123.328 351.693 124.608 351.693 126.88V130.288C351.693 130.64 351.853 130.816 352.205 130.816H352.557V132H351.981C351.117 132 350.365 131.728 350.365 130.688C349.997 131.472 349.069 132.192 347.725 132.192C346.029 132.192 344.669 131.296 344.669 129.776C344.669 128.032 345.981 127.584 347.869 127.232L350.349 126.736C350.333 125.312 349.645 124.608 348.285 124.608C347.213 124.608 346.493 125.152 346.237 126.128L344.813 126.016ZM346.077 129.776C346.077 130.448 346.653 131.008 347.901 131.008C349.277 130.992 350.381 130.032 350.381 128.048V127.936L348.381 128.288C347.117 128.512 346.077 128.592 346.077 129.776ZM354.115 123.52H355.347L355.379 124.992C355.811 123.84 356.819 123.328 357.987 123.328C359.923 123.328 360.851 124.752 360.851 126.544V132H359.507V126.928C359.507 125.36 358.979 124.512 357.699 124.512C356.355 124.512 355.459 125.36 355.459 126.928V132H354.115V123.52ZM363.694 121.6H365.038V123.52H367.294V124.704H365.038V129.744C365.038 130.448 365.374 130.816 366.046 130.816H367.262V132H366.046C364.526 132 363.694 131.184 363.694 129.744V124.704H362.446V123.52H363.694V121.6ZM373.644 126.144C373.452 125.184 372.508 124.608 371.564 124.608C370.62 124.608 369.852 125.088 369.852 125.904C369.852 126.736 370.956 127.072 371.884 127.264C373.804 127.632 375.212 128.16 375.212 129.84C375.212 131.488 373.516 132.192 371.9 132.192C369.9 132.192 368.364 131.088 368.236 129.328L369.644 129.232C369.82 130.256 370.636 130.912 371.9 130.912C372.732 130.912 373.804 130.64 373.804 129.76C373.804 128.752 372.604 128.64 371.644 128.416C370.092 128.064 368.444 127.616 368.444 125.968C368.444 124.352 369.756 123.328 371.708 123.328C373.388 123.328 374.78 124.4 375.052 126.048L373.644 126.144ZM380.928 120.64H382.272V124.64C382.736 123.84 383.744 123.328 384.88 123.328C387.088 123.328 388.464 125.04 388.464 127.76C388.464 130.48 387.088 132.192 384.88 132.192C383.696 132.192 382.672 131.648 382.192 130.784L382.144 132H380.928V120.64ZM382.144 127.76C382.144 129.696 383.104 130.912 384.608 130.912C386.096 130.912 387.056 129.696 387.056 127.76C387.056 125.792 386.096 124.544 384.608 124.544C383.104 124.544 382.144 125.792 382.144 127.76ZM388.996 123.52H390.436L392.98 130.56L395.46 123.52H396.884L393.444 133.072C393.124 133.984 392.516 134.4 391.556 134.4H390.452V133.216H391.428C391.844 133.216 392.084 133.04 392.244 132.624L392.548 131.84H392.1L388.996 123.52ZM402.47 122.4C403.686 122.4 404.214 121.872 404.214 120.64H405.302V132H403.91V123.584H401.558V122.4H402.47ZM412.259 132.256C409.507 132.256 407.763 129.968 407.763 126.336C407.763 122.672 409.507 120.384 412.259 120.384C415.027 120.384 416.771 122.672 416.771 126.336C416.771 129.968 415.027 132.256 412.259 132.256ZM409.203 126.336C409.203 129.264 410.307 130.912 412.259 130.912C414.227 130.912 415.331 129.264 415.331 126.336C415.331 123.392 414.227 121.728 412.259 121.728C410.307 121.728 409.203 123.392 409.203 126.336ZM427.041 120.384H428.561L420.273 132.192H418.753L427.041 120.384ZM418.225 123.392C418.225 121.84 419.249 120.624 420.529 120.624C421.809 120.624 422.833 121.84 422.833 123.392C422.833 124.928 421.809 126.144 420.529 126.144C419.249 126.144 418.225 124.928 418.225 123.392ZM419.441 123.392C419.441 124.336 419.857 124.928 420.529 124.928C421.201 124.928 421.633 124.336 421.633 123.392C421.633 122.448 421.201 121.84 420.529 121.84C419.857 121.84 419.441 122.448 419.441 123.392ZM424.401 129.232C424.401 127.696 425.425 126.48 426.705 126.48C427.985 126.48 429.009 127.696 429.009 129.232C429.009 130.784 427.985 132 426.705 132C425.425 132 424.401 130.784 424.401 129.232ZM425.617 129.232C425.617 130.176 426.033 130.784 426.705 130.784C427.377 130.784 427.809 130.176 427.809 129.232C427.809 128.288 427.377 127.696 426.705 127.696C426.033 127.696 425.617 128.288 425.617 129.232ZM432.074 132L431.162 134.464H430.378L431.002 132H430.346V130.256H432.058V132H432.074ZM38.16 152.144C37.968 151.184 37.024 150.608 36.08 150.608C35.136 150.608 34.368 151.088 34.368 151.904C34.368 152.736 35.472 153.072 36.4 153.264C38.32 153.632 39.728 154.16 39.728 155.84C39.728 157.488 38.032 158.192 36.416 158.192C34.416 158.192 32.88 157.088 32.752 155.328L34.16 155.232C34.336 156.256 35.152 156.912 36.416 156.912C37.248 156.912 38.32 156.64 38.32 155.76C38.32 154.752 37.12 154.64 36.16 154.416C34.608 154.064 32.96 153.616 32.96 151.968C32.96 150.352 34.272 149.328 36.224 149.328C37.904 149.328 39.296 150.4 39.568 152.048L38.16 152.144ZM48.0881 158H46.8081V156.592C46.3601 157.696 45.3841 158.192 44.2641 158.192C42.3761 158.192 41.4481 156.768 41.4481 154.976V149.52H42.7921V154.576C42.7921 156.16 43.3201 157.008 44.5521 157.008C45.8641 157.008 46.7441 156.16 46.7441 154.576V149.52H48.0881V158ZM53.4729 157.552C51.2809 157.552 49.7289 155.856 49.7289 153.44C49.7289 151.024 51.2649 149.328 53.4569 149.328C54.6089 149.328 55.5849 149.92 55.9689 150.864V149.52H57.2489V157.168C57.2489 159.408 55.7129 160.592 53.5049 160.592C51.6969 160.592 50.3529 159.616 49.9689 158.128L51.3769 158.032C51.7129 158.832 52.4489 159.312 53.5049 159.312C54.9929 159.312 55.9049 158.672 55.9049 157.472V156.08C55.4889 156.976 54.5449 157.552 53.4729 157.552ZM51.1369 153.44C51.1369 155.184 52.0649 156.272 53.5529 156.272C54.9769 156.272 55.9049 155.184 55.9209 153.44C55.9529 151.696 55.0249 150.608 53.5529 150.608C52.0649 150.608 51.1369 151.696 51.1369 153.44ZM62.6254 157.552C60.4334 157.552 58.8814 155.856 58.8814 153.44C58.8814 151.024 60.4174 149.328 62.6094 149.328C63.7614 149.328 64.7374 149.92 65.1214 150.864V149.52H66.4014V157.168C66.4014 159.408 64.8654 160.592 62.6574 160.592C60.8494 160.592 59.5054 159.616 59.1214 158.128L60.5294 158.032C60.8654 158.832 61.6014 159.312 62.6574 159.312C64.1454 159.312 65.0574 158.672 65.0574 157.472V156.08C64.6414 156.976 63.6974 157.552 62.6254 157.552ZM60.2894 153.44C60.2894 155.184 61.2174 156.272 62.7054 156.272C64.1294 156.272 65.0574 155.184 65.0734 153.44C65.1054 151.696 64.1774 150.608 62.7054 150.608C61.2174 150.608 60.2894 151.696 60.2894 153.44ZM68.0339 153.76C68.0339 151.072 69.5539 149.328 71.9219 149.328C73.7939 149.328 75.4579 150.56 75.5859 153.568L75.6019 154.176H69.4579C69.5859 155.904 70.4659 156.912 71.9219 156.912C72.8179 156.912 73.6499 156.384 74.0339 155.488L75.4739 155.6C74.9779 157.2 73.5379 158.192 71.9219 158.192C69.5539 158.192 68.0339 156.448 68.0339 153.76ZM69.4899 152.992H74.1299C73.9059 151.216 72.9459 150.608 71.9219 150.608C70.5779 150.608 69.7139 151.488 69.4899 152.992ZM82.36 152.144C82.168 151.184 81.224 150.608 80.28 150.608C79.336 150.608 78.568 151.088 78.568 151.904C78.568 152.736 79.672 153.072 80.6 153.264C82.52 153.632 83.928 154.16 83.928 155.84C83.928 157.488 82.232 158.192 80.616 158.192C78.616 158.192 77.08 157.088 76.952 155.328L78.36 155.232C78.536 156.256 79.352 156.912 80.616 156.912C81.448 156.912 82.52 156.64 82.52 155.76C82.52 154.752 81.32 154.64 80.36 154.416C78.808 154.064 77.16 153.616 77.16 151.968C77.16 150.352 78.472 149.328 80.424 149.328C82.104 149.328 83.496 150.4 83.768 152.048L82.36 152.144ZM86.168 147.6H87.512V149.52H89.768V150.704H87.512V155.744C87.512 156.448 87.848 156.816 88.52 156.816H89.736V158H88.52C87 158 86.168 157.184 86.168 155.744V150.704H84.92V149.52H86.168V147.6ZM91.4725 149.52H92.8165V158H91.4725V149.52ZM91.4405 148.192V146.656H92.8485V148.192H91.4405ZM94.9844 149.52H96.2164L96.2484 150.992C96.6804 149.84 97.6884 149.328 98.8564 149.328C100.792 149.328 101.72 150.752 101.72 152.544V158H100.376V152.928C100.376 151.36 99.8484 150.512 98.5684 150.512C97.2244 150.512 96.3284 151.36 96.3284 152.928V158H94.9844V149.52ZM107.103 157.552C104.911 157.552 103.359 155.856 103.359 153.44C103.359 151.024 104.895 149.328 107.087 149.328C108.239 149.328 109.215 149.92 109.599 150.864V149.52H110.879V157.168C110.879 159.408 109.343 160.592 107.135 160.592C105.327 160.592 103.983 159.616 103.599 158.128L105.007 158.032C105.343 158.832 106.079 159.312 107.135 159.312C108.623 159.312 109.535 158.672 109.535 157.472V156.08C109.119 156.976 108.175 157.552 107.103 157.552ZM104.767 153.44C104.767 155.184 105.695 156.272 107.183 156.272C108.607 156.272 109.535 155.184 109.551 153.44C109.583 151.696 108.655 150.608 107.183 150.608C105.695 150.608 104.767 151.696 104.767 153.44ZM116.73 152.016C117.066 150.368 118.394 149.328 120.202 149.328C122.378 149.328 123.61 150.608 123.61 152.88V156.288C123.61 156.64 123.77 156.816 124.122 156.816H124.474V158H123.898C123.034 158 122.282 157.728 122.282 156.688C121.914 157.472 120.986 158.192 119.642 158.192C117.946 158.192 116.586 157.296 116.586 155.776C116.586 154.032 117.898 153.584 119.786 153.232L122.266 152.736C122.25 151.312 121.562 150.608 120.202 150.608C119.13 150.608 118.41 151.152 118.154 152.128L116.73 152.016ZM117.994 155.776C117.994 156.448 118.57 157.008 119.818 157.008C121.194 156.992 122.298 156.032 122.298 154.048V153.936L120.298 154.288C119.034 154.512 117.994 154.592 117.994 155.776ZM134.877 152.144C134.685 151.184 133.741 150.608 132.797 150.608C131.853 150.608 131.085 151.088 131.085 151.904C131.085 152.736 132.189 153.072 133.117 153.264C135.037 153.632 136.445 154.16 136.445 155.84C136.445 157.488 134.749 158.192 133.133 158.192C131.133 158.192 129.597 157.088 129.469 155.328L130.877 155.232C131.053 156.256 131.869 156.912 133.133 156.912C133.965 156.912 135.037 156.64 135.037 155.76C135.037 154.752 133.837 154.64 132.877 154.416C131.325 154.064 129.677 153.616 129.677 151.968C129.677 150.352 130.989 149.328 132.941 149.328C134.621 149.328 136.013 150.4 136.285 152.048L134.877 152.144ZM138.009 146.64H139.353V150.672C139.833 149.744 140.825 149.328 141.881 149.328C143.641 149.328 144.745 150.576 144.745 152.544V158H143.401V153.024C143.401 151.408 142.809 150.608 141.593 150.608C140.249 150.608 139.353 151.456 139.353 153.024V158H138.009V146.64ZM147.146 149.52H148.49V158H147.146V149.52ZM147.114 148.192V146.656H148.522V148.192H147.114ZM151.724 148.976C151.724 147.552 152.428 146.64 153.996 146.64H155.308V147.824H153.996C153.452 147.824 153.068 148.256 153.068 148.976V149.52H155.196V150.704H153.068V158H151.724V150.704H150.572V149.52H151.724V148.976ZM157.955 147.6H159.299V149.52H161.555V150.704H159.299V155.744C159.299 156.448 159.635 156.816 160.307 156.816H161.523V158H160.307C158.787 158 157.955 157.184 157.955 155.744V150.704H156.707V149.52H157.955V147.6ZM167.099 149.52H168.443V158H167.099V149.52ZM167.067 148.192V146.656H168.475V148.192H167.067ZM170.611 149.52H171.843L171.875 150.992C172.307 149.84 173.315 149.328 174.483 149.328C176.419 149.328 177.347 150.752 177.347 152.544V158H176.003V152.928C176.003 151.36 175.475 150.512 174.195 150.512C172.851 150.512 171.955 151.36 171.955 152.928V158H170.611V149.52ZM189.06 152.368C188.884 151.264 187.956 150.608 186.948 150.608C185.38 150.608 184.468 151.792 184.468 153.76C184.468 155.728 185.38 156.912 186.948 156.912C188.004 156.912 188.932 156.208 189.124 154.992L190.548 155.088C190.276 157.008 188.74 158.192 186.948 158.192C184.58 158.192 183.06 156.448 183.06 153.76C183.06 151.072 184.58 149.328 186.948 149.328C188.676 149.328 190.244 150.448 190.468 152.272L189.06 152.368ZM195.616 158.192C193.264 158.192 191.728 156.464 191.728 153.76C191.728 151.056 193.264 149.328 195.616 149.328C197.952 149.328 199.488 151.056 199.488 153.76C199.488 156.464 197.952 158.192 195.616 158.192ZM193.136 153.76C193.136 155.728 194.048 156.912 195.616 156.912C197.168 156.912 198.08 155.728 198.08 153.76C198.08 151.792 197.168 150.608 195.616 150.608C194.048 150.608 193.136 151.792 193.136 153.76ZM201.284 149.52H202.516L202.548 150.992C202.98 149.84 203.988 149.328 205.156 149.328C207.092 149.328 208.02 150.752 208.02 152.544V158H206.676V152.928C206.676 151.36 206.148 150.512 204.868 150.512C203.524 150.512 202.628 151.36 202.628 152.928V158H201.284V149.52ZM215.066 152.144C214.874 151.184 213.93 150.608 212.986 150.608C212.042 150.608 211.274 151.088 211.274 151.904C211.274 152.736 212.378 153.072 213.306 153.264C215.226 153.632 216.634 154.16 216.634 155.84C216.634 157.488 214.938 158.192 213.322 158.192C211.322 158.192 209.786 157.088 209.658 155.328L211.066 155.232C211.242 156.256 212.058 156.912 213.322 156.912C214.154 156.912 215.226 156.64 215.226 155.76C215.226 154.752 214.026 154.64 213.066 154.416C211.514 154.064 209.866 153.616 209.866 151.968C209.866 150.352 211.178 149.328 213.13 149.328C214.81 149.328 216.202 150.4 216.474 152.048L215.066 152.144ZM224.994 158H223.714V156.592C223.266 157.696 222.29 158.192 221.17 158.192C219.282 158.192 218.354 156.768 218.354 154.976V149.52H219.698V154.576C219.698 156.16 220.226 157.008 221.458 157.008C222.77 157.008 223.65 156.16 223.65 154.576V149.52H224.994V158ZM227.397 149.52H228.629L228.661 150.944C229.061 149.92 229.941 149.328 231.109 149.328C232.341 149.328 233.221 149.968 233.589 151.104C233.957 149.968 234.837 149.328 236.165 149.328C237.877 149.328 238.869 150.496 238.869 152.544V158H237.525V152.928C237.525 151.392 236.917 150.512 235.893 150.512C234.565 150.512 233.797 151.408 233.797 152.928V158H232.453V152.928C232.453 151.424 231.845 150.512 230.837 150.512C229.525 150.512 228.741 151.424 228.741 152.928V158H227.397V149.52ZM240.506 153.76C240.506 151.072 242.026 149.328 244.394 149.328C246.266 149.328 247.93 150.56 248.058 153.568L248.074 154.176H241.93C242.058 155.904 242.938 156.912 244.394 156.912C245.29 156.912 246.122 156.384 246.506 155.488L247.946 155.6C247.45 157.2 246.01 158.192 244.394 158.192C242.026 158.192 240.506 156.448 240.506 153.76ZM241.962 152.992H246.602C246.378 151.216 245.418 150.608 244.394 150.608C243.05 150.608 242.186 151.488 241.962 152.992ZM249.874 149.52H251.058L251.106 151.072C251.394 150.016 252.018 149.52 253.122 149.52H253.954V150.704H253.122C251.826 150.704 251.218 151.488 251.218 152.944V158H249.874V149.52ZM259.664 160.4V149.52H260.88L260.928 150.784C261.392 149.84 262.304 149.328 263.536 149.328C266.064 149.328 267.2 151.424 267.2 153.76C267.2 156.096 266.064 158.192 263.536 158.192C262.352 158.192 261.488 157.728 261.008 156.848V160.4H259.664ZM260.864 153.76C260.864 155.344 261.584 156.912 263.312 156.912C265.056 156.912 265.76 155.376 265.76 153.76C265.76 152.144 265.056 150.608 263.312 150.608C261.584 150.608 260.864 152.176 260.864 153.76ZM268.988 149.52H270.172L270.22 151.072C270.508 150.016 271.132 149.52 272.236 149.52H273.068V150.704H272.236C270.94 150.704 270.332 151.488 270.332 152.944V158H268.988V149.52ZM273.925 153.76C273.925 151.072 275.445 149.328 277.813 149.328C279.685 149.328 281.349 150.56 281.477 153.568L281.493 154.176H275.349C275.477 155.904 276.357 156.912 277.813 156.912C278.709 156.912 279.541 156.384 279.925 155.488L281.365 155.6C280.869 157.2 279.429 158.192 277.813 158.192C275.445 158.192 273.925 156.448 273.925 153.76ZM275.381 152.992H280.021C279.797 151.216 278.837 150.608 277.813 150.608C276.469 150.608 275.605 151.488 275.381 152.992ZM283.891 148.976C283.891 147.552 284.595 146.64 286.163 146.64H287.475V147.824H286.163C285.619 147.824 285.235 148.256 285.235 148.976V149.52H287.363V150.704H285.235V158H283.891V150.704H282.739V149.52H283.891V148.976ZM288.261 153.76C288.261 151.072 289.781 149.328 292.149 149.328C294.021 149.328 295.685 150.56 295.813 153.568L295.829 154.176H289.685C289.813 155.904 290.693 156.912 292.149 156.912C293.045 156.912 293.877 156.384 294.261 155.488L295.701 155.6C295.205 157.2 293.765 158.192 292.149 158.192C289.781 158.192 288.261 156.448 288.261 153.76ZM289.717 152.992H294.357C294.133 151.216 293.173 150.608 292.149 150.608C290.805 150.608 289.941 151.488 289.717 152.992ZM297.629 149.52H298.813L298.861 151.072C299.149 150.016 299.773 149.52 300.877 149.52H301.709V150.704H300.877C299.581 150.704 298.973 151.488 298.973 152.944V158H297.629V149.52ZM302.566 153.76C302.566 151.072 304.086 149.328 306.454 149.328C308.326 149.328 309.99 150.56 310.118 153.568L310.134 154.176H303.99C304.118 155.904 304.998 156.912 306.454 156.912C307.35 156.912 308.182 156.384 308.566 155.488L310.006 155.6C309.51 157.2 308.07 158.192 306.454 158.192C304.086 158.192 302.566 156.448 302.566 153.76ZM304.022 152.992H308.662C308.438 151.216 307.478 150.608 306.454 150.608C305.11 150.608 304.246 151.488 304.022 152.992ZM311.934 149.52H313.166L313.198 150.992C313.63 149.84 314.638 149.328 315.806 149.328C317.742 149.328 318.67 150.752 318.67 152.544V158H317.326V152.928C317.326 151.36 316.798 150.512 315.518 150.512C314.174 150.512 313.278 151.36 313.278 152.928V158H311.934V149.52ZM326.309 152.368C326.133 151.264 325.205 150.608 324.197 150.608C322.629 150.608 321.717 151.792 321.717 153.76C321.717 155.728 322.629 156.912 324.197 156.912C325.253 156.912 326.181 156.208 326.373 154.992L327.797 155.088C327.525 157.008 325.989 158.192 324.197 158.192C321.829 158.192 320.309 156.448 320.309 153.76C320.309 151.072 321.829 149.328 324.197 149.328C325.925 149.328 327.493 150.448 327.717 152.272L326.309 152.368ZM328.977 153.76C328.977 151.072 330.497 149.328 332.865 149.328C334.737 149.328 336.401 150.56 336.529 153.568L336.545 154.176H330.401C330.529 155.904 331.409 156.912 332.865 156.912C333.761 156.912 334.593 156.384 334.977 155.488L336.417 155.6C335.921 157.2 334.481 158.192 332.865 158.192C330.497 158.192 328.977 156.448 328.977 153.76ZM330.433 152.992H335.073C334.849 151.216 333.889 150.608 332.865 150.608C331.521 150.608 330.657 151.488 330.433 152.992ZM343.303 152.144C343.111 151.184 342.167 150.608 341.223 150.608C340.279 150.608 339.511 151.088 339.511 151.904C339.511 152.736 340.615 153.072 341.543 153.264C343.463 153.632 344.871 154.16 344.871 155.84C344.871 157.488 343.175 158.192 341.559 158.192C339.559 158.192 338.023 157.088 337.895 155.328L339.303 155.232C339.479 156.256 340.295 156.912 341.559 156.912C342.391 156.912 343.463 156.64 343.463 155.76C343.463 154.752 342.263 154.64 341.303 154.416C339.751 154.064 338.103 153.616 338.103 151.968C338.103 150.352 339.415 149.328 341.367 149.328C343.047 149.328 344.439 150.4 344.711 152.048L343.303 152.144ZM351.435 147.6H352.779V149.52H355.035V150.704H352.779V155.744C352.779 156.448 353.115 156.816 353.787 156.816H355.003V158H353.787C352.267 158 351.435 157.184 351.435 155.744V150.704H350.187V149.52H351.435V147.6ZM359.866 158.192C357.514 158.192 355.978 156.464 355.978 153.76C355.978 151.056 357.514 149.328 359.866 149.328C362.202 149.328 363.738 151.056 363.738 153.76C363.738 156.464 362.202 158.192 359.866 158.192ZM357.386 153.76C357.386 155.728 358.298 156.912 359.866 156.912C361.418 156.912 362.33 155.728 362.33 153.76C362.33 151.792 361.418 150.608 359.866 150.608C358.298 150.608 357.386 151.792 357.386 153.76ZM371.189 149.52L373.205 156.512L375.237 149.52H376.677L374.053 158H372.357L370.469 151.552L368.581 158H366.901L364.277 149.52H365.717L367.733 156.512L369.749 149.52H371.189ZM377.458 152.016C377.794 150.368 379.122 149.328 380.93 149.328C383.106 149.328 384.338 150.608 384.338 152.88V156.288C384.338 156.64 384.498 156.816 384.85 156.816H385.202V158H384.626C383.762 158 383.01 157.728 383.01 156.688C382.642 157.472 381.714 158.192 380.37 158.192C378.674 158.192 377.314 157.296 377.314 155.776C377.314 154.032 378.626 153.584 380.514 153.232L382.994 152.736C382.978 151.312 382.29 150.608 380.93 150.608C379.858 150.608 379.138 151.152 378.882 152.128L377.458 152.016ZM378.722 155.776C378.722 156.448 379.298 157.008 380.546 157.008C381.922 156.992 383.026 156.032 383.026 154.048V153.936L381.026 154.288C379.762 154.512 378.722 154.592 378.722 155.776ZM386.76 149.52H387.944L387.992 151.072C388.28 150.016 388.904 149.52 390.008 149.52H390.84V150.704H390.008C388.712 150.704 388.104 151.488 388.104 152.944V158H386.76V149.52ZM399.233 146.64V158H398.017L397.969 156.784C397.489 157.648 396.465 158.192 395.281 158.192C393.073 158.192 391.697 156.48 391.697 153.76C391.697 151.04 393.073 149.328 395.281 149.328C396.417 149.328 397.425 149.84 397.889 150.64V146.64H399.233ZM393.105 153.76C393.105 155.696 394.065 156.912 395.553 156.912C397.057 156.912 398.017 155.696 398.017 153.76C398.017 151.792 397.057 150.544 395.553 150.544C394.065 150.544 393.105 151.792 393.105 153.76ZM406.508 152.144C406.316 151.184 405.372 150.608 404.428 150.608C403.484 150.608 402.716 151.088 402.716 151.904C402.716 152.736 403.82 153.072 404.748 153.264C406.668 153.632 408.076 154.16 408.076 155.84C408.076 157.488 406.38 158.192 404.764 158.192C402.764 158.192 401.228 157.088 401.1 155.328L402.508 155.232C402.684 156.256 403.5 156.912 404.764 156.912C405.596 156.912 406.668 156.64 406.668 155.76C406.668 154.752 405.468 154.64 404.508 154.416C402.956 154.064 401.308 153.616 401.308 151.968C401.308 150.352 402.62 149.328 404.572 149.328C406.252 149.328 407.644 150.4 407.916 152.048L406.508 152.144ZM413.792 146.64H415.136V150.672C415.616 149.744 416.608 149.328 417.664 149.328C419.424 149.328 420.528 150.576 420.528 152.544V158H419.184V153.024C419.184 151.408 418.592 150.608 417.376 150.608C416.032 150.608 415.136 151.456 415.136 153.024V158H413.792V146.64ZM422.929 149.52H424.273V158H422.929V149.52ZM422.897 148.192V146.656H424.305V148.192H422.897ZM429.891 157.552C427.699 157.552 426.147 155.856 426.147 153.44C426.147 151.024 427.683 149.328 429.875 149.328C431.027 149.328 432.003 149.92 432.387 150.864V149.52H433.667V157.168C433.667 159.408 432.131 160.592 429.923 160.592C428.115 160.592 426.771 159.616 426.387 158.128L427.795 158.032C428.131 158.832 428.867 159.312 429.923 159.312C431.411 159.312 432.323 158.672 432.323 157.472V156.08C431.907 156.976 430.963 157.552 429.891 157.552ZM427.555 153.44C427.555 155.184 428.483 156.272 429.971 156.272C431.395 156.272 432.323 155.184 432.339 153.44C432.371 151.696 431.443 150.608 429.971 150.608C428.483 150.608 427.555 151.696 427.555 153.44ZM435.827 146.64H437.171V150.672C437.651 149.744 438.643 149.328 439.699 149.328C441.459 149.328 442.563 150.576 442.563 152.544V158H441.219V153.024C441.219 151.408 440.627 150.608 439.411 150.608C438.067 150.608 437.171 151.456 437.171 153.024V158H435.827V146.64ZM444.202 153.76C444.202 151.072 445.722 149.328 448.09 149.328C449.962 149.328 451.626 150.56 451.754 153.568L451.77 154.176H445.626C445.754 155.904 446.634 156.912 448.09 156.912C448.986 156.912 449.818 156.384 450.202 155.488L451.642 155.6C451.146 157.2 449.706 158.192 448.09 158.192C445.722 158.192 444.202 156.448 444.202 153.76ZM445.658 152.992H450.298C450.074 151.216 449.114 150.608 448.09 150.608C446.746 150.608 445.882 151.488 445.658 152.992ZM453.57 149.52H454.754L454.802 151.072C455.09 150.016 455.714 149.52 456.818 149.52H457.65V150.704H456.818C455.522 150.704 454.914 151.488 454.914 152.944V158H453.57V149.52ZM458.991 152.704H464.287V153.968H458.991V152.704ZM32.752 179.76C32.752 177.072 34.272 175.328 36.64 175.328C38.512 175.328 40.176 176.56 40.304 179.568L40.32 180.176H34.176C34.304 181.904 35.184 182.912 36.64 182.912C37.536 182.912 38.368 182.384 38.752 181.488L40.192 181.6C39.696 183.2 38.256 184.192 36.64 184.192C34.272 184.192 32.752 182.448 32.752 179.76ZM34.208 178.992H38.848C38.624 177.216 37.664 176.608 36.64 176.608C35.296 176.608 34.432 177.488 34.208 178.992ZM42.12 175.52H43.352L43.384 176.992C43.816 175.84 44.824 175.328 45.992 175.328C47.928 175.328 48.856 176.752 48.856 178.544V184H47.512V178.928C47.512 177.36 46.984 176.512 45.704 176.512C44.36 176.512 43.464 177.36 43.464 178.928V184H42.12V175.52ZM58.0305 172.64V184H56.8145L56.7665 182.784C56.2865 183.648 55.2625 184.192 54.0785 184.192C51.8705 184.192 50.4945 182.48 50.4945 179.76C50.4945 177.04 51.8705 175.328 54.0785 175.328C55.2145 175.328 56.2225 175.84 56.6865 176.64V172.64H58.0305ZM51.9025 179.76C51.9025 181.696 52.8625 182.912 54.3505 182.912C55.8545 182.912 56.8145 181.696 56.8145 179.76C56.8145 177.792 55.8545 176.544 54.3505 176.544C52.8625 176.544 51.9025 177.792 51.9025 179.76ZM67.625 184.192C65.273 184.192 63.737 182.464 63.737 179.76C63.737 177.056 65.273 175.328 67.625 175.328C69.961 175.328 71.497 177.056 71.497 179.76C71.497 182.464 69.961 184.192 67.625 184.192ZM65.145 179.76C65.145 181.728 66.057 182.912 67.625 182.912C69.177 182.912 70.089 181.728 70.089 179.76C70.089 177.792 69.177 176.608 67.625 176.608C66.057 176.608 65.145 177.792 65.145 179.76ZM73.8901 174.976C73.8901 173.552 74.5941 172.64 76.1621 172.64H77.4741V173.824H76.1621C75.6181 173.824 75.2341 174.256 75.2341 174.976V175.52H78.5141V174.976C78.5141 173.552 79.2181 172.64 80.7861 172.64H82.0981V173.824H80.7861C80.2421 173.824 79.8581 174.256 79.8581 174.976V175.52H81.9861V176.704H79.8581V184H78.5141V176.704H75.2341V184H73.8901V176.704H72.7381V175.52H73.8901V174.976ZM82.8701 179.76C82.8701 177.072 84.3901 175.328 86.7581 175.328C88.6301 175.328 90.2941 176.56 90.4221 179.568L90.4381 180.176H84.2941C84.4221 181.904 85.3021 182.912 86.7581 182.912C87.6541 182.912 88.4861 182.384 88.8701 181.488L90.3101 181.6C89.8141 183.2 88.3741 184.192 86.7581 184.192C84.3901 184.192 82.8701 182.448 82.8701 179.76ZM84.3261 178.992H88.9661C88.7421 177.216 87.7821 176.608 86.7581 176.608C85.4141 176.608 84.5501 177.488 84.3261 178.992ZM92.2381 175.52H93.4221L93.4701 177.072C93.7581 176.016 94.3821 175.52 95.4861 175.52H96.3181V176.704H95.4861C94.1901 176.704 93.5821 177.488 93.5821 178.944V184H92.2381V175.52ZM98.1875 175.52H99.5315V184H98.1875V175.52ZM98.1555 174.192V172.656H99.5635V174.192H98.1555ZM101.699 175.52H102.931L102.963 176.992C103.395 175.84 104.403 175.328 105.571 175.328C107.507 175.328 108.435 176.752 108.435 178.544V184H107.091V178.928C107.091 177.36 106.563 176.512 105.283 176.512C103.939 176.512 103.043 177.36 103.043 178.928V184H101.699V175.52ZM113.818 183.552C111.626 183.552 110.074 181.856 110.074 179.44C110.074 177.024 111.61 175.328 113.802 175.328C114.954 175.328 115.93 175.92 116.314 176.864V175.52H117.594V183.168C117.594 185.408 116.058 186.592 113.85 186.592C112.042 186.592 110.698 185.616 110.314 184.128L111.722 184.032C112.058 184.832 112.794 185.312 113.85 185.312C115.338 185.312 116.25 184.672 116.25 183.472V182.08C115.834 182.976 114.89 183.552 113.818 183.552ZM111.482 179.44C111.482 181.184 112.41 182.272 113.898 182.272C115.322 182.272 116.25 181.184 116.266 179.44C116.298 177.696 115.37 176.608 113.898 176.608C112.41 176.608 111.482 177.696 111.482 179.44ZM124.634 178.144C124.442 177.184 123.498 176.608 122.554 176.608C121.61 176.608 120.842 177.088 120.842 177.904C120.842 178.736 121.946 179.072 122.874 179.264C124.794 179.632 126.202 180.16 126.202 181.84C126.202 183.488 124.506 184.192 122.89 184.192C120.89 184.192 119.354 183.088 119.226 181.328L120.634 181.232C120.81 182.256 121.626 182.912 122.89 182.912C123.722 182.912 124.794 182.64 124.794 181.76C124.794 180.752 123.594 180.64 122.634 180.416C121.082 180.064 119.434 179.616 119.434 177.968C119.434 176.352 120.746 175.328 122.698 175.328C124.378 175.328 125.77 176.4 126.042 178.048L124.634 178.144ZM127.551 182.256H129.263V184H127.551V182.256Z" fill="#61656C"/>
<rect x="32.5" y="211.5" width="297" height="41" rx="3.5" fill="white"/>
<rect x="32.5" y="211.5" width="297" height="41" rx="3.5" stroke="#EEEEFF"/>
<g clip-path="url(#clip0_7479_11091)">
<path d="M63.9758 229.619C63.9758 228.759 63.5486 228.063 63.0152 228.035V225.472L53.0152 225.299V228.035C52.4819 228.064 52.0547 228.76 52.0547 229.62C52.0547 230.48 52.4825 231.176 53.0152 231.204V231.444C53.0152 234.206 55.2536 236.444 58.0152 236.444C60.7769 236.444 63.0152 234.206 63.0152 231.444V231.204C63.5486 231.175 63.9758 230.479 63.9758 229.619Z" fill="#FDD54C"/>
<path d="M58.0156 222.457C54.1161 222.457 52.3828 225.059 52.3828 227.228C52.3828 229.396 53.1289 229.998 53.2495 229.396C53.6828 227.228 54.9828 226.563 54.9828 226.563C57.5828 228.731 57.1495 226.996 57.1495 226.996C59.7489 229.599 58.4495 226.996 58.4495 226.996C59.3161 227.864 61.9156 227.864 61.9156 227.864C61.9156 227.864 62.3489 228.53 62.7817 229.397C63.215 230.265 63.6484 229.397 63.6484 227.229C63.6484 225.059 61.4817 222.457 58.0156 222.457V222.457Z" fill="#FFAC33"/>
<path d="M55.7891 234.222H60.2335C60.2335 234.222 59.678 235.333 58.0113 235.333C56.3446 235.333 55.7891 234.222 55.7891 234.222Z" fill="#C1694F"/>
<path d="M51.3359 237.556H64.6693V242H51.3359V237.556Z" fill="#2A6797"/>
<path d="M58.5686 232.833H57.4575C57.3041 232.833 57.1797 232.709 57.1797 232.556C57.1797 232.402 57.3041 232.278 57.4575 232.278H58.5686C58.7219 232.278 58.8464 232.402 58.8464 232.556C58.8464 232.709 58.7219 232.833 58.5686 232.833Z" fill="#C1694F"/>
<path d="M55.7899 230.889C55.4833 230.889 55.2344 230.64 55.2344 230.333V229.778C55.2344 229.471 55.4833 229.222 55.7899 229.222C56.0966 229.222 56.3455 229.471 56.3455 229.778V230.333C56.3455 230.64 56.0966 230.889 55.7899 230.889ZM60.2344 230.889C59.9277 230.889 59.6788 230.64 59.6788 230.333V229.778C59.6788 229.471 59.9277 229.222 60.2344 229.222C60.541 229.222 60.7899 229.471 60.7899 229.778V230.333C60.7899 230.64 60.541 230.889 60.2344 230.889Z" fill="#662113"/>
<path d="M49.7781 232.014C49.9242 231.745 50.2092 231.603 50.4826 231.628C50.5015 231.593 54.4181 233.263 54.4181 233.263L53.7137 234.122C53.3248 234.597 52.6542 234.691 52.2159 234.331L51.2842 233.567L50.0287 232.936C49.7031 232.771 49.5909 232.358 49.7781 232.014V232.014Z" fill="#F5BF44"/>
<path d="M48.2042 230.325C48.0098 230.562 48.0292 230.9 48.2487 231.08L50.9803 232.601L52.9631 234.227C53.1826 234.406 53.5176 234.36 53.712 234.122L54.4164 233.263L53.6231 232.613L51.8326 231.561L48.9531 230.221C48.9526 230.221 48.3987 230.088 48.2042 230.325V230.325Z" fill="#FDD54C"/>
<path d="M53.2893 232.243C53.2893 232.243 64.1765 237.053 64.4604 237.179C65.1215 237.473 66.2126 238.123 66.2126 239.222L66.0176 241.861C66.0176 241.938 65.9554 242 65.8787 242H64.0326C64.0049 242 63.9782 241.992 63.9554 241.976L53.1554 234.721C53.1171 234.695 53.0938 234.652 53.0938 234.606V232.37C53.0943 232.269 53.1971 232.202 53.2893 232.243V232.243Z" fill="#4289C1"/>
<path d="M58.1243 234.37L57.6916 234.19L54.1016 235.362L54.9249 235.934L58.1243 234.37ZM61.0149 235.657L61.5743 235.904L58.6993 238.456L56.5766 238.442L61.0149 235.657Z" fill="#2A6797"/>
<path d="M66.1947 232.014C66.0486 231.745 65.7636 231.603 65.4902 231.628C65.4714 231.593 61.5547 233.263 61.5547 233.263L62.2591 234.122C62.648 234.597 63.3186 234.691 63.7569 234.331L64.6886 233.567L65.9441 232.936C66.2697 232.771 66.3819 232.358 66.1947 232.014V232.014Z" fill="#F5BF44"/>
<path d="M67.7669 230.325C67.9614 230.562 67.9419 230.9 67.7225 231.08L64.9908 232.601L63.008 234.227C62.7886 234.406 62.4536 234.359 62.2591 234.122L61.5547 233.263L62.348 232.613L64.1386 231.562L67.018 230.221C67.018 230.221 67.5725 230.088 67.7669 230.325V230.325Z" fill="#FDD54C"/>
<path d="M62.6811 232.243C62.6811 232.243 51.7939 237.053 51.51 237.179C50.8489 237.473 49.7578 238.123 49.7578 239.222L49.9528 241.861C49.9528 241.938 50.015 242 50.0917 242H51.9378C51.9656 242 51.9923 241.992 52.015 241.976L62.8145 234.721C62.8528 234.695 62.8761 234.652 62.8761 234.606V232.37C62.8761 232.269 62.7728 232.202 62.6811 232.243V232.243Z" fill="#4289C1"/>
</g>
<path d="M86.6364 226.364V238H85.2727L78.9318 228.864H78.8182V238H77.4091V226.364H78.7727L85.1364 235.523H85.25V226.364H86.6364ZM92.9332 238.182C92.0923 238.182 91.367 237.996 90.7571 237.625C90.151 237.25 89.6832 236.727 89.3537 236.057C89.0279 235.383 88.8651 234.598 88.8651 233.705C88.8651 232.811 89.0279 232.023 89.3537 231.341C89.6832 230.655 90.1416 230.121 90.7287 229.739C91.3196 229.352 92.009 229.159 92.7969 229.159C93.2514 229.159 93.7003 229.235 94.1435 229.386C94.5866 229.538 94.9901 229.784 95.3537 230.125C95.7173 230.462 96.0071 230.909 96.223 231.466C96.4389 232.023 96.5469 232.708 96.5469 233.523V234.091H89.8196V232.932H95.1832C95.1832 232.439 95.0848 232 94.8878 231.614C94.6946 231.227 94.4181 230.922 94.0582 230.699C93.7022 230.475 93.2817 230.364 92.7969 230.364C92.2628 230.364 91.8007 230.496 91.4105 230.761C91.0241 231.023 90.7268 231.364 90.5185 231.784C90.3101 232.205 90.206 232.655 90.206 233.136V233.909C90.206 234.568 90.3196 235.127 90.5469 235.585C90.7779 236.04 91.098 236.386 91.5071 236.625C91.9162 236.86 92.3916 236.977 92.9332 236.977C93.2855 236.977 93.6037 236.928 93.8878 236.83C94.1757 236.727 94.4238 236.576 94.6321 236.375C94.8404 236.17 95.0014 235.917 95.1151 235.614L96.4105 235.977C96.2741 236.417 96.045 236.803 95.723 237.136C95.401 237.466 95.0033 237.723 94.5298 237.909C94.0563 238.091 93.5241 238.182 92.9332 238.182ZM102.109 241.455C101.462 241.455 100.905 241.371 100.439 241.205C99.973 241.042 99.5848 240.826 99.2741 240.557C98.9673 240.292 98.723 240.008 98.5412 239.705L99.6094 238.955C99.7306 239.114 99.884 239.295 100.07 239.5C100.255 239.708 100.509 239.888 100.831 240.04C101.157 240.195 101.583 240.273 102.109 240.273C102.814 240.273 103.395 240.102 103.854 239.761C104.312 239.42 104.541 238.886 104.541 238.159V236.386H104.428C104.329 236.545 104.189 236.742 104.007 236.977C103.829 237.208 103.571 237.415 103.234 237.597C102.901 237.775 102.45 237.864 101.882 237.864C101.178 237.864 100.545 237.697 99.9844 237.364C99.4276 237.03 98.9863 236.545 98.6605 235.909C98.3385 235.273 98.1776 234.5 98.1776 233.591C98.1776 232.697 98.3348 231.919 98.6491 231.256C98.9635 230.589 99.401 230.074 99.9616 229.71C100.522 229.343 101.17 229.159 101.905 229.159C102.473 229.159 102.924 229.254 103.257 229.443C103.594 229.629 103.852 229.841 104.03 230.08C104.212 230.314 104.352 230.508 104.45 230.659H104.587V229.273H105.882V238.25C105.882 239 105.712 239.61 105.371 240.08C105.034 240.553 104.579 240.9 104.007 241.119C103.439 241.343 102.806 241.455 102.109 241.455ZM102.064 236.659C102.602 236.659 103.056 236.536 103.428 236.29C103.799 236.044 104.081 235.689 104.274 235.227C104.467 234.765 104.564 234.212 104.564 233.568C104.564 232.939 104.469 232.384 104.28 231.903C104.09 231.422 103.81 231.045 103.439 230.773C103.068 230.5 102.609 230.364 102.064 230.364C101.496 230.364 101.022 230.508 100.643 230.795C100.268 231.083 99.9863 231.47 99.7969 231.955C99.6113 232.439 99.5185 232.977 99.5185 233.568C99.5185 234.174 99.6132 234.71 99.8026 235.176C99.9957 235.638 100.28 236.002 100.655 236.267C101.034 236.528 101.503 236.659 102.064 236.659ZM110.905 238.205C110.352 238.205 109.85 238.1 109.399 237.892C108.948 237.68 108.59 237.375 108.325 236.977C108.06 236.576 107.928 236.091 107.928 235.523C107.928 235.023 108.026 234.617 108.223 234.307C108.42 233.992 108.683 233.746 109.013 233.568C109.342 233.39 109.706 233.258 110.104 233.17C110.505 233.08 110.909 233.008 111.314 232.955C111.844 232.886 112.274 232.835 112.604 232.801C112.937 232.763 113.179 232.701 113.331 232.614C113.486 232.527 113.564 232.375 113.564 232.159V232.114C113.564 231.553 113.411 231.117 113.104 230.807C112.801 230.496 112.34 230.341 111.723 230.341C111.083 230.341 110.581 230.481 110.217 230.761C109.854 231.042 109.598 231.341 109.45 231.659L108.178 231.205C108.405 230.674 108.708 230.261 109.087 229.966C109.469 229.667 109.886 229.458 110.337 229.341C110.791 229.22 111.238 229.159 111.678 229.159C111.958 229.159 112.28 229.193 112.643 229.261C113.011 229.326 113.365 229.46 113.706 229.665C114.051 229.869 114.337 230.178 114.564 230.591C114.791 231.004 114.905 231.557 114.905 232.25V238H113.564V236.818H113.496C113.405 237.008 113.253 237.21 113.041 237.426C112.829 237.642 112.547 237.826 112.195 237.977C111.842 238.129 111.412 238.205 110.905 238.205ZM111.109 237C111.64 237 112.087 236.896 112.45 236.688C112.818 236.479 113.094 236.21 113.28 235.881C113.469 235.551 113.564 235.205 113.564 234.841V233.614C113.507 233.682 113.382 233.744 113.189 233.801C113 233.854 112.78 233.902 112.53 233.943C112.284 233.981 112.043 234.015 111.808 234.045C111.577 234.072 111.39 234.095 111.246 234.114C110.897 234.159 110.571 234.233 110.268 234.335C109.969 234.434 109.727 234.583 109.541 234.784C109.359 234.981 109.268 235.25 109.268 235.591C109.268 236.057 109.441 236.409 109.786 236.648C110.134 236.883 110.575 237 111.109 237ZM121.148 229.273V230.409H116.625V229.273H121.148ZM117.943 227.182H119.284V235.5C119.284 235.879 119.339 236.163 119.449 236.352C119.563 236.538 119.706 236.663 119.881 236.727C120.059 236.788 120.246 236.818 120.443 236.818C120.591 236.818 120.712 236.811 120.807 236.795C120.902 236.777 120.977 236.761 121.034 236.75L121.307 237.955C121.216 237.989 121.089 238.023 120.926 238.057C120.763 238.095 120.557 238.114 120.307 238.114C119.928 238.114 119.557 238.032 119.193 237.869C118.833 237.706 118.534 237.458 118.295 237.125C118.061 236.792 117.943 236.371 117.943 235.864V227.182ZM123.165 238V229.273H124.506V238H123.165ZM123.847 227.818C123.585 227.818 123.36 227.729 123.17 227.551C122.985 227.373 122.892 227.159 122.892 226.909C122.892 226.659 122.985 226.445 123.17 226.267C123.36 226.089 123.585 226 123.847 226C124.108 226 124.331 226.089 124.517 226.267C124.706 226.445 124.801 226.659 124.801 226.909C124.801 227.159 124.706 227.373 124.517 227.551C124.331 227.729 124.108 227.818 123.847 227.818ZM134.098 229.273L130.871 238H129.507L126.28 229.273H127.734L130.143 236.227H130.234L132.643 229.273H134.098ZM139.214 238.182C138.374 238.182 137.648 237.996 137.038 237.625C136.432 237.25 135.964 236.727 135.635 236.057C135.309 235.383 135.146 234.598 135.146 233.705C135.146 232.811 135.309 232.023 135.635 231.341C135.964 230.655 136.423 230.121 137.01 229.739C137.601 229.352 138.29 229.159 139.078 229.159C139.533 229.159 139.982 229.235 140.425 229.386C140.868 229.538 141.271 229.784 141.635 230.125C141.999 230.462 142.288 230.909 142.504 231.466C142.72 232.023 142.828 232.708 142.828 233.523V234.091H136.101V232.932H141.464C141.464 232.439 141.366 232 141.169 231.614C140.976 231.227 140.699 230.922 140.339 230.699C139.983 230.475 139.563 230.364 139.078 230.364C138.544 230.364 138.082 230.496 137.692 230.761C137.305 231.023 137.008 231.364 136.8 231.784C136.591 232.205 136.487 232.655 136.487 233.136V233.909C136.487 234.568 136.601 235.127 136.828 235.585C137.059 236.04 137.379 236.386 137.788 236.625C138.197 236.86 138.673 236.977 139.214 236.977C139.567 236.977 139.885 236.928 140.169 236.83C140.457 236.727 140.705 236.576 140.913 236.375C141.122 236.17 141.283 235.917 141.396 235.614L142.692 235.977C142.555 236.417 142.326 236.803 142.004 237.136C141.682 237.466 141.285 237.723 140.811 237.909C140.338 238.091 139.805 238.182 139.214 238.182ZM150.959 226.364V238H149.55V226.364H150.959ZM153.602 238V229.273H154.898V230.636H155.011C155.193 230.17 155.487 229.809 155.892 229.551C156.297 229.29 156.784 229.159 157.352 229.159C157.928 229.159 158.407 229.29 158.79 229.551C159.176 229.809 159.477 230.17 159.693 230.636H159.784C160.008 230.186 160.343 229.828 160.79 229.562C161.237 229.294 161.773 229.159 162.398 229.159C163.178 229.159 163.816 229.403 164.312 229.892C164.809 230.377 165.057 231.133 165.057 232.159V238H163.716V232.159C163.716 231.515 163.54 231.055 163.188 230.778C162.835 230.502 162.42 230.364 161.943 230.364C161.33 230.364 160.854 230.549 160.517 230.92C160.18 231.288 160.011 231.754 160.011 232.318V238H158.648V232.023C158.648 231.527 158.487 231.127 158.165 230.824C157.843 230.517 157.428 230.364 156.92 230.364C156.572 230.364 156.246 230.456 155.943 230.642C155.644 230.828 155.402 231.085 155.216 231.415C155.034 231.741 154.943 232.117 154.943 232.545V238H153.602ZM167.509 241.273V229.273H168.804V230.659H168.963C169.062 230.508 169.198 230.314 169.372 230.08C169.55 229.841 169.804 229.629 170.134 229.443C170.467 229.254 170.918 229.159 171.486 229.159C172.221 229.159 172.868 229.343 173.429 229.71C173.99 230.078 174.427 230.598 174.741 231.273C175.056 231.947 175.213 232.742 175.213 233.659C175.213 234.583 175.056 235.384 174.741 236.062C174.427 236.737 173.991 237.259 173.435 237.631C172.878 237.998 172.236 238.182 171.509 238.182C170.948 238.182 170.499 238.089 170.162 237.903C169.825 237.714 169.565 237.5 169.384 237.261C169.202 237.019 169.062 236.818 168.963 236.659H168.849V241.273H167.509ZM168.827 233.636C168.827 234.295 168.923 234.877 169.116 235.381C169.31 235.881 169.592 236.273 169.963 236.557C170.334 236.837 170.789 236.977 171.327 236.977C171.887 236.977 172.355 236.83 172.73 236.534C173.109 236.235 173.393 235.833 173.582 235.33C173.776 234.822 173.872 234.258 173.872 233.636C173.872 233.023 173.777 232.47 173.588 231.977C173.402 231.481 173.12 231.089 172.741 230.801C172.366 230.509 171.895 230.364 171.327 230.364C170.781 230.364 170.323 230.502 169.952 230.778C169.58 231.051 169.3 231.434 169.111 231.926C168.921 232.415 168.827 232.985 168.827 233.636ZM179.827 238.205C179.274 238.205 178.772 238.1 178.321 237.892C177.87 237.68 177.512 237.375 177.247 236.977C176.982 236.576 176.849 236.091 176.849 235.523C176.849 235.023 176.948 234.617 177.145 234.307C177.342 233.992 177.605 233.746 177.935 233.568C178.264 233.39 178.628 233.258 179.026 233.17C179.427 233.08 179.83 233.008 180.236 232.955C180.766 232.886 181.196 232.835 181.526 232.801C181.859 232.763 182.101 232.701 182.253 232.614C182.408 232.527 182.486 232.375 182.486 232.159V232.114C182.486 231.553 182.332 231.117 182.026 230.807C181.723 230.496 181.262 230.341 180.645 230.341C180.005 230.341 179.503 230.481 179.139 230.761C178.776 231.042 178.52 231.341 178.372 231.659L177.099 231.205C177.327 230.674 177.63 230.261 178.009 229.966C178.391 229.667 178.808 229.458 179.259 229.341C179.713 229.22 180.16 229.159 180.599 229.159C180.88 229.159 181.202 229.193 181.565 229.261C181.933 229.326 182.287 229.46 182.628 229.665C182.973 229.869 183.259 230.178 183.486 230.591C183.713 231.004 183.827 231.557 183.827 232.25V238H182.486V236.818H182.418C182.327 237.008 182.175 237.21 181.963 237.426C181.751 237.642 181.469 237.826 181.116 237.977C180.764 238.129 180.334 238.205 179.827 238.205ZM180.031 237C180.562 237 181.009 236.896 181.372 236.688C181.74 236.479 182.016 236.21 182.202 235.881C182.391 235.551 182.486 235.205 182.486 234.841V233.614C182.429 233.682 182.304 233.744 182.111 233.801C181.921 233.854 181.702 233.902 181.452 233.943C181.205 233.981 180.965 234.015 180.73 234.045C180.499 234.072 180.312 234.095 180.168 234.114C179.819 234.159 179.493 234.233 179.19 234.335C178.891 234.434 178.649 234.583 178.463 234.784C178.281 234.981 178.19 235.25 178.19 235.591C178.19 236.057 178.363 236.409 178.707 236.648C179.056 236.883 179.497 237 180.031 237ZM189.82 238.182C189.001 238.182 188.297 237.989 187.706 237.602C187.115 237.216 186.661 236.684 186.342 236.006C186.024 235.328 185.865 234.553 185.865 233.682C185.865 232.795 186.028 232.013 186.354 231.335C186.683 230.653 187.142 230.121 187.729 229.739C188.32 229.352 189.009 229.159 189.797 229.159C190.411 229.159 190.964 229.273 191.456 229.5C191.948 229.727 192.352 230.045 192.666 230.455C192.981 230.864 193.176 231.341 193.251 231.886H191.911C191.808 231.489 191.581 231.136 191.229 230.83C190.88 230.519 190.411 230.364 189.82 230.364C189.297 230.364 188.839 230.5 188.445 230.773C188.054 231.042 187.75 231.422 187.53 231.915C187.314 232.403 187.206 232.977 187.206 233.636C187.206 234.311 187.312 234.898 187.524 235.398C187.74 235.898 188.043 236.286 188.433 236.562C188.827 236.839 189.289 236.977 189.82 236.977C190.168 236.977 190.484 236.917 190.768 236.795C191.053 236.674 191.293 236.5 191.49 236.273C191.687 236.045 191.827 235.773 191.911 235.455H193.251C193.176 235.97 192.988 236.434 192.689 236.847C192.393 237.256 192.001 237.581 191.513 237.824C191.028 238.062 190.464 238.182 189.82 238.182ZM199.007 229.273V230.409H194.484V229.273H199.007ZM195.803 227.182H197.143V235.5C197.143 235.879 197.198 236.163 197.308 236.352C197.422 236.538 197.566 236.663 197.74 236.727C197.918 236.788 198.106 236.818 198.303 236.818C198.45 236.818 198.571 236.811 198.666 236.795C198.761 236.777 198.837 236.761 198.893 236.75L199.166 237.955C199.075 237.989 198.948 238.023 198.786 238.057C198.623 238.095 198.416 238.114 198.166 238.114C197.787 238.114 197.416 238.032 197.053 237.869C196.693 237.706 196.393 237.458 196.155 237.125C195.92 236.792 195.803 236.371 195.803 235.864V227.182ZM202.001 238.091C201.721 238.091 201.481 237.991 201.28 237.79C201.079 237.589 200.979 237.348 200.979 237.068C200.979 236.788 201.079 236.547 201.28 236.347C201.481 236.146 201.721 236.045 202.001 236.045C202.282 236.045 202.522 236.146 202.723 236.347C202.924 236.547 203.024 236.788 203.024 237.068C203.024 237.254 202.977 237.424 202.882 237.58C202.791 237.735 202.668 237.86 202.513 237.955C202.361 238.045 202.191 238.091 202.001 238.091ZM209.476 227.614V226.364H218.203V227.614H214.544V238H213.135V227.614H209.476ZM220.196 238V229.273H221.537V238H220.196ZM220.878 227.818C220.616 227.818 220.391 227.729 220.202 227.551C220.016 227.373 219.923 227.159 219.923 226.909C219.923 226.659 220.016 226.445 220.202 226.267C220.391 226.089 220.616 226 220.878 226C221.139 226 221.363 226.089 221.548 226.267C221.738 226.445 221.832 226.659 221.832 226.909C221.832 227.159 221.738 227.373 221.548 227.551C221.363 227.729 221.139 227.818 220.878 227.818ZM223.993 238V229.273H225.288V230.636H225.402C225.584 230.17 225.877 229.809 226.283 229.551C226.688 229.29 227.175 229.159 227.743 229.159C228.319 229.159 228.798 229.29 229.18 229.551C229.567 229.809 229.868 230.17 230.084 230.636H230.175C230.398 230.186 230.733 229.828 231.18 229.562C231.627 229.294 232.163 229.159 232.788 229.159C233.569 229.159 234.207 229.403 234.703 229.892C235.199 230.377 235.447 231.133 235.447 232.159V238H234.107V232.159C234.107 231.515 233.93 231.055 233.578 230.778C233.226 230.502 232.811 230.364 232.334 230.364C231.72 230.364 231.245 230.549 230.908 230.92C230.571 231.288 230.402 231.754 230.402 232.318V238H229.038V232.023C229.038 231.527 228.877 231.127 228.555 230.824C228.233 230.517 227.819 230.364 227.311 230.364C226.963 230.364 226.637 230.456 226.334 230.642C226.035 230.828 225.792 231.085 225.607 231.415C225.425 231.741 225.334 232.117 225.334 232.545V238H223.993ZM241.558 238.182C240.717 238.182 239.992 237.996 239.382 237.625C238.776 237.25 238.308 236.727 237.979 236.057C237.653 235.383 237.49 234.598 237.49 233.705C237.49 232.811 237.653 232.023 237.979 231.341C238.308 230.655 238.767 230.121 239.354 229.739C239.945 229.352 240.634 229.159 241.422 229.159C241.876 229.159 242.325 229.235 242.768 229.386C243.212 229.538 243.615 229.784 243.979 230.125C244.342 230.462 244.632 230.909 244.848 231.466C245.064 232.023 245.172 232.708 245.172 233.523V234.091H238.445V232.932H243.808C243.808 232.439 243.71 232 243.513 231.614C243.32 231.227 243.043 230.922 242.683 230.699C242.327 230.475 241.907 230.364 241.422 230.364C240.888 230.364 240.426 230.496 240.036 230.761C239.649 231.023 239.352 231.364 239.143 231.784C238.935 232.205 238.831 232.655 238.831 233.136V233.909C238.831 234.568 238.945 235.127 239.172 235.585C239.403 236.04 239.723 236.386 240.132 236.625C240.541 236.86 241.017 236.977 241.558 236.977C241.911 236.977 242.229 236.928 242.513 236.83C242.801 236.727 243.049 236.576 243.257 236.375C243.465 236.17 243.626 235.917 243.74 235.614L245.036 235.977C244.899 236.417 244.67 236.803 244.348 237.136C244.026 237.466 243.628 237.723 243.155 237.909C242.681 238.091 242.149 238.182 241.558 238.182ZM255.507 229.273V230.409H250.984V229.273H255.507ZM252.303 227.182H253.643V235.5C253.643 235.879 253.698 236.163 253.808 236.352C253.922 236.538 254.066 236.663 254.24 236.727C254.418 236.788 254.606 236.818 254.803 236.818C254.95 236.818 255.071 236.811 255.166 236.795C255.261 236.777 255.337 236.761 255.393 236.75L255.666 237.955C255.575 237.989 255.448 238.023 255.286 238.057C255.123 238.095 254.916 238.114 254.666 238.114C254.287 238.114 253.916 238.032 253.553 237.869C253.193 237.706 252.893 237.458 252.655 237.125C252.42 236.792 252.303 236.371 252.303 235.864V227.182ZM260.976 238.182C260.188 238.182 259.497 237.994 258.902 237.619C258.311 237.244 257.849 236.72 257.516 236.045C257.186 235.371 257.021 234.583 257.021 233.682C257.021 232.773 257.186 231.979 257.516 231.301C257.849 230.623 258.311 230.097 258.902 229.722C259.497 229.347 260.188 229.159 260.976 229.159C261.764 229.159 262.453 229.347 263.044 229.722C263.639 230.097 264.101 230.623 264.43 231.301C264.764 231.979 264.93 232.773 264.93 233.682C264.93 234.583 264.764 235.371 264.43 236.045C264.101 236.72 263.639 237.244 263.044 237.619C262.453 237.994 261.764 238.182 260.976 238.182ZM260.976 236.977C261.574 236.977 262.067 236.824 262.453 236.517C262.839 236.21 263.125 235.807 263.311 235.307C263.497 234.807 263.589 234.265 263.589 233.682C263.589 233.098 263.497 232.555 263.311 232.051C263.125 231.547 262.839 231.14 262.453 230.83C262.067 230.519 261.574 230.364 260.976 230.364C260.377 230.364 259.885 230.519 259.499 230.83C259.112 231.14 258.826 231.547 258.641 232.051C258.455 232.555 258.362 233.098 258.362 233.682C258.362 234.265 258.455 234.807 258.641 235.307C258.826 235.807 259.112 236.21 259.499 236.517C259.885 236.824 260.377 236.977 260.976 236.977ZM275 241.455C274.352 241.455 273.795 241.371 273.33 241.205C272.864 241.042 272.475 240.826 272.165 240.557C271.858 240.292 271.614 240.008 271.432 239.705L272.5 238.955C272.621 239.114 272.775 239.295 272.96 239.5C273.146 239.708 273.4 239.888 273.722 240.04C274.047 240.195 274.473 240.273 275 240.273C275.705 240.273 276.286 240.102 276.744 239.761C277.203 239.42 277.432 238.886 277.432 238.159V236.386H277.318C277.22 236.545 277.08 236.742 276.898 236.977C276.72 237.208 276.462 237.415 276.125 237.597C275.792 237.775 275.341 237.864 274.773 237.864C274.068 237.864 273.436 237.697 272.875 237.364C272.318 237.03 271.877 236.545 271.551 235.909C271.229 235.273 271.068 234.5 271.068 233.591C271.068 232.697 271.225 231.919 271.54 231.256C271.854 230.589 272.292 230.074 272.852 229.71C273.413 229.343 274.061 229.159 274.795 229.159C275.364 229.159 275.814 229.254 276.148 229.443C276.485 229.629 276.742 229.841 276.92 230.08C277.102 230.314 277.242 230.508 277.341 230.659H277.477V229.273H278.773V238.25C278.773 239 278.602 239.61 278.261 240.08C277.924 240.553 277.47 240.9 276.898 241.119C276.33 241.343 275.697 241.455 275 241.455ZM274.955 236.659C275.492 236.659 275.947 236.536 276.318 236.29C276.689 236.044 276.972 235.689 277.165 235.227C277.358 234.765 277.455 234.212 277.455 233.568C277.455 232.939 277.36 232.384 277.17 231.903C276.981 231.422 276.701 231.045 276.33 230.773C275.958 230.5 275.5 230.364 274.955 230.364C274.386 230.364 273.913 230.508 273.534 230.795C273.159 231.083 272.877 231.47 272.688 231.955C272.502 232.439 272.409 232.977 272.409 233.568C272.409 234.174 272.504 234.71 272.693 235.176C272.886 235.638 273.17 236.002 273.545 236.267C273.924 236.528 274.394 236.659 274.955 236.659ZM281.227 238V229.273H282.523V230.591H282.614C282.773 230.159 283.061 229.809 283.477 229.54C283.894 229.271 284.364 229.136 284.886 229.136C284.985 229.136 285.108 229.138 285.256 229.142C285.403 229.146 285.515 229.152 285.591 229.159V230.523C285.545 230.511 285.441 230.494 285.278 230.472C285.119 230.445 284.951 230.432 284.773 230.432C284.348 230.432 283.97 230.521 283.636 230.699C283.307 230.873 283.045 231.116 282.852 231.426C282.663 231.733 282.568 232.083 282.568 232.477V238H281.227ZM287.18 238V229.273H288.521V238H287.18ZM287.862 227.818C287.601 227.818 287.375 227.729 287.186 227.551C287 227.373 286.908 227.159 286.908 226.909C286.908 226.659 287 226.445 287.186 226.267C287.375 226.089 287.601 226 287.862 226C288.124 226 288.347 226.089 288.533 226.267C288.722 226.445 288.817 226.659 288.817 226.909C288.817 227.159 288.722 227.373 288.533 227.551C288.347 227.729 288.124 227.818 287.862 227.818ZM292.318 232.75V238H290.977V229.273H292.273V230.636H292.386C292.591 230.193 292.902 229.837 293.318 229.568C293.735 229.295 294.273 229.159 294.932 229.159C295.523 229.159 296.04 229.28 296.483 229.523C296.926 229.761 297.271 230.125 297.517 230.614C297.763 231.098 297.886 231.712 297.886 232.455V238H296.545V232.545C296.545 231.86 296.367 231.326 296.011 230.943C295.655 230.557 295.167 230.364 294.545 230.364C294.117 230.364 293.735 230.456 293.398 230.642C293.064 230.828 292.801 231.098 292.608 231.455C292.415 231.811 292.318 232.242 292.318 232.75ZM303.632 238.182C302.905 238.182 302.263 237.998 301.706 237.631C301.149 237.259 300.714 236.737 300.399 236.062C300.085 235.384 299.928 234.583 299.928 233.659C299.928 232.742 300.085 231.947 300.399 231.273C300.714 230.598 301.151 230.078 301.712 229.71C302.272 229.343 302.92 229.159 303.655 229.159C304.223 229.159 304.672 229.254 305.001 229.443C305.335 229.629 305.589 229.841 305.763 230.08C305.941 230.314 306.079 230.508 306.178 230.659H306.291V226.364H307.632V238H306.337V236.659H306.178C306.079 236.818 305.939 237.019 305.757 237.261C305.575 237.5 305.316 237.714 304.979 237.903C304.642 238.089 304.193 238.182 303.632 238.182ZM303.814 236.977C304.352 236.977 304.806 236.837 305.178 236.557C305.549 236.273 305.831 235.881 306.024 235.381C306.217 234.877 306.314 234.295 306.314 233.636C306.314 232.985 306.219 232.415 306.03 231.926C305.84 231.434 305.56 231.051 305.189 230.778C304.818 230.502 304.359 230.364 303.814 230.364C303.246 230.364 302.772 230.509 302.393 230.801C302.018 231.089 301.736 231.481 301.547 231.977C301.361 232.47 301.268 233.023 301.268 233.636C301.268 234.258 301.363 234.822 301.553 235.33C301.746 235.833 302.03 236.235 302.405 236.534C302.784 236.83 303.253 236.977 303.814 236.977ZM311.251 238.091C310.971 238.091 310.731 237.991 310.53 237.79C310.329 237.589 310.229 237.348 310.229 237.068C310.229 236.788 310.329 236.547 310.53 236.347C310.731 236.146 310.971 236.045 311.251 236.045C311.532 236.045 311.772 236.146 311.973 236.347C312.174 236.547 312.274 236.788 312.274 237.068C312.274 237.254 312.227 237.424 312.132 237.58C312.041 237.735 311.918 237.86 311.763 237.955C311.611 238.045 311.441 238.091 311.251 238.091Z" fill="#080D19"/>
<path d="M36.992 280.64C40.48 280.64 42.448 282.688 42.448 286.336C42.448 289.968 40.528 292 37.088 292H33.472V280.64H36.992ZM34.848 290.656H36.992C39.664 290.656 41.008 289.216 41.008 286.336C41.008 283.424 39.664 281.984 36.992 281.984H34.848V290.656ZM47.7144 292.192C45.3624 292.192 43.8264 290.464 43.8264 287.76C43.8264 285.056 45.3624 283.328 47.7144 283.328C50.0504 283.328 51.5864 285.056 51.5864 287.76C51.5864 290.464 50.0504 292.192 47.7144 292.192ZM45.2344 287.76C45.2344 289.728 46.1464 290.912 47.7144 290.912C49.2664 290.912 50.1784 289.728 50.1784 287.76C50.1784 285.792 49.2664 284.608 47.7144 284.608C46.1464 284.608 45.2344 285.792 45.2344 287.76ZM59.0378 283.52L61.0538 290.512L63.0858 283.52H64.5258L61.9018 292H60.2058L58.3178 285.552L56.4298 292H54.7498L52.1258 283.52H53.5658L55.5818 290.512L57.5978 283.52H59.0378ZM66.0031 283.52H67.2351L67.2671 284.992C67.6991 283.84 68.7071 283.328 69.8751 283.328C71.8111 283.328 72.7391 284.752 72.7391 286.544V292H71.3951V286.928C71.3951 285.36 70.8671 284.512 69.5871 284.512C68.2431 284.512 67.3471 285.36 67.3471 286.928V292H66.0031V283.52ZM74.9056 280.64H76.2496V290.288C76.2496 290.64 76.4256 290.816 76.7776 290.816H77.5136V292H76.5696C75.5776 292 74.9056 291.328 74.9056 290.352V280.64ZM82.4806 292.192C80.1286 292.192 78.5926 290.464 78.5926 287.76C78.5926 285.056 80.1286 283.328 82.4806 283.328C84.8166 283.328 86.3526 285.056 86.3526 287.76C86.3526 290.464 84.8166 292.192 82.4806 292.192ZM80.0006 287.76C80.0006 289.728 80.9126 290.912 82.4806 290.912C84.0326 290.912 84.9446 289.728 84.9446 287.76C84.9446 285.792 84.0326 284.608 82.4806 284.608C80.9126 284.608 80.0006 285.792 80.0006 287.76ZM87.9204 286.016C88.2564 284.368 89.5844 283.328 91.3924 283.328C93.5684 283.328 94.8004 284.608 94.8004 286.88V290.288C94.8004 290.64 94.9604 290.816 95.3124 290.816H95.6644V292H95.0884C94.2244 292 93.4724 291.728 93.4724 290.688C93.1044 291.472 92.1764 292.192 90.8324 292.192C89.1364 292.192 87.7764 291.296 87.7764 289.776C87.7764 288.032 89.0884 287.584 90.9764 287.232L93.4564 286.736C93.4404 285.312 92.7524 284.608 91.3924 284.608C90.3204 284.608 89.6004 285.152 89.3444 286.128L87.9204 286.016ZM89.1844 289.776C89.1844 290.448 89.7604 291.008 91.0084 291.008C92.3844 290.992 93.4884 290.032 93.4884 288.048V287.936L91.4884 288.288C90.2244 288.512 89.1844 288.592 89.1844 289.776ZM104.199 280.64V292H102.983L102.935 290.784C102.455 291.648 101.431 292.192 100.247 292.192C98.0393 292.192 96.6633 290.48 96.6633 287.76C96.6633 285.04 98.0393 283.328 100.247 283.328C101.383 283.328 102.391 283.84 102.855 284.64V280.64H104.199ZM98.0713 287.76C98.0713 289.696 99.0313 290.912 100.519 290.912C102.023 290.912 102.983 289.696 102.983 287.76C102.983 285.792 102.023 284.544 100.519 284.544C99.0313 284.544 98.0713 285.792 98.0713 287.76ZM110.05 286.016C110.386 284.368 111.714 283.328 113.522 283.328C115.698 283.328 116.93 284.608 116.93 286.88V290.288C116.93 290.64 117.09 290.816 117.442 290.816H117.794V292H117.218C116.354 292 115.602 291.728 115.602 290.688C115.234 291.472 114.306 292.192 112.962 292.192C111.266 292.192 109.906 291.296 109.906 289.776C109.906 288.032 111.218 287.584 113.106 287.232L115.586 286.736C115.57 285.312 114.882 284.608 113.522 284.608C112.45 284.608 111.73 285.152 111.474 286.128L110.05 286.016ZM111.314 289.776C111.314 290.448 111.89 291.008 113.138 291.008C114.514 290.992 115.618 290.032 115.618 288.048V287.936L113.618 288.288C112.354 288.512 111.314 288.592 111.314 289.776ZM124.201 286.144C124.009 285.184 123.065 284.608 122.121 284.608C121.177 284.608 120.409 285.088 120.409 285.904C120.409 286.736 121.513 287.072 122.441 287.264C124.361 287.632 125.769 288.16 125.769 289.84C125.769 291.488 124.073 292.192 122.457 292.192C120.457 292.192 118.921 291.088 118.793 289.328L120.201 289.232C120.377 290.256 121.193 290.912 122.457 290.912C123.289 290.912 124.361 290.64 124.361 289.76C124.361 288.752 123.161 288.64 122.201 288.416C120.649 288.064 119.001 287.616 119.001 285.968C119.001 284.352 120.313 283.328 122.265 283.328C123.945 283.328 125.337 284.4 125.609 286.048L124.201 286.144ZM135.757 280.64C138.285 280.64 139.773 281.92 139.773 284.08C139.773 286.272 138.285 287.584 135.757 287.584H133.053V292H131.677V280.64H135.757ZM133.053 286.24H135.757C137.469 286.24 138.333 285.504 138.333 284.08C138.333 282.688 137.469 281.984 135.757 281.984H133.053V286.24ZM141.923 280.64H143.843L149.411 290.368V280.64H150.787V292H148.787L143.299 282.432V292H141.923V280.64ZM162.568 292H161.56L161.432 290.144C160.952 291.392 159.544 292.256 158.024 292.256C154.76 292.256 152.888 289.632 152.888 286.336C152.888 283.024 154.744 280.384 158.024 280.384C160.44 280.384 162.024 281.888 162.52 284.128L161.08 284.224C160.696 282.688 159.672 281.728 158.024 281.728C155.432 281.728 154.328 283.872 154.328 286.336C154.328 288.784 155.448 290.912 158.024 290.912C160.008 290.912 161.112 289.472 161.24 287.6H158.024V286.256H162.568V292Z" fill="#6366F1"/>
<path d="M32 294H163.432V294.8H32V294Z" fill="#6366F1"/>
<rect width="1" height="26" transform="translate(180 273)" fill="#EEEEFF"/>
<path d="M199.384 288.272C199.672 289.808 200.76 290.848 202.552 290.848C204.008 290.848 204.984 290.272 204.984 289.136C204.984 287.984 203.992 287.28 201.72 286.704C199.864 286.24 198.184 285.328 198.184 283.504C198.184 281.584 199.72 280.384 201.896 280.384C204.328 280.384 205.944 281.904 206.184 284L204.744 284.096C204.536 282.672 203.448 281.728 201.88 281.728C200.584 281.728 199.624 282.416 199.624 283.504C199.624 284.88 201.272 285.264 202.712 285.664C204.776 286.24 206.424 287.264 206.424 288.992C206.424 291.104 204.504 292.192 202.44 292.192C199.96 292.192 198.136 290.672 197.944 288.368L199.384 288.272ZM208.089 280.64H209.433V284.672C209.913 283.744 210.905 283.328 211.961 283.328C213.721 283.328 214.825 284.576 214.825 286.544V292H213.481V287.024C213.481 285.408 212.889 284.608 211.673 284.608C210.329 284.608 209.433 285.456 209.433 287.024V292H208.089V280.64ZM216.685 286.016C217.021 284.368 218.349 283.328 220.157 283.328C222.333 283.328 223.565 284.608 223.565 286.88V290.288C223.565 290.64 223.725 290.816 224.077 290.816H224.429V292H223.853C222.989 292 222.237 291.728 222.237 290.688C221.869 291.472 220.941 292.192 219.597 292.192C217.901 292.192 216.541 291.296 216.541 289.776C216.541 288.032 217.853 287.584 219.741 287.232L222.221 286.736C222.205 285.312 221.517 284.608 220.157 284.608C219.085 284.608 218.365 285.152 218.109 286.128L216.685 286.016ZM217.949 289.776C217.949 290.448 218.525 291.008 219.773 291.008C221.149 290.992 222.253 290.032 222.253 288.048V287.936L220.253 288.288C218.989 288.512 217.949 288.592 217.949 289.776ZM225.988 283.52H227.172L227.22 285.072C227.508 284.016 228.132 283.52 229.236 283.52H230.068V284.704H229.236C227.94 284.704 227.332 285.488 227.332 286.944V292H225.988V283.52ZM230.925 287.76C230.925 285.072 232.445 283.328 234.813 283.328C236.685 283.328 238.349 284.56 238.477 287.568L238.493 288.176H232.349C232.477 289.904 233.357 290.912 234.813 290.912C235.709 290.912 236.541 290.384 236.925 289.488L238.365 289.6C237.869 291.2 236.429 292.192 234.813 292.192C232.445 292.192 230.925 290.448 230.925 287.76ZM232.381 286.992H237.021C236.797 285.216 235.837 284.608 234.813 284.608C233.469 284.608 232.605 285.488 232.381 286.992Z" fill="#6366F1"/>
<path d="M197 294H239.244V294.8H197V294Z" fill="#6366F1"/>
<defs>
<clipPath id="clip0_7479_11091">
<rect width="20" height="20" fill="white" transform="translate(48 222)"/>
</clipPath>
</defs>
</svg>
