<svg width="222" height="40" viewBox="0 0 222 40" fill="none" xmlns="http://www.w3.org/2000/svg">
<path d="M34.1418 5.85815C30.3645 2.08085 25.3419 0 20 0C14.6581 0 9.63545 2.08006 5.85815 5.85815C2.08085 9.63545 0 14.6581 0 20C0 25.3419 2.08006 30.3645 5.85815 34.1418C9.63545 37.9191 14.6581 40 20 40C25.3419 40 30.3645 37.9199 34.1418 34.1418C37.9191 30.3645 40 25.3419 40 20C40 14.6581 37.9199 9.63545 34.1418 5.85815ZM13.1387 32.1905C13.2031 32.0904 13.3079 32.0324 13.427 32.0324H26.5714C26.6905 32.0324 26.7953 32.0904 26.8597 32.1905C26.924 32.2905 26.9319 32.4097 26.8827 32.5169C26.349 33.6748 25.4277 34.6652 24.2205 35.38C22.9783 36.1147 21.5185 36.5038 19.9992 36.5038C18.4799 36.5038 17.0201 36.1155 15.7779 35.38C14.5699 34.6652 13.6494 33.6748 13.1157 32.5169C13.0665 32.4097 13.0744 32.2905 13.1387 32.1905ZM8.81105 4.63903C8.88571 4.58582 8.99134 4.60249 9.04535 4.67556L20 19.5679L30.9546 4.67556C31.0087 4.60249 31.1135 4.58582 31.1889 4.63903C32.2071 5.35859 33.1562 6.1814 34.0092 7.08363C34.068 7.14558 34.0727 7.23851 34.0211 7.30522L22.6908 21.7076C22.0459 22.5272 21.065 22.9974 20 22.9974C18.935 22.9974 17.9541 22.5272 17.3092 21.7076L5.97888 7.30522C5.92725 7.2393 5.93201 7.14637 5.99079 7.08363C6.84457 6.1814 7.79366 5.35859 8.81105 4.63903ZM37.6618 26.9224C37.1416 28.2337 36.4705 29.4909 35.6691 30.6584C35.6318 30.7132 35.5683 30.7458 35.5 30.7458H4.49845C4.43015 30.7458 4.36741 30.7132 4.32928 30.6584C3.52712 29.4909 2.8568 28.2337 2.33659 26.9224C2.31197 26.8597 2.31912 26.7914 2.35803 26.735C2.39695 26.677 2.4597 26.6436 2.52959 26.6436H37.4696C37.5395 26.6436 37.6015 26.677 37.6412 26.735C37.6793 26.7914 37.6872 26.8597 37.6626 26.9224H37.6618ZM2.0189 13.6296C2.03479 13.5859 2.06894 13.5684 2.088 13.5613C2.09673 13.5581 2.10944 13.5549 2.12533 13.5549C2.1428 13.5549 2.16345 13.5589 2.18489 13.5724L17.5197 23.4175C18.9786 24.3539 20.8633 24.3539 22.3215 23.4175L37.6563 13.5724C37.696 13.547 37.7341 13.5541 37.7532 13.5605C37.7722 13.5668 37.8064 13.5843 37.8223 13.6288C38.2845 14.9289 38.6046 16.2839 38.7729 17.6563C38.7777 17.6976 38.7578 17.7389 38.7221 17.7619L27.8429 24.7462C27.1996 25.1592 26.4562 25.3769 25.6922 25.3769H14.1482C13.3842 25.3769 12.6408 25.1584 11.9975 24.7462L1.11826 17.7619C1.08252 17.7389 1.06187 17.6968 1.06743 17.6555C1.2358 16.2831 1.55588 14.9281 2.01811 13.628L2.0189 13.6296Z" fill="#6366F1"/>
<path d="M50.4 24.1996C50.44 28.3996 52.24 30.6796 55.48 30.6796C58.8 30.6796 60.68 28.2796 60.68 23.9996V5.59961H65V23.9996C65 30.4796 61.24 34.6396 55.44 34.6396C49.92 34.6396 46.04 30.4396 46 24.5196L50.4 24.1996Z" fill="#080D19"/>
<path d="M68.8169 23.3996C68.8169 16.6796 72.7769 12.3196 78.9369 12.3196C84.0169 12.3196 88.2969 15.7196 88.4969 23.2396L88.5369 24.5996H73.2969C73.5769 28.5596 75.6169 30.8796 78.9369 30.8796C81.0169 30.8796 82.9369 29.6396 83.7769 27.5996L88.2169 27.9196C86.9769 31.9596 83.2569 34.4796 78.9369 34.4796C72.7769 34.4796 68.8169 30.1196 68.8169 23.3996ZM73.3769 21.4396H84.0569C83.5769 17.3996 81.3369 15.9196 78.9369 15.9196C75.8569 15.9196 73.8569 17.9596 73.3769 21.4396Z" fill="#080D19"/>
<path d="M92.2647 12.7996H96.1447L96.2647 16.7996C97.0247 14.0796 98.6247 12.7996 101.345 12.7996H103.385V16.2796H101.305C97.9847 16.2796 96.5047 18.1196 96.5047 21.6396V33.9996H92.2647V12.7996Z" fill="#080D19"/>
<path d="M106.308 12.7996H110.188L110.308 16.7996C111.068 14.0796 112.668 12.7996 115.388 12.7996H117.428V16.2796H115.348C112.028 16.2796 110.548 18.1196 110.548 21.6396V33.9996H106.308V12.7996Z" fill="#080D19"/>
<path d="M119.287 12.7996H123.567L129.567 29.5196L135.407 12.7996H139.687L131.167 36.4796C130.327 38.8796 128.687 39.9996 126.047 39.9996H122.967V36.5596H125.487C126.607 36.5596 127.207 36.1596 127.607 35.1196L128.287 33.3596H127.007L119.287 12.7996Z" fill="#080D19"/>
<path d="M160.102 5.59961V33.9996H156.142L156.022 30.9596C154.822 33.1196 152.342 34.4796 149.422 34.4796C143.902 34.4796 140.462 30.1996 140.462 23.3996C140.462 16.5996 143.902 12.3196 149.422 12.3196C152.182 12.3196 154.662 13.5996 155.862 15.6396V5.59961H160.102ZM144.862 23.3996C144.862 27.9596 147.102 30.8396 150.502 30.8396C153.982 30.8396 156.182 27.9596 156.182 23.3996C156.182 18.7596 153.982 15.8396 150.502 15.8396C147.062 15.8396 144.862 18.7596 144.862 23.3996Z" fill="#080D19"/>
<path d="M164.435 19.1596C165.275 14.8796 168.635 12.3196 173.515 12.3196C179.275 12.3196 182.435 15.5196 182.435 21.3196V29.1996C182.435 30.2796 182.915 30.6796 183.755 30.6796H184.595V33.9996H183.275C181.355 34.0396 178.755 33.7196 178.555 30.7196C177.595 32.7596 175.235 34.4796 171.715 34.4796C167.435 34.4796 164.075 32.1996 164.075 28.4396C164.075 24.1996 167.235 22.9596 172.115 22.0396L178.195 20.8396C178.155 17.4396 176.595 15.7596 173.515 15.7596C171.035 15.7596 169.395 17.0396 168.835 19.4396L164.435 19.1596ZM168.475 28.3596C168.475 29.9196 169.835 31.1996 172.635 31.1996C175.795 31.1596 178.275 28.9196 178.275 24.3596V24.0796L173.755 24.8796C170.835 25.3996 168.475 25.6796 168.475 28.3596Z" fill="#080D19"/>
<path d="M188.473 7.99961H192.713V12.7996H198.313V16.2396H192.713V27.9196C192.713 29.6396 193.553 30.5196 195.193 30.5196H198.273V33.9996H194.753C190.673 33.9996 188.473 31.8796 188.473 27.9196V16.2396H185.233V12.7996H188.473V7.99961Z" fill="#080D19"/>
<path d="M201.038 19.1596C201.878 14.8796 205.238 12.3196 210.118 12.3196C215.878 12.3196 219.038 15.5196 219.038 21.3196V29.1996C219.038 30.2796 219.518 30.6796 220.358 30.6796H221.198V33.9996H219.878C217.958 34.0396 215.358 33.7196 215.158 30.7196C214.198 32.7596 211.838 34.4796 208.318 34.4796C204.038 34.4796 200.678 32.1996 200.678 28.4396C200.678 24.1996 203.838 22.9596 208.718 22.0396L214.798 20.8396C214.758 17.4396 213.198 15.7596 210.118 15.7596C207.638 15.7596 205.998 17.0396 205.438 19.4396L201.038 19.1596ZM205.078 28.3596C205.078 29.9196 206.438 31.1996 209.238 31.1996C212.398 31.1596 214.878 28.9196 214.878 24.3596V24.0796L210.358 24.8796C207.438 25.3996 205.078 25.6796 205.078 28.3596Z" fill="#080D19"/>
</svg>
