<svg width="614" height="33" viewBox="0 0 614 33" fill="none" xmlns="http://www.w3.org/2000/svg">
<g clip-path="url(#clip0_7453_10771)">
<path fill-rule="evenodd" clip-rule="evenodd" d="M605.986 1.05978C605.986 1.05978 605.306 1.22978 604.456 1.39978C603.606 1.39978 602.586 1.56978 602.076 1.56978C601.566 1.73978 600.885 1.73978 600.885 1.90978C600.715 2.07978 600.546 2.07978 600.206 2.07978C600.036 2.07978 599.696 2.07978 599.356 2.24978C598.676 2.41978 597.316 2.58978 596.296 2.75978C595.786 2.92978 594.766 3.26978 593.916 3.26978C593.236 3.43978 592.216 3.43978 591.706 3.60978C591.196 3.60978 590.686 3.77978 590.516 3.77978C590.346 3.94978 589.496 3.94978 588.646 4.11978C583.886 4.45978 582.016 4.62978 579.126 5.30978C578.786 5.47978 577.425 5.30978 576.065 5.47978C574.875 5.47978 573.346 5.47978 572.836 5.64978C572.156 5.81978 571.136 5.81978 570.456 5.81978C567.566 5.81978 564.506 6.15978 562.466 6.15978C559.406 6.66978 557.026 6.83978 553.286 6.83978C551.586 6.83978 549.546 6.83978 549.036 7.00978C548.526 7.00978 547.676 7.17978 547.166 7.17978C546.656 7.17978 545.976 7.17978 545.806 7.34978C545.806 7.34978 543.766 7.51978 541.726 7.51978C539.516 7.51978 537.475 7.51978 537.135 7.68978H530.846C529.656 7.85978 523.536 8.19978 519.966 8.19978C519.286 8.36978 517.246 8.53978 515.546 8.36978C513.846 8.53978 511.296 8.70978 509.766 8.87978C508.406 9.04978 506.366 8.87978 505.516 9.04978C504.666 9.04978 503.136 9.21978 502.116 9.04978C501.096 9.04978 500.076 9.04978 499.736 9.21978C499.396 9.21978 498.206 9.38978 497.016 9.21978C495.826 9.38978 494.296 9.55978 493.786 9.72978H491.746C491.066 9.72978 490.386 9.72978 490.386 9.89978C490.216 9.89978 488.516 10.0698 486.306 9.89978C484.266 10.0698 482.226 9.89978 481.886 10.0698C481.546 10.0698 480.356 10.2398 479.166 10.2398C477.806 10.2398 476.786 10.2398 476.616 10.4098C476.446 10.5798 475.086 10.7498 473.556 10.5798C472.196 10.7498 470.326 10.7498 469.476 10.9198C468.626 10.7498 467.096 10.9198 466.076 10.9198C465.056 11.0898 463.016 10.9198 461.826 11.0898C456.046 11.4298 455.196 11.5998 454.346 11.4298C453.836 11.5998 451.966 11.5998 450.096 11.7698C445.676 11.7698 444.146 11.9398 443.466 12.1098C443.126 12.1098 442.276 12.1098 441.426 12.2798C440.576 12.2798 438.536 12.1098 436.666 12.2798C434.796 12.1098 431.906 12.2798 430.036 12.2798C428.166 12.2798 426.296 12.6198 426.126 12.6198C425.956 12.6198 423.916 12.7898 421.706 12.7898C416.776 12.7898 413.886 12.7898 413.716 12.9598C413.546 13.1298 410.996 13.1298 407.936 13.1298H401.986C401.476 13.2998 399.436 13.2998 397.226 13.1298C395.016 13.2998 392.976 13.4698 392.806 13.6398H389.406C385.326 13.6398 385.156 13.6398 384.306 13.4698H382.946C382.776 13.6398 381.586 13.6398 380.226 13.8098C378.866 13.8098 377.506 13.8098 376.996 13.9798C376.656 13.9798 374.956 14.1498 373.256 13.9798C371.726 13.9798 370.026 13.9798 369.856 14.1498H365.266C363.226 14.1498 361.186 14.1498 361.016 14.3198C360.846 14.3198 359.316 14.6598 357.786 14.4898H354.216C353.876 14.6598 352.856 14.6598 352.006 14.6598C350.476 14.4898 343.846 14.6598 342.826 14.8298H339.086C337.386 14.8298 336.026 14.9998 336.026 14.9998C335.856 14.9998 333.476 14.9998 330.416 14.8298C324.126 14.9998 323.446 14.9998 319.196 15.1698C317.156 15.3398 314.266 15.1698 312.736 15.1698C303.386 15.1698 298.456 15.1698 297.946 15.3398C297.436 15.1698 293.696 15.5098 289.276 15.3398C285.026 15.3398 281.116 15.1698 280.776 15.1698C280.776 15.3398 276.866 15.3398 271.936 15.1698C266.666 15.1698 263.266 14.9998 262.926 15.1698C262.756 15.3398 262.246 15.3398 261.396 15.1698C260.886 15.1698 260.206 14.9998 259.866 15.3398C259.526 15.3398 255.616 15.1698 251.026 15.1698C246.436 14.9998 242.186 15.1698 241.336 15.3398C240.486 15.3398 239.636 15.1698 239.126 15.1698C235.216 14.9998 225.696 14.9998 225.186 15.1698C225.016 15.3398 221.616 15.3398 217.536 15.1698C213.456 15.1698 210.056 14.9998 209.886 15.1698C209.716 15.1698 207.166 15.5098 203.936 15.3398C200.876 15.1698 197.986 15.3398 197.476 15.3398C196.796 15.3398 188.636 15.5098 187.786 15.5098C187.446 15.3398 186.766 15.5098 186.256 15.5098C185.576 15.5098 183.876 15.6798 182.516 15.5098C181.156 15.5098 179.455 15.6798 178.605 15.6798C177.755 15.6798 175.036 15.8498 172.316 15.8498C162.626 15.8498 152.596 16.1898 152.086 16.1898C151.406 16.3598 146.136 16.5298 143.416 16.3598C140.866 16.6998 135.256 16.6998 134.576 16.6998C134.236 16.8698 133.045 16.8698 131.855 16.8698H129.136C128.626 17.0398 125.906 17.0398 121.486 17.2098H119.616C119.446 17.3798 114.516 17.5498 111.116 17.3798C109.586 17.5498 108.056 17.7198 107.716 17.8898C107.036 18.0598 101.766 18.0598 97.0055 18.0598C95.4755 18.0598 93.9455 18.0598 93.6055 18.2298C92.9255 18.3998 88.8455 18.7398 83.7455 18.7398C82.0455 18.5698 80.6855 18.7398 80.5155 18.7398C80.3455 18.9098 77.1155 18.9098 71.1655 19.0798C67.2555 19.0798 66.2355 19.2498 63.5155 19.2498C61.9855 19.2498 60.4555 19.4198 60.2855 19.4198C59.9455 19.5898 58.2455 19.7598 56.7155 19.7598C55.0155 19.9298 51.7855 19.9298 49.5755 19.9298C47.3655 19.9298 44.1355 19.9298 42.7755 20.0998C41.2455 20.2698 39.7155 20.2698 39.5455 20.2698C39.2055 20.4398 37.5055 20.4398 35.6355 20.6098C33.7655 20.4398 32.2355 20.6098 32.2355 20.6098C32.0655 20.6098 31.3855 20.7798 30.8755 20.7798C27.9855 20.6098 21.5255 20.9498 20.3355 20.9498C19.6555 21.1198 18.1255 21.1198 16.9355 21.2898C14.5555 21.2898 11.8355 21.6298 10.6455 21.6298C10.3055 21.6298 8.94551 21.7998 7.92551 22.1398C3.16551 22.1398 0.615511 24.0098 0.445511 27.4098C0.275511 30.8098 2.82551 33.0198 6.73551 32.6798C7.41551 32.5098 8.60551 32.1698 9.28551 32.1698C9.79551 32.1698 11.6655 31.9998 13.1955 31.8298C14.7255 31.6598 16.4255 31.6598 16.9355 31.6598C17.4455 31.6598 17.9555 31.4898 18.1255 31.4898C18.4655 31.3198 19.9955 31.1498 21.8655 31.3198C26.9655 30.9798 29.8555 30.8098 31.8955 30.8098C32.9155 30.6398 34.7855 30.6398 35.9755 30.8098C36.9955 30.8098 38.1855 30.8098 38.3555 30.6398C38.6955 30.4698 40.5655 30.6398 42.9455 30.2998C45.1555 30.2998 48.2155 30.1298 49.7455 30.2998C51.2755 30.1298 54.3355 30.2998 56.3755 30.1298C58.5855 29.7898 60.6255 29.9598 60.9655 29.7898C61.3055 29.6198 62.4955 29.6198 63.5155 29.6198C64.5355 29.7898 65.5555 29.7898 65.8955 29.6198C66.0655 29.6198 67.9355 29.4498 70.3155 29.6198C72.5255 29.4498 75.0755 29.6198 75.9255 29.2798C77.7955 29.1098 82.2155 28.9398 85.6155 28.9398C86.8055 28.9398 87.8255 29.1098 88.1655 28.9398C88.3355 28.9398 89.6955 28.7698 91.2255 28.7698C92.7555 28.5998 94.4555 28.5998 94.9655 28.4298C96.8355 28.2598 101.086 28.2598 103.806 28.2598C105.336 28.0898 108.566 28.0898 110.946 27.7498C113.156 27.9198 116.556 27.7498 118.426 27.7498C120.296 27.5798 121.996 27.7498 122.336 27.7498C122.506 27.5798 123.696 27.5798 124.886 27.4098C125.906 27.4098 127.266 27.4098 127.606 27.2398C129.306 27.0698 134.406 27.0698 136.786 27.0698C138.146 27.0698 140.016 27.2398 141.036 27.0698C141.886 26.8998 143.416 26.7298 144.266 26.5598C145.116 26.7298 147.326 26.7298 149.366 26.5598C151.236 26.7298 153.956 26.5598 155.316 26.7298C156.676 26.5598 158.206 26.3898 158.546 26.3898C159.226 26.3898 165.175 26.2198 172.995 26.0498C174.525 26.2198 176.226 26.0498 176.736 25.8798C177.076 25.7098 180.136 25.8798 183.536 25.8798C191.696 25.7098 196.796 25.5398 197.646 25.7098C198.496 25.5398 209.886 25.5398 211.416 25.5398C211.926 25.7098 212.435 25.7098 212.605 25.5398C212.945 25.3698 215.666 25.3698 219.236 25.5398C222.466 25.7098 225.526 25.5398 225.696 25.5398C225.866 25.3698 229.606 25.3698 234.026 25.3698C238.446 25.5398 242.016 25.5398 242.186 25.5398C242.356 25.5398 244.566 25.1998 247.116 25.3698C252.896 25.5398 260.206 25.5398 261.736 25.3698C262.416 25.3698 266.326 25.5398 270.576 25.5398C274.656 25.7098 278.396 25.5398 278.566 25.5398C278.906 25.3698 281.286 25.3698 284.006 25.5398C289.956 25.7098 297.946 25.7098 300.496 25.5398C303.046 25.7098 310.866 25.3698 319.536 25.5398C323.106 25.5398 326.676 25.7098 327.186 25.5398C327.866 25.1998 329.226 25.1998 330.246 25.1998C331.266 25.3698 332.286 25.1998 332.626 25.1998C333.136 25.0298 333.306 25.0298 333.476 25.1998C333.816 25.3698 335.516 25.5398 335.856 25.3698C335.856 25.3698 337.726 25.1998 340.106 25.0298C342.316 25.1998 344.356 25.0298 344.696 24.8598C345.376 25.0298 350.476 24.8598 353.196 24.6898C354.556 24.8598 357.276 24.6898 359.316 24.8598C365.436 24.5198 368.496 24.3498 374.956 24.5198C378.526 24.3498 381.926 24.1798 382.436 24.0098H390.766C393.316 24.0098 395.526 23.8398 395.696 23.6698C395.866 23.6698 396.546 23.6698 397.226 23.4998C400.456 23.6698 404.536 23.6698 404.876 23.4998H409.296C411.676 23.3298 415.416 23.1598 417.796 23.3298C420.006 23.1598 423.066 23.1598 424.596 22.9898C425.956 22.9898 427.146 23.1598 427.316 22.9898C427.486 22.9898 428.506 22.8198 429.696 22.6498C431.056 22.8198 432.756 22.6498 433.606 22.6498C434.456 22.4798 436.836 22.6498 439.046 22.4798C441.256 22.6498 443.296 22.4798 443.806 22.4798C444.146 22.3098 445.846 22.1398 447.716 22.1398C449.416 21.9698 451.626 22.1398 452.476 21.9698C453.326 21.9698 454.176 21.9698 454.516 21.7998C454.856 21.9698 456.046 21.9698 457.066 21.7998C458.086 21.7998 459.446 21.6298 460.296 21.7998C460.976 21.6298 463.186 21.2898 465.226 21.4598C467.096 21.4598 468.796 21.2898 468.966 21.2898C469.136 21.2898 470.496 21.1198 472.026 21.1198C473.386 20.9498 475.426 20.9498 476.276 20.9498C477.126 20.7798 479.166 20.6098 480.866 20.6098C482.396 20.4398 483.756 20.4398 483.926 20.4398C484.096 20.2698 484.266 20.2698 484.436 20.2698C484.946 20.4398 489.026 20.4398 493.446 20.0998C495.146 20.0998 498.036 19.9298 500.076 19.7598C501.946 19.5898 503.816 19.7598 504.156 19.5898C504.836 19.5898 507.556 19.4198 510.786 19.2498C512.316 19.0798 514.186 19.0798 515.036 18.9098C515.886 18.7398 517.416 18.9098 518.436 18.9098C519.456 18.9098 520.646 18.9098 521.156 18.7398C521.326 18.5698 523.195 18.7398 525.065 18.5698C527.105 18.5698 529.486 18.2298 530.676 18.2298C531.866 18.2298 533.566 18.2298 534.586 18.0598C535.606 18.0598 537.816 18.2298 539.346 18.0598C541.046 18.0598 543.596 18.0598 545.126 17.8898C546.656 17.8898 548.016 17.7198 548.016 17.7198C548.186 17.5498 551.756 17.3798 555.156 17.3798C556.516 17.3798 557.876 17.2098 558.046 17.2098C558.386 17.0398 559.746 17.0398 561.276 17.0398C562.806 16.6998 564.165 16.6998 564.505 16.6998C566.545 16.5298 567.565 16.3598 569.945 16.3598C571.305 16.3598 572.666 16.3598 572.836 16.1898C573.176 16.0198 574.366 16.1898 575.726 16.0198C576.916 15.8498 578.446 15.8498 579.126 15.8498C579.636 15.6798 581.166 15.3398 582.356 15.3398C583.546 15.3398 584.906 14.9998 585.586 14.9998C586.946 14.8298 590.006 14.4898 591.706 14.3198C593.066 14.3198 594.766 13.9798 596.466 13.4698C596.976 13.2998 597.826 13.2998 598.336 13.2998C598.846 13.2998 599.526 13.1298 599.866 13.1298C600.376 12.9598 600.545 12.9598 600.885 13.2998C602.925 15.3398 606.156 14.8298 609.896 12.1098C614.486 8.70978 613.976 2.75978 609.216 1.39978C608.196 1.05978 606.156 0.719778 605.986 1.05978Z" fill="#6366F1"/>
</g>
<defs>
<clipPath id="clip0_7453_10771">
<rect width="614" height="33" fill="white"/>
</clipPath>
</defs>
</svg>
